%TF.GenerationSoftware,KiCad,Pcbnew,9.0.2*%
%TF.CreationDate,2025-12-26T22:19:25-06:00*%
%TF.ProjectId,DE_circuits,44455f63-6972-4637-9569-74732e6b6963,rev?*%
%TF.SameCoordinates,Original*%
%TF.FileFunction,Drillmap*%
%TF.FilePolarity,Positive*%
%FSLAX45Y45*%
G04 Gerber Fmt 4.5, Leading zero omitted, Abs format (unit mm)*
G04 Created by KiCad (PCBNEW 9.0.2) date 2025-12-26 22:19:25*
%MOMM*%
%LPD*%
G01*
G04 APERTURE LIST*
%ADD10C,0.200000*%
%ADD11C,0.100000*%
%ADD12C,0.119888*%
%ADD13C,0.120000*%
%ADD14C,0.160000*%
G04 APERTURE END LIST*
D10*
X1820000Y-10700000D02*
X15560000Y-10700000D01*
X15560000Y-19020000D01*
X1820000Y-19020000D01*
X1820000Y-10700000D01*
X2640000Y-11193136D02*
G75*
G02*
X1960000Y-11193136I-340000J0D01*
G01*
X1960000Y-11193136D02*
G75*
G02*
X2640000Y-11193136I340000J0D01*
G01*
X15420000Y-11200000D02*
G75*
G02*
X14740000Y-11200000I-340000J0D01*
G01*
X14740000Y-11200000D02*
G75*
G02*
X15420000Y-11200000I340000J0D01*
G01*
X15420000Y-18540000D02*
G75*
G02*
X14740000Y-18540000I-340000J0D01*
G01*
X14740000Y-18540000D02*
G75*
G02*
X15420000Y-18540000I340000J0D01*
G01*
X2640000Y-18540000D02*
G75*
G02*
X1960000Y-18540000I-340000J0D01*
G01*
X1960000Y-18540000D02*
G75*
G02*
X2640000Y-18540000I340000J0D01*
G01*
D11*
X3440270Y-14696030D02*
X3470270Y-14726030D01*
X3470270Y-14696030D02*
X3440270Y-14726030D01*
X6409360Y-12015290D02*
X6439360Y-12045290D01*
X6439360Y-12015290D02*
X6409360Y-12045290D01*
X6679600Y-17972490D02*
X6709600Y-18002490D01*
X6709600Y-17972490D02*
X6679600Y-18002490D01*
X6819040Y-17376770D02*
X6849040Y-17406770D01*
X6849040Y-17376770D02*
X6819040Y-17406770D01*
X7724290Y-15237980D02*
X7754290Y-15267980D01*
X7754290Y-15237980D02*
X7724290Y-15267980D01*
X8625160Y-14100310D02*
X8655160Y-14130310D01*
X8655160Y-14100310D02*
X8625160Y-14130310D01*
X10021350Y-16185330D02*
X10051350Y-16215330D01*
X10051350Y-16185330D02*
X10021350Y-16215330D01*
X12681020Y-15042120D02*
X12711020Y-15072120D01*
X12711020Y-15042120D02*
X12681020Y-15072120D01*
X12967830Y-16092120D02*
X12997830Y-16122120D01*
X12997830Y-16092120D02*
X12967830Y-16122120D01*
X7780000Y-15980000D02*
G75*
G02*
X7720000Y-15980000I-30000J0D01*
G01*
X7720000Y-15980000D02*
G75*
G02*
X7780000Y-15980000I30000J0D01*
G01*
X7930000Y-15980000D02*
G75*
G02*
X7870000Y-15980000I-30000J0D01*
G01*
X7870000Y-15980000D02*
G75*
G02*
X7930000Y-15980000I30000J0D01*
G01*
X11740000Y-13060000D02*
G75*
G02*
X11680000Y-13060000I-30000J0D01*
G01*
X11680000Y-13060000D02*
G75*
G02*
X11740000Y-13060000I30000J0D01*
G01*
X11890000Y-13060000D02*
G75*
G02*
X11830000Y-13060000I-30000J0D01*
G01*
X11830000Y-13060000D02*
G75*
G02*
X11890000Y-13060000I30000J0D01*
G01*
X7725000Y-12082500D02*
X7725000Y-12157500D01*
X7687500Y-12120000D02*
X7762500Y-12120000D01*
X7852000Y-11955500D02*
X7852000Y-12030500D01*
X7814500Y-11993000D02*
X7889500Y-11993000D01*
X7852000Y-12209500D02*
X7852000Y-12284500D01*
X7814500Y-12247000D02*
X7889500Y-12247000D01*
X8026000Y-16902500D02*
X8026000Y-16977500D01*
X7988500Y-16940000D02*
X8063500Y-16940000D01*
X8153000Y-16775500D02*
X8153000Y-16850500D01*
X8115500Y-16813000D02*
X8190500Y-16813000D01*
X8153000Y-17029500D02*
X8153000Y-17104500D01*
X8115500Y-17067000D02*
X8190500Y-17067000D01*
X12286000Y-15502500D02*
X12286000Y-15577500D01*
X12248500Y-15540000D02*
X12323500Y-15540000D01*
X12413000Y-15629500D02*
X12413000Y-15704500D01*
X12375500Y-15667000D02*
X12450500Y-15667000D01*
X12540000Y-15502500D02*
X12540000Y-15577500D01*
X12502500Y-15540000D02*
X12577500Y-15540000D01*
X13873000Y-14975500D02*
X13873000Y-15050500D01*
X13835500Y-15013000D02*
X13910500Y-15013000D01*
X14000000Y-14848500D02*
X14000000Y-14923500D01*
X13962500Y-14886000D02*
X14037500Y-14886000D01*
X14000000Y-15102500D02*
X14000000Y-15177500D01*
X13962500Y-15140000D02*
X14037500Y-15140000D01*
X4928285Y-16188284D02*
X4928285Y-16131715D01*
X4871716Y-16131715D01*
X4871716Y-16188284D01*
X4928285Y-16188284D01*
X4928285Y-17458285D02*
X4928285Y-17401716D01*
X4871716Y-17401716D01*
X4871716Y-17458285D01*
X4928285Y-17458285D01*
X5278285Y-12988284D02*
X5278285Y-12931715D01*
X5221716Y-12931715D01*
X5221716Y-12988284D01*
X5278285Y-12988284D01*
X5318285Y-18548285D02*
X5318285Y-18491716D01*
X5261716Y-18491716D01*
X5261716Y-18548285D01*
X5318285Y-18548285D01*
X5328285Y-17718285D02*
X5328285Y-17661716D01*
X5271716Y-17661716D01*
X5271716Y-17718285D01*
X5328285Y-17718285D01*
X5328285Y-17968285D02*
X5328285Y-17911716D01*
X5271716Y-17911716D01*
X5271716Y-17968285D01*
X5328285Y-17968285D01*
X5418285Y-17308285D02*
X5418285Y-17251716D01*
X5361716Y-17251716D01*
X5361716Y-17308285D01*
X5418285Y-17308285D01*
X5448285Y-11193284D02*
X5448285Y-11136716D01*
X5391716Y-11136716D01*
X5391716Y-11193284D01*
X5448285Y-11193284D01*
X5448285Y-12463284D02*
X5448285Y-12406715D01*
X5391716Y-12406715D01*
X5391716Y-12463284D01*
X5448285Y-12463284D01*
X5448285Y-13503284D02*
X5448285Y-13446715D01*
X5391716Y-13446715D01*
X5391716Y-13503284D01*
X5448285Y-13503284D01*
X5448285Y-13753284D02*
X5448285Y-13696715D01*
X5391716Y-13696715D01*
X5391716Y-13753284D01*
X5448285Y-13753284D01*
X5458285Y-16708284D02*
X5458285Y-16651715D01*
X5401716Y-16651715D01*
X5401716Y-16708284D01*
X5458285Y-16708284D01*
X5468285Y-15763284D02*
X5468285Y-15706715D01*
X5411716Y-15706715D01*
X5411716Y-15763284D01*
X5468285Y-15763284D01*
X5468285Y-16013284D02*
X5468285Y-15956715D01*
X5411716Y-15956715D01*
X5411716Y-16013284D01*
X5468285Y-16013284D01*
X5528285Y-12988284D02*
X5528285Y-12931715D01*
X5471716Y-12931715D01*
X5471716Y-12988284D01*
X5528285Y-12988284D01*
X5568285Y-14113284D02*
X5568285Y-14056715D01*
X5511716Y-14056715D01*
X5511716Y-14113284D01*
X5568285Y-14113284D01*
X5568285Y-15383284D02*
X5568285Y-15326715D01*
X5511716Y-15326715D01*
X5511716Y-15383284D01*
X5568285Y-15383284D01*
X6046284Y-15486284D02*
X6046284Y-15429715D01*
X5989715Y-15429715D01*
X5989715Y-15486284D01*
X6046284Y-15486284D01*
X6046284Y-16248284D02*
X6046284Y-16191715D01*
X5989715Y-16191715D01*
X5989715Y-16248284D01*
X6046284Y-16248284D01*
X6087284Y-13226784D02*
X6087284Y-13170215D01*
X6030715Y-13170215D01*
X6030715Y-13226784D01*
X6087284Y-13226784D01*
X6087284Y-13988784D02*
X6087284Y-13932215D01*
X6030715Y-13932215D01*
X6030715Y-13988784D01*
X6087284Y-13988784D01*
X6248284Y-11713284D02*
X6248284Y-11656715D01*
X6191715Y-11656715D01*
X6191715Y-11713284D01*
X6248284Y-11713284D01*
X6248284Y-12983284D02*
X6248284Y-12926715D01*
X6191715Y-12926715D01*
X6191715Y-12983284D01*
X6248284Y-12983284D01*
X6300284Y-15486284D02*
X6300284Y-15429715D01*
X6243715Y-15429715D01*
X6243715Y-15486284D01*
X6300284Y-15486284D01*
X6300284Y-16248284D02*
X6300284Y-16191715D01*
X6243715Y-16191715D01*
X6243715Y-16248284D01*
X6300284Y-16248284D01*
X6341284Y-13226784D02*
X6341284Y-13170215D01*
X6284715Y-13170215D01*
X6284715Y-13226784D01*
X6341284Y-13226784D01*
X6341284Y-13988784D02*
X6341284Y-13932215D01*
X6284715Y-13932215D01*
X6284715Y-13988784D01*
X6341284Y-13988784D01*
X6554284Y-15486284D02*
X6554284Y-15429715D01*
X6497715Y-15429715D01*
X6497715Y-15486284D01*
X6554284Y-15486284D01*
X6554284Y-16248284D02*
X6554284Y-16191715D01*
X6497715Y-16191715D01*
X6497715Y-16248284D01*
X6554284Y-16248284D01*
X6588284Y-18548285D02*
X6588284Y-18491716D01*
X6531715Y-18491716D01*
X6531715Y-18548285D01*
X6588284Y-18548285D01*
X6595284Y-13226784D02*
X6595284Y-13170215D01*
X6538715Y-13170215D01*
X6538715Y-13226784D01*
X6595284Y-13226784D01*
X6595284Y-13988784D02*
X6595284Y-13932215D01*
X6538715Y-13932215D01*
X6538715Y-13988784D01*
X6595284Y-13988784D01*
X6688284Y-11713284D02*
X6688284Y-11656715D01*
X6631715Y-11656715D01*
X6631715Y-11713284D01*
X6688284Y-11713284D01*
X6688284Y-12983284D02*
X6688284Y-12926715D01*
X6631715Y-12926715D01*
X6631715Y-12983284D01*
X6688284Y-12983284D01*
X6688284Y-17308285D02*
X6688284Y-17251716D01*
X6631715Y-17251716D01*
X6631715Y-17308285D01*
X6688284Y-17308285D01*
X6728284Y-16708284D02*
X6728284Y-16651715D01*
X6671715Y-16651715D01*
X6671715Y-16708284D01*
X6728284Y-16708284D01*
X6808284Y-15486284D02*
X6808284Y-15429715D01*
X6751715Y-15429715D01*
X6751715Y-15486284D01*
X6808284Y-15486284D01*
X6808284Y-16248284D02*
X6808284Y-16191715D01*
X6751715Y-16191715D01*
X6751715Y-16248284D01*
X6808284Y-16248284D01*
X6849284Y-13226784D02*
X6849284Y-13170215D01*
X6792715Y-13170215D01*
X6792715Y-13226784D01*
X6849284Y-13226784D01*
X6849284Y-13988784D02*
X6849284Y-13932215D01*
X6792715Y-13932215D01*
X6792715Y-13988784D01*
X6849284Y-13988784D01*
X7073284Y-18188285D02*
X7073284Y-18131716D01*
X7016715Y-18131716D01*
X7016715Y-18188285D01*
X7073284Y-18188285D01*
X7128284Y-11713284D02*
X7128284Y-11656715D01*
X7071715Y-11656715D01*
X7071715Y-11713284D01*
X7128284Y-11713284D01*
X7128284Y-12983284D02*
X7128284Y-12926715D01*
X7071715Y-12926715D01*
X7071715Y-12983284D01*
X7128284Y-12983284D01*
X7333284Y-13348284D02*
X7333284Y-13291715D01*
X7276715Y-13291715D01*
X7276715Y-13348284D01*
X7333284Y-13348284D01*
X7388284Y-16493284D02*
X7388284Y-16436715D01*
X7331715Y-16436715D01*
X7331715Y-16493284D01*
X7388284Y-16493284D01*
X7388284Y-17763285D02*
X7388284Y-17706716D01*
X7331715Y-17706716D01*
X7331715Y-17763285D01*
X7388284Y-17763285D01*
X8343284Y-18188285D02*
X8343284Y-18131716D01*
X8286715Y-18131716D01*
X8286715Y-18188285D01*
X8343284Y-18188285D01*
X8393285Y-12148284D02*
X8393285Y-12091715D01*
X8336715Y-12091715D01*
X8336715Y-12148284D01*
X8393285Y-12148284D01*
X8458285Y-15868284D02*
X8458285Y-15811715D01*
X8401716Y-15811715D01*
X8401716Y-15868284D01*
X8458285Y-15868284D01*
X8603285Y-13348284D02*
X8603285Y-13291715D01*
X8546716Y-13291715D01*
X8546716Y-13348284D01*
X8603285Y-13348284D01*
X8708285Y-15868284D02*
X8708285Y-15811715D01*
X8651716Y-15811715D01*
X8651716Y-15868284D01*
X8708285Y-15868284D01*
X8933285Y-16853285D02*
X8933285Y-16796716D01*
X8876716Y-16796716D01*
X8876716Y-16853285D01*
X8933285Y-16853285D01*
X8933285Y-18123285D02*
X8933285Y-18066716D01*
X8876716Y-18066716D01*
X8876716Y-18123285D01*
X8933285Y-18123285D01*
X9013285Y-12868284D02*
X9013285Y-12811715D01*
X8956716Y-12811715D01*
X8956716Y-12868284D01*
X9013285Y-12868284D01*
X9028285Y-13388284D02*
X9028285Y-13331715D01*
X8971716Y-13331715D01*
X8971716Y-13388284D01*
X9028285Y-13388284D01*
X9128285Y-14503284D02*
X9128285Y-14446715D01*
X9071716Y-14446715D01*
X9071716Y-14503284D01*
X9128285Y-14503284D01*
X9128285Y-14753284D02*
X9128285Y-14696715D01*
X9071716Y-14696715D01*
X9071716Y-14753284D01*
X9128285Y-14753284D01*
X9428285Y-15273284D02*
X9428285Y-15216715D01*
X9371716Y-15216715D01*
X9371716Y-15273284D01*
X9428285Y-15273284D01*
X9428285Y-16543284D02*
X9428285Y-16486715D01*
X9371716Y-16486715D01*
X9371716Y-16543284D01*
X9428285Y-16543284D01*
X9663285Y-12148284D02*
X9663285Y-12091715D01*
X9606716Y-12091715D01*
X9606716Y-12148284D01*
X9663285Y-12148284D01*
X9758285Y-16988285D02*
X9758285Y-16931716D01*
X9701716Y-16931716D01*
X9701716Y-16988285D01*
X9758285Y-16988285D01*
X10258285Y-12148284D02*
X10258285Y-12091715D01*
X10201716Y-12091715D01*
X10201716Y-12148284D01*
X10258285Y-12148284D01*
X10283285Y-12868284D02*
X10283285Y-12811715D01*
X10226716Y-12811715D01*
X10226716Y-12868284D01*
X10283285Y-12868284D01*
X10298285Y-13388284D02*
X10298285Y-13331715D01*
X10241716Y-13331715D01*
X10241716Y-13388284D01*
X10298285Y-13388284D01*
X10558285Y-16008284D02*
X10558285Y-15951715D01*
X10501716Y-15951715D01*
X10501716Y-16008284D01*
X10558285Y-16008284D01*
X10978285Y-13368284D02*
X10978285Y-13311715D01*
X10921716Y-13311715D01*
X10921716Y-13368284D01*
X10978285Y-13368284D01*
X11028285Y-16988285D02*
X11028285Y-16931716D01*
X10971716Y-16931716D01*
X10971716Y-16988285D01*
X11028285Y-16988285D01*
X11228284Y-13368284D02*
X11228284Y-13311715D01*
X11171716Y-13311715D01*
X11171716Y-13368284D01*
X11228284Y-13368284D01*
X11318284Y-16568284D02*
X11318284Y-16511715D01*
X11261715Y-16511715D01*
X11261715Y-16568284D01*
X11318284Y-16568284D01*
X11528284Y-12148284D02*
X11528284Y-12091715D01*
X11471715Y-12091715D01*
X11471715Y-12148284D01*
X11528284Y-12148284D01*
X11828284Y-16008284D02*
X11828284Y-15951715D01*
X11771715Y-15951715D01*
X11771715Y-16008284D01*
X11828284Y-16008284D01*
X12068284Y-14478284D02*
X12068284Y-14421715D01*
X12011715Y-14421715D01*
X12011715Y-14478284D01*
X12068284Y-14478284D01*
X12068284Y-14728284D02*
X12068284Y-14671715D01*
X12011715Y-14671715D01*
X12011715Y-14728284D01*
X12068284Y-14728284D01*
X12378284Y-13748284D02*
X12378284Y-13691715D01*
X12321715Y-13691715D01*
X12321715Y-13748284D01*
X12378284Y-13748284D01*
X12393284Y-13168284D02*
X12393284Y-13111715D01*
X12336715Y-13111715D01*
X12336715Y-13168284D01*
X12393284Y-13168284D01*
X12588284Y-16568284D02*
X12588284Y-16511715D01*
X12531715Y-16511715D01*
X12531715Y-16568284D01*
X12588284Y-16568284D01*
X12667284Y-14166784D02*
X12667284Y-14110215D01*
X12610715Y-14110215D01*
X12610715Y-14166784D01*
X12667284Y-14166784D01*
X12667284Y-14928784D02*
X12667284Y-14872215D01*
X12610715Y-14872215D01*
X12610715Y-14928784D01*
X12667284Y-14928784D01*
X12921284Y-14166784D02*
X12921284Y-14110215D01*
X12864715Y-14110215D01*
X12864715Y-14166784D01*
X12921284Y-14166784D01*
X12921284Y-14928784D02*
X12921284Y-14872215D01*
X12864715Y-14872215D01*
X12864715Y-14928784D01*
X12921284Y-14928784D01*
X12933284Y-15668284D02*
X12933284Y-15611715D01*
X12876715Y-15611715D01*
X12876715Y-15668284D01*
X12933284Y-15668284D01*
X12933284Y-16308284D02*
X12933284Y-16251715D01*
X12876715Y-16251715D01*
X12876715Y-16308284D01*
X12933284Y-16308284D01*
X13013284Y-17208285D02*
X13013284Y-17151716D01*
X12956715Y-17151716D01*
X12956715Y-17208285D01*
X13013284Y-17208285D01*
X13175284Y-14166784D02*
X13175284Y-14110215D01*
X13118715Y-14110215D01*
X13118715Y-14166784D01*
X13175284Y-14166784D01*
X13175284Y-14928784D02*
X13175284Y-14872215D01*
X13118715Y-14872215D01*
X13118715Y-14928784D01*
X13175284Y-14928784D01*
X13429284Y-14166784D02*
X13429284Y-14110215D01*
X13372715Y-14110215D01*
X13372715Y-14166784D01*
X13429284Y-14166784D01*
X13429284Y-14928784D02*
X13429284Y-14872215D01*
X13372715Y-14872215D01*
X13372715Y-14928784D01*
X13429284Y-14928784D01*
X13648284Y-13748284D02*
X13648284Y-13691715D01*
X13591715Y-13691715D01*
X13591715Y-13748284D01*
X13648284Y-13748284D01*
X13663284Y-13168284D02*
X13663284Y-13111715D01*
X13606715Y-13111715D01*
X13606715Y-13168284D01*
X13663284Y-13168284D01*
X14078284Y-13768284D02*
X14078284Y-13711715D01*
X14021715Y-13711715D01*
X14021715Y-13768284D01*
X14078284Y-13768284D01*
X14088284Y-14298284D02*
X14088284Y-14241715D01*
X14031715Y-14241715D01*
X14031715Y-14298284D01*
X14088284Y-14298284D01*
X14088284Y-14548284D02*
X14088284Y-14491715D01*
X14031715Y-14491715D01*
X14031715Y-14548284D01*
X14088284Y-14548284D01*
X14203284Y-15668284D02*
X14203284Y-15611715D01*
X14146715Y-15611715D01*
X14146715Y-15668284D01*
X14203284Y-15668284D01*
X14203284Y-16308284D02*
X14203284Y-16251715D01*
X14146715Y-16251715D01*
X14146715Y-16308284D01*
X14203284Y-16308284D01*
X14283284Y-17208285D02*
X14283284Y-17151716D01*
X14226715Y-17151716D01*
X14226715Y-17208285D01*
X14283284Y-17208285D01*
X14328284Y-13768284D02*
X14328284Y-13711715D01*
X14271715Y-13711715D01*
X14271715Y-13768284D01*
X14328284Y-13768284D01*
X14828284Y-14893284D02*
X14828284Y-14836715D01*
X14771715Y-14836715D01*
X14771715Y-14893284D01*
X14828284Y-14893284D01*
X14828284Y-16163284D02*
X14828284Y-16106715D01*
X14771715Y-16106715D01*
X14771715Y-16163284D01*
X14828284Y-16163284D01*
X5990000Y-17835000D02*
X6035000Y-17790000D01*
X5990000Y-17745000D01*
X5945000Y-17790000D01*
X5990000Y-17835000D01*
X6070000Y-11220000D02*
X6115000Y-11175000D01*
X6070000Y-11130000D01*
X6025000Y-11175000D01*
X6070000Y-11220000D01*
X6211500Y-14578000D02*
X6256500Y-14533000D01*
X6211500Y-14488000D01*
X6166500Y-14533000D01*
X6211500Y-14578000D01*
X6211500Y-14832000D02*
X6256500Y-14787000D01*
X6211500Y-14742000D01*
X6166500Y-14787000D01*
X6211500Y-14832000D01*
X6240000Y-18085000D02*
X6285000Y-18040000D01*
X6240000Y-17995000D01*
X6195000Y-18040000D01*
X6240000Y-18085000D01*
X6320000Y-10970000D02*
X6365000Y-10925000D01*
X6320000Y-10880000D01*
X6275000Y-10925000D01*
X6320000Y-10970000D01*
X6490000Y-17835000D02*
X6535000Y-17790000D01*
X6490000Y-17745000D01*
X6445000Y-17790000D01*
X6490000Y-17835000D01*
X6570000Y-11220000D02*
X6615000Y-11175000D01*
X6570000Y-11130000D01*
X6525000Y-11175000D01*
X6570000Y-11220000D01*
X9591500Y-14518000D02*
X9636500Y-14473000D01*
X9591500Y-14428000D01*
X9546500Y-14473000D01*
X9591500Y-14518000D01*
X9591500Y-14772000D02*
X9636500Y-14727000D01*
X9591500Y-14682000D01*
X9546500Y-14727000D01*
X9591500Y-14772000D01*
X7510000Y-14050000D02*
X7610000Y-14150000D01*
X7610000Y-14050000D02*
X7510000Y-14150000D01*
X7610000Y-14100000D02*
G75*
G02*
X7510000Y-14100000I-50000J0D01*
G01*
X7510000Y-14100000D02*
G75*
G02*
X7610000Y-14100000I50000J0D01*
G01*
X7510000Y-14050000D02*
X7510000Y-14150000D01*
X7610000Y-14150000D02*
G75*
G02*
X7510000Y-14150000I-50000J0D01*
G01*
X7610000Y-14150000D02*
X7610000Y-14050000D01*
X7610000Y-14050000D02*
G75*
G03*
X7510000Y-14050000I-50000J0D01*
G01*
X7510000Y-14580000D02*
X7610000Y-14680000D01*
X7610000Y-14580000D02*
X7510000Y-14680000D01*
X7610000Y-14630000D02*
G75*
G02*
X7510000Y-14630000I-50000J0D01*
G01*
X7510000Y-14630000D02*
G75*
G02*
X7610000Y-14630000I50000J0D01*
G01*
X7510000Y-14580000D02*
X7510000Y-14680000D01*
X7610000Y-14680000D02*
G75*
G02*
X7510000Y-14680000I-50000J0D01*
G01*
X7610000Y-14680000D02*
X7610000Y-14580000D01*
X7610000Y-14580000D02*
G75*
G03*
X7510000Y-14580000I-50000J0D01*
G01*
X7510000Y-15110000D02*
X7610000Y-15210000D01*
X7610000Y-15110000D02*
X7510000Y-15210000D01*
X7610000Y-15160000D02*
G75*
G02*
X7510000Y-15160000I-50000J0D01*
G01*
X7510000Y-15160000D02*
G75*
G02*
X7610000Y-15160000I50000J0D01*
G01*
X7510000Y-15110000D02*
X7510000Y-15210000D01*
X7610000Y-15210000D02*
G75*
G02*
X7510000Y-15210000I-50000J0D01*
G01*
X7610000Y-15210000D02*
X7610000Y-15110000D01*
X7610000Y-15110000D02*
G75*
G03*
X7510000Y-15110000I-50000J0D01*
G01*
X7980000Y-14050000D02*
X8080000Y-14150000D01*
X8080000Y-14050000D02*
X7980000Y-14150000D01*
X8080000Y-14100000D02*
G75*
G02*
X7980000Y-14100000I-50000J0D01*
G01*
X7980000Y-14100000D02*
G75*
G02*
X8080000Y-14100000I50000J0D01*
G01*
X7980000Y-14050000D02*
X7980000Y-14150000D01*
X8080000Y-14150000D02*
G75*
G02*
X7980000Y-14150000I-50000J0D01*
G01*
X8080000Y-14150000D02*
X8080000Y-14050000D01*
X8080000Y-14050000D02*
G75*
G03*
X7980000Y-14050000I-50000J0D01*
G01*
X7980000Y-14580000D02*
X8080000Y-14680000D01*
X8080000Y-14580000D02*
X7980000Y-14680000D01*
X8080000Y-14630000D02*
G75*
G02*
X7980000Y-14630000I-50000J0D01*
G01*
X7980000Y-14630000D02*
G75*
G02*
X8080000Y-14630000I50000J0D01*
G01*
X7980000Y-14580000D02*
X7980000Y-14680000D01*
X8080000Y-14680000D02*
G75*
G02*
X7980000Y-14680000I-50000J0D01*
G01*
X8080000Y-14680000D02*
X8080000Y-14580000D01*
X8080000Y-14580000D02*
G75*
G03*
X7980000Y-14580000I-50000J0D01*
G01*
X7980000Y-15110000D02*
X8080000Y-15210000D01*
X8080000Y-15110000D02*
X7980000Y-15210000D01*
X8080000Y-15160000D02*
G75*
G02*
X7980000Y-15160000I-50000J0D01*
G01*
X7980000Y-15160000D02*
G75*
G02*
X8080000Y-15160000I50000J0D01*
G01*
X7980000Y-15110000D02*
X7980000Y-15210000D01*
X8080000Y-15210000D02*
G75*
G02*
X7980000Y-15210000I-50000J0D01*
G01*
X8080000Y-15210000D02*
X8080000Y-15110000D01*
X8080000Y-15110000D02*
G75*
G03*
X7980000Y-15110000I-50000J0D01*
G01*
X8450000Y-14050000D02*
X8550000Y-14150000D01*
X8550000Y-14050000D02*
X8450000Y-14150000D01*
X8550000Y-14100000D02*
G75*
G02*
X8450000Y-14100000I-50000J0D01*
G01*
X8450000Y-14100000D02*
G75*
G02*
X8550000Y-14100000I50000J0D01*
G01*
X8450000Y-14050000D02*
X8450000Y-14150000D01*
X8550000Y-14150000D02*
G75*
G02*
X8450000Y-14150000I-50000J0D01*
G01*
X8550000Y-14150000D02*
X8550000Y-14050000D01*
X8550000Y-14050000D02*
G75*
G03*
X8450000Y-14050000I-50000J0D01*
G01*
X8450000Y-14580000D02*
X8550000Y-14680000D01*
X8550000Y-14580000D02*
X8450000Y-14680000D01*
X8550000Y-14630000D02*
G75*
G02*
X8450000Y-14630000I-50000J0D01*
G01*
X8450000Y-14630000D02*
G75*
G02*
X8550000Y-14630000I50000J0D01*
G01*
X8450000Y-14580000D02*
X8450000Y-14680000D01*
X8550000Y-14680000D02*
G75*
G02*
X8450000Y-14680000I-50000J0D01*
G01*
X8550000Y-14680000D02*
X8550000Y-14580000D01*
X8550000Y-14580000D02*
G75*
G03*
X8450000Y-14580000I-50000J0D01*
G01*
X8450000Y-15110000D02*
X8550000Y-15210000D01*
X8550000Y-15110000D02*
X8450000Y-15210000D01*
X8550000Y-15160000D02*
G75*
G02*
X8450000Y-15160000I-50000J0D01*
G01*
X8450000Y-15160000D02*
G75*
G02*
X8550000Y-15160000I50000J0D01*
G01*
X8450000Y-15110000D02*
X8450000Y-15210000D01*
X8550000Y-15210000D02*
G75*
G02*
X8450000Y-15210000I-50000J0D01*
G01*
X8550000Y-15210000D02*
X8550000Y-15110000D01*
X8550000Y-15110000D02*
G75*
G03*
X8450000Y-15110000I-50000J0D01*
G01*
X10470000Y-14050000D02*
X10570000Y-14150000D01*
X10570000Y-14050000D02*
X10470000Y-14150000D01*
X10570000Y-14100000D02*
G75*
G02*
X10470000Y-14100000I-50000J0D01*
G01*
X10470000Y-14100000D02*
G75*
G02*
X10570000Y-14100000I50000J0D01*
G01*
X10470000Y-14050000D02*
X10470000Y-14150000D01*
X10570000Y-14150000D02*
G75*
G02*
X10470000Y-14150000I-50000J0D01*
G01*
X10570000Y-14150000D02*
X10570000Y-14050000D01*
X10570000Y-14050000D02*
G75*
G03*
X10470000Y-14050000I-50000J0D01*
G01*
X10470000Y-14580000D02*
X10570000Y-14680000D01*
X10570000Y-14580000D02*
X10470000Y-14680000D01*
X10570000Y-14630000D02*
G75*
G02*
X10470000Y-14630000I-50000J0D01*
G01*
X10470000Y-14630000D02*
G75*
G02*
X10570000Y-14630000I50000J0D01*
G01*
X10470000Y-14580000D02*
X10470000Y-14680000D01*
X10570000Y-14680000D02*
G75*
G02*
X10470000Y-14680000I-50000J0D01*
G01*
X10570000Y-14680000D02*
X10570000Y-14580000D01*
X10570000Y-14580000D02*
G75*
G03*
X10470000Y-14580000I-50000J0D01*
G01*
X10470000Y-15110000D02*
X10570000Y-15210000D01*
X10570000Y-15110000D02*
X10470000Y-15210000D01*
X10570000Y-15160000D02*
G75*
G02*
X10470000Y-15160000I-50000J0D01*
G01*
X10470000Y-15160000D02*
G75*
G02*
X10570000Y-15160000I50000J0D01*
G01*
X10470000Y-15110000D02*
X10470000Y-15210000D01*
X10570000Y-15210000D02*
G75*
G02*
X10470000Y-15210000I-50000J0D01*
G01*
X10570000Y-15210000D02*
X10570000Y-15110000D01*
X10570000Y-15110000D02*
G75*
G03*
X10470000Y-15110000I-50000J0D01*
G01*
X10940000Y-14050000D02*
X11040000Y-14150000D01*
X11040000Y-14050000D02*
X10940000Y-14150000D01*
X11040000Y-14100000D02*
G75*
G02*
X10940000Y-14100000I-50000J0D01*
G01*
X10940000Y-14100000D02*
G75*
G02*
X11040000Y-14100000I50000J0D01*
G01*
X10940000Y-14050000D02*
X10940000Y-14150000D01*
X11040000Y-14150000D02*
G75*
G02*
X10940000Y-14150000I-50000J0D01*
G01*
X11040000Y-14150000D02*
X11040000Y-14050000D01*
X11040000Y-14050000D02*
G75*
G03*
X10940000Y-14050000I-50000J0D01*
G01*
X10940000Y-14580000D02*
X11040000Y-14680000D01*
X11040000Y-14580000D02*
X10940000Y-14680000D01*
X11040000Y-14630000D02*
G75*
G02*
X10940000Y-14630000I-50000J0D01*
G01*
X10940000Y-14630000D02*
G75*
G02*
X11040000Y-14630000I50000J0D01*
G01*
X10940000Y-14580000D02*
X10940000Y-14680000D01*
X11040000Y-14680000D02*
G75*
G02*
X10940000Y-14680000I-50000J0D01*
G01*
X11040000Y-14680000D02*
X11040000Y-14580000D01*
X11040000Y-14580000D02*
G75*
G03*
X10940000Y-14580000I-50000J0D01*
G01*
X10940000Y-15110000D02*
X11040000Y-15210000D01*
X11040000Y-15110000D02*
X10940000Y-15210000D01*
X11040000Y-15160000D02*
G75*
G02*
X10940000Y-15160000I-50000J0D01*
G01*
X10940000Y-15160000D02*
G75*
G02*
X11040000Y-15160000I50000J0D01*
G01*
X10940000Y-15110000D02*
X10940000Y-15210000D01*
X11040000Y-15210000D02*
G75*
G02*
X10940000Y-15210000I-50000J0D01*
G01*
X11040000Y-15210000D02*
X11040000Y-15110000D01*
X11040000Y-15110000D02*
G75*
G03*
X10940000Y-15110000I-50000J0D01*
G01*
X11410000Y-14050000D02*
X11510000Y-14150000D01*
X11510000Y-14050000D02*
X11410000Y-14150000D01*
X11510000Y-14100000D02*
G75*
G02*
X11410000Y-14100000I-50000J0D01*
G01*
X11410000Y-14100000D02*
G75*
G02*
X11510000Y-14100000I50000J0D01*
G01*
X11410000Y-14050000D02*
X11410000Y-14150000D01*
X11510000Y-14150000D02*
G75*
G02*
X11410000Y-14150000I-50000J0D01*
G01*
X11510000Y-14150000D02*
X11510000Y-14050000D01*
X11510000Y-14050000D02*
G75*
G03*
X11410000Y-14050000I-50000J0D01*
G01*
X11410000Y-14580000D02*
X11510000Y-14680000D01*
X11510000Y-14580000D02*
X11410000Y-14680000D01*
X11510000Y-14630000D02*
G75*
G02*
X11410000Y-14630000I-50000J0D01*
G01*
X11410000Y-14630000D02*
G75*
G02*
X11510000Y-14630000I50000J0D01*
G01*
X11410000Y-14580000D02*
X11410000Y-14680000D01*
X11510000Y-14680000D02*
G75*
G02*
X11410000Y-14680000I-50000J0D01*
G01*
X11510000Y-14680000D02*
X11510000Y-14580000D01*
X11510000Y-14580000D02*
G75*
G03*
X11410000Y-14580000I-50000J0D01*
G01*
X11410000Y-15110000D02*
X11510000Y-15210000D01*
X11510000Y-15110000D02*
X11410000Y-15210000D01*
X11510000Y-15160000D02*
G75*
G02*
X11410000Y-15160000I-50000J0D01*
G01*
X11410000Y-15160000D02*
G75*
G02*
X11510000Y-15160000I50000J0D01*
G01*
X11410000Y-15110000D02*
X11410000Y-15210000D01*
X11510000Y-15210000D02*
G75*
G02*
X11410000Y-15210000I-50000J0D01*
G01*
X11510000Y-15210000D02*
X11510000Y-15110000D01*
X11510000Y-15110000D02*
G75*
G03*
X11410000Y-15110000I-50000J0D01*
G01*
D12*
X7540056Y-12720056D02*
X7659944Y-12839944D01*
X7659944Y-12720056D02*
X7540056Y-12839944D01*
X7600000Y-12720056D02*
X7600000Y-12839944D01*
X7540056Y-12780000D02*
X7659944Y-12780000D01*
X8540056Y-12720056D02*
X8659944Y-12839944D01*
X8659944Y-12720056D02*
X8540056Y-12839944D01*
X8600000Y-12720056D02*
X8600000Y-12839944D01*
X8540056Y-12780000D02*
X8659944Y-12780000D01*
D13*
X3219000Y-16980000D02*
X3339000Y-17100000D01*
X3339000Y-16980000D02*
X3219000Y-17100000D01*
X3321427Y-17082427D02*
X3321427Y-16997573D01*
X3236573Y-16997573D01*
X3236573Y-17082427D01*
X3321427Y-17082427D01*
X14900000Y-14040000D02*
X15020000Y-14160000D01*
X15020000Y-14040000D02*
X14900000Y-14160000D01*
X15002427Y-14142427D02*
X15002427Y-14057573D01*
X14917573Y-14057573D01*
X14917573Y-14142427D01*
X15002427Y-14142427D01*
X14900000Y-14390000D02*
X15020000Y-14510000D01*
X15020000Y-14390000D02*
X14900000Y-14510000D01*
X15002427Y-14492427D02*
X15002427Y-14407573D01*
X14917573Y-14407573D01*
X14917573Y-14492427D01*
X15002427Y-14492427D01*
D14*
X2710000Y-13270000D02*
X2870000Y-13430000D01*
X2870000Y-13270000D02*
X2710000Y-13430000D01*
X2790000Y-13430000D02*
X2870000Y-13350000D01*
X2790000Y-13270000D01*
X2710000Y-13350000D01*
X2790000Y-13430000D01*
X2818000Y-16515000D02*
X2978000Y-16675000D01*
X2978000Y-16515000D02*
X2818000Y-16675000D01*
X2898000Y-16675000D02*
X2978000Y-16595000D01*
X2898000Y-16515000D01*
X2818000Y-16595000D01*
X2898000Y-16675000D01*
X3180000Y-12980000D02*
X3340000Y-13140000D01*
X3340000Y-12980000D02*
X3180000Y-13140000D01*
X3260000Y-13140000D02*
X3340000Y-13060000D01*
X3260000Y-12980000D01*
X3180000Y-13060000D01*
X3260000Y-13140000D01*
X3580000Y-16515000D02*
X3740000Y-16675000D01*
X3740000Y-16515000D02*
X3580000Y-16675000D01*
X3660000Y-16675000D02*
X3740000Y-16595000D01*
X3660000Y-16515000D01*
X3580000Y-16595000D01*
X3660000Y-16675000D01*
D10*
X2070777Y-19341484D02*
X2070777Y-19141484D01*
X2070777Y-19141484D02*
X2118396Y-19141484D01*
X2118396Y-19141484D02*
X2146967Y-19151008D01*
X2146967Y-19151008D02*
X2166015Y-19170055D01*
X2166015Y-19170055D02*
X2175539Y-19189103D01*
X2175539Y-19189103D02*
X2185063Y-19227198D01*
X2185063Y-19227198D02*
X2185063Y-19255770D01*
X2185063Y-19255770D02*
X2175539Y-19293865D01*
X2175539Y-19293865D02*
X2166015Y-19312912D01*
X2166015Y-19312912D02*
X2146967Y-19331960D01*
X2146967Y-19331960D02*
X2118396Y-19341484D01*
X2118396Y-19341484D02*
X2070777Y-19341484D01*
X2270777Y-19341484D02*
X2270777Y-19208150D01*
X2270777Y-19246246D02*
X2280301Y-19227198D01*
X2280301Y-19227198D02*
X2289824Y-19217674D01*
X2289824Y-19217674D02*
X2308872Y-19208150D01*
X2308872Y-19208150D02*
X2327920Y-19208150D01*
X2394586Y-19341484D02*
X2394586Y-19208150D01*
X2394586Y-19141484D02*
X2385063Y-19151008D01*
X2385063Y-19151008D02*
X2394586Y-19160531D01*
X2394586Y-19160531D02*
X2404110Y-19151008D01*
X2404110Y-19151008D02*
X2394586Y-19141484D01*
X2394586Y-19141484D02*
X2394586Y-19160531D01*
X2518396Y-19341484D02*
X2499348Y-19331960D01*
X2499348Y-19331960D02*
X2489824Y-19312912D01*
X2489824Y-19312912D02*
X2489824Y-19141484D01*
X2623158Y-19341484D02*
X2604110Y-19331960D01*
X2604110Y-19331960D02*
X2594586Y-19312912D01*
X2594586Y-19312912D02*
X2594586Y-19141484D01*
X2851729Y-19341484D02*
X2851729Y-19141484D01*
X2851729Y-19141484D02*
X2918396Y-19284341D01*
X2918396Y-19284341D02*
X2985062Y-19141484D01*
X2985062Y-19141484D02*
X2985062Y-19341484D01*
X3166015Y-19341484D02*
X3166015Y-19236722D01*
X3166015Y-19236722D02*
X3156491Y-19217674D01*
X3156491Y-19217674D02*
X3137443Y-19208150D01*
X3137443Y-19208150D02*
X3099348Y-19208150D01*
X3099348Y-19208150D02*
X3080301Y-19217674D01*
X3166015Y-19331960D02*
X3146967Y-19341484D01*
X3146967Y-19341484D02*
X3099348Y-19341484D01*
X3099348Y-19341484D02*
X3080301Y-19331960D01*
X3080301Y-19331960D02*
X3070777Y-19312912D01*
X3070777Y-19312912D02*
X3070777Y-19293865D01*
X3070777Y-19293865D02*
X3080301Y-19274817D01*
X3080301Y-19274817D02*
X3099348Y-19265293D01*
X3099348Y-19265293D02*
X3146967Y-19265293D01*
X3146967Y-19265293D02*
X3166015Y-19255770D01*
X3261253Y-19208150D02*
X3261253Y-19408150D01*
X3261253Y-19217674D02*
X3280301Y-19208150D01*
X3280301Y-19208150D02*
X3318396Y-19208150D01*
X3318396Y-19208150D02*
X3337443Y-19217674D01*
X3337443Y-19217674D02*
X3346967Y-19227198D01*
X3346967Y-19227198D02*
X3356491Y-19246246D01*
X3356491Y-19246246D02*
X3356491Y-19303389D01*
X3356491Y-19303389D02*
X3346967Y-19322436D01*
X3346967Y-19322436D02*
X3337443Y-19331960D01*
X3337443Y-19331960D02*
X3318396Y-19341484D01*
X3318396Y-19341484D02*
X3280301Y-19341484D01*
X3280301Y-19341484D02*
X3261253Y-19331960D01*
X3442205Y-19322436D02*
X3451729Y-19331960D01*
X3451729Y-19331960D02*
X3442205Y-19341484D01*
X3442205Y-19341484D02*
X3432682Y-19331960D01*
X3432682Y-19331960D02*
X3442205Y-19322436D01*
X3442205Y-19322436D02*
X3442205Y-19341484D01*
X3442205Y-19217674D02*
X3451729Y-19227198D01*
X3451729Y-19227198D02*
X3442205Y-19236722D01*
X3442205Y-19236722D02*
X3432682Y-19227198D01*
X3432682Y-19227198D02*
X3442205Y-19217674D01*
X3442205Y-19217674D02*
X3442205Y-19236722D01*
D11*
X1780000Y-19655000D02*
X1810000Y-19685000D01*
X1810000Y-19655000D02*
X1780000Y-19685000D01*
D10*
X2108872Y-19561484D02*
X2127920Y-19561484D01*
X2127920Y-19561484D02*
X2146967Y-19571008D01*
X2146967Y-19571008D02*
X2156491Y-19580531D01*
X2156491Y-19580531D02*
X2166015Y-19599579D01*
X2166015Y-19599579D02*
X2175539Y-19637674D01*
X2175539Y-19637674D02*
X2175539Y-19685293D01*
X2175539Y-19685293D02*
X2166015Y-19723389D01*
X2166015Y-19723389D02*
X2156491Y-19742436D01*
X2156491Y-19742436D02*
X2146967Y-19751960D01*
X2146967Y-19751960D02*
X2127920Y-19761484D01*
X2127920Y-19761484D02*
X2108872Y-19761484D01*
X2108872Y-19761484D02*
X2089824Y-19751960D01*
X2089824Y-19751960D02*
X2080301Y-19742436D01*
X2080301Y-19742436D02*
X2070777Y-19723389D01*
X2070777Y-19723389D02*
X2061253Y-19685293D01*
X2061253Y-19685293D02*
X2061253Y-19637674D01*
X2061253Y-19637674D02*
X2070777Y-19599579D01*
X2070777Y-19599579D02*
X2080301Y-19580531D01*
X2080301Y-19580531D02*
X2089824Y-19571008D01*
X2089824Y-19571008D02*
X2108872Y-19561484D01*
X2261253Y-19742436D02*
X2270777Y-19751960D01*
X2270777Y-19751960D02*
X2261253Y-19761484D01*
X2261253Y-19761484D02*
X2251729Y-19751960D01*
X2251729Y-19751960D02*
X2261253Y-19742436D01*
X2261253Y-19742436D02*
X2261253Y-19761484D01*
X2337444Y-19561484D02*
X2461253Y-19561484D01*
X2461253Y-19561484D02*
X2394586Y-19637674D01*
X2394586Y-19637674D02*
X2423158Y-19637674D01*
X2423158Y-19637674D02*
X2442205Y-19647198D01*
X2442205Y-19647198D02*
X2451729Y-19656722D01*
X2451729Y-19656722D02*
X2461253Y-19675770D01*
X2461253Y-19675770D02*
X2461253Y-19723389D01*
X2461253Y-19723389D02*
X2451729Y-19742436D01*
X2451729Y-19742436D02*
X2442205Y-19751960D01*
X2442205Y-19751960D02*
X2423158Y-19761484D01*
X2423158Y-19761484D02*
X2366015Y-19761484D01*
X2366015Y-19761484D02*
X2346967Y-19751960D01*
X2346967Y-19751960D02*
X2337444Y-19742436D01*
X2585063Y-19561484D02*
X2604110Y-19561484D01*
X2604110Y-19561484D02*
X2623158Y-19571008D01*
X2623158Y-19571008D02*
X2632682Y-19580531D01*
X2632682Y-19580531D02*
X2642205Y-19599579D01*
X2642205Y-19599579D02*
X2651729Y-19637674D01*
X2651729Y-19637674D02*
X2651729Y-19685293D01*
X2651729Y-19685293D02*
X2642205Y-19723389D01*
X2642205Y-19723389D02*
X2632682Y-19742436D01*
X2632682Y-19742436D02*
X2623158Y-19751960D01*
X2623158Y-19751960D02*
X2604110Y-19761484D01*
X2604110Y-19761484D02*
X2585063Y-19761484D01*
X2585063Y-19761484D02*
X2566015Y-19751960D01*
X2566015Y-19751960D02*
X2556491Y-19742436D01*
X2556491Y-19742436D02*
X2546967Y-19723389D01*
X2546967Y-19723389D02*
X2537444Y-19685293D01*
X2537444Y-19685293D02*
X2537444Y-19637674D01*
X2537444Y-19637674D02*
X2546967Y-19599579D01*
X2546967Y-19599579D02*
X2556491Y-19580531D01*
X2556491Y-19580531D02*
X2566015Y-19571008D01*
X2566015Y-19571008D02*
X2585063Y-19561484D01*
X2775539Y-19561484D02*
X2794586Y-19561484D01*
X2794586Y-19561484D02*
X2813634Y-19571008D01*
X2813634Y-19571008D02*
X2823158Y-19580531D01*
X2823158Y-19580531D02*
X2832682Y-19599579D01*
X2832682Y-19599579D02*
X2842205Y-19637674D01*
X2842205Y-19637674D02*
X2842205Y-19685293D01*
X2842205Y-19685293D02*
X2832682Y-19723389D01*
X2832682Y-19723389D02*
X2823158Y-19742436D01*
X2823158Y-19742436D02*
X2813634Y-19751960D01*
X2813634Y-19751960D02*
X2794586Y-19761484D01*
X2794586Y-19761484D02*
X2775539Y-19761484D01*
X2775539Y-19761484D02*
X2756491Y-19751960D01*
X2756491Y-19751960D02*
X2746967Y-19742436D01*
X2746967Y-19742436D02*
X2737444Y-19723389D01*
X2737444Y-19723389D02*
X2727920Y-19685293D01*
X2727920Y-19685293D02*
X2727920Y-19637674D01*
X2727920Y-19637674D02*
X2737444Y-19599579D01*
X2737444Y-19599579D02*
X2746967Y-19580531D01*
X2746967Y-19580531D02*
X2756491Y-19571008D01*
X2756491Y-19571008D02*
X2775539Y-19561484D01*
X2927920Y-19761484D02*
X2927920Y-19628150D01*
X2927920Y-19647198D02*
X2937443Y-19637674D01*
X2937443Y-19637674D02*
X2956491Y-19628150D01*
X2956491Y-19628150D02*
X2985063Y-19628150D01*
X2985063Y-19628150D02*
X3004110Y-19637674D01*
X3004110Y-19637674D02*
X3013634Y-19656722D01*
X3013634Y-19656722D02*
X3013634Y-19761484D01*
X3013634Y-19656722D02*
X3023158Y-19637674D01*
X3023158Y-19637674D02*
X3042205Y-19628150D01*
X3042205Y-19628150D02*
X3070777Y-19628150D01*
X3070777Y-19628150D02*
X3089824Y-19637674D01*
X3089824Y-19637674D02*
X3099348Y-19656722D01*
X3099348Y-19656722D02*
X3099348Y-19761484D01*
X3194586Y-19761484D02*
X3194586Y-19628150D01*
X3194586Y-19647198D02*
X3204110Y-19637674D01*
X3204110Y-19637674D02*
X3223158Y-19628150D01*
X3223158Y-19628150D02*
X3251729Y-19628150D01*
X3251729Y-19628150D02*
X3270777Y-19637674D01*
X3270777Y-19637674D02*
X3280301Y-19656722D01*
X3280301Y-19656722D02*
X3280301Y-19761484D01*
X3280301Y-19656722D02*
X3289824Y-19637674D01*
X3289824Y-19637674D02*
X3308872Y-19628150D01*
X3308872Y-19628150D02*
X3337443Y-19628150D01*
X3337443Y-19628150D02*
X3356491Y-19637674D01*
X3356491Y-19637674D02*
X3366015Y-19656722D01*
X3366015Y-19656722D02*
X3366015Y-19761484D01*
X3756491Y-19551960D02*
X3585063Y-19809103D01*
X4013634Y-19561484D02*
X4032682Y-19561484D01*
X4032682Y-19561484D02*
X4051729Y-19571008D01*
X4051729Y-19571008D02*
X4061253Y-19580531D01*
X4061253Y-19580531D02*
X4070777Y-19599579D01*
X4070777Y-19599579D02*
X4080301Y-19637674D01*
X4080301Y-19637674D02*
X4080301Y-19685293D01*
X4080301Y-19685293D02*
X4070777Y-19723389D01*
X4070777Y-19723389D02*
X4061253Y-19742436D01*
X4061253Y-19742436D02*
X4051729Y-19751960D01*
X4051729Y-19751960D02*
X4032682Y-19761484D01*
X4032682Y-19761484D02*
X4013634Y-19761484D01*
X4013634Y-19761484D02*
X3994586Y-19751960D01*
X3994586Y-19751960D02*
X3985063Y-19742436D01*
X3985063Y-19742436D02*
X3975539Y-19723389D01*
X3975539Y-19723389D02*
X3966015Y-19685293D01*
X3966015Y-19685293D02*
X3966015Y-19637674D01*
X3966015Y-19637674D02*
X3975539Y-19599579D01*
X3975539Y-19599579D02*
X3985063Y-19580531D01*
X3985063Y-19580531D02*
X3994586Y-19571008D01*
X3994586Y-19571008D02*
X4013634Y-19561484D01*
X4166015Y-19742436D02*
X4175539Y-19751960D01*
X4175539Y-19751960D02*
X4166015Y-19761484D01*
X4166015Y-19761484D02*
X4156491Y-19751960D01*
X4156491Y-19751960D02*
X4166015Y-19742436D01*
X4166015Y-19742436D02*
X4166015Y-19761484D01*
X4299348Y-19561484D02*
X4318396Y-19561484D01*
X4318396Y-19561484D02*
X4337444Y-19571008D01*
X4337444Y-19571008D02*
X4346968Y-19580531D01*
X4346968Y-19580531D02*
X4356491Y-19599579D01*
X4356491Y-19599579D02*
X4366015Y-19637674D01*
X4366015Y-19637674D02*
X4366015Y-19685293D01*
X4366015Y-19685293D02*
X4356491Y-19723389D01*
X4356491Y-19723389D02*
X4346968Y-19742436D01*
X4346968Y-19742436D02*
X4337444Y-19751960D01*
X4337444Y-19751960D02*
X4318396Y-19761484D01*
X4318396Y-19761484D02*
X4299348Y-19761484D01*
X4299348Y-19761484D02*
X4280301Y-19751960D01*
X4280301Y-19751960D02*
X4270777Y-19742436D01*
X4270777Y-19742436D02*
X4261253Y-19723389D01*
X4261253Y-19723389D02*
X4251729Y-19685293D01*
X4251729Y-19685293D02*
X4251729Y-19637674D01*
X4251729Y-19637674D02*
X4261253Y-19599579D01*
X4261253Y-19599579D02*
X4270777Y-19580531D01*
X4270777Y-19580531D02*
X4280301Y-19571008D01*
X4280301Y-19571008D02*
X4299348Y-19561484D01*
X4556491Y-19761484D02*
X4442206Y-19761484D01*
X4499348Y-19761484D02*
X4499348Y-19561484D01*
X4499348Y-19561484D02*
X4480301Y-19590055D01*
X4480301Y-19590055D02*
X4461253Y-19609103D01*
X4461253Y-19609103D02*
X4442206Y-19618627D01*
X4746968Y-19761484D02*
X4632682Y-19761484D01*
X4689825Y-19761484D02*
X4689825Y-19561484D01*
X4689825Y-19561484D02*
X4670777Y-19590055D01*
X4670777Y-19590055D02*
X4651729Y-19609103D01*
X4651729Y-19609103D02*
X4632682Y-19618627D01*
X4861253Y-19647198D02*
X4842206Y-19637674D01*
X4842206Y-19637674D02*
X4832682Y-19628150D01*
X4832682Y-19628150D02*
X4823158Y-19609103D01*
X4823158Y-19609103D02*
X4823158Y-19599579D01*
X4823158Y-19599579D02*
X4832682Y-19580531D01*
X4832682Y-19580531D02*
X4842206Y-19571008D01*
X4842206Y-19571008D02*
X4861253Y-19561484D01*
X4861253Y-19561484D02*
X4899349Y-19561484D01*
X4899349Y-19561484D02*
X4918396Y-19571008D01*
X4918396Y-19571008D02*
X4927920Y-19580531D01*
X4927920Y-19580531D02*
X4937444Y-19599579D01*
X4937444Y-19599579D02*
X4937444Y-19609103D01*
X4937444Y-19609103D02*
X4927920Y-19628150D01*
X4927920Y-19628150D02*
X4918396Y-19637674D01*
X4918396Y-19637674D02*
X4899349Y-19647198D01*
X4899349Y-19647198D02*
X4861253Y-19647198D01*
X4861253Y-19647198D02*
X4842206Y-19656722D01*
X4842206Y-19656722D02*
X4832682Y-19666246D01*
X4832682Y-19666246D02*
X4823158Y-19685293D01*
X4823158Y-19685293D02*
X4823158Y-19723389D01*
X4823158Y-19723389D02*
X4832682Y-19742436D01*
X4832682Y-19742436D02*
X4842206Y-19751960D01*
X4842206Y-19751960D02*
X4861253Y-19761484D01*
X4861253Y-19761484D02*
X4899349Y-19761484D01*
X4899349Y-19761484D02*
X4918396Y-19751960D01*
X4918396Y-19751960D02*
X4927920Y-19742436D01*
X4927920Y-19742436D02*
X4937444Y-19723389D01*
X4937444Y-19723389D02*
X4937444Y-19685293D01*
X4937444Y-19685293D02*
X4927920Y-19666246D01*
X4927920Y-19666246D02*
X4918396Y-19656722D01*
X4918396Y-19656722D02*
X4899349Y-19647198D01*
X5013634Y-19561484D02*
X5013634Y-19599579D01*
X5089825Y-19561484D02*
X5089825Y-19599579D01*
X5385063Y-19837674D02*
X5375539Y-19828150D01*
X5375539Y-19828150D02*
X5356491Y-19799579D01*
X5356491Y-19799579D02*
X5346968Y-19780531D01*
X5346968Y-19780531D02*
X5337444Y-19751960D01*
X5337444Y-19751960D02*
X5327920Y-19704341D01*
X5327920Y-19704341D02*
X5327920Y-19666246D01*
X5327920Y-19666246D02*
X5337444Y-19618627D01*
X5337444Y-19618627D02*
X5346968Y-19590055D01*
X5346968Y-19590055D02*
X5356491Y-19571008D01*
X5356491Y-19571008D02*
X5375539Y-19542436D01*
X5375539Y-19542436D02*
X5385063Y-19532912D01*
X5470777Y-19761484D02*
X5508872Y-19761484D01*
X5508872Y-19761484D02*
X5527920Y-19751960D01*
X5527920Y-19751960D02*
X5537444Y-19742436D01*
X5537444Y-19742436D02*
X5556491Y-19713865D01*
X5556491Y-19713865D02*
X5566015Y-19675770D01*
X5566015Y-19675770D02*
X5566015Y-19599579D01*
X5566015Y-19599579D02*
X5556491Y-19580531D01*
X5556491Y-19580531D02*
X5546968Y-19571008D01*
X5546968Y-19571008D02*
X5527920Y-19561484D01*
X5527920Y-19561484D02*
X5489825Y-19561484D01*
X5489825Y-19561484D02*
X5470777Y-19571008D01*
X5470777Y-19571008D02*
X5461253Y-19580531D01*
X5461253Y-19580531D02*
X5451730Y-19599579D01*
X5451730Y-19599579D02*
X5451730Y-19647198D01*
X5451730Y-19647198D02*
X5461253Y-19666246D01*
X5461253Y-19666246D02*
X5470777Y-19675770D01*
X5470777Y-19675770D02*
X5489825Y-19685293D01*
X5489825Y-19685293D02*
X5527920Y-19685293D01*
X5527920Y-19685293D02*
X5546968Y-19675770D01*
X5546968Y-19675770D02*
X5556491Y-19666246D01*
X5556491Y-19666246D02*
X5566015Y-19647198D01*
X5804110Y-19761484D02*
X5804110Y-19561484D01*
X5889825Y-19761484D02*
X5889825Y-19656722D01*
X5889825Y-19656722D02*
X5880301Y-19637674D01*
X5880301Y-19637674D02*
X5861253Y-19628150D01*
X5861253Y-19628150D02*
X5832682Y-19628150D01*
X5832682Y-19628150D02*
X5813634Y-19637674D01*
X5813634Y-19637674D02*
X5804110Y-19647198D01*
X6013634Y-19761484D02*
X5994587Y-19751960D01*
X5994587Y-19751960D02*
X5985063Y-19742436D01*
X5985063Y-19742436D02*
X5975539Y-19723389D01*
X5975539Y-19723389D02*
X5975539Y-19666246D01*
X5975539Y-19666246D02*
X5985063Y-19647198D01*
X5985063Y-19647198D02*
X5994587Y-19637674D01*
X5994587Y-19637674D02*
X6013634Y-19628150D01*
X6013634Y-19628150D02*
X6042206Y-19628150D01*
X6042206Y-19628150D02*
X6061253Y-19637674D01*
X6061253Y-19637674D02*
X6070777Y-19647198D01*
X6070777Y-19647198D02*
X6080301Y-19666246D01*
X6080301Y-19666246D02*
X6080301Y-19723389D01*
X6080301Y-19723389D02*
X6070777Y-19742436D01*
X6070777Y-19742436D02*
X6061253Y-19751960D01*
X6061253Y-19751960D02*
X6042206Y-19761484D01*
X6042206Y-19761484D02*
X6013634Y-19761484D01*
X6194587Y-19761484D02*
X6175539Y-19751960D01*
X6175539Y-19751960D02*
X6166015Y-19732912D01*
X6166015Y-19732912D02*
X6166015Y-19561484D01*
X6346968Y-19751960D02*
X6327920Y-19761484D01*
X6327920Y-19761484D02*
X6289825Y-19761484D01*
X6289825Y-19761484D02*
X6270777Y-19751960D01*
X6270777Y-19751960D02*
X6261253Y-19732912D01*
X6261253Y-19732912D02*
X6261253Y-19656722D01*
X6261253Y-19656722D02*
X6270777Y-19637674D01*
X6270777Y-19637674D02*
X6289825Y-19628150D01*
X6289825Y-19628150D02*
X6327920Y-19628150D01*
X6327920Y-19628150D02*
X6346968Y-19637674D01*
X6346968Y-19637674D02*
X6356491Y-19656722D01*
X6356491Y-19656722D02*
X6356491Y-19675770D01*
X6356491Y-19675770D02*
X6261253Y-19694817D01*
X6432682Y-19751960D02*
X6451730Y-19761484D01*
X6451730Y-19761484D02*
X6489825Y-19761484D01*
X6489825Y-19761484D02*
X6508872Y-19751960D01*
X6508872Y-19751960D02*
X6518396Y-19732912D01*
X6518396Y-19732912D02*
X6518396Y-19723389D01*
X6518396Y-19723389D02*
X6508872Y-19704341D01*
X6508872Y-19704341D02*
X6489825Y-19694817D01*
X6489825Y-19694817D02*
X6461253Y-19694817D01*
X6461253Y-19694817D02*
X6442206Y-19685293D01*
X6442206Y-19685293D02*
X6432682Y-19666246D01*
X6432682Y-19666246D02*
X6432682Y-19656722D01*
X6432682Y-19656722D02*
X6442206Y-19637674D01*
X6442206Y-19637674D02*
X6461253Y-19628150D01*
X6461253Y-19628150D02*
X6489825Y-19628150D01*
X6489825Y-19628150D02*
X6508872Y-19637674D01*
X6585063Y-19837674D02*
X6594587Y-19828150D01*
X6594587Y-19828150D02*
X6613634Y-19799579D01*
X6613634Y-19799579D02*
X6623158Y-19780531D01*
X6623158Y-19780531D02*
X6632682Y-19751960D01*
X6632682Y-19751960D02*
X6642206Y-19704341D01*
X6642206Y-19704341D02*
X6642206Y-19666246D01*
X6642206Y-19666246D02*
X6632682Y-19618627D01*
X6632682Y-19618627D02*
X6623158Y-19590055D01*
X6623158Y-19590055D02*
X6613634Y-19571008D01*
X6613634Y-19571008D02*
X6594587Y-19542436D01*
X6594587Y-19542436D02*
X6585063Y-19532912D01*
D11*
X1810000Y-19934000D02*
G75*
G02*
X1750000Y-19934000I-30000J0D01*
G01*
X1750000Y-19934000D02*
G75*
G02*
X1810000Y-19934000I30000J0D01*
G01*
D10*
X2108872Y-19825484D02*
X2127920Y-19825484D01*
X2127920Y-19825484D02*
X2146967Y-19835008D01*
X2146967Y-19835008D02*
X2156491Y-19844531D01*
X2156491Y-19844531D02*
X2166015Y-19863579D01*
X2166015Y-19863579D02*
X2175539Y-19901674D01*
X2175539Y-19901674D02*
X2175539Y-19949293D01*
X2175539Y-19949293D02*
X2166015Y-19987389D01*
X2166015Y-19987389D02*
X2156491Y-20006436D01*
X2156491Y-20006436D02*
X2146967Y-20015960D01*
X2146967Y-20015960D02*
X2127920Y-20025484D01*
X2127920Y-20025484D02*
X2108872Y-20025484D01*
X2108872Y-20025484D02*
X2089824Y-20015960D01*
X2089824Y-20015960D02*
X2080301Y-20006436D01*
X2080301Y-20006436D02*
X2070777Y-19987389D01*
X2070777Y-19987389D02*
X2061253Y-19949293D01*
X2061253Y-19949293D02*
X2061253Y-19901674D01*
X2061253Y-19901674D02*
X2070777Y-19863579D01*
X2070777Y-19863579D02*
X2080301Y-19844531D01*
X2080301Y-19844531D02*
X2089824Y-19835008D01*
X2089824Y-19835008D02*
X2108872Y-19825484D01*
X2261253Y-20006436D02*
X2270777Y-20015960D01*
X2270777Y-20015960D02*
X2261253Y-20025484D01*
X2261253Y-20025484D02*
X2251729Y-20015960D01*
X2251729Y-20015960D02*
X2261253Y-20006436D01*
X2261253Y-20006436D02*
X2261253Y-20025484D01*
X2442205Y-19825484D02*
X2404110Y-19825484D01*
X2404110Y-19825484D02*
X2385063Y-19835008D01*
X2385063Y-19835008D02*
X2375539Y-19844531D01*
X2375539Y-19844531D02*
X2356491Y-19873103D01*
X2356491Y-19873103D02*
X2346967Y-19911198D01*
X2346967Y-19911198D02*
X2346967Y-19987389D01*
X2346967Y-19987389D02*
X2356491Y-20006436D01*
X2356491Y-20006436D02*
X2366015Y-20015960D01*
X2366015Y-20015960D02*
X2385063Y-20025484D01*
X2385063Y-20025484D02*
X2423158Y-20025484D01*
X2423158Y-20025484D02*
X2442205Y-20015960D01*
X2442205Y-20015960D02*
X2451729Y-20006436D01*
X2451729Y-20006436D02*
X2461253Y-19987389D01*
X2461253Y-19987389D02*
X2461253Y-19939770D01*
X2461253Y-19939770D02*
X2451729Y-19920722D01*
X2451729Y-19920722D02*
X2442205Y-19911198D01*
X2442205Y-19911198D02*
X2423158Y-19901674D01*
X2423158Y-19901674D02*
X2385063Y-19901674D01*
X2385063Y-19901674D02*
X2366015Y-19911198D01*
X2366015Y-19911198D02*
X2356491Y-19920722D01*
X2356491Y-19920722D02*
X2346967Y-19939770D01*
X2585063Y-19825484D02*
X2604110Y-19825484D01*
X2604110Y-19825484D02*
X2623158Y-19835008D01*
X2623158Y-19835008D02*
X2632682Y-19844531D01*
X2632682Y-19844531D02*
X2642205Y-19863579D01*
X2642205Y-19863579D02*
X2651729Y-19901674D01*
X2651729Y-19901674D02*
X2651729Y-19949293D01*
X2651729Y-19949293D02*
X2642205Y-19987389D01*
X2642205Y-19987389D02*
X2632682Y-20006436D01*
X2632682Y-20006436D02*
X2623158Y-20015960D01*
X2623158Y-20015960D02*
X2604110Y-20025484D01*
X2604110Y-20025484D02*
X2585063Y-20025484D01*
X2585063Y-20025484D02*
X2566015Y-20015960D01*
X2566015Y-20015960D02*
X2556491Y-20006436D01*
X2556491Y-20006436D02*
X2546967Y-19987389D01*
X2546967Y-19987389D02*
X2537444Y-19949293D01*
X2537444Y-19949293D02*
X2537444Y-19901674D01*
X2537444Y-19901674D02*
X2546967Y-19863579D01*
X2546967Y-19863579D02*
X2556491Y-19844531D01*
X2556491Y-19844531D02*
X2566015Y-19835008D01*
X2566015Y-19835008D02*
X2585063Y-19825484D01*
X2775539Y-19825484D02*
X2794586Y-19825484D01*
X2794586Y-19825484D02*
X2813634Y-19835008D01*
X2813634Y-19835008D02*
X2823158Y-19844531D01*
X2823158Y-19844531D02*
X2832682Y-19863579D01*
X2832682Y-19863579D02*
X2842205Y-19901674D01*
X2842205Y-19901674D02*
X2842205Y-19949293D01*
X2842205Y-19949293D02*
X2832682Y-19987389D01*
X2832682Y-19987389D02*
X2823158Y-20006436D01*
X2823158Y-20006436D02*
X2813634Y-20015960D01*
X2813634Y-20015960D02*
X2794586Y-20025484D01*
X2794586Y-20025484D02*
X2775539Y-20025484D01*
X2775539Y-20025484D02*
X2756491Y-20015960D01*
X2756491Y-20015960D02*
X2746967Y-20006436D01*
X2746967Y-20006436D02*
X2737444Y-19987389D01*
X2737444Y-19987389D02*
X2727920Y-19949293D01*
X2727920Y-19949293D02*
X2727920Y-19901674D01*
X2727920Y-19901674D02*
X2737444Y-19863579D01*
X2737444Y-19863579D02*
X2746967Y-19844531D01*
X2746967Y-19844531D02*
X2756491Y-19835008D01*
X2756491Y-19835008D02*
X2775539Y-19825484D01*
X2927920Y-20025484D02*
X2927920Y-19892150D01*
X2927920Y-19911198D02*
X2937443Y-19901674D01*
X2937443Y-19901674D02*
X2956491Y-19892150D01*
X2956491Y-19892150D02*
X2985063Y-19892150D01*
X2985063Y-19892150D02*
X3004110Y-19901674D01*
X3004110Y-19901674D02*
X3013634Y-19920722D01*
X3013634Y-19920722D02*
X3013634Y-20025484D01*
X3013634Y-19920722D02*
X3023158Y-19901674D01*
X3023158Y-19901674D02*
X3042205Y-19892150D01*
X3042205Y-19892150D02*
X3070777Y-19892150D01*
X3070777Y-19892150D02*
X3089824Y-19901674D01*
X3089824Y-19901674D02*
X3099348Y-19920722D01*
X3099348Y-19920722D02*
X3099348Y-20025484D01*
X3194586Y-20025484D02*
X3194586Y-19892150D01*
X3194586Y-19911198D02*
X3204110Y-19901674D01*
X3204110Y-19901674D02*
X3223158Y-19892150D01*
X3223158Y-19892150D02*
X3251729Y-19892150D01*
X3251729Y-19892150D02*
X3270777Y-19901674D01*
X3270777Y-19901674D02*
X3280301Y-19920722D01*
X3280301Y-19920722D02*
X3280301Y-20025484D01*
X3280301Y-19920722D02*
X3289824Y-19901674D01*
X3289824Y-19901674D02*
X3308872Y-19892150D01*
X3308872Y-19892150D02*
X3337443Y-19892150D01*
X3337443Y-19892150D02*
X3356491Y-19901674D01*
X3356491Y-19901674D02*
X3366015Y-19920722D01*
X3366015Y-19920722D02*
X3366015Y-20025484D01*
X3756491Y-19815960D02*
X3585063Y-20073103D01*
X4013634Y-19825484D02*
X4032682Y-19825484D01*
X4032682Y-19825484D02*
X4051729Y-19835008D01*
X4051729Y-19835008D02*
X4061253Y-19844531D01*
X4061253Y-19844531D02*
X4070777Y-19863579D01*
X4070777Y-19863579D02*
X4080301Y-19901674D01*
X4080301Y-19901674D02*
X4080301Y-19949293D01*
X4080301Y-19949293D02*
X4070777Y-19987389D01*
X4070777Y-19987389D02*
X4061253Y-20006436D01*
X4061253Y-20006436D02*
X4051729Y-20015960D01*
X4051729Y-20015960D02*
X4032682Y-20025484D01*
X4032682Y-20025484D02*
X4013634Y-20025484D01*
X4013634Y-20025484D02*
X3994586Y-20015960D01*
X3994586Y-20015960D02*
X3985063Y-20006436D01*
X3985063Y-20006436D02*
X3975539Y-19987389D01*
X3975539Y-19987389D02*
X3966015Y-19949293D01*
X3966015Y-19949293D02*
X3966015Y-19901674D01*
X3966015Y-19901674D02*
X3975539Y-19863579D01*
X3975539Y-19863579D02*
X3985063Y-19844531D01*
X3985063Y-19844531D02*
X3994586Y-19835008D01*
X3994586Y-19835008D02*
X4013634Y-19825484D01*
X4166015Y-20006436D02*
X4175539Y-20015960D01*
X4175539Y-20015960D02*
X4166015Y-20025484D01*
X4166015Y-20025484D02*
X4156491Y-20015960D01*
X4156491Y-20015960D02*
X4166015Y-20006436D01*
X4166015Y-20006436D02*
X4166015Y-20025484D01*
X4299348Y-19825484D02*
X4318396Y-19825484D01*
X4318396Y-19825484D02*
X4337444Y-19835008D01*
X4337444Y-19835008D02*
X4346968Y-19844531D01*
X4346968Y-19844531D02*
X4356491Y-19863579D01*
X4356491Y-19863579D02*
X4366015Y-19901674D01*
X4366015Y-19901674D02*
X4366015Y-19949293D01*
X4366015Y-19949293D02*
X4356491Y-19987389D01*
X4356491Y-19987389D02*
X4346968Y-20006436D01*
X4346968Y-20006436D02*
X4337444Y-20015960D01*
X4337444Y-20015960D02*
X4318396Y-20025484D01*
X4318396Y-20025484D02*
X4299348Y-20025484D01*
X4299348Y-20025484D02*
X4280301Y-20015960D01*
X4280301Y-20015960D02*
X4270777Y-20006436D01*
X4270777Y-20006436D02*
X4261253Y-19987389D01*
X4261253Y-19987389D02*
X4251729Y-19949293D01*
X4251729Y-19949293D02*
X4251729Y-19901674D01*
X4251729Y-19901674D02*
X4261253Y-19863579D01*
X4261253Y-19863579D02*
X4270777Y-19844531D01*
X4270777Y-19844531D02*
X4280301Y-19835008D01*
X4280301Y-19835008D02*
X4299348Y-19825484D01*
X4442206Y-19844531D02*
X4451729Y-19835008D01*
X4451729Y-19835008D02*
X4470777Y-19825484D01*
X4470777Y-19825484D02*
X4518396Y-19825484D01*
X4518396Y-19825484D02*
X4537444Y-19835008D01*
X4537444Y-19835008D02*
X4546968Y-19844531D01*
X4546968Y-19844531D02*
X4556491Y-19863579D01*
X4556491Y-19863579D02*
X4556491Y-19882627D01*
X4556491Y-19882627D02*
X4546968Y-19911198D01*
X4546968Y-19911198D02*
X4432682Y-20025484D01*
X4432682Y-20025484D02*
X4556491Y-20025484D01*
X4623158Y-19825484D02*
X4746968Y-19825484D01*
X4746968Y-19825484D02*
X4680301Y-19901674D01*
X4680301Y-19901674D02*
X4708872Y-19901674D01*
X4708872Y-19901674D02*
X4727920Y-19911198D01*
X4727920Y-19911198D02*
X4737444Y-19920722D01*
X4737444Y-19920722D02*
X4746968Y-19939770D01*
X4746968Y-19939770D02*
X4746968Y-19987389D01*
X4746968Y-19987389D02*
X4737444Y-20006436D01*
X4737444Y-20006436D02*
X4727920Y-20015960D01*
X4727920Y-20015960D02*
X4708872Y-20025484D01*
X4708872Y-20025484D02*
X4651729Y-20025484D01*
X4651729Y-20025484D02*
X4632682Y-20015960D01*
X4632682Y-20015960D02*
X4623158Y-20006436D01*
X4918396Y-19825484D02*
X4880301Y-19825484D01*
X4880301Y-19825484D02*
X4861253Y-19835008D01*
X4861253Y-19835008D02*
X4851729Y-19844531D01*
X4851729Y-19844531D02*
X4832682Y-19873103D01*
X4832682Y-19873103D02*
X4823158Y-19911198D01*
X4823158Y-19911198D02*
X4823158Y-19987389D01*
X4823158Y-19987389D02*
X4832682Y-20006436D01*
X4832682Y-20006436D02*
X4842206Y-20015960D01*
X4842206Y-20015960D02*
X4861253Y-20025484D01*
X4861253Y-20025484D02*
X4899349Y-20025484D01*
X4899349Y-20025484D02*
X4918396Y-20015960D01*
X4918396Y-20015960D02*
X4927920Y-20006436D01*
X4927920Y-20006436D02*
X4937444Y-19987389D01*
X4937444Y-19987389D02*
X4937444Y-19939770D01*
X4937444Y-19939770D02*
X4927920Y-19920722D01*
X4927920Y-19920722D02*
X4918396Y-19911198D01*
X4918396Y-19911198D02*
X4899349Y-19901674D01*
X4899349Y-19901674D02*
X4861253Y-19901674D01*
X4861253Y-19901674D02*
X4842206Y-19911198D01*
X4842206Y-19911198D02*
X4832682Y-19920722D01*
X4832682Y-19920722D02*
X4823158Y-19939770D01*
X5013634Y-19825484D02*
X5013634Y-19863579D01*
X5089825Y-19825484D02*
X5089825Y-19863579D01*
X5385063Y-20101674D02*
X5375539Y-20092150D01*
X5375539Y-20092150D02*
X5356491Y-20063579D01*
X5356491Y-20063579D02*
X5346968Y-20044531D01*
X5346968Y-20044531D02*
X5337444Y-20015960D01*
X5337444Y-20015960D02*
X5327920Y-19968341D01*
X5327920Y-19968341D02*
X5327920Y-19930246D01*
X5327920Y-19930246D02*
X5337444Y-19882627D01*
X5337444Y-19882627D02*
X5346968Y-19854055D01*
X5346968Y-19854055D02*
X5356491Y-19835008D01*
X5356491Y-19835008D02*
X5375539Y-19806436D01*
X5375539Y-19806436D02*
X5385063Y-19796912D01*
X5546968Y-19892150D02*
X5546968Y-20025484D01*
X5499349Y-19815960D02*
X5451730Y-19958817D01*
X5451730Y-19958817D02*
X5575539Y-19958817D01*
X5804110Y-20025484D02*
X5804110Y-19825484D01*
X5889825Y-20025484D02*
X5889825Y-19920722D01*
X5889825Y-19920722D02*
X5880301Y-19901674D01*
X5880301Y-19901674D02*
X5861253Y-19892150D01*
X5861253Y-19892150D02*
X5832682Y-19892150D01*
X5832682Y-19892150D02*
X5813634Y-19901674D01*
X5813634Y-19901674D02*
X5804110Y-19911198D01*
X6013634Y-20025484D02*
X5994587Y-20015960D01*
X5994587Y-20015960D02*
X5985063Y-20006436D01*
X5985063Y-20006436D02*
X5975539Y-19987389D01*
X5975539Y-19987389D02*
X5975539Y-19930246D01*
X5975539Y-19930246D02*
X5985063Y-19911198D01*
X5985063Y-19911198D02*
X5994587Y-19901674D01*
X5994587Y-19901674D02*
X6013634Y-19892150D01*
X6013634Y-19892150D02*
X6042206Y-19892150D01*
X6042206Y-19892150D02*
X6061253Y-19901674D01*
X6061253Y-19901674D02*
X6070777Y-19911198D01*
X6070777Y-19911198D02*
X6080301Y-19930246D01*
X6080301Y-19930246D02*
X6080301Y-19987389D01*
X6080301Y-19987389D02*
X6070777Y-20006436D01*
X6070777Y-20006436D02*
X6061253Y-20015960D01*
X6061253Y-20015960D02*
X6042206Y-20025484D01*
X6042206Y-20025484D02*
X6013634Y-20025484D01*
X6194587Y-20025484D02*
X6175539Y-20015960D01*
X6175539Y-20015960D02*
X6166015Y-19996912D01*
X6166015Y-19996912D02*
X6166015Y-19825484D01*
X6346968Y-20015960D02*
X6327920Y-20025484D01*
X6327920Y-20025484D02*
X6289825Y-20025484D01*
X6289825Y-20025484D02*
X6270777Y-20015960D01*
X6270777Y-20015960D02*
X6261253Y-19996912D01*
X6261253Y-19996912D02*
X6261253Y-19920722D01*
X6261253Y-19920722D02*
X6270777Y-19901674D01*
X6270777Y-19901674D02*
X6289825Y-19892150D01*
X6289825Y-19892150D02*
X6327920Y-19892150D01*
X6327920Y-19892150D02*
X6346968Y-19901674D01*
X6346968Y-19901674D02*
X6356491Y-19920722D01*
X6356491Y-19920722D02*
X6356491Y-19939770D01*
X6356491Y-19939770D02*
X6261253Y-19958817D01*
X6432682Y-20015960D02*
X6451730Y-20025484D01*
X6451730Y-20025484D02*
X6489825Y-20025484D01*
X6489825Y-20025484D02*
X6508872Y-20015960D01*
X6508872Y-20015960D02*
X6518396Y-19996912D01*
X6518396Y-19996912D02*
X6518396Y-19987389D01*
X6518396Y-19987389D02*
X6508872Y-19968341D01*
X6508872Y-19968341D02*
X6489825Y-19958817D01*
X6489825Y-19958817D02*
X6461253Y-19958817D01*
X6461253Y-19958817D02*
X6442206Y-19949293D01*
X6442206Y-19949293D02*
X6432682Y-19930246D01*
X6432682Y-19930246D02*
X6432682Y-19920722D01*
X6432682Y-19920722D02*
X6442206Y-19901674D01*
X6442206Y-19901674D02*
X6461253Y-19892150D01*
X6461253Y-19892150D02*
X6489825Y-19892150D01*
X6489825Y-19892150D02*
X6508872Y-19901674D01*
X6585063Y-20101674D02*
X6594587Y-20092150D01*
X6594587Y-20092150D02*
X6613634Y-20063579D01*
X6613634Y-20063579D02*
X6623158Y-20044531D01*
X6623158Y-20044531D02*
X6632682Y-20015960D01*
X6632682Y-20015960D02*
X6642206Y-19968341D01*
X6642206Y-19968341D02*
X6642206Y-19930246D01*
X6642206Y-19930246D02*
X6632682Y-19882627D01*
X6632682Y-19882627D02*
X6623158Y-19854055D01*
X6623158Y-19854055D02*
X6613634Y-19835008D01*
X6613634Y-19835008D02*
X6594587Y-19806436D01*
X6594587Y-19806436D02*
X6585063Y-19796912D01*
D11*
X1772500Y-20160500D02*
X1772500Y-20235500D01*
X1735000Y-20198000D02*
X1810000Y-20198000D01*
D10*
X2108872Y-20089484D02*
X2127920Y-20089484D01*
X2127920Y-20089484D02*
X2146967Y-20099008D01*
X2146967Y-20099008D02*
X2156491Y-20108531D01*
X2156491Y-20108531D02*
X2166015Y-20127579D01*
X2166015Y-20127579D02*
X2175539Y-20165674D01*
X2175539Y-20165674D02*
X2175539Y-20213293D01*
X2175539Y-20213293D02*
X2166015Y-20251389D01*
X2166015Y-20251389D02*
X2156491Y-20270436D01*
X2156491Y-20270436D02*
X2146967Y-20279960D01*
X2146967Y-20279960D02*
X2127920Y-20289484D01*
X2127920Y-20289484D02*
X2108872Y-20289484D01*
X2108872Y-20289484D02*
X2089824Y-20279960D01*
X2089824Y-20279960D02*
X2080301Y-20270436D01*
X2080301Y-20270436D02*
X2070777Y-20251389D01*
X2070777Y-20251389D02*
X2061253Y-20213293D01*
X2061253Y-20213293D02*
X2061253Y-20165674D01*
X2061253Y-20165674D02*
X2070777Y-20127579D01*
X2070777Y-20127579D02*
X2080301Y-20108531D01*
X2080301Y-20108531D02*
X2089824Y-20099008D01*
X2089824Y-20099008D02*
X2108872Y-20089484D01*
X2261253Y-20270436D02*
X2270777Y-20279960D01*
X2270777Y-20279960D02*
X2261253Y-20289484D01*
X2261253Y-20289484D02*
X2251729Y-20279960D01*
X2251729Y-20279960D02*
X2261253Y-20270436D01*
X2261253Y-20270436D02*
X2261253Y-20289484D01*
X2337444Y-20089484D02*
X2470777Y-20089484D01*
X2470777Y-20089484D02*
X2385063Y-20289484D01*
X2642205Y-20089484D02*
X2546967Y-20089484D01*
X2546967Y-20089484D02*
X2537444Y-20184722D01*
X2537444Y-20184722D02*
X2546967Y-20175198D01*
X2546967Y-20175198D02*
X2566015Y-20165674D01*
X2566015Y-20165674D02*
X2613634Y-20165674D01*
X2613634Y-20165674D02*
X2632682Y-20175198D01*
X2632682Y-20175198D02*
X2642205Y-20184722D01*
X2642205Y-20184722D02*
X2651729Y-20203770D01*
X2651729Y-20203770D02*
X2651729Y-20251389D01*
X2651729Y-20251389D02*
X2642205Y-20270436D01*
X2642205Y-20270436D02*
X2632682Y-20279960D01*
X2632682Y-20279960D02*
X2613634Y-20289484D01*
X2613634Y-20289484D02*
X2566015Y-20289484D01*
X2566015Y-20289484D02*
X2546967Y-20279960D01*
X2546967Y-20279960D02*
X2537444Y-20270436D01*
X2775539Y-20089484D02*
X2794586Y-20089484D01*
X2794586Y-20089484D02*
X2813634Y-20099008D01*
X2813634Y-20099008D02*
X2823158Y-20108531D01*
X2823158Y-20108531D02*
X2832682Y-20127579D01*
X2832682Y-20127579D02*
X2842205Y-20165674D01*
X2842205Y-20165674D02*
X2842205Y-20213293D01*
X2842205Y-20213293D02*
X2832682Y-20251389D01*
X2832682Y-20251389D02*
X2823158Y-20270436D01*
X2823158Y-20270436D02*
X2813634Y-20279960D01*
X2813634Y-20279960D02*
X2794586Y-20289484D01*
X2794586Y-20289484D02*
X2775539Y-20289484D01*
X2775539Y-20289484D02*
X2756491Y-20279960D01*
X2756491Y-20279960D02*
X2746967Y-20270436D01*
X2746967Y-20270436D02*
X2737444Y-20251389D01*
X2737444Y-20251389D02*
X2727920Y-20213293D01*
X2727920Y-20213293D02*
X2727920Y-20165674D01*
X2727920Y-20165674D02*
X2737444Y-20127579D01*
X2737444Y-20127579D02*
X2746967Y-20108531D01*
X2746967Y-20108531D02*
X2756491Y-20099008D01*
X2756491Y-20099008D02*
X2775539Y-20089484D01*
X2927920Y-20289484D02*
X2927920Y-20156150D01*
X2927920Y-20175198D02*
X2937443Y-20165674D01*
X2937443Y-20165674D02*
X2956491Y-20156150D01*
X2956491Y-20156150D02*
X2985063Y-20156150D01*
X2985063Y-20156150D02*
X3004110Y-20165674D01*
X3004110Y-20165674D02*
X3013634Y-20184722D01*
X3013634Y-20184722D02*
X3013634Y-20289484D01*
X3013634Y-20184722D02*
X3023158Y-20165674D01*
X3023158Y-20165674D02*
X3042205Y-20156150D01*
X3042205Y-20156150D02*
X3070777Y-20156150D01*
X3070777Y-20156150D02*
X3089824Y-20165674D01*
X3089824Y-20165674D02*
X3099348Y-20184722D01*
X3099348Y-20184722D02*
X3099348Y-20289484D01*
X3194586Y-20289484D02*
X3194586Y-20156150D01*
X3194586Y-20175198D02*
X3204110Y-20165674D01*
X3204110Y-20165674D02*
X3223158Y-20156150D01*
X3223158Y-20156150D02*
X3251729Y-20156150D01*
X3251729Y-20156150D02*
X3270777Y-20165674D01*
X3270777Y-20165674D02*
X3280301Y-20184722D01*
X3280301Y-20184722D02*
X3280301Y-20289484D01*
X3280301Y-20184722D02*
X3289824Y-20165674D01*
X3289824Y-20165674D02*
X3308872Y-20156150D01*
X3308872Y-20156150D02*
X3337443Y-20156150D01*
X3337443Y-20156150D02*
X3356491Y-20165674D01*
X3356491Y-20165674D02*
X3366015Y-20184722D01*
X3366015Y-20184722D02*
X3366015Y-20289484D01*
X3756491Y-20079960D02*
X3585063Y-20337103D01*
X4013634Y-20089484D02*
X4032682Y-20089484D01*
X4032682Y-20089484D02*
X4051729Y-20099008D01*
X4051729Y-20099008D02*
X4061253Y-20108531D01*
X4061253Y-20108531D02*
X4070777Y-20127579D01*
X4070777Y-20127579D02*
X4080301Y-20165674D01*
X4080301Y-20165674D02*
X4080301Y-20213293D01*
X4080301Y-20213293D02*
X4070777Y-20251389D01*
X4070777Y-20251389D02*
X4061253Y-20270436D01*
X4061253Y-20270436D02*
X4051729Y-20279960D01*
X4051729Y-20279960D02*
X4032682Y-20289484D01*
X4032682Y-20289484D02*
X4013634Y-20289484D01*
X4013634Y-20289484D02*
X3994586Y-20279960D01*
X3994586Y-20279960D02*
X3985063Y-20270436D01*
X3985063Y-20270436D02*
X3975539Y-20251389D01*
X3975539Y-20251389D02*
X3966015Y-20213293D01*
X3966015Y-20213293D02*
X3966015Y-20165674D01*
X3966015Y-20165674D02*
X3975539Y-20127579D01*
X3975539Y-20127579D02*
X3985063Y-20108531D01*
X3985063Y-20108531D02*
X3994586Y-20099008D01*
X3994586Y-20099008D02*
X4013634Y-20089484D01*
X4166015Y-20270436D02*
X4175539Y-20279960D01*
X4175539Y-20279960D02*
X4166015Y-20289484D01*
X4166015Y-20289484D02*
X4156491Y-20279960D01*
X4156491Y-20279960D02*
X4166015Y-20270436D01*
X4166015Y-20270436D02*
X4166015Y-20289484D01*
X4299348Y-20089484D02*
X4318396Y-20089484D01*
X4318396Y-20089484D02*
X4337444Y-20099008D01*
X4337444Y-20099008D02*
X4346968Y-20108531D01*
X4346968Y-20108531D02*
X4356491Y-20127579D01*
X4356491Y-20127579D02*
X4366015Y-20165674D01*
X4366015Y-20165674D02*
X4366015Y-20213293D01*
X4366015Y-20213293D02*
X4356491Y-20251389D01*
X4356491Y-20251389D02*
X4346968Y-20270436D01*
X4346968Y-20270436D02*
X4337444Y-20279960D01*
X4337444Y-20279960D02*
X4318396Y-20289484D01*
X4318396Y-20289484D02*
X4299348Y-20289484D01*
X4299348Y-20289484D02*
X4280301Y-20279960D01*
X4280301Y-20279960D02*
X4270777Y-20270436D01*
X4270777Y-20270436D02*
X4261253Y-20251389D01*
X4261253Y-20251389D02*
X4251729Y-20213293D01*
X4251729Y-20213293D02*
X4251729Y-20165674D01*
X4251729Y-20165674D02*
X4261253Y-20127579D01*
X4261253Y-20127579D02*
X4270777Y-20108531D01*
X4270777Y-20108531D02*
X4280301Y-20099008D01*
X4280301Y-20099008D02*
X4299348Y-20089484D01*
X4442206Y-20108531D02*
X4451729Y-20099008D01*
X4451729Y-20099008D02*
X4470777Y-20089484D01*
X4470777Y-20089484D02*
X4518396Y-20089484D01*
X4518396Y-20089484D02*
X4537444Y-20099008D01*
X4537444Y-20099008D02*
X4546968Y-20108531D01*
X4546968Y-20108531D02*
X4556491Y-20127579D01*
X4556491Y-20127579D02*
X4556491Y-20146627D01*
X4556491Y-20146627D02*
X4546968Y-20175198D01*
X4546968Y-20175198D02*
X4432682Y-20289484D01*
X4432682Y-20289484D02*
X4556491Y-20289484D01*
X4651729Y-20289484D02*
X4689825Y-20289484D01*
X4689825Y-20289484D02*
X4708872Y-20279960D01*
X4708872Y-20279960D02*
X4718396Y-20270436D01*
X4718396Y-20270436D02*
X4737444Y-20241865D01*
X4737444Y-20241865D02*
X4746968Y-20203770D01*
X4746968Y-20203770D02*
X4746968Y-20127579D01*
X4746968Y-20127579D02*
X4737444Y-20108531D01*
X4737444Y-20108531D02*
X4727920Y-20099008D01*
X4727920Y-20099008D02*
X4708872Y-20089484D01*
X4708872Y-20089484D02*
X4670777Y-20089484D01*
X4670777Y-20089484D02*
X4651729Y-20099008D01*
X4651729Y-20099008D02*
X4642206Y-20108531D01*
X4642206Y-20108531D02*
X4632682Y-20127579D01*
X4632682Y-20127579D02*
X4632682Y-20175198D01*
X4632682Y-20175198D02*
X4642206Y-20194246D01*
X4642206Y-20194246D02*
X4651729Y-20203770D01*
X4651729Y-20203770D02*
X4670777Y-20213293D01*
X4670777Y-20213293D02*
X4708872Y-20213293D01*
X4708872Y-20213293D02*
X4727920Y-20203770D01*
X4727920Y-20203770D02*
X4737444Y-20194246D01*
X4737444Y-20194246D02*
X4746968Y-20175198D01*
X4927920Y-20089484D02*
X4832682Y-20089484D01*
X4832682Y-20089484D02*
X4823158Y-20184722D01*
X4823158Y-20184722D02*
X4832682Y-20175198D01*
X4832682Y-20175198D02*
X4851729Y-20165674D01*
X4851729Y-20165674D02*
X4899349Y-20165674D01*
X4899349Y-20165674D02*
X4918396Y-20175198D01*
X4918396Y-20175198D02*
X4927920Y-20184722D01*
X4927920Y-20184722D02*
X4937444Y-20203770D01*
X4937444Y-20203770D02*
X4937444Y-20251389D01*
X4937444Y-20251389D02*
X4927920Y-20270436D01*
X4927920Y-20270436D02*
X4918396Y-20279960D01*
X4918396Y-20279960D02*
X4899349Y-20289484D01*
X4899349Y-20289484D02*
X4851729Y-20289484D01*
X4851729Y-20289484D02*
X4832682Y-20279960D01*
X4832682Y-20279960D02*
X4823158Y-20270436D01*
X5013634Y-20089484D02*
X5013634Y-20127579D01*
X5089825Y-20089484D02*
X5089825Y-20127579D01*
X5385063Y-20365674D02*
X5375539Y-20356150D01*
X5375539Y-20356150D02*
X5356491Y-20327579D01*
X5356491Y-20327579D02*
X5346968Y-20308531D01*
X5346968Y-20308531D02*
X5337444Y-20279960D01*
X5337444Y-20279960D02*
X5327920Y-20232341D01*
X5327920Y-20232341D02*
X5327920Y-20194246D01*
X5327920Y-20194246D02*
X5337444Y-20146627D01*
X5337444Y-20146627D02*
X5346968Y-20118055D01*
X5346968Y-20118055D02*
X5356491Y-20099008D01*
X5356491Y-20099008D02*
X5375539Y-20070436D01*
X5375539Y-20070436D02*
X5385063Y-20060912D01*
X5566015Y-20289484D02*
X5451730Y-20289484D01*
X5508872Y-20289484D02*
X5508872Y-20089484D01*
X5508872Y-20089484D02*
X5489825Y-20118055D01*
X5489825Y-20118055D02*
X5470777Y-20137103D01*
X5470777Y-20137103D02*
X5451730Y-20146627D01*
X5642206Y-20108531D02*
X5651729Y-20099008D01*
X5651729Y-20099008D02*
X5670777Y-20089484D01*
X5670777Y-20089484D02*
X5718396Y-20089484D01*
X5718396Y-20089484D02*
X5737444Y-20099008D01*
X5737444Y-20099008D02*
X5746968Y-20108531D01*
X5746968Y-20108531D02*
X5756491Y-20127579D01*
X5756491Y-20127579D02*
X5756491Y-20146627D01*
X5756491Y-20146627D02*
X5746968Y-20175198D01*
X5746968Y-20175198D02*
X5632682Y-20289484D01*
X5632682Y-20289484D02*
X5756491Y-20289484D01*
X5994587Y-20289484D02*
X5994587Y-20089484D01*
X6080301Y-20289484D02*
X6080301Y-20184722D01*
X6080301Y-20184722D02*
X6070777Y-20165674D01*
X6070777Y-20165674D02*
X6051730Y-20156150D01*
X6051730Y-20156150D02*
X6023158Y-20156150D01*
X6023158Y-20156150D02*
X6004110Y-20165674D01*
X6004110Y-20165674D02*
X5994587Y-20175198D01*
X6204110Y-20289484D02*
X6185063Y-20279960D01*
X6185063Y-20279960D02*
X6175539Y-20270436D01*
X6175539Y-20270436D02*
X6166015Y-20251389D01*
X6166015Y-20251389D02*
X6166015Y-20194246D01*
X6166015Y-20194246D02*
X6175539Y-20175198D01*
X6175539Y-20175198D02*
X6185063Y-20165674D01*
X6185063Y-20165674D02*
X6204110Y-20156150D01*
X6204110Y-20156150D02*
X6232682Y-20156150D01*
X6232682Y-20156150D02*
X6251730Y-20165674D01*
X6251730Y-20165674D02*
X6261253Y-20175198D01*
X6261253Y-20175198D02*
X6270777Y-20194246D01*
X6270777Y-20194246D02*
X6270777Y-20251389D01*
X6270777Y-20251389D02*
X6261253Y-20270436D01*
X6261253Y-20270436D02*
X6251730Y-20279960D01*
X6251730Y-20279960D02*
X6232682Y-20289484D01*
X6232682Y-20289484D02*
X6204110Y-20289484D01*
X6385063Y-20289484D02*
X6366015Y-20279960D01*
X6366015Y-20279960D02*
X6356491Y-20260912D01*
X6356491Y-20260912D02*
X6356491Y-20089484D01*
X6537444Y-20279960D02*
X6518396Y-20289484D01*
X6518396Y-20289484D02*
X6480301Y-20289484D01*
X6480301Y-20289484D02*
X6461253Y-20279960D01*
X6461253Y-20279960D02*
X6451730Y-20260912D01*
X6451730Y-20260912D02*
X6451730Y-20184722D01*
X6451730Y-20184722D02*
X6461253Y-20165674D01*
X6461253Y-20165674D02*
X6480301Y-20156150D01*
X6480301Y-20156150D02*
X6518396Y-20156150D01*
X6518396Y-20156150D02*
X6537444Y-20165674D01*
X6537444Y-20165674D02*
X6546968Y-20184722D01*
X6546968Y-20184722D02*
X6546968Y-20203770D01*
X6546968Y-20203770D02*
X6451730Y-20222817D01*
X6623158Y-20279960D02*
X6642206Y-20289484D01*
X6642206Y-20289484D02*
X6680301Y-20289484D01*
X6680301Y-20289484D02*
X6699349Y-20279960D01*
X6699349Y-20279960D02*
X6708872Y-20260912D01*
X6708872Y-20260912D02*
X6708872Y-20251389D01*
X6708872Y-20251389D02*
X6699349Y-20232341D01*
X6699349Y-20232341D02*
X6680301Y-20222817D01*
X6680301Y-20222817D02*
X6651730Y-20222817D01*
X6651730Y-20222817D02*
X6632682Y-20213293D01*
X6632682Y-20213293D02*
X6623158Y-20194246D01*
X6623158Y-20194246D02*
X6623158Y-20184722D01*
X6623158Y-20184722D02*
X6632682Y-20165674D01*
X6632682Y-20165674D02*
X6651730Y-20156150D01*
X6651730Y-20156150D02*
X6680301Y-20156150D01*
X6680301Y-20156150D02*
X6699349Y-20165674D01*
X6775539Y-20365674D02*
X6785063Y-20356150D01*
X6785063Y-20356150D02*
X6804111Y-20327579D01*
X6804111Y-20327579D02*
X6813634Y-20308531D01*
X6813634Y-20308531D02*
X6823158Y-20279960D01*
X6823158Y-20279960D02*
X6832682Y-20232341D01*
X6832682Y-20232341D02*
X6832682Y-20194246D01*
X6832682Y-20194246D02*
X6823158Y-20146627D01*
X6823158Y-20146627D02*
X6813634Y-20118055D01*
X6813634Y-20118055D02*
X6804111Y-20099008D01*
X6804111Y-20099008D02*
X6785063Y-20070436D01*
X6785063Y-20070436D02*
X6775539Y-20060912D01*
D11*
X1798284Y-20490285D02*
X1798284Y-20433716D01*
X1741715Y-20433716D01*
X1741715Y-20490285D01*
X1798284Y-20490285D01*
D10*
X2108872Y-20353484D02*
X2127920Y-20353484D01*
X2127920Y-20353484D02*
X2146967Y-20363008D01*
X2146967Y-20363008D02*
X2156491Y-20372531D01*
X2156491Y-20372531D02*
X2166015Y-20391579D01*
X2166015Y-20391579D02*
X2175539Y-20429674D01*
X2175539Y-20429674D02*
X2175539Y-20477293D01*
X2175539Y-20477293D02*
X2166015Y-20515389D01*
X2166015Y-20515389D02*
X2156491Y-20534436D01*
X2156491Y-20534436D02*
X2146967Y-20543960D01*
X2146967Y-20543960D02*
X2127920Y-20553484D01*
X2127920Y-20553484D02*
X2108872Y-20553484D01*
X2108872Y-20553484D02*
X2089824Y-20543960D01*
X2089824Y-20543960D02*
X2080301Y-20534436D01*
X2080301Y-20534436D02*
X2070777Y-20515389D01*
X2070777Y-20515389D02*
X2061253Y-20477293D01*
X2061253Y-20477293D02*
X2061253Y-20429674D01*
X2061253Y-20429674D02*
X2070777Y-20391579D01*
X2070777Y-20391579D02*
X2080301Y-20372531D01*
X2080301Y-20372531D02*
X2089824Y-20363008D01*
X2089824Y-20363008D02*
X2108872Y-20353484D01*
X2261253Y-20534436D02*
X2270777Y-20543960D01*
X2270777Y-20543960D02*
X2261253Y-20553484D01*
X2261253Y-20553484D02*
X2251729Y-20543960D01*
X2251729Y-20543960D02*
X2261253Y-20534436D01*
X2261253Y-20534436D02*
X2261253Y-20553484D01*
X2385063Y-20439198D02*
X2366015Y-20429674D01*
X2366015Y-20429674D02*
X2356491Y-20420150D01*
X2356491Y-20420150D02*
X2346967Y-20401103D01*
X2346967Y-20401103D02*
X2346967Y-20391579D01*
X2346967Y-20391579D02*
X2356491Y-20372531D01*
X2356491Y-20372531D02*
X2366015Y-20363008D01*
X2366015Y-20363008D02*
X2385063Y-20353484D01*
X2385063Y-20353484D02*
X2423158Y-20353484D01*
X2423158Y-20353484D02*
X2442205Y-20363008D01*
X2442205Y-20363008D02*
X2451729Y-20372531D01*
X2451729Y-20372531D02*
X2461253Y-20391579D01*
X2461253Y-20391579D02*
X2461253Y-20401103D01*
X2461253Y-20401103D02*
X2451729Y-20420150D01*
X2451729Y-20420150D02*
X2442205Y-20429674D01*
X2442205Y-20429674D02*
X2423158Y-20439198D01*
X2423158Y-20439198D02*
X2385063Y-20439198D01*
X2385063Y-20439198D02*
X2366015Y-20448722D01*
X2366015Y-20448722D02*
X2356491Y-20458246D01*
X2356491Y-20458246D02*
X2346967Y-20477293D01*
X2346967Y-20477293D02*
X2346967Y-20515389D01*
X2346967Y-20515389D02*
X2356491Y-20534436D01*
X2356491Y-20534436D02*
X2366015Y-20543960D01*
X2366015Y-20543960D02*
X2385063Y-20553484D01*
X2385063Y-20553484D02*
X2423158Y-20553484D01*
X2423158Y-20553484D02*
X2442205Y-20543960D01*
X2442205Y-20543960D02*
X2451729Y-20534436D01*
X2451729Y-20534436D02*
X2461253Y-20515389D01*
X2461253Y-20515389D02*
X2461253Y-20477293D01*
X2461253Y-20477293D02*
X2451729Y-20458246D01*
X2451729Y-20458246D02*
X2442205Y-20448722D01*
X2442205Y-20448722D02*
X2423158Y-20439198D01*
X2585063Y-20353484D02*
X2604110Y-20353484D01*
X2604110Y-20353484D02*
X2623158Y-20363008D01*
X2623158Y-20363008D02*
X2632682Y-20372531D01*
X2632682Y-20372531D02*
X2642205Y-20391579D01*
X2642205Y-20391579D02*
X2651729Y-20429674D01*
X2651729Y-20429674D02*
X2651729Y-20477293D01*
X2651729Y-20477293D02*
X2642205Y-20515389D01*
X2642205Y-20515389D02*
X2632682Y-20534436D01*
X2632682Y-20534436D02*
X2623158Y-20543960D01*
X2623158Y-20543960D02*
X2604110Y-20553484D01*
X2604110Y-20553484D02*
X2585063Y-20553484D01*
X2585063Y-20553484D02*
X2566015Y-20543960D01*
X2566015Y-20543960D02*
X2556491Y-20534436D01*
X2556491Y-20534436D02*
X2546967Y-20515389D01*
X2546967Y-20515389D02*
X2537444Y-20477293D01*
X2537444Y-20477293D02*
X2537444Y-20429674D01*
X2537444Y-20429674D02*
X2546967Y-20391579D01*
X2546967Y-20391579D02*
X2556491Y-20372531D01*
X2556491Y-20372531D02*
X2566015Y-20363008D01*
X2566015Y-20363008D02*
X2585063Y-20353484D01*
X2775539Y-20353484D02*
X2794586Y-20353484D01*
X2794586Y-20353484D02*
X2813634Y-20363008D01*
X2813634Y-20363008D02*
X2823158Y-20372531D01*
X2823158Y-20372531D02*
X2832682Y-20391579D01*
X2832682Y-20391579D02*
X2842205Y-20429674D01*
X2842205Y-20429674D02*
X2842205Y-20477293D01*
X2842205Y-20477293D02*
X2832682Y-20515389D01*
X2832682Y-20515389D02*
X2823158Y-20534436D01*
X2823158Y-20534436D02*
X2813634Y-20543960D01*
X2813634Y-20543960D02*
X2794586Y-20553484D01*
X2794586Y-20553484D02*
X2775539Y-20553484D01*
X2775539Y-20553484D02*
X2756491Y-20543960D01*
X2756491Y-20543960D02*
X2746967Y-20534436D01*
X2746967Y-20534436D02*
X2737444Y-20515389D01*
X2737444Y-20515389D02*
X2727920Y-20477293D01*
X2727920Y-20477293D02*
X2727920Y-20429674D01*
X2727920Y-20429674D02*
X2737444Y-20391579D01*
X2737444Y-20391579D02*
X2746967Y-20372531D01*
X2746967Y-20372531D02*
X2756491Y-20363008D01*
X2756491Y-20363008D02*
X2775539Y-20353484D01*
X2927920Y-20553484D02*
X2927920Y-20420150D01*
X2927920Y-20439198D02*
X2937443Y-20429674D01*
X2937443Y-20429674D02*
X2956491Y-20420150D01*
X2956491Y-20420150D02*
X2985063Y-20420150D01*
X2985063Y-20420150D02*
X3004110Y-20429674D01*
X3004110Y-20429674D02*
X3013634Y-20448722D01*
X3013634Y-20448722D02*
X3013634Y-20553484D01*
X3013634Y-20448722D02*
X3023158Y-20429674D01*
X3023158Y-20429674D02*
X3042205Y-20420150D01*
X3042205Y-20420150D02*
X3070777Y-20420150D01*
X3070777Y-20420150D02*
X3089824Y-20429674D01*
X3089824Y-20429674D02*
X3099348Y-20448722D01*
X3099348Y-20448722D02*
X3099348Y-20553484D01*
X3194586Y-20553484D02*
X3194586Y-20420150D01*
X3194586Y-20439198D02*
X3204110Y-20429674D01*
X3204110Y-20429674D02*
X3223158Y-20420150D01*
X3223158Y-20420150D02*
X3251729Y-20420150D01*
X3251729Y-20420150D02*
X3270777Y-20429674D01*
X3270777Y-20429674D02*
X3280301Y-20448722D01*
X3280301Y-20448722D02*
X3280301Y-20553484D01*
X3280301Y-20448722D02*
X3289824Y-20429674D01*
X3289824Y-20429674D02*
X3308872Y-20420150D01*
X3308872Y-20420150D02*
X3337443Y-20420150D01*
X3337443Y-20420150D02*
X3356491Y-20429674D01*
X3356491Y-20429674D02*
X3366015Y-20448722D01*
X3366015Y-20448722D02*
X3366015Y-20553484D01*
X3756491Y-20343960D02*
X3585063Y-20601103D01*
X4013634Y-20353484D02*
X4032682Y-20353484D01*
X4032682Y-20353484D02*
X4051729Y-20363008D01*
X4051729Y-20363008D02*
X4061253Y-20372531D01*
X4061253Y-20372531D02*
X4070777Y-20391579D01*
X4070777Y-20391579D02*
X4080301Y-20429674D01*
X4080301Y-20429674D02*
X4080301Y-20477293D01*
X4080301Y-20477293D02*
X4070777Y-20515389D01*
X4070777Y-20515389D02*
X4061253Y-20534436D01*
X4061253Y-20534436D02*
X4051729Y-20543960D01*
X4051729Y-20543960D02*
X4032682Y-20553484D01*
X4032682Y-20553484D02*
X4013634Y-20553484D01*
X4013634Y-20553484D02*
X3994586Y-20543960D01*
X3994586Y-20543960D02*
X3985063Y-20534436D01*
X3985063Y-20534436D02*
X3975539Y-20515389D01*
X3975539Y-20515389D02*
X3966015Y-20477293D01*
X3966015Y-20477293D02*
X3966015Y-20429674D01*
X3966015Y-20429674D02*
X3975539Y-20391579D01*
X3975539Y-20391579D02*
X3985063Y-20372531D01*
X3985063Y-20372531D02*
X3994586Y-20363008D01*
X3994586Y-20363008D02*
X4013634Y-20353484D01*
X4166015Y-20534436D02*
X4175539Y-20543960D01*
X4175539Y-20543960D02*
X4166015Y-20553484D01*
X4166015Y-20553484D02*
X4156491Y-20543960D01*
X4156491Y-20543960D02*
X4166015Y-20534436D01*
X4166015Y-20534436D02*
X4166015Y-20553484D01*
X4299348Y-20353484D02*
X4318396Y-20353484D01*
X4318396Y-20353484D02*
X4337444Y-20363008D01*
X4337444Y-20363008D02*
X4346968Y-20372531D01*
X4346968Y-20372531D02*
X4356491Y-20391579D01*
X4356491Y-20391579D02*
X4366015Y-20429674D01*
X4366015Y-20429674D02*
X4366015Y-20477293D01*
X4366015Y-20477293D02*
X4356491Y-20515389D01*
X4356491Y-20515389D02*
X4346968Y-20534436D01*
X4346968Y-20534436D02*
X4337444Y-20543960D01*
X4337444Y-20543960D02*
X4318396Y-20553484D01*
X4318396Y-20553484D02*
X4299348Y-20553484D01*
X4299348Y-20553484D02*
X4280301Y-20543960D01*
X4280301Y-20543960D02*
X4270777Y-20534436D01*
X4270777Y-20534436D02*
X4261253Y-20515389D01*
X4261253Y-20515389D02*
X4251729Y-20477293D01*
X4251729Y-20477293D02*
X4251729Y-20429674D01*
X4251729Y-20429674D02*
X4261253Y-20391579D01*
X4261253Y-20391579D02*
X4270777Y-20372531D01*
X4270777Y-20372531D02*
X4280301Y-20363008D01*
X4280301Y-20363008D02*
X4299348Y-20353484D01*
X4432682Y-20353484D02*
X4556491Y-20353484D01*
X4556491Y-20353484D02*
X4489825Y-20429674D01*
X4489825Y-20429674D02*
X4518396Y-20429674D01*
X4518396Y-20429674D02*
X4537444Y-20439198D01*
X4537444Y-20439198D02*
X4546968Y-20448722D01*
X4546968Y-20448722D02*
X4556491Y-20467770D01*
X4556491Y-20467770D02*
X4556491Y-20515389D01*
X4556491Y-20515389D02*
X4546968Y-20534436D01*
X4546968Y-20534436D02*
X4537444Y-20543960D01*
X4537444Y-20543960D02*
X4518396Y-20553484D01*
X4518396Y-20553484D02*
X4461253Y-20553484D01*
X4461253Y-20553484D02*
X4442206Y-20543960D01*
X4442206Y-20543960D02*
X4432682Y-20534436D01*
X4746968Y-20553484D02*
X4632682Y-20553484D01*
X4689825Y-20553484D02*
X4689825Y-20353484D01*
X4689825Y-20353484D02*
X4670777Y-20382055D01*
X4670777Y-20382055D02*
X4651729Y-20401103D01*
X4651729Y-20401103D02*
X4632682Y-20410627D01*
X4927920Y-20353484D02*
X4832682Y-20353484D01*
X4832682Y-20353484D02*
X4823158Y-20448722D01*
X4823158Y-20448722D02*
X4832682Y-20439198D01*
X4832682Y-20439198D02*
X4851729Y-20429674D01*
X4851729Y-20429674D02*
X4899349Y-20429674D01*
X4899349Y-20429674D02*
X4918396Y-20439198D01*
X4918396Y-20439198D02*
X4927920Y-20448722D01*
X4927920Y-20448722D02*
X4937444Y-20467770D01*
X4937444Y-20467770D02*
X4937444Y-20515389D01*
X4937444Y-20515389D02*
X4927920Y-20534436D01*
X4927920Y-20534436D02*
X4918396Y-20543960D01*
X4918396Y-20543960D02*
X4899349Y-20553484D01*
X4899349Y-20553484D02*
X4851729Y-20553484D01*
X4851729Y-20553484D02*
X4832682Y-20543960D01*
X4832682Y-20543960D02*
X4823158Y-20534436D01*
X5013634Y-20353484D02*
X5013634Y-20391579D01*
X5089825Y-20353484D02*
X5089825Y-20391579D01*
X5385063Y-20629674D02*
X5375539Y-20620150D01*
X5375539Y-20620150D02*
X5356491Y-20591579D01*
X5356491Y-20591579D02*
X5346968Y-20572531D01*
X5346968Y-20572531D02*
X5337444Y-20543960D01*
X5337444Y-20543960D02*
X5327920Y-20496341D01*
X5327920Y-20496341D02*
X5327920Y-20458246D01*
X5327920Y-20458246D02*
X5337444Y-20410627D01*
X5337444Y-20410627D02*
X5346968Y-20382055D01*
X5346968Y-20382055D02*
X5356491Y-20363008D01*
X5356491Y-20363008D02*
X5375539Y-20334436D01*
X5375539Y-20334436D02*
X5385063Y-20324912D01*
X5470777Y-20553484D02*
X5508872Y-20553484D01*
X5508872Y-20553484D02*
X5527920Y-20543960D01*
X5527920Y-20543960D02*
X5537444Y-20534436D01*
X5537444Y-20534436D02*
X5556491Y-20505865D01*
X5556491Y-20505865D02*
X5566015Y-20467770D01*
X5566015Y-20467770D02*
X5566015Y-20391579D01*
X5566015Y-20391579D02*
X5556491Y-20372531D01*
X5556491Y-20372531D02*
X5546968Y-20363008D01*
X5546968Y-20363008D02*
X5527920Y-20353484D01*
X5527920Y-20353484D02*
X5489825Y-20353484D01*
X5489825Y-20353484D02*
X5470777Y-20363008D01*
X5470777Y-20363008D02*
X5461253Y-20372531D01*
X5461253Y-20372531D02*
X5451730Y-20391579D01*
X5451730Y-20391579D02*
X5451730Y-20439198D01*
X5451730Y-20439198D02*
X5461253Y-20458246D01*
X5461253Y-20458246D02*
X5470777Y-20467770D01*
X5470777Y-20467770D02*
X5489825Y-20477293D01*
X5489825Y-20477293D02*
X5527920Y-20477293D01*
X5527920Y-20477293D02*
X5546968Y-20467770D01*
X5546968Y-20467770D02*
X5556491Y-20458246D01*
X5556491Y-20458246D02*
X5566015Y-20439198D01*
X5680301Y-20439198D02*
X5661253Y-20429674D01*
X5661253Y-20429674D02*
X5651729Y-20420150D01*
X5651729Y-20420150D02*
X5642206Y-20401103D01*
X5642206Y-20401103D02*
X5642206Y-20391579D01*
X5642206Y-20391579D02*
X5651729Y-20372531D01*
X5651729Y-20372531D02*
X5661253Y-20363008D01*
X5661253Y-20363008D02*
X5680301Y-20353484D01*
X5680301Y-20353484D02*
X5718396Y-20353484D01*
X5718396Y-20353484D02*
X5737444Y-20363008D01*
X5737444Y-20363008D02*
X5746968Y-20372531D01*
X5746968Y-20372531D02*
X5756491Y-20391579D01*
X5756491Y-20391579D02*
X5756491Y-20401103D01*
X5756491Y-20401103D02*
X5746968Y-20420150D01*
X5746968Y-20420150D02*
X5737444Y-20429674D01*
X5737444Y-20429674D02*
X5718396Y-20439198D01*
X5718396Y-20439198D02*
X5680301Y-20439198D01*
X5680301Y-20439198D02*
X5661253Y-20448722D01*
X5661253Y-20448722D02*
X5651729Y-20458246D01*
X5651729Y-20458246D02*
X5642206Y-20477293D01*
X5642206Y-20477293D02*
X5642206Y-20515389D01*
X5642206Y-20515389D02*
X5651729Y-20534436D01*
X5651729Y-20534436D02*
X5661253Y-20543960D01*
X5661253Y-20543960D02*
X5680301Y-20553484D01*
X5680301Y-20553484D02*
X5718396Y-20553484D01*
X5718396Y-20553484D02*
X5737444Y-20543960D01*
X5737444Y-20543960D02*
X5746968Y-20534436D01*
X5746968Y-20534436D02*
X5756491Y-20515389D01*
X5756491Y-20515389D02*
X5756491Y-20477293D01*
X5756491Y-20477293D02*
X5746968Y-20458246D01*
X5746968Y-20458246D02*
X5737444Y-20448722D01*
X5737444Y-20448722D02*
X5718396Y-20439198D01*
X5994587Y-20553484D02*
X5994587Y-20353484D01*
X6080301Y-20553484D02*
X6080301Y-20448722D01*
X6080301Y-20448722D02*
X6070777Y-20429674D01*
X6070777Y-20429674D02*
X6051730Y-20420150D01*
X6051730Y-20420150D02*
X6023158Y-20420150D01*
X6023158Y-20420150D02*
X6004110Y-20429674D01*
X6004110Y-20429674D02*
X5994587Y-20439198D01*
X6204110Y-20553484D02*
X6185063Y-20543960D01*
X6185063Y-20543960D02*
X6175539Y-20534436D01*
X6175539Y-20534436D02*
X6166015Y-20515389D01*
X6166015Y-20515389D02*
X6166015Y-20458246D01*
X6166015Y-20458246D02*
X6175539Y-20439198D01*
X6175539Y-20439198D02*
X6185063Y-20429674D01*
X6185063Y-20429674D02*
X6204110Y-20420150D01*
X6204110Y-20420150D02*
X6232682Y-20420150D01*
X6232682Y-20420150D02*
X6251730Y-20429674D01*
X6251730Y-20429674D02*
X6261253Y-20439198D01*
X6261253Y-20439198D02*
X6270777Y-20458246D01*
X6270777Y-20458246D02*
X6270777Y-20515389D01*
X6270777Y-20515389D02*
X6261253Y-20534436D01*
X6261253Y-20534436D02*
X6251730Y-20543960D01*
X6251730Y-20543960D02*
X6232682Y-20553484D01*
X6232682Y-20553484D02*
X6204110Y-20553484D01*
X6385063Y-20553484D02*
X6366015Y-20543960D01*
X6366015Y-20543960D02*
X6356491Y-20524912D01*
X6356491Y-20524912D02*
X6356491Y-20353484D01*
X6537444Y-20543960D02*
X6518396Y-20553484D01*
X6518396Y-20553484D02*
X6480301Y-20553484D01*
X6480301Y-20553484D02*
X6461253Y-20543960D01*
X6461253Y-20543960D02*
X6451730Y-20524912D01*
X6451730Y-20524912D02*
X6451730Y-20448722D01*
X6451730Y-20448722D02*
X6461253Y-20429674D01*
X6461253Y-20429674D02*
X6480301Y-20420150D01*
X6480301Y-20420150D02*
X6518396Y-20420150D01*
X6518396Y-20420150D02*
X6537444Y-20429674D01*
X6537444Y-20429674D02*
X6546968Y-20448722D01*
X6546968Y-20448722D02*
X6546968Y-20467770D01*
X6546968Y-20467770D02*
X6451730Y-20486817D01*
X6623158Y-20543960D02*
X6642206Y-20553484D01*
X6642206Y-20553484D02*
X6680301Y-20553484D01*
X6680301Y-20553484D02*
X6699349Y-20543960D01*
X6699349Y-20543960D02*
X6708872Y-20524912D01*
X6708872Y-20524912D02*
X6708872Y-20515389D01*
X6708872Y-20515389D02*
X6699349Y-20496341D01*
X6699349Y-20496341D02*
X6680301Y-20486817D01*
X6680301Y-20486817D02*
X6651730Y-20486817D01*
X6651730Y-20486817D02*
X6632682Y-20477293D01*
X6632682Y-20477293D02*
X6623158Y-20458246D01*
X6623158Y-20458246D02*
X6623158Y-20448722D01*
X6623158Y-20448722D02*
X6632682Y-20429674D01*
X6632682Y-20429674D02*
X6651730Y-20420150D01*
X6651730Y-20420150D02*
X6680301Y-20420150D01*
X6680301Y-20420150D02*
X6699349Y-20429674D01*
X6775539Y-20629674D02*
X6785063Y-20620150D01*
X6785063Y-20620150D02*
X6804111Y-20591579D01*
X6804111Y-20591579D02*
X6813634Y-20572531D01*
X6813634Y-20572531D02*
X6823158Y-20543960D01*
X6823158Y-20543960D02*
X6832682Y-20496341D01*
X6832682Y-20496341D02*
X6832682Y-20458246D01*
X6832682Y-20458246D02*
X6823158Y-20410627D01*
X6823158Y-20410627D02*
X6813634Y-20382055D01*
X6813634Y-20382055D02*
X6804111Y-20363008D01*
X6804111Y-20363008D02*
X6785063Y-20334436D01*
X6785063Y-20334436D02*
X6775539Y-20324912D01*
D11*
X1765000Y-20771000D02*
X1810000Y-20726000D01*
X1765000Y-20681000D01*
X1720000Y-20726000D01*
X1765000Y-20771000D01*
D10*
X2108872Y-20617484D02*
X2127920Y-20617484D01*
X2127920Y-20617484D02*
X2146967Y-20627008D01*
X2146967Y-20627008D02*
X2156491Y-20636531D01*
X2156491Y-20636531D02*
X2166015Y-20655579D01*
X2166015Y-20655579D02*
X2175539Y-20693674D01*
X2175539Y-20693674D02*
X2175539Y-20741293D01*
X2175539Y-20741293D02*
X2166015Y-20779389D01*
X2166015Y-20779389D02*
X2156491Y-20798436D01*
X2156491Y-20798436D02*
X2146967Y-20807960D01*
X2146967Y-20807960D02*
X2127920Y-20817484D01*
X2127920Y-20817484D02*
X2108872Y-20817484D01*
X2108872Y-20817484D02*
X2089824Y-20807960D01*
X2089824Y-20807960D02*
X2080301Y-20798436D01*
X2080301Y-20798436D02*
X2070777Y-20779389D01*
X2070777Y-20779389D02*
X2061253Y-20741293D01*
X2061253Y-20741293D02*
X2061253Y-20693674D01*
X2061253Y-20693674D02*
X2070777Y-20655579D01*
X2070777Y-20655579D02*
X2080301Y-20636531D01*
X2080301Y-20636531D02*
X2089824Y-20627008D01*
X2089824Y-20627008D02*
X2108872Y-20617484D01*
X2261253Y-20798436D02*
X2270777Y-20807960D01*
X2270777Y-20807960D02*
X2261253Y-20817484D01*
X2261253Y-20817484D02*
X2251729Y-20807960D01*
X2251729Y-20807960D02*
X2261253Y-20798436D01*
X2261253Y-20798436D02*
X2261253Y-20817484D01*
X2366015Y-20817484D02*
X2404110Y-20817484D01*
X2404110Y-20817484D02*
X2423158Y-20807960D01*
X2423158Y-20807960D02*
X2432682Y-20798436D01*
X2432682Y-20798436D02*
X2451729Y-20769865D01*
X2451729Y-20769865D02*
X2461253Y-20731770D01*
X2461253Y-20731770D02*
X2461253Y-20655579D01*
X2461253Y-20655579D02*
X2451729Y-20636531D01*
X2451729Y-20636531D02*
X2442205Y-20627008D01*
X2442205Y-20627008D02*
X2423158Y-20617484D01*
X2423158Y-20617484D02*
X2385063Y-20617484D01*
X2385063Y-20617484D02*
X2366015Y-20627008D01*
X2366015Y-20627008D02*
X2356491Y-20636531D01*
X2356491Y-20636531D02*
X2346967Y-20655579D01*
X2346967Y-20655579D02*
X2346967Y-20703198D01*
X2346967Y-20703198D02*
X2356491Y-20722246D01*
X2356491Y-20722246D02*
X2366015Y-20731770D01*
X2366015Y-20731770D02*
X2385063Y-20741293D01*
X2385063Y-20741293D02*
X2423158Y-20741293D01*
X2423158Y-20741293D02*
X2442205Y-20731770D01*
X2442205Y-20731770D02*
X2451729Y-20722246D01*
X2451729Y-20722246D02*
X2461253Y-20703198D01*
X2585063Y-20617484D02*
X2604110Y-20617484D01*
X2604110Y-20617484D02*
X2623158Y-20627008D01*
X2623158Y-20627008D02*
X2632682Y-20636531D01*
X2632682Y-20636531D02*
X2642205Y-20655579D01*
X2642205Y-20655579D02*
X2651729Y-20693674D01*
X2651729Y-20693674D02*
X2651729Y-20741293D01*
X2651729Y-20741293D02*
X2642205Y-20779389D01*
X2642205Y-20779389D02*
X2632682Y-20798436D01*
X2632682Y-20798436D02*
X2623158Y-20807960D01*
X2623158Y-20807960D02*
X2604110Y-20817484D01*
X2604110Y-20817484D02*
X2585063Y-20817484D01*
X2585063Y-20817484D02*
X2566015Y-20807960D01*
X2566015Y-20807960D02*
X2556491Y-20798436D01*
X2556491Y-20798436D02*
X2546967Y-20779389D01*
X2546967Y-20779389D02*
X2537444Y-20741293D01*
X2537444Y-20741293D02*
X2537444Y-20693674D01*
X2537444Y-20693674D02*
X2546967Y-20655579D01*
X2546967Y-20655579D02*
X2556491Y-20636531D01*
X2556491Y-20636531D02*
X2566015Y-20627008D01*
X2566015Y-20627008D02*
X2585063Y-20617484D01*
X2775539Y-20617484D02*
X2794586Y-20617484D01*
X2794586Y-20617484D02*
X2813634Y-20627008D01*
X2813634Y-20627008D02*
X2823158Y-20636531D01*
X2823158Y-20636531D02*
X2832682Y-20655579D01*
X2832682Y-20655579D02*
X2842205Y-20693674D01*
X2842205Y-20693674D02*
X2842205Y-20741293D01*
X2842205Y-20741293D02*
X2832682Y-20779389D01*
X2832682Y-20779389D02*
X2823158Y-20798436D01*
X2823158Y-20798436D02*
X2813634Y-20807960D01*
X2813634Y-20807960D02*
X2794586Y-20817484D01*
X2794586Y-20817484D02*
X2775539Y-20817484D01*
X2775539Y-20817484D02*
X2756491Y-20807960D01*
X2756491Y-20807960D02*
X2746967Y-20798436D01*
X2746967Y-20798436D02*
X2737444Y-20779389D01*
X2737444Y-20779389D02*
X2727920Y-20741293D01*
X2727920Y-20741293D02*
X2727920Y-20693674D01*
X2727920Y-20693674D02*
X2737444Y-20655579D01*
X2737444Y-20655579D02*
X2746967Y-20636531D01*
X2746967Y-20636531D02*
X2756491Y-20627008D01*
X2756491Y-20627008D02*
X2775539Y-20617484D01*
X2927920Y-20817484D02*
X2927920Y-20684150D01*
X2927920Y-20703198D02*
X2937443Y-20693674D01*
X2937443Y-20693674D02*
X2956491Y-20684150D01*
X2956491Y-20684150D02*
X2985063Y-20684150D01*
X2985063Y-20684150D02*
X3004110Y-20693674D01*
X3004110Y-20693674D02*
X3013634Y-20712722D01*
X3013634Y-20712722D02*
X3013634Y-20817484D01*
X3013634Y-20712722D02*
X3023158Y-20693674D01*
X3023158Y-20693674D02*
X3042205Y-20684150D01*
X3042205Y-20684150D02*
X3070777Y-20684150D01*
X3070777Y-20684150D02*
X3089824Y-20693674D01*
X3089824Y-20693674D02*
X3099348Y-20712722D01*
X3099348Y-20712722D02*
X3099348Y-20817484D01*
X3194586Y-20817484D02*
X3194586Y-20684150D01*
X3194586Y-20703198D02*
X3204110Y-20693674D01*
X3204110Y-20693674D02*
X3223158Y-20684150D01*
X3223158Y-20684150D02*
X3251729Y-20684150D01*
X3251729Y-20684150D02*
X3270777Y-20693674D01*
X3270777Y-20693674D02*
X3280301Y-20712722D01*
X3280301Y-20712722D02*
X3280301Y-20817484D01*
X3280301Y-20712722D02*
X3289824Y-20693674D01*
X3289824Y-20693674D02*
X3308872Y-20684150D01*
X3308872Y-20684150D02*
X3337443Y-20684150D01*
X3337443Y-20684150D02*
X3356491Y-20693674D01*
X3356491Y-20693674D02*
X3366015Y-20712722D01*
X3366015Y-20712722D02*
X3366015Y-20817484D01*
X3756491Y-20607960D02*
X3585063Y-20865103D01*
X4013634Y-20617484D02*
X4032682Y-20617484D01*
X4032682Y-20617484D02*
X4051729Y-20627008D01*
X4051729Y-20627008D02*
X4061253Y-20636531D01*
X4061253Y-20636531D02*
X4070777Y-20655579D01*
X4070777Y-20655579D02*
X4080301Y-20693674D01*
X4080301Y-20693674D02*
X4080301Y-20741293D01*
X4080301Y-20741293D02*
X4070777Y-20779389D01*
X4070777Y-20779389D02*
X4061253Y-20798436D01*
X4061253Y-20798436D02*
X4051729Y-20807960D01*
X4051729Y-20807960D02*
X4032682Y-20817484D01*
X4032682Y-20817484D02*
X4013634Y-20817484D01*
X4013634Y-20817484D02*
X3994586Y-20807960D01*
X3994586Y-20807960D02*
X3985063Y-20798436D01*
X3985063Y-20798436D02*
X3975539Y-20779389D01*
X3975539Y-20779389D02*
X3966015Y-20741293D01*
X3966015Y-20741293D02*
X3966015Y-20693674D01*
X3966015Y-20693674D02*
X3975539Y-20655579D01*
X3975539Y-20655579D02*
X3985063Y-20636531D01*
X3985063Y-20636531D02*
X3994586Y-20627008D01*
X3994586Y-20627008D02*
X4013634Y-20617484D01*
X4166015Y-20798436D02*
X4175539Y-20807960D01*
X4175539Y-20807960D02*
X4166015Y-20817484D01*
X4166015Y-20817484D02*
X4156491Y-20807960D01*
X4156491Y-20807960D02*
X4166015Y-20798436D01*
X4166015Y-20798436D02*
X4166015Y-20817484D01*
X4299348Y-20617484D02*
X4318396Y-20617484D01*
X4318396Y-20617484D02*
X4337444Y-20627008D01*
X4337444Y-20627008D02*
X4346968Y-20636531D01*
X4346968Y-20636531D02*
X4356491Y-20655579D01*
X4356491Y-20655579D02*
X4366015Y-20693674D01*
X4366015Y-20693674D02*
X4366015Y-20741293D01*
X4366015Y-20741293D02*
X4356491Y-20779389D01*
X4356491Y-20779389D02*
X4346968Y-20798436D01*
X4346968Y-20798436D02*
X4337444Y-20807960D01*
X4337444Y-20807960D02*
X4318396Y-20817484D01*
X4318396Y-20817484D02*
X4299348Y-20817484D01*
X4299348Y-20817484D02*
X4280301Y-20807960D01*
X4280301Y-20807960D02*
X4270777Y-20798436D01*
X4270777Y-20798436D02*
X4261253Y-20779389D01*
X4261253Y-20779389D02*
X4251729Y-20741293D01*
X4251729Y-20741293D02*
X4251729Y-20693674D01*
X4251729Y-20693674D02*
X4261253Y-20655579D01*
X4261253Y-20655579D02*
X4270777Y-20636531D01*
X4270777Y-20636531D02*
X4280301Y-20627008D01*
X4280301Y-20627008D02*
X4299348Y-20617484D01*
X4432682Y-20617484D02*
X4556491Y-20617484D01*
X4556491Y-20617484D02*
X4489825Y-20693674D01*
X4489825Y-20693674D02*
X4518396Y-20693674D01*
X4518396Y-20693674D02*
X4537444Y-20703198D01*
X4537444Y-20703198D02*
X4546968Y-20712722D01*
X4546968Y-20712722D02*
X4556491Y-20731770D01*
X4556491Y-20731770D02*
X4556491Y-20779389D01*
X4556491Y-20779389D02*
X4546968Y-20798436D01*
X4546968Y-20798436D02*
X4537444Y-20807960D01*
X4537444Y-20807960D02*
X4518396Y-20817484D01*
X4518396Y-20817484D02*
X4461253Y-20817484D01*
X4461253Y-20817484D02*
X4442206Y-20807960D01*
X4442206Y-20807960D02*
X4432682Y-20798436D01*
X4737444Y-20617484D02*
X4642206Y-20617484D01*
X4642206Y-20617484D02*
X4632682Y-20712722D01*
X4632682Y-20712722D02*
X4642206Y-20703198D01*
X4642206Y-20703198D02*
X4661253Y-20693674D01*
X4661253Y-20693674D02*
X4708872Y-20693674D01*
X4708872Y-20693674D02*
X4727920Y-20703198D01*
X4727920Y-20703198D02*
X4737444Y-20712722D01*
X4737444Y-20712722D02*
X4746968Y-20731770D01*
X4746968Y-20731770D02*
X4746968Y-20779389D01*
X4746968Y-20779389D02*
X4737444Y-20798436D01*
X4737444Y-20798436D02*
X4727920Y-20807960D01*
X4727920Y-20807960D02*
X4708872Y-20817484D01*
X4708872Y-20817484D02*
X4661253Y-20817484D01*
X4661253Y-20817484D02*
X4642206Y-20807960D01*
X4642206Y-20807960D02*
X4632682Y-20798436D01*
X4918396Y-20684150D02*
X4918396Y-20817484D01*
X4870777Y-20607960D02*
X4823158Y-20750817D01*
X4823158Y-20750817D02*
X4946968Y-20750817D01*
X5013634Y-20617484D02*
X5013634Y-20655579D01*
X5089825Y-20617484D02*
X5089825Y-20655579D01*
X5385063Y-20893674D02*
X5375539Y-20884150D01*
X5375539Y-20884150D02*
X5356491Y-20855579D01*
X5356491Y-20855579D02*
X5346968Y-20836531D01*
X5346968Y-20836531D02*
X5337444Y-20807960D01*
X5337444Y-20807960D02*
X5327920Y-20760341D01*
X5327920Y-20760341D02*
X5327920Y-20722246D01*
X5327920Y-20722246D02*
X5337444Y-20674627D01*
X5337444Y-20674627D02*
X5346968Y-20646055D01*
X5346968Y-20646055D02*
X5356491Y-20627008D01*
X5356491Y-20627008D02*
X5375539Y-20598436D01*
X5375539Y-20598436D02*
X5385063Y-20588912D01*
X5566015Y-20817484D02*
X5451730Y-20817484D01*
X5508872Y-20817484D02*
X5508872Y-20617484D01*
X5508872Y-20617484D02*
X5489825Y-20646055D01*
X5489825Y-20646055D02*
X5470777Y-20665103D01*
X5470777Y-20665103D02*
X5451730Y-20674627D01*
X5689825Y-20617484D02*
X5708872Y-20617484D01*
X5708872Y-20617484D02*
X5727920Y-20627008D01*
X5727920Y-20627008D02*
X5737444Y-20636531D01*
X5737444Y-20636531D02*
X5746968Y-20655579D01*
X5746968Y-20655579D02*
X5756491Y-20693674D01*
X5756491Y-20693674D02*
X5756491Y-20741293D01*
X5756491Y-20741293D02*
X5746968Y-20779389D01*
X5746968Y-20779389D02*
X5737444Y-20798436D01*
X5737444Y-20798436D02*
X5727920Y-20807960D01*
X5727920Y-20807960D02*
X5708872Y-20817484D01*
X5708872Y-20817484D02*
X5689825Y-20817484D01*
X5689825Y-20817484D02*
X5670777Y-20807960D01*
X5670777Y-20807960D02*
X5661253Y-20798436D01*
X5661253Y-20798436D02*
X5651729Y-20779389D01*
X5651729Y-20779389D02*
X5642206Y-20741293D01*
X5642206Y-20741293D02*
X5642206Y-20693674D01*
X5642206Y-20693674D02*
X5651729Y-20655579D01*
X5651729Y-20655579D02*
X5661253Y-20636531D01*
X5661253Y-20636531D02*
X5670777Y-20627008D01*
X5670777Y-20627008D02*
X5689825Y-20617484D01*
X5994587Y-20817484D02*
X5994587Y-20617484D01*
X6080301Y-20817484D02*
X6080301Y-20712722D01*
X6080301Y-20712722D02*
X6070777Y-20693674D01*
X6070777Y-20693674D02*
X6051730Y-20684150D01*
X6051730Y-20684150D02*
X6023158Y-20684150D01*
X6023158Y-20684150D02*
X6004110Y-20693674D01*
X6004110Y-20693674D02*
X5994587Y-20703198D01*
X6204110Y-20817484D02*
X6185063Y-20807960D01*
X6185063Y-20807960D02*
X6175539Y-20798436D01*
X6175539Y-20798436D02*
X6166015Y-20779389D01*
X6166015Y-20779389D02*
X6166015Y-20722246D01*
X6166015Y-20722246D02*
X6175539Y-20703198D01*
X6175539Y-20703198D02*
X6185063Y-20693674D01*
X6185063Y-20693674D02*
X6204110Y-20684150D01*
X6204110Y-20684150D02*
X6232682Y-20684150D01*
X6232682Y-20684150D02*
X6251730Y-20693674D01*
X6251730Y-20693674D02*
X6261253Y-20703198D01*
X6261253Y-20703198D02*
X6270777Y-20722246D01*
X6270777Y-20722246D02*
X6270777Y-20779389D01*
X6270777Y-20779389D02*
X6261253Y-20798436D01*
X6261253Y-20798436D02*
X6251730Y-20807960D01*
X6251730Y-20807960D02*
X6232682Y-20817484D01*
X6232682Y-20817484D02*
X6204110Y-20817484D01*
X6385063Y-20817484D02*
X6366015Y-20807960D01*
X6366015Y-20807960D02*
X6356491Y-20788912D01*
X6356491Y-20788912D02*
X6356491Y-20617484D01*
X6537444Y-20807960D02*
X6518396Y-20817484D01*
X6518396Y-20817484D02*
X6480301Y-20817484D01*
X6480301Y-20817484D02*
X6461253Y-20807960D01*
X6461253Y-20807960D02*
X6451730Y-20788912D01*
X6451730Y-20788912D02*
X6451730Y-20712722D01*
X6451730Y-20712722D02*
X6461253Y-20693674D01*
X6461253Y-20693674D02*
X6480301Y-20684150D01*
X6480301Y-20684150D02*
X6518396Y-20684150D01*
X6518396Y-20684150D02*
X6537444Y-20693674D01*
X6537444Y-20693674D02*
X6546968Y-20712722D01*
X6546968Y-20712722D02*
X6546968Y-20731770D01*
X6546968Y-20731770D02*
X6451730Y-20750817D01*
X6623158Y-20807960D02*
X6642206Y-20817484D01*
X6642206Y-20817484D02*
X6680301Y-20817484D01*
X6680301Y-20817484D02*
X6699349Y-20807960D01*
X6699349Y-20807960D02*
X6708872Y-20788912D01*
X6708872Y-20788912D02*
X6708872Y-20779389D01*
X6708872Y-20779389D02*
X6699349Y-20760341D01*
X6699349Y-20760341D02*
X6680301Y-20750817D01*
X6680301Y-20750817D02*
X6651730Y-20750817D01*
X6651730Y-20750817D02*
X6632682Y-20741293D01*
X6632682Y-20741293D02*
X6623158Y-20722246D01*
X6623158Y-20722246D02*
X6623158Y-20712722D01*
X6623158Y-20712722D02*
X6632682Y-20693674D01*
X6632682Y-20693674D02*
X6651730Y-20684150D01*
X6651730Y-20684150D02*
X6680301Y-20684150D01*
X6680301Y-20684150D02*
X6699349Y-20693674D01*
X6775539Y-20893674D02*
X6785063Y-20884150D01*
X6785063Y-20884150D02*
X6804111Y-20855579D01*
X6804111Y-20855579D02*
X6813634Y-20836531D01*
X6813634Y-20836531D02*
X6823158Y-20807960D01*
X6823158Y-20807960D02*
X6832682Y-20760341D01*
X6832682Y-20760341D02*
X6832682Y-20722246D01*
X6832682Y-20722246D02*
X6823158Y-20674627D01*
X6823158Y-20674627D02*
X6813634Y-20646055D01*
X6813634Y-20646055D02*
X6804111Y-20627008D01*
X6804111Y-20627008D02*
X6785063Y-20598436D01*
X6785063Y-20598436D02*
X6775539Y-20588912D01*
D11*
X1710000Y-20940000D02*
X1810000Y-21040000D01*
X1810000Y-20940000D02*
X1710000Y-21040000D01*
X1810000Y-20990000D02*
G75*
G02*
X1710000Y-20990000I-50000J0D01*
G01*
X1710000Y-20990000D02*
G75*
G02*
X1810000Y-20990000I50000J0D01*
G01*
D10*
X2175539Y-21081484D02*
X2061253Y-21081484D01*
X2118396Y-21081484D02*
X2118396Y-20881484D01*
X2118396Y-20881484D02*
X2099348Y-20910055D01*
X2099348Y-20910055D02*
X2080301Y-20929103D01*
X2080301Y-20929103D02*
X2061253Y-20938627D01*
X2261253Y-21062436D02*
X2270777Y-21071960D01*
X2270777Y-21071960D02*
X2261253Y-21081484D01*
X2261253Y-21081484D02*
X2251729Y-21071960D01*
X2251729Y-21071960D02*
X2261253Y-21062436D01*
X2261253Y-21062436D02*
X2261253Y-21081484D01*
X2394586Y-20881484D02*
X2413634Y-20881484D01*
X2413634Y-20881484D02*
X2432682Y-20891008D01*
X2432682Y-20891008D02*
X2442205Y-20900531D01*
X2442205Y-20900531D02*
X2451729Y-20919579D01*
X2451729Y-20919579D02*
X2461253Y-20957674D01*
X2461253Y-20957674D02*
X2461253Y-21005293D01*
X2461253Y-21005293D02*
X2451729Y-21043389D01*
X2451729Y-21043389D02*
X2442205Y-21062436D01*
X2442205Y-21062436D02*
X2432682Y-21071960D01*
X2432682Y-21071960D02*
X2413634Y-21081484D01*
X2413634Y-21081484D02*
X2394586Y-21081484D01*
X2394586Y-21081484D02*
X2375539Y-21071960D01*
X2375539Y-21071960D02*
X2366015Y-21062436D01*
X2366015Y-21062436D02*
X2356491Y-21043389D01*
X2356491Y-21043389D02*
X2346967Y-21005293D01*
X2346967Y-21005293D02*
X2346967Y-20957674D01*
X2346967Y-20957674D02*
X2356491Y-20919579D01*
X2356491Y-20919579D02*
X2366015Y-20900531D01*
X2366015Y-20900531D02*
X2375539Y-20891008D01*
X2375539Y-20891008D02*
X2394586Y-20881484D01*
X2585063Y-20881484D02*
X2604110Y-20881484D01*
X2604110Y-20881484D02*
X2623158Y-20891008D01*
X2623158Y-20891008D02*
X2632682Y-20900531D01*
X2632682Y-20900531D02*
X2642205Y-20919579D01*
X2642205Y-20919579D02*
X2651729Y-20957674D01*
X2651729Y-20957674D02*
X2651729Y-21005293D01*
X2651729Y-21005293D02*
X2642205Y-21043389D01*
X2642205Y-21043389D02*
X2632682Y-21062436D01*
X2632682Y-21062436D02*
X2623158Y-21071960D01*
X2623158Y-21071960D02*
X2604110Y-21081484D01*
X2604110Y-21081484D02*
X2585063Y-21081484D01*
X2585063Y-21081484D02*
X2566015Y-21071960D01*
X2566015Y-21071960D02*
X2556491Y-21062436D01*
X2556491Y-21062436D02*
X2546967Y-21043389D01*
X2546967Y-21043389D02*
X2537444Y-21005293D01*
X2537444Y-21005293D02*
X2537444Y-20957674D01*
X2537444Y-20957674D02*
X2546967Y-20919579D01*
X2546967Y-20919579D02*
X2556491Y-20900531D01*
X2556491Y-20900531D02*
X2566015Y-20891008D01*
X2566015Y-20891008D02*
X2585063Y-20881484D01*
X2775539Y-20881484D02*
X2794586Y-20881484D01*
X2794586Y-20881484D02*
X2813634Y-20891008D01*
X2813634Y-20891008D02*
X2823158Y-20900531D01*
X2823158Y-20900531D02*
X2832682Y-20919579D01*
X2832682Y-20919579D02*
X2842205Y-20957674D01*
X2842205Y-20957674D02*
X2842205Y-21005293D01*
X2842205Y-21005293D02*
X2832682Y-21043389D01*
X2832682Y-21043389D02*
X2823158Y-21062436D01*
X2823158Y-21062436D02*
X2813634Y-21071960D01*
X2813634Y-21071960D02*
X2794586Y-21081484D01*
X2794586Y-21081484D02*
X2775539Y-21081484D01*
X2775539Y-21081484D02*
X2756491Y-21071960D01*
X2756491Y-21071960D02*
X2746967Y-21062436D01*
X2746967Y-21062436D02*
X2737444Y-21043389D01*
X2737444Y-21043389D02*
X2727920Y-21005293D01*
X2727920Y-21005293D02*
X2727920Y-20957674D01*
X2727920Y-20957674D02*
X2737444Y-20919579D01*
X2737444Y-20919579D02*
X2746967Y-20900531D01*
X2746967Y-20900531D02*
X2756491Y-20891008D01*
X2756491Y-20891008D02*
X2775539Y-20881484D01*
X2927920Y-21081484D02*
X2927920Y-20948150D01*
X2927920Y-20967198D02*
X2937443Y-20957674D01*
X2937443Y-20957674D02*
X2956491Y-20948150D01*
X2956491Y-20948150D02*
X2985063Y-20948150D01*
X2985063Y-20948150D02*
X3004110Y-20957674D01*
X3004110Y-20957674D02*
X3013634Y-20976722D01*
X3013634Y-20976722D02*
X3013634Y-21081484D01*
X3013634Y-20976722D02*
X3023158Y-20957674D01*
X3023158Y-20957674D02*
X3042205Y-20948150D01*
X3042205Y-20948150D02*
X3070777Y-20948150D01*
X3070777Y-20948150D02*
X3089824Y-20957674D01*
X3089824Y-20957674D02*
X3099348Y-20976722D01*
X3099348Y-20976722D02*
X3099348Y-21081484D01*
X3194586Y-21081484D02*
X3194586Y-20948150D01*
X3194586Y-20967198D02*
X3204110Y-20957674D01*
X3204110Y-20957674D02*
X3223158Y-20948150D01*
X3223158Y-20948150D02*
X3251729Y-20948150D01*
X3251729Y-20948150D02*
X3270777Y-20957674D01*
X3270777Y-20957674D02*
X3280301Y-20976722D01*
X3280301Y-20976722D02*
X3280301Y-21081484D01*
X3280301Y-20976722D02*
X3289824Y-20957674D01*
X3289824Y-20957674D02*
X3308872Y-20948150D01*
X3308872Y-20948150D02*
X3337443Y-20948150D01*
X3337443Y-20948150D02*
X3356491Y-20957674D01*
X3356491Y-20957674D02*
X3366015Y-20976722D01*
X3366015Y-20976722D02*
X3366015Y-21081484D01*
X3756491Y-20871960D02*
X3585063Y-21129103D01*
X4013634Y-20881484D02*
X4032682Y-20881484D01*
X4032682Y-20881484D02*
X4051729Y-20891008D01*
X4051729Y-20891008D02*
X4061253Y-20900531D01*
X4061253Y-20900531D02*
X4070777Y-20919579D01*
X4070777Y-20919579D02*
X4080301Y-20957674D01*
X4080301Y-20957674D02*
X4080301Y-21005293D01*
X4080301Y-21005293D02*
X4070777Y-21043389D01*
X4070777Y-21043389D02*
X4061253Y-21062436D01*
X4061253Y-21062436D02*
X4051729Y-21071960D01*
X4051729Y-21071960D02*
X4032682Y-21081484D01*
X4032682Y-21081484D02*
X4013634Y-21081484D01*
X4013634Y-21081484D02*
X3994586Y-21071960D01*
X3994586Y-21071960D02*
X3985063Y-21062436D01*
X3985063Y-21062436D02*
X3975539Y-21043389D01*
X3975539Y-21043389D02*
X3966015Y-21005293D01*
X3966015Y-21005293D02*
X3966015Y-20957674D01*
X3966015Y-20957674D02*
X3975539Y-20919579D01*
X3975539Y-20919579D02*
X3985063Y-20900531D01*
X3985063Y-20900531D02*
X3994586Y-20891008D01*
X3994586Y-20891008D02*
X4013634Y-20881484D01*
X4166015Y-21062436D02*
X4175539Y-21071960D01*
X4175539Y-21071960D02*
X4166015Y-21081484D01*
X4166015Y-21081484D02*
X4156491Y-21071960D01*
X4156491Y-21071960D02*
X4166015Y-21062436D01*
X4166015Y-21062436D02*
X4166015Y-21081484D01*
X4299348Y-20881484D02*
X4318396Y-20881484D01*
X4318396Y-20881484D02*
X4337444Y-20891008D01*
X4337444Y-20891008D02*
X4346968Y-20900531D01*
X4346968Y-20900531D02*
X4356491Y-20919579D01*
X4356491Y-20919579D02*
X4366015Y-20957674D01*
X4366015Y-20957674D02*
X4366015Y-21005293D01*
X4366015Y-21005293D02*
X4356491Y-21043389D01*
X4356491Y-21043389D02*
X4346968Y-21062436D01*
X4346968Y-21062436D02*
X4337444Y-21071960D01*
X4337444Y-21071960D02*
X4318396Y-21081484D01*
X4318396Y-21081484D02*
X4299348Y-21081484D01*
X4299348Y-21081484D02*
X4280301Y-21071960D01*
X4280301Y-21071960D02*
X4270777Y-21062436D01*
X4270777Y-21062436D02*
X4261253Y-21043389D01*
X4261253Y-21043389D02*
X4251729Y-21005293D01*
X4251729Y-21005293D02*
X4251729Y-20957674D01*
X4251729Y-20957674D02*
X4261253Y-20919579D01*
X4261253Y-20919579D02*
X4270777Y-20900531D01*
X4270777Y-20900531D02*
X4280301Y-20891008D01*
X4280301Y-20891008D02*
X4299348Y-20881484D01*
X4432682Y-20881484D02*
X4556491Y-20881484D01*
X4556491Y-20881484D02*
X4489825Y-20957674D01*
X4489825Y-20957674D02*
X4518396Y-20957674D01*
X4518396Y-20957674D02*
X4537444Y-20967198D01*
X4537444Y-20967198D02*
X4546968Y-20976722D01*
X4546968Y-20976722D02*
X4556491Y-20995770D01*
X4556491Y-20995770D02*
X4556491Y-21043389D01*
X4556491Y-21043389D02*
X4546968Y-21062436D01*
X4546968Y-21062436D02*
X4537444Y-21071960D01*
X4537444Y-21071960D02*
X4518396Y-21081484D01*
X4518396Y-21081484D02*
X4461253Y-21081484D01*
X4461253Y-21081484D02*
X4442206Y-21071960D01*
X4442206Y-21071960D02*
X4432682Y-21062436D01*
X4651729Y-21081484D02*
X4689825Y-21081484D01*
X4689825Y-21081484D02*
X4708872Y-21071960D01*
X4708872Y-21071960D02*
X4718396Y-21062436D01*
X4718396Y-21062436D02*
X4737444Y-21033865D01*
X4737444Y-21033865D02*
X4746968Y-20995770D01*
X4746968Y-20995770D02*
X4746968Y-20919579D01*
X4746968Y-20919579D02*
X4737444Y-20900531D01*
X4737444Y-20900531D02*
X4727920Y-20891008D01*
X4727920Y-20891008D02*
X4708872Y-20881484D01*
X4708872Y-20881484D02*
X4670777Y-20881484D01*
X4670777Y-20881484D02*
X4651729Y-20891008D01*
X4651729Y-20891008D02*
X4642206Y-20900531D01*
X4642206Y-20900531D02*
X4632682Y-20919579D01*
X4632682Y-20919579D02*
X4632682Y-20967198D01*
X4632682Y-20967198D02*
X4642206Y-20986246D01*
X4642206Y-20986246D02*
X4651729Y-20995770D01*
X4651729Y-20995770D02*
X4670777Y-21005293D01*
X4670777Y-21005293D02*
X4708872Y-21005293D01*
X4708872Y-21005293D02*
X4727920Y-20995770D01*
X4727920Y-20995770D02*
X4737444Y-20986246D01*
X4737444Y-20986246D02*
X4746968Y-20967198D01*
X4918396Y-20948150D02*
X4918396Y-21081484D01*
X4870777Y-20871960D02*
X4823158Y-21014817D01*
X4823158Y-21014817D02*
X4946968Y-21014817D01*
X5013634Y-20881484D02*
X5013634Y-20919579D01*
X5089825Y-20881484D02*
X5089825Y-20919579D01*
X5385063Y-21157674D02*
X5375539Y-21148150D01*
X5375539Y-21148150D02*
X5356491Y-21119579D01*
X5356491Y-21119579D02*
X5346968Y-21100531D01*
X5346968Y-21100531D02*
X5337444Y-21071960D01*
X5337444Y-21071960D02*
X5327920Y-21024341D01*
X5327920Y-21024341D02*
X5327920Y-20986246D01*
X5327920Y-20986246D02*
X5337444Y-20938627D01*
X5337444Y-20938627D02*
X5346968Y-20910055D01*
X5346968Y-20910055D02*
X5356491Y-20891008D01*
X5356491Y-20891008D02*
X5375539Y-20862436D01*
X5375539Y-20862436D02*
X5385063Y-20852912D01*
X5499349Y-20881484D02*
X5518396Y-20881484D01*
X5518396Y-20881484D02*
X5537444Y-20891008D01*
X5537444Y-20891008D02*
X5546968Y-20900531D01*
X5546968Y-20900531D02*
X5556491Y-20919579D01*
X5556491Y-20919579D02*
X5566015Y-20957674D01*
X5566015Y-20957674D02*
X5566015Y-21005293D01*
X5566015Y-21005293D02*
X5556491Y-21043389D01*
X5556491Y-21043389D02*
X5546968Y-21062436D01*
X5546968Y-21062436D02*
X5537444Y-21071960D01*
X5537444Y-21071960D02*
X5518396Y-21081484D01*
X5518396Y-21081484D02*
X5499349Y-21081484D01*
X5499349Y-21081484D02*
X5480301Y-21071960D01*
X5480301Y-21071960D02*
X5470777Y-21062436D01*
X5470777Y-21062436D02*
X5461253Y-21043389D01*
X5461253Y-21043389D02*
X5451730Y-21005293D01*
X5451730Y-21005293D02*
X5451730Y-20957674D01*
X5451730Y-20957674D02*
X5461253Y-20919579D01*
X5461253Y-20919579D02*
X5470777Y-20900531D01*
X5470777Y-20900531D02*
X5480301Y-20891008D01*
X5480301Y-20891008D02*
X5499349Y-20881484D01*
X5804110Y-21081484D02*
X5804110Y-20881484D01*
X5889825Y-21081484D02*
X5889825Y-20976722D01*
X5889825Y-20976722D02*
X5880301Y-20957674D01*
X5880301Y-20957674D02*
X5861253Y-20948150D01*
X5861253Y-20948150D02*
X5832682Y-20948150D01*
X5832682Y-20948150D02*
X5813634Y-20957674D01*
X5813634Y-20957674D02*
X5804110Y-20967198D01*
X6013634Y-21081484D02*
X5994587Y-21071960D01*
X5994587Y-21071960D02*
X5985063Y-21062436D01*
X5985063Y-21062436D02*
X5975539Y-21043389D01*
X5975539Y-21043389D02*
X5975539Y-20986246D01*
X5975539Y-20986246D02*
X5985063Y-20967198D01*
X5985063Y-20967198D02*
X5994587Y-20957674D01*
X5994587Y-20957674D02*
X6013634Y-20948150D01*
X6013634Y-20948150D02*
X6042206Y-20948150D01*
X6042206Y-20948150D02*
X6061253Y-20957674D01*
X6061253Y-20957674D02*
X6070777Y-20967198D01*
X6070777Y-20967198D02*
X6080301Y-20986246D01*
X6080301Y-20986246D02*
X6080301Y-21043389D01*
X6080301Y-21043389D02*
X6070777Y-21062436D01*
X6070777Y-21062436D02*
X6061253Y-21071960D01*
X6061253Y-21071960D02*
X6042206Y-21081484D01*
X6042206Y-21081484D02*
X6013634Y-21081484D01*
X6194587Y-21081484D02*
X6175539Y-21071960D01*
X6175539Y-21071960D02*
X6166015Y-21052912D01*
X6166015Y-21052912D02*
X6166015Y-20881484D01*
X6346968Y-21071960D02*
X6327920Y-21081484D01*
X6327920Y-21081484D02*
X6289825Y-21081484D01*
X6289825Y-21081484D02*
X6270777Y-21071960D01*
X6270777Y-21071960D02*
X6261253Y-21052912D01*
X6261253Y-21052912D02*
X6261253Y-20976722D01*
X6261253Y-20976722D02*
X6270777Y-20957674D01*
X6270777Y-20957674D02*
X6289825Y-20948150D01*
X6289825Y-20948150D02*
X6327920Y-20948150D01*
X6327920Y-20948150D02*
X6346968Y-20957674D01*
X6346968Y-20957674D02*
X6356491Y-20976722D01*
X6356491Y-20976722D02*
X6356491Y-20995770D01*
X6356491Y-20995770D02*
X6261253Y-21014817D01*
X6432682Y-21071960D02*
X6451730Y-21081484D01*
X6451730Y-21081484D02*
X6489825Y-21081484D01*
X6489825Y-21081484D02*
X6508872Y-21071960D01*
X6508872Y-21071960D02*
X6518396Y-21052912D01*
X6518396Y-21052912D02*
X6518396Y-21043389D01*
X6518396Y-21043389D02*
X6508872Y-21024341D01*
X6508872Y-21024341D02*
X6489825Y-21014817D01*
X6489825Y-21014817D02*
X6461253Y-21014817D01*
X6461253Y-21014817D02*
X6442206Y-21005293D01*
X6442206Y-21005293D02*
X6432682Y-20986246D01*
X6432682Y-20986246D02*
X6432682Y-20976722D01*
X6432682Y-20976722D02*
X6442206Y-20957674D01*
X6442206Y-20957674D02*
X6461253Y-20948150D01*
X6461253Y-20948150D02*
X6489825Y-20948150D01*
X6489825Y-20948150D02*
X6508872Y-20957674D01*
X6756492Y-21005293D02*
X6908873Y-21005293D01*
X6832682Y-21081484D02*
X6832682Y-20929103D01*
X7261253Y-21081484D02*
X7146968Y-21081484D01*
X7204111Y-21081484D02*
X7204111Y-20881484D01*
X7204111Y-20881484D02*
X7185063Y-20910055D01*
X7185063Y-20910055D02*
X7166015Y-20929103D01*
X7166015Y-20929103D02*
X7146968Y-20938627D01*
X7375539Y-20967198D02*
X7356492Y-20957674D01*
X7356492Y-20957674D02*
X7346968Y-20948150D01*
X7346968Y-20948150D02*
X7337444Y-20929103D01*
X7337444Y-20929103D02*
X7337444Y-20919579D01*
X7337444Y-20919579D02*
X7346968Y-20900531D01*
X7346968Y-20900531D02*
X7356492Y-20891008D01*
X7356492Y-20891008D02*
X7375539Y-20881484D01*
X7375539Y-20881484D02*
X7413634Y-20881484D01*
X7413634Y-20881484D02*
X7432682Y-20891008D01*
X7432682Y-20891008D02*
X7442206Y-20900531D01*
X7442206Y-20900531D02*
X7451730Y-20919579D01*
X7451730Y-20919579D02*
X7451730Y-20929103D01*
X7451730Y-20929103D02*
X7442206Y-20948150D01*
X7442206Y-20948150D02*
X7432682Y-20957674D01*
X7432682Y-20957674D02*
X7413634Y-20967198D01*
X7413634Y-20967198D02*
X7375539Y-20967198D01*
X7375539Y-20967198D02*
X7356492Y-20976722D01*
X7356492Y-20976722D02*
X7346968Y-20986246D01*
X7346968Y-20986246D02*
X7337444Y-21005293D01*
X7337444Y-21005293D02*
X7337444Y-21043389D01*
X7337444Y-21043389D02*
X7346968Y-21062436D01*
X7346968Y-21062436D02*
X7356492Y-21071960D01*
X7356492Y-21071960D02*
X7375539Y-21081484D01*
X7375539Y-21081484D02*
X7413634Y-21081484D01*
X7413634Y-21081484D02*
X7432682Y-21071960D01*
X7432682Y-21071960D02*
X7442206Y-21062436D01*
X7442206Y-21062436D02*
X7451730Y-21043389D01*
X7451730Y-21043389D02*
X7451730Y-21005293D01*
X7451730Y-21005293D02*
X7442206Y-20986246D01*
X7442206Y-20986246D02*
X7432682Y-20976722D01*
X7432682Y-20976722D02*
X7413634Y-20967198D01*
X7680301Y-21071960D02*
X7699349Y-21081484D01*
X7699349Y-21081484D02*
X7737444Y-21081484D01*
X7737444Y-21081484D02*
X7756492Y-21071960D01*
X7756492Y-21071960D02*
X7766015Y-21052912D01*
X7766015Y-21052912D02*
X7766015Y-21043389D01*
X7766015Y-21043389D02*
X7756492Y-21024341D01*
X7756492Y-21024341D02*
X7737444Y-21014817D01*
X7737444Y-21014817D02*
X7708873Y-21014817D01*
X7708873Y-21014817D02*
X7689825Y-21005293D01*
X7689825Y-21005293D02*
X7680301Y-20986246D01*
X7680301Y-20986246D02*
X7680301Y-20976722D01*
X7680301Y-20976722D02*
X7689825Y-20957674D01*
X7689825Y-20957674D02*
X7708873Y-20948150D01*
X7708873Y-20948150D02*
X7737444Y-20948150D01*
X7737444Y-20948150D02*
X7756492Y-20957674D01*
X7880301Y-21081484D02*
X7861254Y-21071960D01*
X7861254Y-21071960D02*
X7851730Y-21052912D01*
X7851730Y-21052912D02*
X7851730Y-20881484D01*
X7985063Y-21081484D02*
X7966015Y-21071960D01*
X7966015Y-21071960D02*
X7956492Y-21062436D01*
X7956492Y-21062436D02*
X7946968Y-21043389D01*
X7946968Y-21043389D02*
X7946968Y-20986246D01*
X7946968Y-20986246D02*
X7956492Y-20967198D01*
X7956492Y-20967198D02*
X7966015Y-20957674D01*
X7966015Y-20957674D02*
X7985063Y-20948150D01*
X7985063Y-20948150D02*
X8013635Y-20948150D01*
X8013635Y-20948150D02*
X8032682Y-20957674D01*
X8032682Y-20957674D02*
X8042206Y-20967198D01*
X8042206Y-20967198D02*
X8051730Y-20986246D01*
X8051730Y-20986246D02*
X8051730Y-21043389D01*
X8051730Y-21043389D02*
X8042206Y-21062436D01*
X8042206Y-21062436D02*
X8032682Y-21071960D01*
X8032682Y-21071960D02*
X8013635Y-21081484D01*
X8013635Y-21081484D02*
X7985063Y-21081484D01*
X8108873Y-20948150D02*
X8185063Y-20948150D01*
X8137444Y-20881484D02*
X8137444Y-21052912D01*
X8137444Y-21052912D02*
X8146968Y-21071960D01*
X8146968Y-21071960D02*
X8166015Y-21081484D01*
X8166015Y-21081484D02*
X8185063Y-21081484D01*
X8242206Y-21071960D02*
X8261254Y-21081484D01*
X8261254Y-21081484D02*
X8299349Y-21081484D01*
X8299349Y-21081484D02*
X8318396Y-21071960D01*
X8318396Y-21071960D02*
X8327920Y-21052912D01*
X8327920Y-21052912D02*
X8327920Y-21043389D01*
X8327920Y-21043389D02*
X8318396Y-21024341D01*
X8318396Y-21024341D02*
X8299349Y-21014817D01*
X8299349Y-21014817D02*
X8270777Y-21014817D01*
X8270777Y-21014817D02*
X8251730Y-21005293D01*
X8251730Y-21005293D02*
X8242206Y-20986246D01*
X8242206Y-20986246D02*
X8242206Y-20976722D01*
X8242206Y-20976722D02*
X8251730Y-20957674D01*
X8251730Y-20957674D02*
X8270777Y-20948150D01*
X8270777Y-20948150D02*
X8299349Y-20948150D01*
X8299349Y-20948150D02*
X8318396Y-20957674D01*
X8394587Y-21157674D02*
X8404111Y-21148150D01*
X8404111Y-21148150D02*
X8423158Y-21119579D01*
X8423158Y-21119579D02*
X8432682Y-21100531D01*
X8432682Y-21100531D02*
X8442206Y-21071960D01*
X8442206Y-21071960D02*
X8451730Y-21024341D01*
X8451730Y-21024341D02*
X8451730Y-20986246D01*
X8451730Y-20986246D02*
X8442206Y-20938627D01*
X8442206Y-20938627D02*
X8432682Y-20910055D01*
X8432682Y-20910055D02*
X8423158Y-20891008D01*
X8423158Y-20891008D02*
X8404111Y-20862436D01*
X8404111Y-20862436D02*
X8394587Y-20852912D01*
D12*
X1690112Y-21194056D02*
X1810000Y-21313944D01*
X1810000Y-21194056D02*
X1690112Y-21313944D01*
X1750056Y-21194056D02*
X1750056Y-21313944D01*
X1690112Y-21254000D02*
X1810000Y-21254000D01*
D10*
X2175539Y-21345484D02*
X2061253Y-21345484D01*
X2118396Y-21345484D02*
X2118396Y-21145484D01*
X2118396Y-21145484D02*
X2099348Y-21174055D01*
X2099348Y-21174055D02*
X2080301Y-21193103D01*
X2080301Y-21193103D02*
X2061253Y-21202627D01*
X2261253Y-21326436D02*
X2270777Y-21335960D01*
X2270777Y-21335960D02*
X2261253Y-21345484D01*
X2261253Y-21345484D02*
X2251729Y-21335960D01*
X2251729Y-21335960D02*
X2261253Y-21326436D01*
X2261253Y-21326436D02*
X2261253Y-21345484D01*
X2461253Y-21345484D02*
X2346967Y-21345484D01*
X2404110Y-21345484D02*
X2404110Y-21145484D01*
X2404110Y-21145484D02*
X2385063Y-21174055D01*
X2385063Y-21174055D02*
X2366015Y-21193103D01*
X2366015Y-21193103D02*
X2346967Y-21202627D01*
X2556491Y-21345484D02*
X2594586Y-21345484D01*
X2594586Y-21345484D02*
X2613634Y-21335960D01*
X2613634Y-21335960D02*
X2623158Y-21326436D01*
X2623158Y-21326436D02*
X2642205Y-21297865D01*
X2642205Y-21297865D02*
X2651729Y-21259770D01*
X2651729Y-21259770D02*
X2651729Y-21183579D01*
X2651729Y-21183579D02*
X2642205Y-21164531D01*
X2642205Y-21164531D02*
X2632682Y-21155008D01*
X2632682Y-21155008D02*
X2613634Y-21145484D01*
X2613634Y-21145484D02*
X2575539Y-21145484D01*
X2575539Y-21145484D02*
X2556491Y-21155008D01*
X2556491Y-21155008D02*
X2546967Y-21164531D01*
X2546967Y-21164531D02*
X2537444Y-21183579D01*
X2537444Y-21183579D02*
X2537444Y-21231198D01*
X2537444Y-21231198D02*
X2546967Y-21250246D01*
X2546967Y-21250246D02*
X2556491Y-21259770D01*
X2556491Y-21259770D02*
X2575539Y-21269293D01*
X2575539Y-21269293D02*
X2613634Y-21269293D01*
X2613634Y-21269293D02*
X2632682Y-21259770D01*
X2632682Y-21259770D02*
X2642205Y-21250246D01*
X2642205Y-21250246D02*
X2651729Y-21231198D01*
X2746967Y-21345484D02*
X2785063Y-21345484D01*
X2785063Y-21345484D02*
X2804110Y-21335960D01*
X2804110Y-21335960D02*
X2813634Y-21326436D01*
X2813634Y-21326436D02*
X2832682Y-21297865D01*
X2832682Y-21297865D02*
X2842205Y-21259770D01*
X2842205Y-21259770D02*
X2842205Y-21183579D01*
X2842205Y-21183579D02*
X2832682Y-21164531D01*
X2832682Y-21164531D02*
X2823158Y-21155008D01*
X2823158Y-21155008D02*
X2804110Y-21145484D01*
X2804110Y-21145484D02*
X2766015Y-21145484D01*
X2766015Y-21145484D02*
X2746967Y-21155008D01*
X2746967Y-21155008D02*
X2737444Y-21164531D01*
X2737444Y-21164531D02*
X2727920Y-21183579D01*
X2727920Y-21183579D02*
X2727920Y-21231198D01*
X2727920Y-21231198D02*
X2737444Y-21250246D01*
X2737444Y-21250246D02*
X2746967Y-21259770D01*
X2746967Y-21259770D02*
X2766015Y-21269293D01*
X2766015Y-21269293D02*
X2804110Y-21269293D01*
X2804110Y-21269293D02*
X2823158Y-21259770D01*
X2823158Y-21259770D02*
X2832682Y-21250246D01*
X2832682Y-21250246D02*
X2842205Y-21231198D01*
X2927920Y-21345484D02*
X2927920Y-21212150D01*
X2927920Y-21231198D02*
X2937443Y-21221674D01*
X2937443Y-21221674D02*
X2956491Y-21212150D01*
X2956491Y-21212150D02*
X2985063Y-21212150D01*
X2985063Y-21212150D02*
X3004110Y-21221674D01*
X3004110Y-21221674D02*
X3013634Y-21240722D01*
X3013634Y-21240722D02*
X3013634Y-21345484D01*
X3013634Y-21240722D02*
X3023158Y-21221674D01*
X3023158Y-21221674D02*
X3042205Y-21212150D01*
X3042205Y-21212150D02*
X3070777Y-21212150D01*
X3070777Y-21212150D02*
X3089824Y-21221674D01*
X3089824Y-21221674D02*
X3099348Y-21240722D01*
X3099348Y-21240722D02*
X3099348Y-21345484D01*
X3194586Y-21345484D02*
X3194586Y-21212150D01*
X3194586Y-21231198D02*
X3204110Y-21221674D01*
X3204110Y-21221674D02*
X3223158Y-21212150D01*
X3223158Y-21212150D02*
X3251729Y-21212150D01*
X3251729Y-21212150D02*
X3270777Y-21221674D01*
X3270777Y-21221674D02*
X3280301Y-21240722D01*
X3280301Y-21240722D02*
X3280301Y-21345484D01*
X3280301Y-21240722D02*
X3289824Y-21221674D01*
X3289824Y-21221674D02*
X3308872Y-21212150D01*
X3308872Y-21212150D02*
X3337443Y-21212150D01*
X3337443Y-21212150D02*
X3356491Y-21221674D01*
X3356491Y-21221674D02*
X3366015Y-21240722D01*
X3366015Y-21240722D02*
X3366015Y-21345484D01*
X3756491Y-21135960D02*
X3585063Y-21393103D01*
X4013634Y-21145484D02*
X4032682Y-21145484D01*
X4032682Y-21145484D02*
X4051729Y-21155008D01*
X4051729Y-21155008D02*
X4061253Y-21164531D01*
X4061253Y-21164531D02*
X4070777Y-21183579D01*
X4070777Y-21183579D02*
X4080301Y-21221674D01*
X4080301Y-21221674D02*
X4080301Y-21269293D01*
X4080301Y-21269293D02*
X4070777Y-21307389D01*
X4070777Y-21307389D02*
X4061253Y-21326436D01*
X4061253Y-21326436D02*
X4051729Y-21335960D01*
X4051729Y-21335960D02*
X4032682Y-21345484D01*
X4032682Y-21345484D02*
X4013634Y-21345484D01*
X4013634Y-21345484D02*
X3994586Y-21335960D01*
X3994586Y-21335960D02*
X3985063Y-21326436D01*
X3985063Y-21326436D02*
X3975539Y-21307389D01*
X3975539Y-21307389D02*
X3966015Y-21269293D01*
X3966015Y-21269293D02*
X3966015Y-21221674D01*
X3966015Y-21221674D02*
X3975539Y-21183579D01*
X3975539Y-21183579D02*
X3985063Y-21164531D01*
X3985063Y-21164531D02*
X3994586Y-21155008D01*
X3994586Y-21155008D02*
X4013634Y-21145484D01*
X4166015Y-21326436D02*
X4175539Y-21335960D01*
X4175539Y-21335960D02*
X4166015Y-21345484D01*
X4166015Y-21345484D02*
X4156491Y-21335960D01*
X4156491Y-21335960D02*
X4166015Y-21326436D01*
X4166015Y-21326436D02*
X4166015Y-21345484D01*
X4299348Y-21145484D02*
X4318396Y-21145484D01*
X4318396Y-21145484D02*
X4337444Y-21155008D01*
X4337444Y-21155008D02*
X4346968Y-21164531D01*
X4346968Y-21164531D02*
X4356491Y-21183579D01*
X4356491Y-21183579D02*
X4366015Y-21221674D01*
X4366015Y-21221674D02*
X4366015Y-21269293D01*
X4366015Y-21269293D02*
X4356491Y-21307389D01*
X4356491Y-21307389D02*
X4346968Y-21326436D01*
X4346968Y-21326436D02*
X4337444Y-21335960D01*
X4337444Y-21335960D02*
X4318396Y-21345484D01*
X4318396Y-21345484D02*
X4299348Y-21345484D01*
X4299348Y-21345484D02*
X4280301Y-21335960D01*
X4280301Y-21335960D02*
X4270777Y-21326436D01*
X4270777Y-21326436D02*
X4261253Y-21307389D01*
X4261253Y-21307389D02*
X4251729Y-21269293D01*
X4251729Y-21269293D02*
X4251729Y-21221674D01*
X4251729Y-21221674D02*
X4261253Y-21183579D01*
X4261253Y-21183579D02*
X4270777Y-21164531D01*
X4270777Y-21164531D02*
X4280301Y-21155008D01*
X4280301Y-21155008D02*
X4299348Y-21145484D01*
X4537444Y-21212150D02*
X4537444Y-21345484D01*
X4489825Y-21135960D02*
X4442206Y-21278817D01*
X4442206Y-21278817D02*
X4566015Y-21278817D01*
X4623158Y-21145484D02*
X4756491Y-21145484D01*
X4756491Y-21145484D02*
X4670777Y-21345484D01*
X4823158Y-21164531D02*
X4832682Y-21155008D01*
X4832682Y-21155008D02*
X4851729Y-21145484D01*
X4851729Y-21145484D02*
X4899349Y-21145484D01*
X4899349Y-21145484D02*
X4918396Y-21155008D01*
X4918396Y-21155008D02*
X4927920Y-21164531D01*
X4927920Y-21164531D02*
X4937444Y-21183579D01*
X4937444Y-21183579D02*
X4937444Y-21202627D01*
X4937444Y-21202627D02*
X4927920Y-21231198D01*
X4927920Y-21231198D02*
X4813634Y-21345484D01*
X4813634Y-21345484D02*
X4937444Y-21345484D01*
X5013634Y-21145484D02*
X5013634Y-21183579D01*
X5089825Y-21145484D02*
X5089825Y-21183579D01*
X5385063Y-21421674D02*
X5375539Y-21412150D01*
X5375539Y-21412150D02*
X5356491Y-21383579D01*
X5356491Y-21383579D02*
X5346968Y-21364531D01*
X5346968Y-21364531D02*
X5337444Y-21335960D01*
X5337444Y-21335960D02*
X5327920Y-21288341D01*
X5327920Y-21288341D02*
X5327920Y-21250246D01*
X5327920Y-21250246D02*
X5337444Y-21202627D01*
X5337444Y-21202627D02*
X5346968Y-21174055D01*
X5346968Y-21174055D02*
X5356491Y-21155008D01*
X5356491Y-21155008D02*
X5375539Y-21126436D01*
X5375539Y-21126436D02*
X5385063Y-21116912D01*
X5451730Y-21164531D02*
X5461253Y-21155008D01*
X5461253Y-21155008D02*
X5480301Y-21145484D01*
X5480301Y-21145484D02*
X5527920Y-21145484D01*
X5527920Y-21145484D02*
X5546968Y-21155008D01*
X5546968Y-21155008D02*
X5556491Y-21164531D01*
X5556491Y-21164531D02*
X5566015Y-21183579D01*
X5566015Y-21183579D02*
X5566015Y-21202627D01*
X5566015Y-21202627D02*
X5556491Y-21231198D01*
X5556491Y-21231198D02*
X5442206Y-21345484D01*
X5442206Y-21345484D02*
X5566015Y-21345484D01*
X5804110Y-21345484D02*
X5804110Y-21145484D01*
X5889825Y-21345484D02*
X5889825Y-21240722D01*
X5889825Y-21240722D02*
X5880301Y-21221674D01*
X5880301Y-21221674D02*
X5861253Y-21212150D01*
X5861253Y-21212150D02*
X5832682Y-21212150D01*
X5832682Y-21212150D02*
X5813634Y-21221674D01*
X5813634Y-21221674D02*
X5804110Y-21231198D01*
X6013634Y-21345484D02*
X5994587Y-21335960D01*
X5994587Y-21335960D02*
X5985063Y-21326436D01*
X5985063Y-21326436D02*
X5975539Y-21307389D01*
X5975539Y-21307389D02*
X5975539Y-21250246D01*
X5975539Y-21250246D02*
X5985063Y-21231198D01*
X5985063Y-21231198D02*
X5994587Y-21221674D01*
X5994587Y-21221674D02*
X6013634Y-21212150D01*
X6013634Y-21212150D02*
X6042206Y-21212150D01*
X6042206Y-21212150D02*
X6061253Y-21221674D01*
X6061253Y-21221674D02*
X6070777Y-21231198D01*
X6070777Y-21231198D02*
X6080301Y-21250246D01*
X6080301Y-21250246D02*
X6080301Y-21307389D01*
X6080301Y-21307389D02*
X6070777Y-21326436D01*
X6070777Y-21326436D02*
X6061253Y-21335960D01*
X6061253Y-21335960D02*
X6042206Y-21345484D01*
X6042206Y-21345484D02*
X6013634Y-21345484D01*
X6194587Y-21345484D02*
X6175539Y-21335960D01*
X6175539Y-21335960D02*
X6166015Y-21316912D01*
X6166015Y-21316912D02*
X6166015Y-21145484D01*
X6346968Y-21335960D02*
X6327920Y-21345484D01*
X6327920Y-21345484D02*
X6289825Y-21345484D01*
X6289825Y-21345484D02*
X6270777Y-21335960D01*
X6270777Y-21335960D02*
X6261253Y-21316912D01*
X6261253Y-21316912D02*
X6261253Y-21240722D01*
X6261253Y-21240722D02*
X6270777Y-21221674D01*
X6270777Y-21221674D02*
X6289825Y-21212150D01*
X6289825Y-21212150D02*
X6327920Y-21212150D01*
X6327920Y-21212150D02*
X6346968Y-21221674D01*
X6346968Y-21221674D02*
X6356491Y-21240722D01*
X6356491Y-21240722D02*
X6356491Y-21259770D01*
X6356491Y-21259770D02*
X6261253Y-21278817D01*
X6432682Y-21335960D02*
X6451730Y-21345484D01*
X6451730Y-21345484D02*
X6489825Y-21345484D01*
X6489825Y-21345484D02*
X6508872Y-21335960D01*
X6508872Y-21335960D02*
X6518396Y-21316912D01*
X6518396Y-21316912D02*
X6518396Y-21307389D01*
X6518396Y-21307389D02*
X6508872Y-21288341D01*
X6508872Y-21288341D02*
X6489825Y-21278817D01*
X6489825Y-21278817D02*
X6461253Y-21278817D01*
X6461253Y-21278817D02*
X6442206Y-21269293D01*
X6442206Y-21269293D02*
X6432682Y-21250246D01*
X6432682Y-21250246D02*
X6432682Y-21240722D01*
X6432682Y-21240722D02*
X6442206Y-21221674D01*
X6442206Y-21221674D02*
X6461253Y-21212150D01*
X6461253Y-21212150D02*
X6489825Y-21212150D01*
X6489825Y-21212150D02*
X6508872Y-21221674D01*
X6585063Y-21421674D02*
X6594587Y-21412150D01*
X6594587Y-21412150D02*
X6613634Y-21383579D01*
X6613634Y-21383579D02*
X6623158Y-21364531D01*
X6623158Y-21364531D02*
X6632682Y-21335960D01*
X6632682Y-21335960D02*
X6642206Y-21288341D01*
X6642206Y-21288341D02*
X6642206Y-21250246D01*
X6642206Y-21250246D02*
X6632682Y-21202627D01*
X6632682Y-21202627D02*
X6623158Y-21174055D01*
X6623158Y-21174055D02*
X6613634Y-21155008D01*
X6613634Y-21155008D02*
X6594587Y-21126436D01*
X6594587Y-21126436D02*
X6585063Y-21116912D01*
D13*
X1690000Y-21458000D02*
X1810000Y-21578000D01*
X1810000Y-21458000D02*
X1690000Y-21578000D01*
X1792427Y-21560427D02*
X1792427Y-21475573D01*
X1707573Y-21475573D01*
X1707573Y-21560427D01*
X1792427Y-21560427D01*
D10*
X2175539Y-21609484D02*
X2061253Y-21609484D01*
X2118396Y-21609484D02*
X2118396Y-21409484D01*
X2118396Y-21409484D02*
X2099348Y-21438055D01*
X2099348Y-21438055D02*
X2080301Y-21457103D01*
X2080301Y-21457103D02*
X2061253Y-21466627D01*
X2261253Y-21590436D02*
X2270777Y-21599960D01*
X2270777Y-21599960D02*
X2261253Y-21609484D01*
X2261253Y-21609484D02*
X2251729Y-21599960D01*
X2251729Y-21599960D02*
X2261253Y-21590436D01*
X2261253Y-21590436D02*
X2261253Y-21609484D01*
X2346967Y-21428531D02*
X2356491Y-21419008D01*
X2356491Y-21419008D02*
X2375539Y-21409484D01*
X2375539Y-21409484D02*
X2423158Y-21409484D01*
X2423158Y-21409484D02*
X2442205Y-21419008D01*
X2442205Y-21419008D02*
X2451729Y-21428531D01*
X2451729Y-21428531D02*
X2461253Y-21447579D01*
X2461253Y-21447579D02*
X2461253Y-21466627D01*
X2461253Y-21466627D02*
X2451729Y-21495198D01*
X2451729Y-21495198D02*
X2337444Y-21609484D01*
X2337444Y-21609484D02*
X2461253Y-21609484D01*
X2585063Y-21409484D02*
X2604110Y-21409484D01*
X2604110Y-21409484D02*
X2623158Y-21419008D01*
X2623158Y-21419008D02*
X2632682Y-21428531D01*
X2632682Y-21428531D02*
X2642205Y-21447579D01*
X2642205Y-21447579D02*
X2651729Y-21485674D01*
X2651729Y-21485674D02*
X2651729Y-21533293D01*
X2651729Y-21533293D02*
X2642205Y-21571389D01*
X2642205Y-21571389D02*
X2632682Y-21590436D01*
X2632682Y-21590436D02*
X2623158Y-21599960D01*
X2623158Y-21599960D02*
X2604110Y-21609484D01*
X2604110Y-21609484D02*
X2585063Y-21609484D01*
X2585063Y-21609484D02*
X2566015Y-21599960D01*
X2566015Y-21599960D02*
X2556491Y-21590436D01*
X2556491Y-21590436D02*
X2546967Y-21571389D01*
X2546967Y-21571389D02*
X2537444Y-21533293D01*
X2537444Y-21533293D02*
X2537444Y-21485674D01*
X2537444Y-21485674D02*
X2546967Y-21447579D01*
X2546967Y-21447579D02*
X2556491Y-21428531D01*
X2556491Y-21428531D02*
X2566015Y-21419008D01*
X2566015Y-21419008D02*
X2585063Y-21409484D01*
X2775539Y-21409484D02*
X2794586Y-21409484D01*
X2794586Y-21409484D02*
X2813634Y-21419008D01*
X2813634Y-21419008D02*
X2823158Y-21428531D01*
X2823158Y-21428531D02*
X2832682Y-21447579D01*
X2832682Y-21447579D02*
X2842205Y-21485674D01*
X2842205Y-21485674D02*
X2842205Y-21533293D01*
X2842205Y-21533293D02*
X2832682Y-21571389D01*
X2832682Y-21571389D02*
X2823158Y-21590436D01*
X2823158Y-21590436D02*
X2813634Y-21599960D01*
X2813634Y-21599960D02*
X2794586Y-21609484D01*
X2794586Y-21609484D02*
X2775539Y-21609484D01*
X2775539Y-21609484D02*
X2756491Y-21599960D01*
X2756491Y-21599960D02*
X2746967Y-21590436D01*
X2746967Y-21590436D02*
X2737444Y-21571389D01*
X2737444Y-21571389D02*
X2727920Y-21533293D01*
X2727920Y-21533293D02*
X2727920Y-21485674D01*
X2727920Y-21485674D02*
X2737444Y-21447579D01*
X2737444Y-21447579D02*
X2746967Y-21428531D01*
X2746967Y-21428531D02*
X2756491Y-21419008D01*
X2756491Y-21419008D02*
X2775539Y-21409484D01*
X2927920Y-21609484D02*
X2927920Y-21476150D01*
X2927920Y-21495198D02*
X2937443Y-21485674D01*
X2937443Y-21485674D02*
X2956491Y-21476150D01*
X2956491Y-21476150D02*
X2985063Y-21476150D01*
X2985063Y-21476150D02*
X3004110Y-21485674D01*
X3004110Y-21485674D02*
X3013634Y-21504722D01*
X3013634Y-21504722D02*
X3013634Y-21609484D01*
X3013634Y-21504722D02*
X3023158Y-21485674D01*
X3023158Y-21485674D02*
X3042205Y-21476150D01*
X3042205Y-21476150D02*
X3070777Y-21476150D01*
X3070777Y-21476150D02*
X3089824Y-21485674D01*
X3089824Y-21485674D02*
X3099348Y-21504722D01*
X3099348Y-21504722D02*
X3099348Y-21609484D01*
X3194586Y-21609484D02*
X3194586Y-21476150D01*
X3194586Y-21495198D02*
X3204110Y-21485674D01*
X3204110Y-21485674D02*
X3223158Y-21476150D01*
X3223158Y-21476150D02*
X3251729Y-21476150D01*
X3251729Y-21476150D02*
X3270777Y-21485674D01*
X3270777Y-21485674D02*
X3280301Y-21504722D01*
X3280301Y-21504722D02*
X3280301Y-21609484D01*
X3280301Y-21504722D02*
X3289824Y-21485674D01*
X3289824Y-21485674D02*
X3308872Y-21476150D01*
X3308872Y-21476150D02*
X3337443Y-21476150D01*
X3337443Y-21476150D02*
X3356491Y-21485674D01*
X3356491Y-21485674D02*
X3366015Y-21504722D01*
X3366015Y-21504722D02*
X3366015Y-21609484D01*
X3756491Y-21399960D02*
X3585063Y-21657103D01*
X4013634Y-21409484D02*
X4032682Y-21409484D01*
X4032682Y-21409484D02*
X4051729Y-21419008D01*
X4051729Y-21419008D02*
X4061253Y-21428531D01*
X4061253Y-21428531D02*
X4070777Y-21447579D01*
X4070777Y-21447579D02*
X4080301Y-21485674D01*
X4080301Y-21485674D02*
X4080301Y-21533293D01*
X4080301Y-21533293D02*
X4070777Y-21571389D01*
X4070777Y-21571389D02*
X4061253Y-21590436D01*
X4061253Y-21590436D02*
X4051729Y-21599960D01*
X4051729Y-21599960D02*
X4032682Y-21609484D01*
X4032682Y-21609484D02*
X4013634Y-21609484D01*
X4013634Y-21609484D02*
X3994586Y-21599960D01*
X3994586Y-21599960D02*
X3985063Y-21590436D01*
X3985063Y-21590436D02*
X3975539Y-21571389D01*
X3975539Y-21571389D02*
X3966015Y-21533293D01*
X3966015Y-21533293D02*
X3966015Y-21485674D01*
X3966015Y-21485674D02*
X3975539Y-21447579D01*
X3975539Y-21447579D02*
X3985063Y-21428531D01*
X3985063Y-21428531D02*
X3994586Y-21419008D01*
X3994586Y-21419008D02*
X4013634Y-21409484D01*
X4166015Y-21590436D02*
X4175539Y-21599960D01*
X4175539Y-21599960D02*
X4166015Y-21609484D01*
X4166015Y-21609484D02*
X4156491Y-21599960D01*
X4156491Y-21599960D02*
X4166015Y-21590436D01*
X4166015Y-21590436D02*
X4166015Y-21609484D01*
X4299348Y-21409484D02*
X4318396Y-21409484D01*
X4318396Y-21409484D02*
X4337444Y-21419008D01*
X4337444Y-21419008D02*
X4346968Y-21428531D01*
X4346968Y-21428531D02*
X4356491Y-21447579D01*
X4356491Y-21447579D02*
X4366015Y-21485674D01*
X4366015Y-21485674D02*
X4366015Y-21533293D01*
X4366015Y-21533293D02*
X4356491Y-21571389D01*
X4356491Y-21571389D02*
X4346968Y-21590436D01*
X4346968Y-21590436D02*
X4337444Y-21599960D01*
X4337444Y-21599960D02*
X4318396Y-21609484D01*
X4318396Y-21609484D02*
X4299348Y-21609484D01*
X4299348Y-21609484D02*
X4280301Y-21599960D01*
X4280301Y-21599960D02*
X4270777Y-21590436D01*
X4270777Y-21590436D02*
X4261253Y-21571389D01*
X4261253Y-21571389D02*
X4251729Y-21533293D01*
X4251729Y-21533293D02*
X4251729Y-21485674D01*
X4251729Y-21485674D02*
X4261253Y-21447579D01*
X4261253Y-21447579D02*
X4270777Y-21428531D01*
X4270777Y-21428531D02*
X4280301Y-21419008D01*
X4280301Y-21419008D02*
X4299348Y-21409484D01*
X4537444Y-21476150D02*
X4537444Y-21609484D01*
X4489825Y-21399960D02*
X4442206Y-21542817D01*
X4442206Y-21542817D02*
X4566015Y-21542817D01*
X4623158Y-21409484D02*
X4756491Y-21409484D01*
X4756491Y-21409484D02*
X4670777Y-21609484D01*
X4823158Y-21428531D02*
X4832682Y-21419008D01*
X4832682Y-21419008D02*
X4851729Y-21409484D01*
X4851729Y-21409484D02*
X4899349Y-21409484D01*
X4899349Y-21409484D02*
X4918396Y-21419008D01*
X4918396Y-21419008D02*
X4927920Y-21428531D01*
X4927920Y-21428531D02*
X4937444Y-21447579D01*
X4937444Y-21447579D02*
X4937444Y-21466627D01*
X4937444Y-21466627D02*
X4927920Y-21495198D01*
X4927920Y-21495198D02*
X4813634Y-21609484D01*
X4813634Y-21609484D02*
X4937444Y-21609484D01*
X5013634Y-21409484D02*
X5013634Y-21447579D01*
X5089825Y-21409484D02*
X5089825Y-21447579D01*
X5385063Y-21685674D02*
X5375539Y-21676150D01*
X5375539Y-21676150D02*
X5356491Y-21647579D01*
X5356491Y-21647579D02*
X5346968Y-21628531D01*
X5346968Y-21628531D02*
X5337444Y-21599960D01*
X5337444Y-21599960D02*
X5327920Y-21552341D01*
X5327920Y-21552341D02*
X5327920Y-21514246D01*
X5327920Y-21514246D02*
X5337444Y-21466627D01*
X5337444Y-21466627D02*
X5346968Y-21438055D01*
X5346968Y-21438055D02*
X5356491Y-21419008D01*
X5356491Y-21419008D02*
X5375539Y-21390436D01*
X5375539Y-21390436D02*
X5385063Y-21380912D01*
X5442206Y-21409484D02*
X5566015Y-21409484D01*
X5566015Y-21409484D02*
X5499349Y-21485674D01*
X5499349Y-21485674D02*
X5527920Y-21485674D01*
X5527920Y-21485674D02*
X5546968Y-21495198D01*
X5546968Y-21495198D02*
X5556491Y-21504722D01*
X5556491Y-21504722D02*
X5566015Y-21523770D01*
X5566015Y-21523770D02*
X5566015Y-21571389D01*
X5566015Y-21571389D02*
X5556491Y-21590436D01*
X5556491Y-21590436D02*
X5546968Y-21599960D01*
X5546968Y-21599960D02*
X5527920Y-21609484D01*
X5527920Y-21609484D02*
X5470777Y-21609484D01*
X5470777Y-21609484D02*
X5451730Y-21599960D01*
X5451730Y-21599960D02*
X5442206Y-21590436D01*
X5804110Y-21609484D02*
X5804110Y-21409484D01*
X5889825Y-21609484D02*
X5889825Y-21504722D01*
X5889825Y-21504722D02*
X5880301Y-21485674D01*
X5880301Y-21485674D02*
X5861253Y-21476150D01*
X5861253Y-21476150D02*
X5832682Y-21476150D01*
X5832682Y-21476150D02*
X5813634Y-21485674D01*
X5813634Y-21485674D02*
X5804110Y-21495198D01*
X6013634Y-21609484D02*
X5994587Y-21599960D01*
X5994587Y-21599960D02*
X5985063Y-21590436D01*
X5985063Y-21590436D02*
X5975539Y-21571389D01*
X5975539Y-21571389D02*
X5975539Y-21514246D01*
X5975539Y-21514246D02*
X5985063Y-21495198D01*
X5985063Y-21495198D02*
X5994587Y-21485674D01*
X5994587Y-21485674D02*
X6013634Y-21476150D01*
X6013634Y-21476150D02*
X6042206Y-21476150D01*
X6042206Y-21476150D02*
X6061253Y-21485674D01*
X6061253Y-21485674D02*
X6070777Y-21495198D01*
X6070777Y-21495198D02*
X6080301Y-21514246D01*
X6080301Y-21514246D02*
X6080301Y-21571389D01*
X6080301Y-21571389D02*
X6070777Y-21590436D01*
X6070777Y-21590436D02*
X6061253Y-21599960D01*
X6061253Y-21599960D02*
X6042206Y-21609484D01*
X6042206Y-21609484D02*
X6013634Y-21609484D01*
X6194587Y-21609484D02*
X6175539Y-21599960D01*
X6175539Y-21599960D02*
X6166015Y-21580912D01*
X6166015Y-21580912D02*
X6166015Y-21409484D01*
X6346968Y-21599960D02*
X6327920Y-21609484D01*
X6327920Y-21609484D02*
X6289825Y-21609484D01*
X6289825Y-21609484D02*
X6270777Y-21599960D01*
X6270777Y-21599960D02*
X6261253Y-21580912D01*
X6261253Y-21580912D02*
X6261253Y-21504722D01*
X6261253Y-21504722D02*
X6270777Y-21485674D01*
X6270777Y-21485674D02*
X6289825Y-21476150D01*
X6289825Y-21476150D02*
X6327920Y-21476150D01*
X6327920Y-21476150D02*
X6346968Y-21485674D01*
X6346968Y-21485674D02*
X6356491Y-21504722D01*
X6356491Y-21504722D02*
X6356491Y-21523770D01*
X6356491Y-21523770D02*
X6261253Y-21542817D01*
X6432682Y-21599960D02*
X6451730Y-21609484D01*
X6451730Y-21609484D02*
X6489825Y-21609484D01*
X6489825Y-21609484D02*
X6508872Y-21599960D01*
X6508872Y-21599960D02*
X6518396Y-21580912D01*
X6518396Y-21580912D02*
X6518396Y-21571389D01*
X6518396Y-21571389D02*
X6508872Y-21552341D01*
X6508872Y-21552341D02*
X6489825Y-21542817D01*
X6489825Y-21542817D02*
X6461253Y-21542817D01*
X6461253Y-21542817D02*
X6442206Y-21533293D01*
X6442206Y-21533293D02*
X6432682Y-21514246D01*
X6432682Y-21514246D02*
X6432682Y-21504722D01*
X6432682Y-21504722D02*
X6442206Y-21485674D01*
X6442206Y-21485674D02*
X6461253Y-21476150D01*
X6461253Y-21476150D02*
X6489825Y-21476150D01*
X6489825Y-21476150D02*
X6508872Y-21485674D01*
X6585063Y-21685674D02*
X6594587Y-21676150D01*
X6594587Y-21676150D02*
X6613634Y-21647579D01*
X6613634Y-21647579D02*
X6623158Y-21628531D01*
X6623158Y-21628531D02*
X6632682Y-21599960D01*
X6632682Y-21599960D02*
X6642206Y-21552341D01*
X6642206Y-21552341D02*
X6642206Y-21514246D01*
X6642206Y-21514246D02*
X6632682Y-21466627D01*
X6632682Y-21466627D02*
X6623158Y-21438055D01*
X6623158Y-21438055D02*
X6613634Y-21419008D01*
X6613634Y-21419008D02*
X6594587Y-21390436D01*
X6594587Y-21390436D02*
X6585063Y-21380912D01*
D14*
X1650000Y-21702000D02*
X1810000Y-21862000D01*
X1810000Y-21702000D02*
X1650000Y-21862000D01*
X1730000Y-21862000D02*
X1810000Y-21782000D01*
X1730000Y-21702000D01*
X1650000Y-21782000D01*
X1730000Y-21862000D01*
D10*
X2175539Y-21873484D02*
X2061253Y-21873484D01*
X2118396Y-21873484D02*
X2118396Y-21673484D01*
X2118396Y-21673484D02*
X2099348Y-21702055D01*
X2099348Y-21702055D02*
X2080301Y-21721103D01*
X2080301Y-21721103D02*
X2061253Y-21730627D01*
X2261253Y-21854436D02*
X2270777Y-21863960D01*
X2270777Y-21863960D02*
X2261253Y-21873484D01*
X2261253Y-21873484D02*
X2251729Y-21863960D01*
X2251729Y-21863960D02*
X2261253Y-21854436D01*
X2261253Y-21854436D02*
X2261253Y-21873484D01*
X2442205Y-21673484D02*
X2404110Y-21673484D01*
X2404110Y-21673484D02*
X2385063Y-21683008D01*
X2385063Y-21683008D02*
X2375539Y-21692531D01*
X2375539Y-21692531D02*
X2356491Y-21721103D01*
X2356491Y-21721103D02*
X2346967Y-21759198D01*
X2346967Y-21759198D02*
X2346967Y-21835389D01*
X2346967Y-21835389D02*
X2356491Y-21854436D01*
X2356491Y-21854436D02*
X2366015Y-21863960D01*
X2366015Y-21863960D02*
X2385063Y-21873484D01*
X2385063Y-21873484D02*
X2423158Y-21873484D01*
X2423158Y-21873484D02*
X2442205Y-21863960D01*
X2442205Y-21863960D02*
X2451729Y-21854436D01*
X2451729Y-21854436D02*
X2461253Y-21835389D01*
X2461253Y-21835389D02*
X2461253Y-21787770D01*
X2461253Y-21787770D02*
X2451729Y-21768722D01*
X2451729Y-21768722D02*
X2442205Y-21759198D01*
X2442205Y-21759198D02*
X2423158Y-21749674D01*
X2423158Y-21749674D02*
X2385063Y-21749674D01*
X2385063Y-21749674D02*
X2366015Y-21759198D01*
X2366015Y-21759198D02*
X2356491Y-21768722D01*
X2356491Y-21768722D02*
X2346967Y-21787770D01*
X2585063Y-21673484D02*
X2604110Y-21673484D01*
X2604110Y-21673484D02*
X2623158Y-21683008D01*
X2623158Y-21683008D02*
X2632682Y-21692531D01*
X2632682Y-21692531D02*
X2642205Y-21711579D01*
X2642205Y-21711579D02*
X2651729Y-21749674D01*
X2651729Y-21749674D02*
X2651729Y-21797293D01*
X2651729Y-21797293D02*
X2642205Y-21835389D01*
X2642205Y-21835389D02*
X2632682Y-21854436D01*
X2632682Y-21854436D02*
X2623158Y-21863960D01*
X2623158Y-21863960D02*
X2604110Y-21873484D01*
X2604110Y-21873484D02*
X2585063Y-21873484D01*
X2585063Y-21873484D02*
X2566015Y-21863960D01*
X2566015Y-21863960D02*
X2556491Y-21854436D01*
X2556491Y-21854436D02*
X2546967Y-21835389D01*
X2546967Y-21835389D02*
X2537444Y-21797293D01*
X2537444Y-21797293D02*
X2537444Y-21749674D01*
X2537444Y-21749674D02*
X2546967Y-21711579D01*
X2546967Y-21711579D02*
X2556491Y-21692531D01*
X2556491Y-21692531D02*
X2566015Y-21683008D01*
X2566015Y-21683008D02*
X2585063Y-21673484D01*
X2775539Y-21673484D02*
X2794586Y-21673484D01*
X2794586Y-21673484D02*
X2813634Y-21683008D01*
X2813634Y-21683008D02*
X2823158Y-21692531D01*
X2823158Y-21692531D02*
X2832682Y-21711579D01*
X2832682Y-21711579D02*
X2842205Y-21749674D01*
X2842205Y-21749674D02*
X2842205Y-21797293D01*
X2842205Y-21797293D02*
X2832682Y-21835389D01*
X2832682Y-21835389D02*
X2823158Y-21854436D01*
X2823158Y-21854436D02*
X2813634Y-21863960D01*
X2813634Y-21863960D02*
X2794586Y-21873484D01*
X2794586Y-21873484D02*
X2775539Y-21873484D01*
X2775539Y-21873484D02*
X2756491Y-21863960D01*
X2756491Y-21863960D02*
X2746967Y-21854436D01*
X2746967Y-21854436D02*
X2737444Y-21835389D01*
X2737444Y-21835389D02*
X2727920Y-21797293D01*
X2727920Y-21797293D02*
X2727920Y-21749674D01*
X2727920Y-21749674D02*
X2737444Y-21711579D01*
X2737444Y-21711579D02*
X2746967Y-21692531D01*
X2746967Y-21692531D02*
X2756491Y-21683008D01*
X2756491Y-21683008D02*
X2775539Y-21673484D01*
X2927920Y-21873484D02*
X2927920Y-21740150D01*
X2927920Y-21759198D02*
X2937443Y-21749674D01*
X2937443Y-21749674D02*
X2956491Y-21740150D01*
X2956491Y-21740150D02*
X2985063Y-21740150D01*
X2985063Y-21740150D02*
X3004110Y-21749674D01*
X3004110Y-21749674D02*
X3013634Y-21768722D01*
X3013634Y-21768722D02*
X3013634Y-21873484D01*
X3013634Y-21768722D02*
X3023158Y-21749674D01*
X3023158Y-21749674D02*
X3042205Y-21740150D01*
X3042205Y-21740150D02*
X3070777Y-21740150D01*
X3070777Y-21740150D02*
X3089824Y-21749674D01*
X3089824Y-21749674D02*
X3099348Y-21768722D01*
X3099348Y-21768722D02*
X3099348Y-21873484D01*
X3194586Y-21873484D02*
X3194586Y-21740150D01*
X3194586Y-21759198D02*
X3204110Y-21749674D01*
X3204110Y-21749674D02*
X3223158Y-21740150D01*
X3223158Y-21740150D02*
X3251729Y-21740150D01*
X3251729Y-21740150D02*
X3270777Y-21749674D01*
X3270777Y-21749674D02*
X3280301Y-21768722D01*
X3280301Y-21768722D02*
X3280301Y-21873484D01*
X3280301Y-21768722D02*
X3289824Y-21749674D01*
X3289824Y-21749674D02*
X3308872Y-21740150D01*
X3308872Y-21740150D02*
X3337443Y-21740150D01*
X3337443Y-21740150D02*
X3356491Y-21749674D01*
X3356491Y-21749674D02*
X3366015Y-21768722D01*
X3366015Y-21768722D02*
X3366015Y-21873484D01*
X3756491Y-21663960D02*
X3585063Y-21921103D01*
X4013634Y-21673484D02*
X4032682Y-21673484D01*
X4032682Y-21673484D02*
X4051729Y-21683008D01*
X4051729Y-21683008D02*
X4061253Y-21692531D01*
X4061253Y-21692531D02*
X4070777Y-21711579D01*
X4070777Y-21711579D02*
X4080301Y-21749674D01*
X4080301Y-21749674D02*
X4080301Y-21797293D01*
X4080301Y-21797293D02*
X4070777Y-21835389D01*
X4070777Y-21835389D02*
X4061253Y-21854436D01*
X4061253Y-21854436D02*
X4051729Y-21863960D01*
X4051729Y-21863960D02*
X4032682Y-21873484D01*
X4032682Y-21873484D02*
X4013634Y-21873484D01*
X4013634Y-21873484D02*
X3994586Y-21863960D01*
X3994586Y-21863960D02*
X3985063Y-21854436D01*
X3985063Y-21854436D02*
X3975539Y-21835389D01*
X3975539Y-21835389D02*
X3966015Y-21797293D01*
X3966015Y-21797293D02*
X3966015Y-21749674D01*
X3966015Y-21749674D02*
X3975539Y-21711579D01*
X3975539Y-21711579D02*
X3985063Y-21692531D01*
X3985063Y-21692531D02*
X3994586Y-21683008D01*
X3994586Y-21683008D02*
X4013634Y-21673484D01*
X4166015Y-21854436D02*
X4175539Y-21863960D01*
X4175539Y-21863960D02*
X4166015Y-21873484D01*
X4166015Y-21873484D02*
X4156491Y-21863960D01*
X4156491Y-21863960D02*
X4166015Y-21854436D01*
X4166015Y-21854436D02*
X4166015Y-21873484D01*
X4299348Y-21673484D02*
X4318396Y-21673484D01*
X4318396Y-21673484D02*
X4337444Y-21683008D01*
X4337444Y-21683008D02*
X4346968Y-21692531D01*
X4346968Y-21692531D02*
X4356491Y-21711579D01*
X4356491Y-21711579D02*
X4366015Y-21749674D01*
X4366015Y-21749674D02*
X4366015Y-21797293D01*
X4366015Y-21797293D02*
X4356491Y-21835389D01*
X4356491Y-21835389D02*
X4346968Y-21854436D01*
X4346968Y-21854436D02*
X4337444Y-21863960D01*
X4337444Y-21863960D02*
X4318396Y-21873484D01*
X4318396Y-21873484D02*
X4299348Y-21873484D01*
X4299348Y-21873484D02*
X4280301Y-21863960D01*
X4280301Y-21863960D02*
X4270777Y-21854436D01*
X4270777Y-21854436D02*
X4261253Y-21835389D01*
X4261253Y-21835389D02*
X4251729Y-21797293D01*
X4251729Y-21797293D02*
X4251729Y-21749674D01*
X4251729Y-21749674D02*
X4261253Y-21711579D01*
X4261253Y-21711579D02*
X4270777Y-21692531D01*
X4270777Y-21692531D02*
X4280301Y-21683008D01*
X4280301Y-21683008D02*
X4299348Y-21673484D01*
X4537444Y-21673484D02*
X4499348Y-21673484D01*
X4499348Y-21673484D02*
X4480301Y-21683008D01*
X4480301Y-21683008D02*
X4470777Y-21692531D01*
X4470777Y-21692531D02*
X4451729Y-21721103D01*
X4451729Y-21721103D02*
X4442206Y-21759198D01*
X4442206Y-21759198D02*
X4442206Y-21835389D01*
X4442206Y-21835389D02*
X4451729Y-21854436D01*
X4451729Y-21854436D02*
X4461253Y-21863960D01*
X4461253Y-21863960D02*
X4480301Y-21873484D01*
X4480301Y-21873484D02*
X4518396Y-21873484D01*
X4518396Y-21873484D02*
X4537444Y-21863960D01*
X4537444Y-21863960D02*
X4546968Y-21854436D01*
X4546968Y-21854436D02*
X4556491Y-21835389D01*
X4556491Y-21835389D02*
X4556491Y-21787770D01*
X4556491Y-21787770D02*
X4546968Y-21768722D01*
X4546968Y-21768722D02*
X4537444Y-21759198D01*
X4537444Y-21759198D02*
X4518396Y-21749674D01*
X4518396Y-21749674D02*
X4480301Y-21749674D01*
X4480301Y-21749674D02*
X4461253Y-21759198D01*
X4461253Y-21759198D02*
X4451729Y-21768722D01*
X4451729Y-21768722D02*
X4442206Y-21787770D01*
X4623158Y-21673484D02*
X4746968Y-21673484D01*
X4746968Y-21673484D02*
X4680301Y-21749674D01*
X4680301Y-21749674D02*
X4708872Y-21749674D01*
X4708872Y-21749674D02*
X4727920Y-21759198D01*
X4727920Y-21759198D02*
X4737444Y-21768722D01*
X4737444Y-21768722D02*
X4746968Y-21787770D01*
X4746968Y-21787770D02*
X4746968Y-21835389D01*
X4746968Y-21835389D02*
X4737444Y-21854436D01*
X4737444Y-21854436D02*
X4727920Y-21863960D01*
X4727920Y-21863960D02*
X4708872Y-21873484D01*
X4708872Y-21873484D02*
X4651729Y-21873484D01*
X4651729Y-21873484D02*
X4632682Y-21863960D01*
X4632682Y-21863960D02*
X4623158Y-21854436D01*
X4870777Y-21673484D02*
X4889825Y-21673484D01*
X4889825Y-21673484D02*
X4908872Y-21683008D01*
X4908872Y-21683008D02*
X4918396Y-21692531D01*
X4918396Y-21692531D02*
X4927920Y-21711579D01*
X4927920Y-21711579D02*
X4937444Y-21749674D01*
X4937444Y-21749674D02*
X4937444Y-21797293D01*
X4937444Y-21797293D02*
X4927920Y-21835389D01*
X4927920Y-21835389D02*
X4918396Y-21854436D01*
X4918396Y-21854436D02*
X4908872Y-21863960D01*
X4908872Y-21863960D02*
X4889825Y-21873484D01*
X4889825Y-21873484D02*
X4870777Y-21873484D01*
X4870777Y-21873484D02*
X4851729Y-21863960D01*
X4851729Y-21863960D02*
X4842206Y-21854436D01*
X4842206Y-21854436D02*
X4832682Y-21835389D01*
X4832682Y-21835389D02*
X4823158Y-21797293D01*
X4823158Y-21797293D02*
X4823158Y-21749674D01*
X4823158Y-21749674D02*
X4832682Y-21711579D01*
X4832682Y-21711579D02*
X4842206Y-21692531D01*
X4842206Y-21692531D02*
X4851729Y-21683008D01*
X4851729Y-21683008D02*
X4870777Y-21673484D01*
X5013634Y-21673484D02*
X5013634Y-21711579D01*
X5089825Y-21673484D02*
X5089825Y-21711579D01*
X5385063Y-21949674D02*
X5375539Y-21940150D01*
X5375539Y-21940150D02*
X5356491Y-21911579D01*
X5356491Y-21911579D02*
X5346968Y-21892531D01*
X5346968Y-21892531D02*
X5337444Y-21863960D01*
X5337444Y-21863960D02*
X5327920Y-21816341D01*
X5327920Y-21816341D02*
X5327920Y-21778246D01*
X5327920Y-21778246D02*
X5337444Y-21730627D01*
X5337444Y-21730627D02*
X5346968Y-21702055D01*
X5346968Y-21702055D02*
X5356491Y-21683008D01*
X5356491Y-21683008D02*
X5375539Y-21654436D01*
X5375539Y-21654436D02*
X5385063Y-21644912D01*
X5546968Y-21740150D02*
X5546968Y-21873484D01*
X5499349Y-21663960D02*
X5451730Y-21806817D01*
X5451730Y-21806817D02*
X5575539Y-21806817D01*
X5804110Y-21873484D02*
X5804110Y-21673484D01*
X5889825Y-21873484D02*
X5889825Y-21768722D01*
X5889825Y-21768722D02*
X5880301Y-21749674D01*
X5880301Y-21749674D02*
X5861253Y-21740150D01*
X5861253Y-21740150D02*
X5832682Y-21740150D01*
X5832682Y-21740150D02*
X5813634Y-21749674D01*
X5813634Y-21749674D02*
X5804110Y-21759198D01*
X6013634Y-21873484D02*
X5994587Y-21863960D01*
X5994587Y-21863960D02*
X5985063Y-21854436D01*
X5985063Y-21854436D02*
X5975539Y-21835389D01*
X5975539Y-21835389D02*
X5975539Y-21778246D01*
X5975539Y-21778246D02*
X5985063Y-21759198D01*
X5985063Y-21759198D02*
X5994587Y-21749674D01*
X5994587Y-21749674D02*
X6013634Y-21740150D01*
X6013634Y-21740150D02*
X6042206Y-21740150D01*
X6042206Y-21740150D02*
X6061253Y-21749674D01*
X6061253Y-21749674D02*
X6070777Y-21759198D01*
X6070777Y-21759198D02*
X6080301Y-21778246D01*
X6080301Y-21778246D02*
X6080301Y-21835389D01*
X6080301Y-21835389D02*
X6070777Y-21854436D01*
X6070777Y-21854436D02*
X6061253Y-21863960D01*
X6061253Y-21863960D02*
X6042206Y-21873484D01*
X6042206Y-21873484D02*
X6013634Y-21873484D01*
X6194587Y-21873484D02*
X6175539Y-21863960D01*
X6175539Y-21863960D02*
X6166015Y-21844912D01*
X6166015Y-21844912D02*
X6166015Y-21673484D01*
X6346968Y-21863960D02*
X6327920Y-21873484D01*
X6327920Y-21873484D02*
X6289825Y-21873484D01*
X6289825Y-21873484D02*
X6270777Y-21863960D01*
X6270777Y-21863960D02*
X6261253Y-21844912D01*
X6261253Y-21844912D02*
X6261253Y-21768722D01*
X6261253Y-21768722D02*
X6270777Y-21749674D01*
X6270777Y-21749674D02*
X6289825Y-21740150D01*
X6289825Y-21740150D02*
X6327920Y-21740150D01*
X6327920Y-21740150D02*
X6346968Y-21749674D01*
X6346968Y-21749674D02*
X6356491Y-21768722D01*
X6356491Y-21768722D02*
X6356491Y-21787770D01*
X6356491Y-21787770D02*
X6261253Y-21806817D01*
X6432682Y-21863960D02*
X6451730Y-21873484D01*
X6451730Y-21873484D02*
X6489825Y-21873484D01*
X6489825Y-21873484D02*
X6508872Y-21863960D01*
X6508872Y-21863960D02*
X6518396Y-21844912D01*
X6518396Y-21844912D02*
X6518396Y-21835389D01*
X6518396Y-21835389D02*
X6508872Y-21816341D01*
X6508872Y-21816341D02*
X6489825Y-21806817D01*
X6489825Y-21806817D02*
X6461253Y-21806817D01*
X6461253Y-21806817D02*
X6442206Y-21797293D01*
X6442206Y-21797293D02*
X6432682Y-21778246D01*
X6432682Y-21778246D02*
X6432682Y-21768722D01*
X6432682Y-21768722D02*
X6442206Y-21749674D01*
X6442206Y-21749674D02*
X6461253Y-21740150D01*
X6461253Y-21740150D02*
X6489825Y-21740150D01*
X6489825Y-21740150D02*
X6508872Y-21749674D01*
X6585063Y-21949674D02*
X6594587Y-21940150D01*
X6594587Y-21940150D02*
X6613634Y-21911579D01*
X6613634Y-21911579D02*
X6623158Y-21892531D01*
X6623158Y-21892531D02*
X6632682Y-21863960D01*
X6632682Y-21863960D02*
X6642206Y-21816341D01*
X6642206Y-21816341D02*
X6642206Y-21778246D01*
X6642206Y-21778246D02*
X6632682Y-21730627D01*
X6632682Y-21730627D02*
X6623158Y-21702055D01*
X6623158Y-21702055D02*
X6613634Y-21683008D01*
X6613634Y-21683008D02*
X6594587Y-21654436D01*
X6594587Y-21654436D02*
X6585063Y-21644912D01*
M02*
