G04 #@! TF.GenerationSoftware,KiCad,Pcbnew,9.0.2*
G04 #@! TF.CreationDate,2025-12-26T22:20:37-06:00*
G04 #@! TF.ProjectId,DE_circuits,44455f63-6972-4637-9569-74732e6b6963,rev?*
G04 #@! TF.SameCoordinates,Original*
G04 #@! TF.FileFunction,Soldermask,Top*
G04 #@! TF.FilePolarity,Negative*
%FSLAX46Y46*%
G04 Gerber Fmt 4.6, Leading zero omitted, Abs format (unit mm)*
G04 Created by KiCad (PCBNEW 9.0.2) date 2025-12-26 22:20:37*
%MOMM*%
%LPD*%
G01*
G04 APERTURE LIST*
G04 Aperture macros list*
%AMRoundRect*
0 Rectangle with rounded corners*
0 $1 Rounding radius*
0 $2 $3 $4 $5 $6 $7 $8 $9 X,Y pos of 4 corners*
0 Add a 4 corners polygon primitive as box body*
4,1,4,$2,$3,$4,$5,$6,$7,$8,$9,$2,$3,0*
0 Add four circle primitives for the rounded corners*
1,1,$1+$1,$2,$3*
1,1,$1+$1,$4,$5*
1,1,$1+$1,$6,$7*
1,1,$1+$1,$8,$9*
0 Add four rect primitives between the rounded corners*
20,1,$1+$1,$2,$3,$4,$5,0*
20,1,$1+$1,$4,$5,$6,$7,0*
20,1,$1+$1,$6,$7,$8,$9,0*
20,1,$1+$1,$8,$9,$2,$3,0*%
G04 Aperture macros list end*
%ADD10RoundRect,0.275000X-0.625000X0.275000X-0.625000X-0.275000X0.625000X-0.275000X0.625000X0.275000X0*%
%ADD11R,1.800000X1.100000*%
%ADD12R,2.500000X2.500000*%
%ADD13C,2.500000*%
%ADD14RoundRect,0.270000X-0.630000X1.130000X-0.630000X-1.130000X0.630000X-1.130000X0.630000X1.130000X0*%
%ADD15R,1.800000X1.800000*%
%ADD16C,1.800000*%
%ADD17C,1.620000*%
%ADD18RoundRect,0.250000X0.550000X-0.550000X0.550000X0.550000X-0.550000X0.550000X-0.550000X-0.550000X0*%
%ADD19C,1.600000*%
%ADD20C,3.400000*%
%ADD21C,2.900000*%
%ADD22RoundRect,0.250000X2.000000X1.100000X-2.000000X1.100000X-2.000000X-1.100000X2.000000X-1.100000X0*%
%ADD23RoundRect,0.250000X-2.000000X-1.100000X2.000000X-1.100000X2.000000X1.100000X-2.000000X1.100000X0*%
%ADD24RoundRect,0.250000X0.350000X0.350000X-0.350000X0.350000X-0.350000X-0.350000X0.350000X-0.350000X0*%
%ADD25C,1.200000*%
%ADD26R,1.100000X1.800000*%
%ADD27RoundRect,0.275000X-0.275000X-0.625000X0.275000X-0.625000X0.275000X0.625000X-0.275000X0.625000X0*%
G04 APERTURE END LIST*
D10*
X78920000Y-122470000D03*
X76850000Y-121200000D03*
D11*
X78920000Y-119930000D03*
D12*
X149600000Y-144500000D03*
D13*
X149600000Y-141000000D03*
D14*
X105200000Y-141000000D03*
X109900000Y-141000000D03*
X114600000Y-141000000D03*
X105200000Y-146300000D03*
X109900000Y-146300000D03*
X114600000Y-146300000D03*
X105200000Y-151600000D03*
X109900000Y-151600000D03*
X114600000Y-151600000D03*
D15*
X95915000Y-147270000D03*
D16*
X95915000Y-144730000D03*
D17*
X60700000Y-111750000D03*
X63200000Y-109250000D03*
X65700000Y-111750000D03*
D18*
X60180000Y-162200000D03*
D19*
X62720000Y-162200000D03*
X65260000Y-162200000D03*
X67800000Y-162200000D03*
X67800000Y-154580000D03*
X65260000Y-154580000D03*
X62720000Y-154580000D03*
X60180000Y-154580000D03*
D15*
X62115000Y-147870000D03*
D16*
X62115000Y-145330000D03*
D18*
X126390000Y-149005000D03*
D19*
X128930000Y-149005000D03*
X131470000Y-149005000D03*
X134010000Y-149005000D03*
X134010000Y-141385000D03*
X131470000Y-141385000D03*
X128930000Y-141385000D03*
X126390000Y-141385000D03*
D14*
X75600000Y-141000000D03*
X80300000Y-141000000D03*
X85000000Y-141000000D03*
X75600000Y-146300000D03*
X80300000Y-146300000D03*
X85000000Y-146300000D03*
X75600000Y-151600000D03*
X80300000Y-151600000D03*
X85000000Y-151600000D03*
D20*
X36600000Y-165950000D03*
X28980000Y-165950000D03*
D21*
X32790000Y-170400000D03*
D18*
X60590000Y-139605000D03*
D19*
X63130000Y-139605000D03*
X65670000Y-139605000D03*
X68210000Y-139605000D03*
X68210000Y-131985000D03*
X65670000Y-131985000D03*
X63130000Y-131985000D03*
X60590000Y-131985000D03*
D17*
X64900000Y-177900000D03*
X62400000Y-180400000D03*
X59900000Y-177900000D03*
D20*
X32600000Y-130600000D03*
X27900000Y-133500000D03*
D19*
X102550000Y-128400000D03*
X89850000Y-128400000D03*
X66600000Y-129550000D03*
X66600000Y-116850000D03*
X62200000Y-116850000D03*
X62200000Y-129550000D03*
X142550000Y-171800000D03*
X129850000Y-171800000D03*
X85750000Y-133200000D03*
X73050000Y-133200000D03*
X66600000Y-172800000D03*
X53900000Y-172800000D03*
X125600000Y-165400000D03*
X112900000Y-165400000D03*
X54400000Y-159850000D03*
X54400000Y-157350000D03*
X54200000Y-124350000D03*
X54200000Y-111650000D03*
X55400000Y-153550000D03*
X55400000Y-140850000D03*
X140600000Y-145200000D03*
X140600000Y-142700000D03*
X53000000Y-176900000D03*
X53000000Y-179400000D03*
X71000000Y-116850000D03*
X71000000Y-129550000D03*
X91000000Y-147250000D03*
X91000000Y-144750000D03*
X136200000Y-137200000D03*
X123500000Y-137200000D03*
D22*
X84900000Y-127800000D03*
D23*
X77100000Y-127800000D03*
D19*
X143000000Y-137400000D03*
X140500000Y-137400000D03*
X55000000Y-129600000D03*
X52500000Y-129600000D03*
D24*
X118600000Y-130600000D03*
D25*
X117100000Y-130600000D03*
D19*
X83650000Y-121200000D03*
X96350000Y-121200000D03*
X89050000Y-168250000D03*
X89050000Y-180950000D03*
D24*
X79000000Y-159800000D03*
D25*
X77500000Y-159800000D03*
D19*
X120400000Y-147000000D03*
X120400000Y-144500000D03*
X83150000Y-181600000D03*
X70450000Y-181600000D03*
X54200000Y-137250000D03*
X54200000Y-134750000D03*
X110000000Y-169600000D03*
X97300000Y-169600000D03*
X118000000Y-159800000D03*
X105300000Y-159800000D03*
X65600000Y-185200000D03*
X52900000Y-185200000D03*
X94000000Y-152450000D03*
X94000000Y-165150000D03*
X115000000Y-121200000D03*
X102300000Y-121200000D03*
X112000000Y-133400000D03*
X109500000Y-133400000D03*
X141750000Y-156400000D03*
X129050000Y-156400000D03*
D11*
X81930000Y-168130000D03*
D10*
X79860000Y-169400000D03*
X81930000Y-170670000D03*
D19*
X67000000Y-166800000D03*
X54300000Y-166800000D03*
X49000000Y-161600000D03*
X49000000Y-174300000D03*
X136350000Y-131400000D03*
X123650000Y-131400000D03*
X86800000Y-158400000D03*
X84300000Y-158400000D03*
X102700000Y-133600000D03*
X90000000Y-133600000D03*
D26*
X122860000Y-155000000D03*
D27*
X124130000Y-157070000D03*
X125400000Y-155000000D03*
D19*
X141750000Y-162800000D03*
X129050000Y-162800000D03*
X73600000Y-164650000D03*
X73600000Y-177350000D03*
X148000000Y-161350000D03*
X148000000Y-148650000D03*
D11*
X140400000Y-148860000D03*
D10*
X138330000Y-150130000D03*
X140400000Y-151400000D03*
M02*
