M48
; DRILL file {KiCad 9.0.2} date 2025-12-26T22:19:25-0600
; FORMAT={-:-/ absolute / metric / decimal}
; #@! TF.CreationDate,2025-12-26T22:19:25-06:00
; #@! TF.GenerationSoftware,Kicad,Pcbnew,9.0.2
; #@! TF.FileFunction,Plated,1,2,PTH
FMAT,2
METRIC
; #@! TA.AperFunction,Plated,PTH,ViaDrill
T1C0.300
; #@! TA.AperFunction,Plated,PTH,ComponentDrill
T2C0.600
; #@! TA.AperFunction,Plated,PTH,ComponentDrill
T3C0.750
; #@! TA.AperFunction,Plated,PTH,ComponentDrill
T4C0.800
; #@! TA.AperFunction,Plated,PTH,ComponentDrill
T5C0.900
; #@! TA.AperFunction,Plated,PTH,ComponentDrill
T6C1.000
; #@! TA.AperFunction,Plated,PTH,ComponentDrill
T7C1.199
; #@! TA.AperFunction,Plated,PTH,ComponentDrill
T8C1.200
; #@! TA.AperFunction,Plated,PTH,ComponentDrill
T9C1.600
%
G90
G05
T1
X34.553Y-147.11
X64.244Y-120.303
X66.946Y-179.875
X68.34Y-173.918
X77.393Y-152.53
X86.402Y-141.153
X100.364Y-162.003
X126.96Y-150.571
X129.828Y-161.071
T2
X77.5Y-159.8
X79.0Y-159.8
X117.1Y-130.6
X118.6Y-130.6
T3
X77.25Y-121.2
X78.52Y-119.93
X78.52Y-122.47
X80.26Y-169.4
X81.53Y-168.13
X81.53Y-170.67
X122.86Y-155.4
X124.13Y-156.67
X125.4Y-155.4
X138.73Y-150.13
X140.0Y-148.86
X140.0Y-151.4
T4
X49.0Y-161.6
X49.0Y-174.3
X52.5Y-129.6
X52.9Y-185.2
X53.0Y-176.9
X53.0Y-179.4
X53.9Y-172.8
X54.2Y-111.65
X54.2Y-124.35
X54.2Y-134.75
X54.2Y-137.25
X54.3Y-166.8
X54.4Y-157.35
X54.4Y-159.85
X55.0Y-129.6
X55.4Y-140.85
X55.4Y-153.55
X60.18Y-154.58
X60.18Y-162.2
X60.59Y-131.985
X60.59Y-139.605
X62.2Y-116.85
X62.2Y-129.55
X62.72Y-154.58
X62.72Y-162.2
X63.13Y-131.985
X63.13Y-139.605
X65.26Y-154.58
X65.26Y-162.2
X65.6Y-185.2
X65.67Y-131.985
X65.67Y-139.605
X66.6Y-116.85
X66.6Y-129.55
X66.6Y-172.8
X67.0Y-166.8
X67.8Y-154.58
X67.8Y-162.2
X68.21Y-131.985
X68.21Y-139.605
X70.45Y-181.6
X71.0Y-116.85
X71.0Y-129.55
X73.05Y-133.2
X73.6Y-164.65
X73.6Y-177.35
X83.15Y-181.6
X83.65Y-121.2
X84.3Y-158.4
X85.75Y-133.2
X86.8Y-158.4
X89.05Y-168.25
X89.05Y-180.95
X89.85Y-128.4
X90.0Y-133.6
X91.0Y-144.75
X91.0Y-147.25
X94.0Y-152.45
X94.0Y-165.15
X96.35Y-121.2
X97.3Y-169.6
X102.3Y-121.2
X102.55Y-128.4
X102.7Y-133.6
X105.3Y-159.8
X109.5Y-133.4
X110.0Y-169.6
X112.0Y-133.4
X112.9Y-165.4
X115.0Y-121.2
X118.0Y-159.8
X120.4Y-144.5
X120.4Y-147.0
X123.5Y-137.2
X123.65Y-131.4
X125.6Y-165.4
X126.39Y-141.385
X126.39Y-149.005
X128.93Y-141.385
X128.93Y-149.005
X129.05Y-156.4
X129.05Y-162.8
X129.85Y-171.8
X131.47Y-141.385
X131.47Y-149.005
X134.01Y-141.385
X134.01Y-149.005
X136.2Y-137.2
X136.35Y-131.4
X140.5Y-137.4
X140.6Y-142.7
X140.6Y-145.2
X141.75Y-156.4
X141.75Y-162.8
X142.55Y-171.8
X143.0Y-137.4
X148.0Y-148.65
X148.0Y-161.35
T5
X59.9Y-177.9
X60.7Y-111.75
X62.115Y-145.33
X62.115Y-147.87
X62.4Y-180.4
X63.2Y-109.25
X64.9Y-177.9
X65.7Y-111.75
X95.915Y-144.73
X95.915Y-147.27
T7
X76.0Y-127.8
X86.0Y-127.8
T8
X32.79Y-170.4
X149.6Y-141.0
X149.6Y-144.5
T9
X27.9Y-133.5
X28.98Y-165.95
X32.6Y-130.6
X36.6Y-165.95
T6
X75.6Y-140.5G85X75.6Y-141.5
G05
X75.6Y-145.8G85X75.6Y-146.8
G05
X75.6Y-151.1G85X75.6Y-152.1
G05
X80.3Y-140.5G85X80.3Y-141.5
G05
X80.3Y-145.8G85X80.3Y-146.8
G05
X80.3Y-151.1G85X80.3Y-152.1
G05
X85.0Y-140.5G85X85.0Y-141.5
G05
X85.0Y-145.8G85X85.0Y-146.8
G05
X85.0Y-151.1G85X85.0Y-152.1
G05
X105.2Y-140.5G85X105.2Y-141.5
G05
X105.2Y-145.8G85X105.2Y-146.8
G05
X105.2Y-151.1G85X105.2Y-152.1
G05
X109.9Y-140.5G85X109.9Y-141.5
G05
X109.9Y-145.8G85X109.9Y-146.8
G05
X109.9Y-151.1G85X109.9Y-152.1
G05
X114.6Y-140.5G85X114.6Y-141.5
G05
X114.6Y-145.8G85X114.6Y-146.8
G05
X114.6Y-151.1G85X114.6Y-152.1
G05
M30
