G04 #@! TF.GenerationSoftware,KiCad,Pcbnew,9.0.2*
G04 #@! TF.CreationDate,2025-12-26T22:20:37-06:00*
G04 #@! TF.ProjectId,DE_circuits,44455f63-6972-4637-9569-74732e6b6963,rev?*
G04 #@! TF.SameCoordinates,Original*
G04 #@! TF.FileFunction,Legend,Bot*
G04 #@! TF.FilePolarity,Positive*
%FSLAX46Y46*%
G04 Gerber Fmt 4.6, Leading zero omitted, Abs format (unit mm)*
G04 Created by KiCad (PCBNEW 9.0.2) date 2025-12-26 22:20:37*
%MOMM*%
%LPD*%
G01*
G04 APERTURE LIST*
%ADD10C,0.150000*%
%ADD11C,0.100000*%
%ADD12C,0.120000*%
%ADD13C,0.000000*%
G04 APERTURE END LIST*
D10*
X139463220Y-178869819D02*
X139463220Y-177869819D01*
X139034649Y-178869819D02*
X139034649Y-178346009D01*
X139034649Y-178346009D02*
X139082268Y-178250771D01*
X139082268Y-178250771D02*
X139177506Y-178203152D01*
X139177506Y-178203152D02*
X139320363Y-178203152D01*
X139320363Y-178203152D02*
X139415601Y-178250771D01*
X139415601Y-178250771D02*
X139463220Y-178298390D01*
X138701315Y-178203152D02*
X138320363Y-178203152D01*
X138558458Y-177869819D02*
X138558458Y-178726961D01*
X138558458Y-178726961D02*
X138510839Y-178822200D01*
X138510839Y-178822200D02*
X138415601Y-178869819D01*
X138415601Y-178869819D02*
X138320363Y-178869819D01*
X138129886Y-178203152D02*
X137748934Y-178203152D01*
X137987029Y-177869819D02*
X137987029Y-178726961D01*
X137987029Y-178726961D02*
X137939410Y-178822200D01*
X137939410Y-178822200D02*
X137844172Y-178869819D01*
X137844172Y-178869819D02*
X137748934Y-178869819D01*
X137415600Y-178203152D02*
X137415600Y-179203152D01*
X137415600Y-178250771D02*
X137320362Y-178203152D01*
X137320362Y-178203152D02*
X137129886Y-178203152D01*
X137129886Y-178203152D02*
X137034648Y-178250771D01*
X137034648Y-178250771D02*
X136987029Y-178298390D01*
X136987029Y-178298390D02*
X136939410Y-178393628D01*
X136939410Y-178393628D02*
X136939410Y-178679342D01*
X136939410Y-178679342D02*
X136987029Y-178774580D01*
X136987029Y-178774580D02*
X137034648Y-178822200D01*
X137034648Y-178822200D02*
X137129886Y-178869819D01*
X137129886Y-178869819D02*
X137320362Y-178869819D01*
X137320362Y-178869819D02*
X137415600Y-178822200D01*
X136558457Y-178822200D02*
X136463219Y-178869819D01*
X136463219Y-178869819D02*
X136272743Y-178869819D01*
X136272743Y-178869819D02*
X136177505Y-178822200D01*
X136177505Y-178822200D02*
X136129886Y-178726961D01*
X136129886Y-178726961D02*
X136129886Y-178679342D01*
X136129886Y-178679342D02*
X136177505Y-178584104D01*
X136177505Y-178584104D02*
X136272743Y-178536485D01*
X136272743Y-178536485D02*
X136415600Y-178536485D01*
X136415600Y-178536485D02*
X136510838Y-178488866D01*
X136510838Y-178488866D02*
X136558457Y-178393628D01*
X136558457Y-178393628D02*
X136558457Y-178346009D01*
X136558457Y-178346009D02*
X136510838Y-178250771D01*
X136510838Y-178250771D02*
X136415600Y-178203152D01*
X136415600Y-178203152D02*
X136272743Y-178203152D01*
X136272743Y-178203152D02*
X136177505Y-178250771D01*
X135701314Y-178774580D02*
X135653695Y-178822200D01*
X135653695Y-178822200D02*
X135701314Y-178869819D01*
X135701314Y-178869819D02*
X135748933Y-178822200D01*
X135748933Y-178822200D02*
X135701314Y-178774580D01*
X135701314Y-178774580D02*
X135701314Y-178869819D01*
X135701314Y-178250771D02*
X135653695Y-178298390D01*
X135653695Y-178298390D02*
X135701314Y-178346009D01*
X135701314Y-178346009D02*
X135748933Y-178298390D01*
X135748933Y-178298390D02*
X135701314Y-178250771D01*
X135701314Y-178250771D02*
X135701314Y-178346009D01*
X134510839Y-177822200D02*
X135367981Y-179107914D01*
X133463220Y-177822200D02*
X134320362Y-179107914D01*
X132701315Y-178203152D02*
X132701315Y-179012676D01*
X132701315Y-179012676D02*
X132748934Y-179107914D01*
X132748934Y-179107914D02*
X132796553Y-179155533D01*
X132796553Y-179155533D02*
X132891791Y-179203152D01*
X132891791Y-179203152D02*
X133034648Y-179203152D01*
X133034648Y-179203152D02*
X133129886Y-179155533D01*
X132701315Y-178822200D02*
X132796553Y-178869819D01*
X132796553Y-178869819D02*
X132987029Y-178869819D01*
X132987029Y-178869819D02*
X133082267Y-178822200D01*
X133082267Y-178822200D02*
X133129886Y-178774580D01*
X133129886Y-178774580D02*
X133177505Y-178679342D01*
X133177505Y-178679342D02*
X133177505Y-178393628D01*
X133177505Y-178393628D02*
X133129886Y-178298390D01*
X133129886Y-178298390D02*
X133082267Y-178250771D01*
X133082267Y-178250771D02*
X132987029Y-178203152D01*
X132987029Y-178203152D02*
X132796553Y-178203152D01*
X132796553Y-178203152D02*
X132701315Y-178250771D01*
X132225124Y-178869819D02*
X132225124Y-178203152D01*
X132225124Y-177869819D02*
X132272743Y-177917438D01*
X132272743Y-177917438D02*
X132225124Y-177965057D01*
X132225124Y-177965057D02*
X132177505Y-177917438D01*
X132177505Y-177917438D02*
X132225124Y-177869819D01*
X132225124Y-177869819D02*
X132225124Y-177965057D01*
X131891791Y-178203152D02*
X131510839Y-178203152D01*
X131748934Y-177869819D02*
X131748934Y-178726961D01*
X131748934Y-178726961D02*
X131701315Y-178822200D01*
X131701315Y-178822200D02*
X131606077Y-178869819D01*
X131606077Y-178869819D02*
X131510839Y-178869819D01*
X131177505Y-178869819D02*
X131177505Y-177869819D01*
X130748934Y-178869819D02*
X130748934Y-178346009D01*
X130748934Y-178346009D02*
X130796553Y-178250771D01*
X130796553Y-178250771D02*
X130891791Y-178203152D01*
X130891791Y-178203152D02*
X131034648Y-178203152D01*
X131034648Y-178203152D02*
X131129886Y-178250771D01*
X131129886Y-178250771D02*
X131177505Y-178298390D01*
X129844172Y-178203152D02*
X129844172Y-178869819D01*
X130272743Y-178203152D02*
X130272743Y-178726961D01*
X130272743Y-178726961D02*
X130225124Y-178822200D01*
X130225124Y-178822200D02*
X130129886Y-178869819D01*
X130129886Y-178869819D02*
X129987029Y-178869819D01*
X129987029Y-178869819D02*
X129891791Y-178822200D01*
X129891791Y-178822200D02*
X129844172Y-178774580D01*
X129367981Y-178869819D02*
X129367981Y-177869819D01*
X129367981Y-178250771D02*
X129272743Y-178203152D01*
X129272743Y-178203152D02*
X129082267Y-178203152D01*
X129082267Y-178203152D02*
X128987029Y-178250771D01*
X128987029Y-178250771D02*
X128939410Y-178298390D01*
X128939410Y-178298390D02*
X128891791Y-178393628D01*
X128891791Y-178393628D02*
X128891791Y-178679342D01*
X128891791Y-178679342D02*
X128939410Y-178774580D01*
X128939410Y-178774580D02*
X128987029Y-178822200D01*
X128987029Y-178822200D02*
X129082267Y-178869819D01*
X129082267Y-178869819D02*
X129272743Y-178869819D01*
X129272743Y-178869819D02*
X129367981Y-178822200D01*
X128463219Y-178774580D02*
X128415600Y-178822200D01*
X128415600Y-178822200D02*
X128463219Y-178869819D01*
X128463219Y-178869819D02*
X128510838Y-178822200D01*
X128510838Y-178822200D02*
X128463219Y-178774580D01*
X128463219Y-178774580D02*
X128463219Y-178869819D01*
X127558458Y-178822200D02*
X127653696Y-178869819D01*
X127653696Y-178869819D02*
X127844172Y-178869819D01*
X127844172Y-178869819D02*
X127939410Y-178822200D01*
X127939410Y-178822200D02*
X127987029Y-178774580D01*
X127987029Y-178774580D02*
X128034648Y-178679342D01*
X128034648Y-178679342D02*
X128034648Y-178393628D01*
X128034648Y-178393628D02*
X127987029Y-178298390D01*
X127987029Y-178298390D02*
X127939410Y-178250771D01*
X127939410Y-178250771D02*
X127844172Y-178203152D01*
X127844172Y-178203152D02*
X127653696Y-178203152D01*
X127653696Y-178203152D02*
X127558458Y-178250771D01*
X126987029Y-178869819D02*
X127082267Y-178822200D01*
X127082267Y-178822200D02*
X127129886Y-178774580D01*
X127129886Y-178774580D02*
X127177505Y-178679342D01*
X127177505Y-178679342D02*
X127177505Y-178393628D01*
X127177505Y-178393628D02*
X127129886Y-178298390D01*
X127129886Y-178298390D02*
X127082267Y-178250771D01*
X127082267Y-178250771D02*
X126987029Y-178203152D01*
X126987029Y-178203152D02*
X126844172Y-178203152D01*
X126844172Y-178203152D02*
X126748934Y-178250771D01*
X126748934Y-178250771D02*
X126701315Y-178298390D01*
X126701315Y-178298390D02*
X126653696Y-178393628D01*
X126653696Y-178393628D02*
X126653696Y-178679342D01*
X126653696Y-178679342D02*
X126701315Y-178774580D01*
X126701315Y-178774580D02*
X126748934Y-178822200D01*
X126748934Y-178822200D02*
X126844172Y-178869819D01*
X126844172Y-178869819D02*
X126987029Y-178869819D01*
X126225124Y-178869819D02*
X126225124Y-178203152D01*
X126225124Y-178298390D02*
X126177505Y-178250771D01*
X126177505Y-178250771D02*
X126082267Y-178203152D01*
X126082267Y-178203152D02*
X125939410Y-178203152D01*
X125939410Y-178203152D02*
X125844172Y-178250771D01*
X125844172Y-178250771D02*
X125796553Y-178346009D01*
X125796553Y-178346009D02*
X125796553Y-178869819D01*
X125796553Y-178346009D02*
X125748934Y-178250771D01*
X125748934Y-178250771D02*
X125653696Y-178203152D01*
X125653696Y-178203152D02*
X125510839Y-178203152D01*
X125510839Y-178203152D02*
X125415600Y-178250771D01*
X125415600Y-178250771D02*
X125367981Y-178346009D01*
X125367981Y-178346009D02*
X125367981Y-178869819D01*
X124177506Y-177822200D02*
X125034648Y-179107914D01*
X123844172Y-178869819D02*
X123844172Y-178203152D01*
X123844172Y-178298390D02*
X123796553Y-178250771D01*
X123796553Y-178250771D02*
X123701315Y-178203152D01*
X123701315Y-178203152D02*
X123558458Y-178203152D01*
X123558458Y-178203152D02*
X123463220Y-178250771D01*
X123463220Y-178250771D02*
X123415601Y-178346009D01*
X123415601Y-178346009D02*
X123415601Y-178869819D01*
X123415601Y-178346009D02*
X123367982Y-178250771D01*
X123367982Y-178250771D02*
X123272744Y-178203152D01*
X123272744Y-178203152D02*
X123129887Y-178203152D01*
X123129887Y-178203152D02*
X123034648Y-178250771D01*
X123034648Y-178250771D02*
X122987029Y-178346009D01*
X122987029Y-178346009D02*
X122987029Y-178869819D01*
X122510839Y-178869819D02*
X122510839Y-178203152D01*
X122510839Y-177869819D02*
X122558458Y-177917438D01*
X122558458Y-177917438D02*
X122510839Y-177965057D01*
X122510839Y-177965057D02*
X122463220Y-177917438D01*
X122463220Y-177917438D02*
X122510839Y-177869819D01*
X122510839Y-177869819D02*
X122510839Y-177965057D01*
X121606078Y-178822200D02*
X121701316Y-178869819D01*
X121701316Y-178869819D02*
X121891792Y-178869819D01*
X121891792Y-178869819D02*
X121987030Y-178822200D01*
X121987030Y-178822200D02*
X122034649Y-178774580D01*
X122034649Y-178774580D02*
X122082268Y-178679342D01*
X122082268Y-178679342D02*
X122082268Y-178393628D01*
X122082268Y-178393628D02*
X122034649Y-178298390D01*
X122034649Y-178298390D02*
X121987030Y-178250771D01*
X121987030Y-178250771D02*
X121891792Y-178203152D01*
X121891792Y-178203152D02*
X121701316Y-178203152D01*
X121701316Y-178203152D02*
X121606078Y-178250771D01*
X121177506Y-178869819D02*
X121177506Y-178203152D01*
X121177506Y-178393628D02*
X121129887Y-178298390D01*
X121129887Y-178298390D02*
X121082268Y-178250771D01*
X121082268Y-178250771D02*
X120987030Y-178203152D01*
X120987030Y-178203152D02*
X120891792Y-178203152D01*
X120415601Y-178869819D02*
X120510839Y-178822200D01*
X120510839Y-178822200D02*
X120558458Y-178774580D01*
X120558458Y-178774580D02*
X120606077Y-178679342D01*
X120606077Y-178679342D02*
X120606077Y-178393628D01*
X120606077Y-178393628D02*
X120558458Y-178298390D01*
X120558458Y-178298390D02*
X120510839Y-178250771D01*
X120510839Y-178250771D02*
X120415601Y-178203152D01*
X120415601Y-178203152D02*
X120272744Y-178203152D01*
X120272744Y-178203152D02*
X120177506Y-178250771D01*
X120177506Y-178250771D02*
X120129887Y-178298390D01*
X120129887Y-178298390D02*
X120082268Y-178393628D01*
X120082268Y-178393628D02*
X120082268Y-178679342D01*
X120082268Y-178679342D02*
X120129887Y-178774580D01*
X120129887Y-178774580D02*
X120177506Y-178822200D01*
X120177506Y-178822200D02*
X120272744Y-178869819D01*
X120272744Y-178869819D02*
X120415601Y-178869819D01*
X119796553Y-178203152D02*
X119415601Y-178203152D01*
X119653696Y-178869819D02*
X119653696Y-178012676D01*
X119653696Y-178012676D02*
X119606077Y-177917438D01*
X119606077Y-177917438D02*
X119510839Y-177869819D01*
X119510839Y-177869819D02*
X119415601Y-177869819D01*
X118701315Y-178822200D02*
X118796553Y-178869819D01*
X118796553Y-178869819D02*
X118987029Y-178869819D01*
X118987029Y-178869819D02*
X119082267Y-178822200D01*
X119082267Y-178822200D02*
X119129886Y-178726961D01*
X119129886Y-178726961D02*
X119129886Y-178346009D01*
X119129886Y-178346009D02*
X119082267Y-178250771D01*
X119082267Y-178250771D02*
X118987029Y-178203152D01*
X118987029Y-178203152D02*
X118796553Y-178203152D01*
X118796553Y-178203152D02*
X118701315Y-178250771D01*
X118701315Y-178250771D02*
X118653696Y-178346009D01*
X118653696Y-178346009D02*
X118653696Y-178441247D01*
X118653696Y-178441247D02*
X119129886Y-178536485D01*
X118225124Y-178869819D02*
X118225124Y-178203152D01*
X118225124Y-178393628D02*
X118177505Y-178298390D01*
X118177505Y-178298390D02*
X118129886Y-178250771D01*
X118129886Y-178250771D02*
X118034648Y-178203152D01*
X118034648Y-178203152D02*
X117939410Y-178203152D01*
X117606076Y-178869819D02*
X117606076Y-178203152D01*
X117606076Y-178393628D02*
X117558457Y-178298390D01*
X117558457Y-178298390D02*
X117510838Y-178250771D01*
X117510838Y-178250771D02*
X117415600Y-178203152D01*
X117415600Y-178203152D02*
X117320362Y-178203152D01*
X116606076Y-178822200D02*
X116701314Y-178869819D01*
X116701314Y-178869819D02*
X116891790Y-178869819D01*
X116891790Y-178869819D02*
X116987028Y-178822200D01*
X116987028Y-178822200D02*
X117034647Y-178726961D01*
X117034647Y-178726961D02*
X117034647Y-178346009D01*
X117034647Y-178346009D02*
X116987028Y-178250771D01*
X116987028Y-178250771D02*
X116891790Y-178203152D01*
X116891790Y-178203152D02*
X116701314Y-178203152D01*
X116701314Y-178203152D02*
X116606076Y-178250771D01*
X116606076Y-178250771D02*
X116558457Y-178346009D01*
X116558457Y-178346009D02*
X116558457Y-178441247D01*
X116558457Y-178441247D02*
X117034647Y-178536485D01*
X116272742Y-178203152D02*
X115891790Y-178203152D01*
X116129885Y-177869819D02*
X116129885Y-178726961D01*
X116129885Y-178726961D02*
X116082266Y-178822200D01*
X116082266Y-178822200D02*
X115987028Y-178869819D01*
X115987028Y-178869819D02*
X115891790Y-178869819D01*
X114844171Y-177822200D02*
X115701313Y-179107914D01*
X114558456Y-178822200D02*
X114415599Y-178869819D01*
X114415599Y-178869819D02*
X114177504Y-178869819D01*
X114177504Y-178869819D02*
X114082266Y-178822200D01*
X114082266Y-178822200D02*
X114034647Y-178774580D01*
X114034647Y-178774580D02*
X113987028Y-178679342D01*
X113987028Y-178679342D02*
X113987028Y-178584104D01*
X113987028Y-178584104D02*
X114034647Y-178488866D01*
X114034647Y-178488866D02*
X114082266Y-178441247D01*
X114082266Y-178441247D02*
X114177504Y-178393628D01*
X114177504Y-178393628D02*
X114367980Y-178346009D01*
X114367980Y-178346009D02*
X114463218Y-178298390D01*
X114463218Y-178298390D02*
X114510837Y-178250771D01*
X114510837Y-178250771D02*
X114558456Y-178155533D01*
X114558456Y-178155533D02*
X114558456Y-178060295D01*
X114558456Y-178060295D02*
X114510837Y-177965057D01*
X114510837Y-177965057D02*
X114463218Y-177917438D01*
X114463218Y-177917438D02*
X114367980Y-177869819D01*
X114367980Y-177869819D02*
X114129885Y-177869819D01*
X114129885Y-177869819D02*
X113987028Y-177917438D01*
X113177504Y-178822200D02*
X113272742Y-178869819D01*
X113272742Y-178869819D02*
X113463218Y-178869819D01*
X113463218Y-178869819D02*
X113558456Y-178822200D01*
X113558456Y-178822200D02*
X113606075Y-178726961D01*
X113606075Y-178726961D02*
X113606075Y-178346009D01*
X113606075Y-178346009D02*
X113558456Y-178250771D01*
X113558456Y-178250771D02*
X113463218Y-178203152D01*
X113463218Y-178203152D02*
X113272742Y-178203152D01*
X113272742Y-178203152D02*
X113177504Y-178250771D01*
X113177504Y-178250771D02*
X113129885Y-178346009D01*
X113129885Y-178346009D02*
X113129885Y-178441247D01*
X113129885Y-178441247D02*
X113606075Y-178536485D01*
X112844170Y-178203152D02*
X112463218Y-178203152D01*
X112701313Y-177869819D02*
X112701313Y-178726961D01*
X112701313Y-178726961D02*
X112653694Y-178822200D01*
X112653694Y-178822200D02*
X112558456Y-178869819D01*
X112558456Y-178869819D02*
X112463218Y-178869819D01*
X112129884Y-178488866D02*
X111367980Y-178488866D01*
X110891789Y-178869819D02*
X110891789Y-177869819D01*
X110891789Y-177869819D02*
X110510837Y-177869819D01*
X110510837Y-177869819D02*
X110415599Y-177917438D01*
X110415599Y-177917438D02*
X110367980Y-177965057D01*
X110367980Y-177965057D02*
X110320361Y-178060295D01*
X110320361Y-178060295D02*
X110320361Y-178203152D01*
X110320361Y-178203152D02*
X110367980Y-178298390D01*
X110367980Y-178298390D02*
X110415599Y-178346009D01*
X110415599Y-178346009D02*
X110510837Y-178393628D01*
X110510837Y-178393628D02*
X110891789Y-178393628D01*
X109891789Y-178869819D02*
X109891789Y-177869819D01*
X109463218Y-178869819D02*
X109463218Y-178346009D01*
X109463218Y-178346009D02*
X109510837Y-178250771D01*
X109510837Y-178250771D02*
X109606075Y-178203152D01*
X109606075Y-178203152D02*
X109748932Y-178203152D01*
X109748932Y-178203152D02*
X109844170Y-178250771D01*
X109844170Y-178250771D02*
X109891789Y-178298390D01*
X108558456Y-178869819D02*
X108558456Y-178346009D01*
X108558456Y-178346009D02*
X108606075Y-178250771D01*
X108606075Y-178250771D02*
X108701313Y-178203152D01*
X108701313Y-178203152D02*
X108891789Y-178203152D01*
X108891789Y-178203152D02*
X108987027Y-178250771D01*
X108558456Y-178822200D02*
X108653694Y-178869819D01*
X108653694Y-178869819D02*
X108891789Y-178869819D01*
X108891789Y-178869819D02*
X108987027Y-178822200D01*
X108987027Y-178822200D02*
X109034646Y-178726961D01*
X109034646Y-178726961D02*
X109034646Y-178631723D01*
X109034646Y-178631723D02*
X108987027Y-178536485D01*
X108987027Y-178536485D02*
X108891789Y-178488866D01*
X108891789Y-178488866D02*
X108653694Y-178488866D01*
X108653694Y-178488866D02*
X108558456Y-178441247D01*
X108129884Y-178822200D02*
X108034646Y-178869819D01*
X108034646Y-178869819D02*
X107844170Y-178869819D01*
X107844170Y-178869819D02*
X107748932Y-178822200D01*
X107748932Y-178822200D02*
X107701313Y-178726961D01*
X107701313Y-178726961D02*
X107701313Y-178679342D01*
X107701313Y-178679342D02*
X107748932Y-178584104D01*
X107748932Y-178584104D02*
X107844170Y-178536485D01*
X107844170Y-178536485D02*
X107987027Y-178536485D01*
X107987027Y-178536485D02*
X108082265Y-178488866D01*
X108082265Y-178488866D02*
X108129884Y-178393628D01*
X108129884Y-178393628D02*
X108129884Y-178346009D01*
X108129884Y-178346009D02*
X108082265Y-178250771D01*
X108082265Y-178250771D02*
X107987027Y-178203152D01*
X107987027Y-178203152D02*
X107844170Y-178203152D01*
X107844170Y-178203152D02*
X107748932Y-178250771D01*
X106891789Y-178822200D02*
X106987027Y-178869819D01*
X106987027Y-178869819D02*
X107177503Y-178869819D01*
X107177503Y-178869819D02*
X107272741Y-178822200D01*
X107272741Y-178822200D02*
X107320360Y-178726961D01*
X107320360Y-178726961D02*
X107320360Y-178346009D01*
X107320360Y-178346009D02*
X107272741Y-178250771D01*
X107272741Y-178250771D02*
X107177503Y-178203152D01*
X107177503Y-178203152D02*
X106987027Y-178203152D01*
X106987027Y-178203152D02*
X106891789Y-178250771D01*
X106891789Y-178250771D02*
X106844170Y-178346009D01*
X106844170Y-178346009D02*
X106844170Y-178441247D01*
X106844170Y-178441247D02*
X107320360Y-178536485D01*
X106415598Y-178869819D02*
X106415598Y-178203152D01*
X106415598Y-178393628D02*
X106367979Y-178298390D01*
X106367979Y-178298390D02*
X106320360Y-178250771D01*
X106320360Y-178250771D02*
X106225122Y-178203152D01*
X106225122Y-178203152D02*
X106129884Y-178203152D01*
X105844169Y-178822200D02*
X105748931Y-178869819D01*
X105748931Y-178869819D02*
X105558455Y-178869819D01*
X105558455Y-178869819D02*
X105463217Y-178822200D01*
X105463217Y-178822200D02*
X105415598Y-178726961D01*
X105415598Y-178726961D02*
X105415598Y-178679342D01*
X105415598Y-178679342D02*
X105463217Y-178584104D01*
X105463217Y-178584104D02*
X105558455Y-178536485D01*
X105558455Y-178536485D02*
X105701312Y-178536485D01*
X105701312Y-178536485D02*
X105796550Y-178488866D01*
X105796550Y-178488866D02*
X105844169Y-178393628D01*
X105844169Y-178393628D02*
X105844169Y-178346009D01*
X105844169Y-178346009D02*
X105796550Y-178250771D01*
X105796550Y-178250771D02*
X105701312Y-178203152D01*
X105701312Y-178203152D02*
X105558455Y-178203152D01*
X105558455Y-178203152D02*
X105463217Y-178250771D01*
X104987026Y-178488866D02*
X104225122Y-178488866D01*
X103891788Y-178203152D02*
X103510836Y-178203152D01*
X103748931Y-177869819D02*
X103748931Y-178726961D01*
X103748931Y-178726961D02*
X103701312Y-178822200D01*
X103701312Y-178822200D02*
X103606074Y-178869819D01*
X103606074Y-178869819D02*
X103510836Y-178869819D01*
X103034645Y-178869819D02*
X103129883Y-178822200D01*
X103129883Y-178822200D02*
X103177502Y-178774580D01*
X103177502Y-178774580D02*
X103225121Y-178679342D01*
X103225121Y-178679342D02*
X103225121Y-178393628D01*
X103225121Y-178393628D02*
X103177502Y-178298390D01*
X103177502Y-178298390D02*
X103129883Y-178250771D01*
X103129883Y-178250771D02*
X103034645Y-178203152D01*
X103034645Y-178203152D02*
X102891788Y-178203152D01*
X102891788Y-178203152D02*
X102796550Y-178250771D01*
X102796550Y-178250771D02*
X102748931Y-178298390D01*
X102748931Y-178298390D02*
X102701312Y-178393628D01*
X102701312Y-178393628D02*
X102701312Y-178679342D01*
X102701312Y-178679342D02*
X102748931Y-178774580D01*
X102748931Y-178774580D02*
X102796550Y-178822200D01*
X102796550Y-178822200D02*
X102891788Y-178869819D01*
X102891788Y-178869819D02*
X103034645Y-178869819D01*
X102272740Y-178488866D02*
X101510836Y-178488866D01*
X101034645Y-178869819D02*
X101034645Y-177869819D01*
X100463217Y-178869819D02*
X100891788Y-178298390D01*
X100463217Y-177869819D02*
X101034645Y-178441247D01*
X100034645Y-178869819D02*
X100034645Y-178203152D01*
X100034645Y-177869819D02*
X100082264Y-177917438D01*
X100082264Y-177917438D02*
X100034645Y-177965057D01*
X100034645Y-177965057D02*
X99987026Y-177917438D01*
X99987026Y-177917438D02*
X100034645Y-177869819D01*
X100034645Y-177869819D02*
X100034645Y-177965057D01*
X99415598Y-178869819D02*
X99510836Y-178822200D01*
X99510836Y-178822200D02*
X99558455Y-178726961D01*
X99558455Y-178726961D02*
X99558455Y-177869819D01*
X98891788Y-178869819D02*
X98987026Y-178822200D01*
X98987026Y-178822200D02*
X99034645Y-178726961D01*
X99034645Y-178726961D02*
X99034645Y-177869819D01*
X98510835Y-178869819D02*
X98510835Y-178203152D01*
X98510835Y-177869819D02*
X98558454Y-177917438D01*
X98558454Y-177917438D02*
X98510835Y-177965057D01*
X98510835Y-177965057D02*
X98463216Y-177917438D01*
X98463216Y-177917438D02*
X98510835Y-177869819D01*
X98510835Y-177869819D02*
X98510835Y-177965057D01*
X98034645Y-178203152D02*
X98034645Y-178869819D01*
X98034645Y-178298390D02*
X97987026Y-178250771D01*
X97987026Y-178250771D02*
X97891788Y-178203152D01*
X97891788Y-178203152D02*
X97748931Y-178203152D01*
X97748931Y-178203152D02*
X97653693Y-178250771D01*
X97653693Y-178250771D02*
X97606074Y-178346009D01*
X97606074Y-178346009D02*
X97606074Y-178869819D01*
X97129883Y-178488866D02*
X96367979Y-178488866D01*
D11*
X132431833Y-108662475D02*
X132431833Y-109376760D01*
X132431833Y-109376760D02*
X132479452Y-109519617D01*
X132479452Y-109519617D02*
X132574690Y-109614856D01*
X132574690Y-109614856D02*
X132717547Y-109662475D01*
X132717547Y-109662475D02*
X132812785Y-109662475D01*
X131812785Y-109662475D02*
X131908023Y-109614856D01*
X131908023Y-109614856D02*
X131955642Y-109567236D01*
X131955642Y-109567236D02*
X132003261Y-109471998D01*
X132003261Y-109471998D02*
X132003261Y-109186284D01*
X132003261Y-109186284D02*
X131955642Y-109091046D01*
X131955642Y-109091046D02*
X131908023Y-109043427D01*
X131908023Y-109043427D02*
X131812785Y-108995808D01*
X131812785Y-108995808D02*
X131669928Y-108995808D01*
X131669928Y-108995808D02*
X131574690Y-109043427D01*
X131574690Y-109043427D02*
X131527071Y-109091046D01*
X131527071Y-109091046D02*
X131479452Y-109186284D01*
X131479452Y-109186284D02*
X131479452Y-109471998D01*
X131479452Y-109471998D02*
X131527071Y-109567236D01*
X131527071Y-109567236D02*
X131574690Y-109614856D01*
X131574690Y-109614856D02*
X131669928Y-109662475D01*
X131669928Y-109662475D02*
X131812785Y-109662475D01*
X131050880Y-108995808D02*
X131050880Y-109662475D01*
X131050880Y-109091046D02*
X131003261Y-109043427D01*
X131003261Y-109043427D02*
X130908023Y-108995808D01*
X130908023Y-108995808D02*
X130765166Y-108995808D01*
X130765166Y-108995808D02*
X130669928Y-109043427D01*
X130669928Y-109043427D02*
X130622309Y-109138665D01*
X130622309Y-109138665D02*
X130622309Y-109662475D01*
X129717547Y-109662475D02*
X129717547Y-109138665D01*
X129717547Y-109138665D02*
X129765166Y-109043427D01*
X129765166Y-109043427D02*
X129860404Y-108995808D01*
X129860404Y-108995808D02*
X130050880Y-108995808D01*
X130050880Y-108995808D02*
X130146118Y-109043427D01*
X129717547Y-109614856D02*
X129812785Y-109662475D01*
X129812785Y-109662475D02*
X130050880Y-109662475D01*
X130050880Y-109662475D02*
X130146118Y-109614856D01*
X130146118Y-109614856D02*
X130193737Y-109519617D01*
X130193737Y-109519617D02*
X130193737Y-109424379D01*
X130193737Y-109424379D02*
X130146118Y-109329141D01*
X130146118Y-109329141D02*
X130050880Y-109281522D01*
X130050880Y-109281522D02*
X129812785Y-109281522D01*
X129812785Y-109281522D02*
X129717547Y-109233903D01*
X129384213Y-108995808D02*
X129003261Y-108995808D01*
X129241356Y-108662475D02*
X129241356Y-109519617D01*
X129241356Y-109519617D02*
X129193737Y-109614856D01*
X129193737Y-109614856D02*
X129098499Y-109662475D01*
X129098499Y-109662475D02*
X129003261Y-109662475D01*
X128669927Y-109662475D02*
X128669927Y-108662475D01*
X128241356Y-109662475D02*
X128241356Y-109138665D01*
X128241356Y-109138665D02*
X128288975Y-109043427D01*
X128288975Y-109043427D02*
X128384213Y-108995808D01*
X128384213Y-108995808D02*
X128527070Y-108995808D01*
X128527070Y-108995808D02*
X128622308Y-109043427D01*
X128622308Y-109043427D02*
X128669927Y-109091046D01*
X127336594Y-109662475D02*
X127336594Y-109138665D01*
X127336594Y-109138665D02*
X127384213Y-109043427D01*
X127384213Y-109043427D02*
X127479451Y-108995808D01*
X127479451Y-108995808D02*
X127669927Y-108995808D01*
X127669927Y-108995808D02*
X127765165Y-109043427D01*
X127336594Y-109614856D02*
X127431832Y-109662475D01*
X127431832Y-109662475D02*
X127669927Y-109662475D01*
X127669927Y-109662475D02*
X127765165Y-109614856D01*
X127765165Y-109614856D02*
X127812784Y-109519617D01*
X127812784Y-109519617D02*
X127812784Y-109424379D01*
X127812784Y-109424379D02*
X127765165Y-109329141D01*
X127765165Y-109329141D02*
X127669927Y-109281522D01*
X127669927Y-109281522D02*
X127431832Y-109281522D01*
X127431832Y-109281522D02*
X127336594Y-109233903D01*
X126860403Y-108995808D02*
X126860403Y-109662475D01*
X126860403Y-109091046D02*
X126812784Y-109043427D01*
X126812784Y-109043427D02*
X126717546Y-108995808D01*
X126717546Y-108995808D02*
X126574689Y-108995808D01*
X126574689Y-108995808D02*
X126479451Y-109043427D01*
X126479451Y-109043427D02*
X126431832Y-109138665D01*
X126431832Y-109138665D02*
X126431832Y-109662475D01*
X124669927Y-108710094D02*
X124765165Y-108662475D01*
X124765165Y-108662475D02*
X124908022Y-108662475D01*
X124908022Y-108662475D02*
X125050879Y-108710094D01*
X125050879Y-108710094D02*
X125146117Y-108805332D01*
X125146117Y-108805332D02*
X125193736Y-108900570D01*
X125193736Y-108900570D02*
X125241355Y-109091046D01*
X125241355Y-109091046D02*
X125241355Y-109233903D01*
X125241355Y-109233903D02*
X125193736Y-109424379D01*
X125193736Y-109424379D02*
X125146117Y-109519617D01*
X125146117Y-109519617D02*
X125050879Y-109614856D01*
X125050879Y-109614856D02*
X124908022Y-109662475D01*
X124908022Y-109662475D02*
X124812784Y-109662475D01*
X124812784Y-109662475D02*
X124669927Y-109614856D01*
X124669927Y-109614856D02*
X124622308Y-109567236D01*
X124622308Y-109567236D02*
X124622308Y-109233903D01*
X124622308Y-109233903D02*
X124812784Y-109233903D01*
X123765165Y-109662475D02*
X123765165Y-109138665D01*
X123765165Y-109138665D02*
X123812784Y-109043427D01*
X123812784Y-109043427D02*
X123908022Y-108995808D01*
X123908022Y-108995808D02*
X124098498Y-108995808D01*
X124098498Y-108995808D02*
X124193736Y-109043427D01*
X123765165Y-109614856D02*
X123860403Y-109662475D01*
X123860403Y-109662475D02*
X124098498Y-109662475D01*
X124098498Y-109662475D02*
X124193736Y-109614856D01*
X124193736Y-109614856D02*
X124241355Y-109519617D01*
X124241355Y-109519617D02*
X124241355Y-109424379D01*
X124241355Y-109424379D02*
X124193736Y-109329141D01*
X124193736Y-109329141D02*
X124098498Y-109281522D01*
X124098498Y-109281522D02*
X123860403Y-109281522D01*
X123860403Y-109281522D02*
X123765165Y-109233903D01*
X123146117Y-109662475D02*
X123241355Y-109614856D01*
X123241355Y-109614856D02*
X123288974Y-109519617D01*
X123288974Y-109519617D02*
X123288974Y-108662475D01*
X122622307Y-109662475D02*
X122717545Y-109614856D01*
X122717545Y-109614856D02*
X122765164Y-109519617D01*
X122765164Y-109519617D02*
X122765164Y-108662475D01*
X122098497Y-109662475D02*
X122193735Y-109614856D01*
X122193735Y-109614856D02*
X122241354Y-109567236D01*
X122241354Y-109567236D02*
X122288973Y-109471998D01*
X122288973Y-109471998D02*
X122288973Y-109186284D01*
X122288973Y-109186284D02*
X122241354Y-109091046D01*
X122241354Y-109091046D02*
X122193735Y-109043427D01*
X122193735Y-109043427D02*
X122098497Y-108995808D01*
X122098497Y-108995808D02*
X121955640Y-108995808D01*
X121955640Y-108995808D02*
X121860402Y-109043427D01*
X121860402Y-109043427D02*
X121812783Y-109091046D01*
X121812783Y-109091046D02*
X121765164Y-109186284D01*
X121765164Y-109186284D02*
X121765164Y-109471998D01*
X121765164Y-109471998D02*
X121812783Y-109567236D01*
X121812783Y-109567236D02*
X121860402Y-109614856D01*
X121860402Y-109614856D02*
X121955640Y-109662475D01*
X121955640Y-109662475D02*
X122098497Y-109662475D01*
X132765166Y-111224800D02*
X132622309Y-111272419D01*
X132622309Y-111272419D02*
X132384214Y-111272419D01*
X132384214Y-111272419D02*
X132288976Y-111224800D01*
X132288976Y-111224800D02*
X132241357Y-111177180D01*
X132241357Y-111177180D02*
X132193738Y-111081942D01*
X132193738Y-111081942D02*
X132193738Y-110986704D01*
X132193738Y-110986704D02*
X132241357Y-110891466D01*
X132241357Y-110891466D02*
X132288976Y-110843847D01*
X132288976Y-110843847D02*
X132384214Y-110796228D01*
X132384214Y-110796228D02*
X132574690Y-110748609D01*
X132574690Y-110748609D02*
X132669928Y-110700990D01*
X132669928Y-110700990D02*
X132717547Y-110653371D01*
X132717547Y-110653371D02*
X132765166Y-110558133D01*
X132765166Y-110558133D02*
X132765166Y-110462895D01*
X132765166Y-110462895D02*
X132717547Y-110367657D01*
X132717547Y-110367657D02*
X132669928Y-110320038D01*
X132669928Y-110320038D02*
X132574690Y-110272419D01*
X132574690Y-110272419D02*
X132336595Y-110272419D01*
X132336595Y-110272419D02*
X132193738Y-110320038D01*
X131765166Y-111272419D02*
X131765166Y-110272419D01*
X131765166Y-110272419D02*
X131384214Y-110272419D01*
X131384214Y-110272419D02*
X131288976Y-110320038D01*
X131288976Y-110320038D02*
X131241357Y-110367657D01*
X131241357Y-110367657D02*
X131193738Y-110462895D01*
X131193738Y-110462895D02*
X131193738Y-110605752D01*
X131193738Y-110605752D02*
X131241357Y-110700990D01*
X131241357Y-110700990D02*
X131288976Y-110748609D01*
X131288976Y-110748609D02*
X131384214Y-110796228D01*
X131384214Y-110796228D02*
X131765166Y-110796228D01*
X130908023Y-110272419D02*
X130336595Y-110272419D01*
X130622309Y-111272419D02*
X130622309Y-110272419D01*
X130003261Y-111272419D02*
X130003261Y-110272419D01*
X129431833Y-111272419D02*
X129860404Y-110700990D01*
X129431833Y-110272419D02*
X130003261Y-110843847D01*
X129003261Y-110891466D02*
X128241357Y-110891466D01*
X127241357Y-111272419D02*
X127812785Y-111272419D01*
X127527071Y-111272419D02*
X127527071Y-110272419D01*
X127527071Y-110272419D02*
X127622309Y-110415276D01*
X127622309Y-110415276D02*
X127717547Y-110510514D01*
X127717547Y-110510514D02*
X127812785Y-110558133D01*
X126622309Y-110272419D02*
X126527071Y-110272419D01*
X126527071Y-110272419D02*
X126431833Y-110320038D01*
X126431833Y-110320038D02*
X126384214Y-110367657D01*
X126384214Y-110367657D02*
X126336595Y-110462895D01*
X126336595Y-110462895D02*
X126288976Y-110653371D01*
X126288976Y-110653371D02*
X126288976Y-110891466D01*
X126288976Y-110891466D02*
X126336595Y-111081942D01*
X126336595Y-111081942D02*
X126384214Y-111177180D01*
X126384214Y-111177180D02*
X126431833Y-111224800D01*
X126431833Y-111224800D02*
X126527071Y-111272419D01*
X126527071Y-111272419D02*
X126622309Y-111272419D01*
X126622309Y-111272419D02*
X126717547Y-111224800D01*
X126717547Y-111224800D02*
X126765166Y-111177180D01*
X126765166Y-111177180D02*
X126812785Y-111081942D01*
X126812785Y-111081942D02*
X126860404Y-110891466D01*
X126860404Y-110891466D02*
X126860404Y-110653371D01*
X126860404Y-110653371D02*
X126812785Y-110462895D01*
X126812785Y-110462895D02*
X126765166Y-110367657D01*
X126765166Y-110367657D02*
X126717547Y-110320038D01*
X126717547Y-110320038D02*
X126622309Y-110272419D01*
X125669928Y-110272419D02*
X125574690Y-110272419D01*
X125574690Y-110272419D02*
X125479452Y-110320038D01*
X125479452Y-110320038D02*
X125431833Y-110367657D01*
X125431833Y-110367657D02*
X125384214Y-110462895D01*
X125384214Y-110462895D02*
X125336595Y-110653371D01*
X125336595Y-110653371D02*
X125336595Y-110891466D01*
X125336595Y-110891466D02*
X125384214Y-111081942D01*
X125384214Y-111081942D02*
X125431833Y-111177180D01*
X125431833Y-111177180D02*
X125479452Y-111224800D01*
X125479452Y-111224800D02*
X125574690Y-111272419D01*
X125574690Y-111272419D02*
X125669928Y-111272419D01*
X125669928Y-111272419D02*
X125765166Y-111224800D01*
X125765166Y-111224800D02*
X125812785Y-111177180D01*
X125812785Y-111177180D02*
X125860404Y-111081942D01*
X125860404Y-111081942D02*
X125908023Y-110891466D01*
X125908023Y-110891466D02*
X125908023Y-110653371D01*
X125908023Y-110653371D02*
X125860404Y-110462895D01*
X125860404Y-110462895D02*
X125812785Y-110367657D01*
X125812785Y-110367657D02*
X125765166Y-110320038D01*
X125765166Y-110320038D02*
X125669928Y-110272419D01*
X124717547Y-110272419D02*
X124622309Y-110272419D01*
X124622309Y-110272419D02*
X124527071Y-110320038D01*
X124527071Y-110320038D02*
X124479452Y-110367657D01*
X124479452Y-110367657D02*
X124431833Y-110462895D01*
X124431833Y-110462895D02*
X124384214Y-110653371D01*
X124384214Y-110653371D02*
X124384214Y-110891466D01*
X124384214Y-110891466D02*
X124431833Y-111081942D01*
X124431833Y-111081942D02*
X124479452Y-111177180D01*
X124479452Y-111177180D02*
X124527071Y-111224800D01*
X124527071Y-111224800D02*
X124622309Y-111272419D01*
X124622309Y-111272419D02*
X124717547Y-111272419D01*
X124717547Y-111272419D02*
X124812785Y-111224800D01*
X124812785Y-111224800D02*
X124860404Y-111177180D01*
X124860404Y-111177180D02*
X124908023Y-111081942D01*
X124908023Y-111081942D02*
X124955642Y-110891466D01*
X124955642Y-110891466D02*
X124955642Y-110653371D01*
X124955642Y-110653371D02*
X124908023Y-110462895D01*
X124908023Y-110462895D02*
X124860404Y-110367657D01*
X124860404Y-110367657D02*
X124812785Y-110320038D01*
X124812785Y-110320038D02*
X124717547Y-110272419D01*
D10*
X75270057Y-121104761D02*
X75222438Y-121009523D01*
X75222438Y-121009523D02*
X75127200Y-120914285D01*
X75127200Y-120914285D02*
X74984342Y-120771428D01*
X74984342Y-120771428D02*
X74936723Y-120676190D01*
X74936723Y-120676190D02*
X74936723Y-120580952D01*
X75174819Y-120628571D02*
X75127200Y-120533333D01*
X75127200Y-120533333D02*
X75031961Y-120438095D01*
X75031961Y-120438095D02*
X74841485Y-120390476D01*
X74841485Y-120390476D02*
X74508152Y-120390476D01*
X74508152Y-120390476D02*
X74317676Y-120438095D01*
X74317676Y-120438095D02*
X74222438Y-120533333D01*
X74222438Y-120533333D02*
X74174819Y-120628571D01*
X74174819Y-120628571D02*
X74174819Y-120819047D01*
X74174819Y-120819047D02*
X74222438Y-120914285D01*
X74222438Y-120914285D02*
X74317676Y-121009523D01*
X74317676Y-121009523D02*
X74508152Y-121057142D01*
X74508152Y-121057142D02*
X74841485Y-121057142D01*
X74841485Y-121057142D02*
X75031961Y-121009523D01*
X75031961Y-121009523D02*
X75127200Y-120914285D01*
X75127200Y-120914285D02*
X75174819Y-120819047D01*
X75174819Y-120819047D02*
X75174819Y-120628571D01*
X74270057Y-121438095D02*
X74222438Y-121485714D01*
X74222438Y-121485714D02*
X74174819Y-121580952D01*
X74174819Y-121580952D02*
X74174819Y-121819047D01*
X74174819Y-121819047D02*
X74222438Y-121914285D01*
X74222438Y-121914285D02*
X74270057Y-121961904D01*
X74270057Y-121961904D02*
X74365295Y-122009523D01*
X74365295Y-122009523D02*
X74460533Y-122009523D01*
X74460533Y-122009523D02*
X74603390Y-121961904D01*
X74603390Y-121961904D02*
X75174819Y-121390476D01*
X75174819Y-121390476D02*
X75174819Y-122009523D01*
X96842857Y-126134819D02*
X97176190Y-125658628D01*
X97414285Y-126134819D02*
X97414285Y-125134819D01*
X97414285Y-125134819D02*
X97033333Y-125134819D01*
X97033333Y-125134819D02*
X96938095Y-125182438D01*
X96938095Y-125182438D02*
X96890476Y-125230057D01*
X96890476Y-125230057D02*
X96842857Y-125325295D01*
X96842857Y-125325295D02*
X96842857Y-125468152D01*
X96842857Y-125468152D02*
X96890476Y-125563390D01*
X96890476Y-125563390D02*
X96938095Y-125611009D01*
X96938095Y-125611009D02*
X97033333Y-125658628D01*
X97033333Y-125658628D02*
X97414285Y-125658628D01*
X95890476Y-126134819D02*
X96461904Y-126134819D01*
X96176190Y-126134819D02*
X96176190Y-125134819D01*
X96176190Y-125134819D02*
X96271428Y-125277676D01*
X96271428Y-125277676D02*
X96366666Y-125372914D01*
X96366666Y-125372914D02*
X96461904Y-125420533D01*
X95033333Y-125468152D02*
X95033333Y-126134819D01*
X95271428Y-125087200D02*
X95509523Y-125801485D01*
X95509523Y-125801485D02*
X94890476Y-125801485D01*
X67054819Y-120633333D02*
X66578628Y-120300000D01*
X67054819Y-120061905D02*
X66054819Y-120061905D01*
X66054819Y-120061905D02*
X66054819Y-120442857D01*
X66054819Y-120442857D02*
X66102438Y-120538095D01*
X66102438Y-120538095D02*
X66150057Y-120585714D01*
X66150057Y-120585714D02*
X66245295Y-120633333D01*
X66245295Y-120633333D02*
X66388152Y-120633333D01*
X66388152Y-120633333D02*
X66483390Y-120585714D01*
X66483390Y-120585714D02*
X66531009Y-120538095D01*
X66531009Y-120538095D02*
X66578628Y-120442857D01*
X66578628Y-120442857D02*
X66578628Y-120061905D01*
X66054819Y-121490476D02*
X66054819Y-121300000D01*
X66054819Y-121300000D02*
X66102438Y-121204762D01*
X66102438Y-121204762D02*
X66150057Y-121157143D01*
X66150057Y-121157143D02*
X66292914Y-121061905D01*
X66292914Y-121061905D02*
X66483390Y-121014286D01*
X66483390Y-121014286D02*
X66864342Y-121014286D01*
X66864342Y-121014286D02*
X66959580Y-121061905D01*
X66959580Y-121061905D02*
X67007200Y-121109524D01*
X67007200Y-121109524D02*
X67054819Y-121204762D01*
X67054819Y-121204762D02*
X67054819Y-121395238D01*
X67054819Y-121395238D02*
X67007200Y-121490476D01*
X67007200Y-121490476D02*
X66959580Y-121538095D01*
X66959580Y-121538095D02*
X66864342Y-121585714D01*
X66864342Y-121585714D02*
X66626247Y-121585714D01*
X66626247Y-121585714D02*
X66531009Y-121538095D01*
X66531009Y-121538095D02*
X66483390Y-121490476D01*
X66483390Y-121490476D02*
X66435771Y-121395238D01*
X66435771Y-121395238D02*
X66435771Y-121204762D01*
X66435771Y-121204762D02*
X66483390Y-121109524D01*
X66483390Y-121109524D02*
X66531009Y-121061905D01*
X66531009Y-121061905D02*
X66626247Y-121014286D01*
X62654819Y-120633333D02*
X62178628Y-120300000D01*
X62654819Y-120061905D02*
X61654819Y-120061905D01*
X61654819Y-120061905D02*
X61654819Y-120442857D01*
X61654819Y-120442857D02*
X61702438Y-120538095D01*
X61702438Y-120538095D02*
X61750057Y-120585714D01*
X61750057Y-120585714D02*
X61845295Y-120633333D01*
X61845295Y-120633333D02*
X61988152Y-120633333D01*
X61988152Y-120633333D02*
X62083390Y-120585714D01*
X62083390Y-120585714D02*
X62131009Y-120538095D01*
X62131009Y-120538095D02*
X62178628Y-120442857D01*
X62178628Y-120442857D02*
X62178628Y-120061905D01*
X61654819Y-120966667D02*
X61654819Y-121633333D01*
X61654819Y-121633333D02*
X62654819Y-121204762D01*
X136842857Y-169534819D02*
X137176190Y-169058628D01*
X137414285Y-169534819D02*
X137414285Y-168534819D01*
X137414285Y-168534819D02*
X137033333Y-168534819D01*
X137033333Y-168534819D02*
X136938095Y-168582438D01*
X136938095Y-168582438D02*
X136890476Y-168630057D01*
X136890476Y-168630057D02*
X136842857Y-168725295D01*
X136842857Y-168725295D02*
X136842857Y-168868152D01*
X136842857Y-168868152D02*
X136890476Y-168963390D01*
X136890476Y-168963390D02*
X136938095Y-169011009D01*
X136938095Y-169011009D02*
X137033333Y-169058628D01*
X137033333Y-169058628D02*
X137414285Y-169058628D01*
X135890476Y-169534819D02*
X136461904Y-169534819D01*
X136176190Y-169534819D02*
X136176190Y-168534819D01*
X136176190Y-168534819D02*
X136271428Y-168677676D01*
X136271428Y-168677676D02*
X136366666Y-168772914D01*
X136366666Y-168772914D02*
X136461904Y-168820533D01*
X135557142Y-168534819D02*
X134938095Y-168534819D01*
X134938095Y-168534819D02*
X135271428Y-168915771D01*
X135271428Y-168915771D02*
X135128571Y-168915771D01*
X135128571Y-168915771D02*
X135033333Y-168963390D01*
X135033333Y-168963390D02*
X134985714Y-169011009D01*
X134985714Y-169011009D02*
X134938095Y-169106247D01*
X134938095Y-169106247D02*
X134938095Y-169344342D01*
X134938095Y-169344342D02*
X134985714Y-169439580D01*
X134985714Y-169439580D02*
X135033333Y-169487200D01*
X135033333Y-169487200D02*
X135128571Y-169534819D01*
X135128571Y-169534819D02*
X135414285Y-169534819D01*
X135414285Y-169534819D02*
X135509523Y-169487200D01*
X135509523Y-169487200D02*
X135557142Y-169439580D01*
X81042857Y-130934819D02*
X81376190Y-130458628D01*
X81614285Y-130934819D02*
X81614285Y-129934819D01*
X81614285Y-129934819D02*
X81233333Y-129934819D01*
X81233333Y-129934819D02*
X81138095Y-129982438D01*
X81138095Y-129982438D02*
X81090476Y-130030057D01*
X81090476Y-130030057D02*
X81042857Y-130125295D01*
X81042857Y-130125295D02*
X81042857Y-130268152D01*
X81042857Y-130268152D02*
X81090476Y-130363390D01*
X81090476Y-130363390D02*
X81138095Y-130411009D01*
X81138095Y-130411009D02*
X81233333Y-130458628D01*
X81233333Y-130458628D02*
X81614285Y-130458628D01*
X80090476Y-130934819D02*
X80661904Y-130934819D01*
X80376190Y-130934819D02*
X80376190Y-129934819D01*
X80376190Y-129934819D02*
X80471428Y-130077676D01*
X80471428Y-130077676D02*
X80566666Y-130172914D01*
X80566666Y-130172914D02*
X80661904Y-130220533D01*
X79185714Y-129934819D02*
X79661904Y-129934819D01*
X79661904Y-129934819D02*
X79709523Y-130411009D01*
X79709523Y-130411009D02*
X79661904Y-130363390D01*
X79661904Y-130363390D02*
X79566666Y-130315771D01*
X79566666Y-130315771D02*
X79328571Y-130315771D01*
X79328571Y-130315771D02*
X79233333Y-130363390D01*
X79233333Y-130363390D02*
X79185714Y-130411009D01*
X79185714Y-130411009D02*
X79138095Y-130506247D01*
X79138095Y-130506247D02*
X79138095Y-130744342D01*
X79138095Y-130744342D02*
X79185714Y-130839580D01*
X79185714Y-130839580D02*
X79233333Y-130887200D01*
X79233333Y-130887200D02*
X79328571Y-130934819D01*
X79328571Y-130934819D02*
X79566666Y-130934819D01*
X79566666Y-130934819D02*
X79661904Y-130887200D01*
X79661904Y-130887200D02*
X79709523Y-130839580D01*
X60892857Y-170534819D02*
X61226190Y-170058628D01*
X61464285Y-170534819D02*
X61464285Y-169534819D01*
X61464285Y-169534819D02*
X61083333Y-169534819D01*
X61083333Y-169534819D02*
X60988095Y-169582438D01*
X60988095Y-169582438D02*
X60940476Y-169630057D01*
X60940476Y-169630057D02*
X60892857Y-169725295D01*
X60892857Y-169725295D02*
X60892857Y-169868152D01*
X60892857Y-169868152D02*
X60940476Y-169963390D01*
X60940476Y-169963390D02*
X60988095Y-170011009D01*
X60988095Y-170011009D02*
X61083333Y-170058628D01*
X61083333Y-170058628D02*
X61464285Y-170058628D01*
X59940476Y-170534819D02*
X60511904Y-170534819D01*
X60226190Y-170534819D02*
X60226190Y-169534819D01*
X60226190Y-169534819D02*
X60321428Y-169677676D01*
X60321428Y-169677676D02*
X60416666Y-169772914D01*
X60416666Y-169772914D02*
X60511904Y-169820533D01*
X59083333Y-169534819D02*
X59273809Y-169534819D01*
X59273809Y-169534819D02*
X59369047Y-169582438D01*
X59369047Y-169582438D02*
X59416666Y-169630057D01*
X59416666Y-169630057D02*
X59511904Y-169772914D01*
X59511904Y-169772914D02*
X59559523Y-169963390D01*
X59559523Y-169963390D02*
X59559523Y-170344342D01*
X59559523Y-170344342D02*
X59511904Y-170439580D01*
X59511904Y-170439580D02*
X59464285Y-170487200D01*
X59464285Y-170487200D02*
X59369047Y-170534819D01*
X59369047Y-170534819D02*
X59178571Y-170534819D01*
X59178571Y-170534819D02*
X59083333Y-170487200D01*
X59083333Y-170487200D02*
X59035714Y-170439580D01*
X59035714Y-170439580D02*
X58988095Y-170344342D01*
X58988095Y-170344342D02*
X58988095Y-170106247D01*
X58988095Y-170106247D02*
X59035714Y-170011009D01*
X59035714Y-170011009D02*
X59083333Y-169963390D01*
X59083333Y-169963390D02*
X59178571Y-169915771D01*
X59178571Y-169915771D02*
X59369047Y-169915771D01*
X59369047Y-169915771D02*
X59464285Y-169963390D01*
X59464285Y-169963390D02*
X59511904Y-170011009D01*
X59511904Y-170011009D02*
X59559523Y-170106247D01*
X119892857Y-163134819D02*
X120226190Y-162658628D01*
X120464285Y-163134819D02*
X120464285Y-162134819D01*
X120464285Y-162134819D02*
X120083333Y-162134819D01*
X120083333Y-162134819D02*
X119988095Y-162182438D01*
X119988095Y-162182438D02*
X119940476Y-162230057D01*
X119940476Y-162230057D02*
X119892857Y-162325295D01*
X119892857Y-162325295D02*
X119892857Y-162468152D01*
X119892857Y-162468152D02*
X119940476Y-162563390D01*
X119940476Y-162563390D02*
X119988095Y-162611009D01*
X119988095Y-162611009D02*
X120083333Y-162658628D01*
X120083333Y-162658628D02*
X120464285Y-162658628D01*
X119511904Y-162230057D02*
X119464285Y-162182438D01*
X119464285Y-162182438D02*
X119369047Y-162134819D01*
X119369047Y-162134819D02*
X119130952Y-162134819D01*
X119130952Y-162134819D02*
X119035714Y-162182438D01*
X119035714Y-162182438D02*
X118988095Y-162230057D01*
X118988095Y-162230057D02*
X118940476Y-162325295D01*
X118940476Y-162325295D02*
X118940476Y-162420533D01*
X118940476Y-162420533D02*
X118988095Y-162563390D01*
X118988095Y-162563390D02*
X119559523Y-163134819D01*
X119559523Y-163134819D02*
X118940476Y-163134819D01*
X118607142Y-162134819D02*
X117940476Y-162134819D01*
X117940476Y-162134819D02*
X118369047Y-163134819D01*
X57259580Y-158433333D02*
X57307200Y-158385714D01*
X57307200Y-158385714D02*
X57354819Y-158242857D01*
X57354819Y-158242857D02*
X57354819Y-158147619D01*
X57354819Y-158147619D02*
X57307200Y-158004762D01*
X57307200Y-158004762D02*
X57211961Y-157909524D01*
X57211961Y-157909524D02*
X57116723Y-157861905D01*
X57116723Y-157861905D02*
X56926247Y-157814286D01*
X56926247Y-157814286D02*
X56783390Y-157814286D01*
X56783390Y-157814286D02*
X56592914Y-157861905D01*
X56592914Y-157861905D02*
X56497676Y-157909524D01*
X56497676Y-157909524D02*
X56402438Y-158004762D01*
X56402438Y-158004762D02*
X56354819Y-158147619D01*
X56354819Y-158147619D02*
X56354819Y-158242857D01*
X56354819Y-158242857D02*
X56402438Y-158385714D01*
X56402438Y-158385714D02*
X56450057Y-158433333D01*
X56450057Y-158814286D02*
X56402438Y-158861905D01*
X56402438Y-158861905D02*
X56354819Y-158957143D01*
X56354819Y-158957143D02*
X56354819Y-159195238D01*
X56354819Y-159195238D02*
X56402438Y-159290476D01*
X56402438Y-159290476D02*
X56450057Y-159338095D01*
X56450057Y-159338095D02*
X56545295Y-159385714D01*
X56545295Y-159385714D02*
X56640533Y-159385714D01*
X56640533Y-159385714D02*
X56783390Y-159338095D01*
X56783390Y-159338095D02*
X57354819Y-158766667D01*
X57354819Y-158766667D02*
X57354819Y-159385714D01*
X57374819Y-117357142D02*
X56898628Y-117023809D01*
X57374819Y-116785714D02*
X56374819Y-116785714D01*
X56374819Y-116785714D02*
X56374819Y-117166666D01*
X56374819Y-117166666D02*
X56422438Y-117261904D01*
X56422438Y-117261904D02*
X56470057Y-117309523D01*
X56470057Y-117309523D02*
X56565295Y-117357142D01*
X56565295Y-117357142D02*
X56708152Y-117357142D01*
X56708152Y-117357142D02*
X56803390Y-117309523D01*
X56803390Y-117309523D02*
X56851009Y-117261904D01*
X56851009Y-117261904D02*
X56898628Y-117166666D01*
X56898628Y-117166666D02*
X56898628Y-116785714D01*
X57374819Y-118309523D02*
X57374819Y-117738095D01*
X57374819Y-118023809D02*
X56374819Y-118023809D01*
X56374819Y-118023809D02*
X56517676Y-117928571D01*
X56517676Y-117928571D02*
X56612914Y-117833333D01*
X56612914Y-117833333D02*
X56660533Y-117738095D01*
X56374819Y-118642857D02*
X56374819Y-119309523D01*
X56374819Y-119309523D02*
X57374819Y-118880952D01*
X58574819Y-146557142D02*
X58098628Y-146223809D01*
X58574819Y-145985714D02*
X57574819Y-145985714D01*
X57574819Y-145985714D02*
X57574819Y-146366666D01*
X57574819Y-146366666D02*
X57622438Y-146461904D01*
X57622438Y-146461904D02*
X57670057Y-146509523D01*
X57670057Y-146509523D02*
X57765295Y-146557142D01*
X57765295Y-146557142D02*
X57908152Y-146557142D01*
X57908152Y-146557142D02*
X58003390Y-146509523D01*
X58003390Y-146509523D02*
X58051009Y-146461904D01*
X58051009Y-146461904D02*
X58098628Y-146366666D01*
X58098628Y-146366666D02*
X58098628Y-145985714D01*
X57670057Y-146938095D02*
X57622438Y-146985714D01*
X57622438Y-146985714D02*
X57574819Y-147080952D01*
X57574819Y-147080952D02*
X57574819Y-147319047D01*
X57574819Y-147319047D02*
X57622438Y-147414285D01*
X57622438Y-147414285D02*
X57670057Y-147461904D01*
X57670057Y-147461904D02*
X57765295Y-147509523D01*
X57765295Y-147509523D02*
X57860533Y-147509523D01*
X57860533Y-147509523D02*
X58003390Y-147461904D01*
X58003390Y-147461904D02*
X58574819Y-146890476D01*
X58574819Y-146890476D02*
X58574819Y-147509523D01*
X57574819Y-148366666D02*
X57574819Y-148176190D01*
X57574819Y-148176190D02*
X57622438Y-148080952D01*
X57622438Y-148080952D02*
X57670057Y-148033333D01*
X57670057Y-148033333D02*
X57812914Y-147938095D01*
X57812914Y-147938095D02*
X58003390Y-147890476D01*
X58003390Y-147890476D02*
X58384342Y-147890476D01*
X58384342Y-147890476D02*
X58479580Y-147938095D01*
X58479580Y-147938095D02*
X58527200Y-147985714D01*
X58527200Y-147985714D02*
X58574819Y-148080952D01*
X58574819Y-148080952D02*
X58574819Y-148271428D01*
X58574819Y-148271428D02*
X58527200Y-148366666D01*
X58527200Y-148366666D02*
X58479580Y-148414285D01*
X58479580Y-148414285D02*
X58384342Y-148461904D01*
X58384342Y-148461904D02*
X58146247Y-148461904D01*
X58146247Y-148461904D02*
X58051009Y-148414285D01*
X58051009Y-148414285D02*
X58003390Y-148366666D01*
X58003390Y-148366666D02*
X57955771Y-148271428D01*
X57955771Y-148271428D02*
X57955771Y-148080952D01*
X57955771Y-148080952D02*
X58003390Y-147985714D01*
X58003390Y-147985714D02*
X58051009Y-147938095D01*
X58051009Y-147938095D02*
X58146247Y-147890476D01*
X143459580Y-143307142D02*
X143507200Y-143259523D01*
X143507200Y-143259523D02*
X143554819Y-143116666D01*
X143554819Y-143116666D02*
X143554819Y-143021428D01*
X143554819Y-143021428D02*
X143507200Y-142878571D01*
X143507200Y-142878571D02*
X143411961Y-142783333D01*
X143411961Y-142783333D02*
X143316723Y-142735714D01*
X143316723Y-142735714D02*
X143126247Y-142688095D01*
X143126247Y-142688095D02*
X142983390Y-142688095D01*
X142983390Y-142688095D02*
X142792914Y-142735714D01*
X142792914Y-142735714D02*
X142697676Y-142783333D01*
X142697676Y-142783333D02*
X142602438Y-142878571D01*
X142602438Y-142878571D02*
X142554819Y-143021428D01*
X142554819Y-143021428D02*
X142554819Y-143116666D01*
X142554819Y-143116666D02*
X142602438Y-143259523D01*
X142602438Y-143259523D02*
X142650057Y-143307142D01*
X143554819Y-144259523D02*
X143554819Y-143688095D01*
X143554819Y-143973809D02*
X142554819Y-143973809D01*
X142554819Y-143973809D02*
X142697676Y-143878571D01*
X142697676Y-143878571D02*
X142792914Y-143783333D01*
X142792914Y-143783333D02*
X142840533Y-143688095D01*
X142650057Y-144640476D02*
X142602438Y-144688095D01*
X142602438Y-144688095D02*
X142554819Y-144783333D01*
X142554819Y-144783333D02*
X142554819Y-145021428D01*
X142554819Y-145021428D02*
X142602438Y-145116666D01*
X142602438Y-145116666D02*
X142650057Y-145164285D01*
X142650057Y-145164285D02*
X142745295Y-145211904D01*
X142745295Y-145211904D02*
X142840533Y-145211904D01*
X142840533Y-145211904D02*
X142983390Y-145164285D01*
X142983390Y-145164285D02*
X143554819Y-144592857D01*
X143554819Y-144592857D02*
X143554819Y-145211904D01*
X50859580Y-177983333D02*
X50907200Y-177935714D01*
X50907200Y-177935714D02*
X50954819Y-177792857D01*
X50954819Y-177792857D02*
X50954819Y-177697619D01*
X50954819Y-177697619D02*
X50907200Y-177554762D01*
X50907200Y-177554762D02*
X50811961Y-177459524D01*
X50811961Y-177459524D02*
X50716723Y-177411905D01*
X50716723Y-177411905D02*
X50526247Y-177364286D01*
X50526247Y-177364286D02*
X50383390Y-177364286D01*
X50383390Y-177364286D02*
X50192914Y-177411905D01*
X50192914Y-177411905D02*
X50097676Y-177459524D01*
X50097676Y-177459524D02*
X50002438Y-177554762D01*
X50002438Y-177554762D02*
X49954819Y-177697619D01*
X49954819Y-177697619D02*
X49954819Y-177792857D01*
X49954819Y-177792857D02*
X50002438Y-177935714D01*
X50002438Y-177935714D02*
X50050057Y-177983333D01*
X49954819Y-178840476D02*
X49954819Y-178650000D01*
X49954819Y-178650000D02*
X50002438Y-178554762D01*
X50002438Y-178554762D02*
X50050057Y-178507143D01*
X50050057Y-178507143D02*
X50192914Y-178411905D01*
X50192914Y-178411905D02*
X50383390Y-178364286D01*
X50383390Y-178364286D02*
X50764342Y-178364286D01*
X50764342Y-178364286D02*
X50859580Y-178411905D01*
X50859580Y-178411905D02*
X50907200Y-178459524D01*
X50907200Y-178459524D02*
X50954819Y-178554762D01*
X50954819Y-178554762D02*
X50954819Y-178745238D01*
X50954819Y-178745238D02*
X50907200Y-178840476D01*
X50907200Y-178840476D02*
X50859580Y-178888095D01*
X50859580Y-178888095D02*
X50764342Y-178935714D01*
X50764342Y-178935714D02*
X50526247Y-178935714D01*
X50526247Y-178935714D02*
X50431009Y-178888095D01*
X50431009Y-178888095D02*
X50383390Y-178840476D01*
X50383390Y-178840476D02*
X50335771Y-178745238D01*
X50335771Y-178745238D02*
X50335771Y-178554762D01*
X50335771Y-178554762D02*
X50383390Y-178459524D01*
X50383390Y-178459524D02*
X50431009Y-178411905D01*
X50431009Y-178411905D02*
X50526247Y-178364286D01*
X71454819Y-120433333D02*
X70978628Y-120100000D01*
X71454819Y-119861905D02*
X70454819Y-119861905D01*
X70454819Y-119861905D02*
X70454819Y-120242857D01*
X70454819Y-120242857D02*
X70502438Y-120338095D01*
X70502438Y-120338095D02*
X70550057Y-120385714D01*
X70550057Y-120385714D02*
X70645295Y-120433333D01*
X70645295Y-120433333D02*
X70788152Y-120433333D01*
X70788152Y-120433333D02*
X70883390Y-120385714D01*
X70883390Y-120385714D02*
X70931009Y-120338095D01*
X70931009Y-120338095D02*
X70978628Y-120242857D01*
X70978628Y-120242857D02*
X70978628Y-119861905D01*
X71454819Y-120909524D02*
X71454819Y-121100000D01*
X71454819Y-121100000D02*
X71407200Y-121195238D01*
X71407200Y-121195238D02*
X71359580Y-121242857D01*
X71359580Y-121242857D02*
X71216723Y-121338095D01*
X71216723Y-121338095D02*
X71026247Y-121385714D01*
X71026247Y-121385714D02*
X70645295Y-121385714D01*
X70645295Y-121385714D02*
X70550057Y-121338095D01*
X70550057Y-121338095D02*
X70502438Y-121290476D01*
X70502438Y-121290476D02*
X70454819Y-121195238D01*
X70454819Y-121195238D02*
X70454819Y-121004762D01*
X70454819Y-121004762D02*
X70502438Y-120909524D01*
X70502438Y-120909524D02*
X70550057Y-120861905D01*
X70550057Y-120861905D02*
X70645295Y-120814286D01*
X70645295Y-120814286D02*
X70883390Y-120814286D01*
X70883390Y-120814286D02*
X70978628Y-120861905D01*
X70978628Y-120861905D02*
X71026247Y-120909524D01*
X71026247Y-120909524D02*
X71073866Y-121004762D01*
X71073866Y-121004762D02*
X71073866Y-121195238D01*
X71073866Y-121195238D02*
X71026247Y-121290476D01*
X71026247Y-121290476D02*
X70978628Y-121338095D01*
X70978628Y-121338095D02*
X70883390Y-121385714D01*
X91559580Y-141033333D02*
X91607200Y-140985714D01*
X91607200Y-140985714D02*
X91654819Y-140842857D01*
X91654819Y-140842857D02*
X91654819Y-140747619D01*
X91654819Y-140747619D02*
X91607200Y-140604762D01*
X91607200Y-140604762D02*
X91511961Y-140509524D01*
X91511961Y-140509524D02*
X91416723Y-140461905D01*
X91416723Y-140461905D02*
X91226247Y-140414286D01*
X91226247Y-140414286D02*
X91083390Y-140414286D01*
X91083390Y-140414286D02*
X90892914Y-140461905D01*
X90892914Y-140461905D02*
X90797676Y-140509524D01*
X90797676Y-140509524D02*
X90702438Y-140604762D01*
X90702438Y-140604762D02*
X90654819Y-140747619D01*
X90654819Y-140747619D02*
X90654819Y-140842857D01*
X90654819Y-140842857D02*
X90702438Y-140985714D01*
X90702438Y-140985714D02*
X90750057Y-141033333D01*
X91654819Y-141985714D02*
X91654819Y-141414286D01*
X91654819Y-141700000D02*
X90654819Y-141700000D01*
X90654819Y-141700000D02*
X90797676Y-141604762D01*
X90797676Y-141604762D02*
X90892914Y-141509524D01*
X90892914Y-141509524D02*
X90940533Y-141414286D01*
X130492857Y-134934819D02*
X130826190Y-134458628D01*
X131064285Y-134934819D02*
X131064285Y-133934819D01*
X131064285Y-133934819D02*
X130683333Y-133934819D01*
X130683333Y-133934819D02*
X130588095Y-133982438D01*
X130588095Y-133982438D02*
X130540476Y-134030057D01*
X130540476Y-134030057D02*
X130492857Y-134125295D01*
X130492857Y-134125295D02*
X130492857Y-134268152D01*
X130492857Y-134268152D02*
X130540476Y-134363390D01*
X130540476Y-134363390D02*
X130588095Y-134411009D01*
X130588095Y-134411009D02*
X130683333Y-134458628D01*
X130683333Y-134458628D02*
X131064285Y-134458628D01*
X130111904Y-134030057D02*
X130064285Y-133982438D01*
X130064285Y-133982438D02*
X129969047Y-133934819D01*
X129969047Y-133934819D02*
X129730952Y-133934819D01*
X129730952Y-133934819D02*
X129635714Y-133982438D01*
X129635714Y-133982438D02*
X129588095Y-134030057D01*
X129588095Y-134030057D02*
X129540476Y-134125295D01*
X129540476Y-134125295D02*
X129540476Y-134220533D01*
X129540476Y-134220533D02*
X129588095Y-134363390D01*
X129588095Y-134363390D02*
X130159523Y-134934819D01*
X130159523Y-134934819D02*
X129540476Y-134934819D01*
X128635714Y-133934819D02*
X129111904Y-133934819D01*
X129111904Y-133934819D02*
X129159523Y-134411009D01*
X129159523Y-134411009D02*
X129111904Y-134363390D01*
X129111904Y-134363390D02*
X129016666Y-134315771D01*
X129016666Y-134315771D02*
X128778571Y-134315771D01*
X128778571Y-134315771D02*
X128683333Y-134363390D01*
X128683333Y-134363390D02*
X128635714Y-134411009D01*
X128635714Y-134411009D02*
X128588095Y-134506247D01*
X128588095Y-134506247D02*
X128588095Y-134744342D01*
X128588095Y-134744342D02*
X128635714Y-134839580D01*
X128635714Y-134839580D02*
X128683333Y-134887200D01*
X128683333Y-134887200D02*
X128778571Y-134934819D01*
X128778571Y-134934819D02*
X129016666Y-134934819D01*
X129016666Y-134934819D02*
X129111904Y-134887200D01*
X129111904Y-134887200D02*
X129159523Y-134839580D01*
X83738094Y-125754819D02*
X83738094Y-124754819D01*
X83738094Y-124754819D02*
X83499999Y-124754819D01*
X83499999Y-124754819D02*
X83357142Y-124802438D01*
X83357142Y-124802438D02*
X83261904Y-124897676D01*
X83261904Y-124897676D02*
X83214285Y-124992914D01*
X83214285Y-124992914D02*
X83166666Y-125183390D01*
X83166666Y-125183390D02*
X83166666Y-125326247D01*
X83166666Y-125326247D02*
X83214285Y-125516723D01*
X83214285Y-125516723D02*
X83261904Y-125611961D01*
X83261904Y-125611961D02*
X83357142Y-125707200D01*
X83357142Y-125707200D02*
X83499999Y-125754819D01*
X83499999Y-125754819D02*
X83738094Y-125754819D01*
X82214285Y-125754819D02*
X82785713Y-125754819D01*
X82499999Y-125754819D02*
X82499999Y-124754819D01*
X82499999Y-124754819D02*
X82595237Y-124897676D01*
X82595237Y-124897676D02*
X82690475Y-124992914D01*
X82690475Y-124992914D02*
X82785713Y-125040533D01*
X142392857Y-135259580D02*
X142440476Y-135307200D01*
X142440476Y-135307200D02*
X142583333Y-135354819D01*
X142583333Y-135354819D02*
X142678571Y-135354819D01*
X142678571Y-135354819D02*
X142821428Y-135307200D01*
X142821428Y-135307200D02*
X142916666Y-135211961D01*
X142916666Y-135211961D02*
X142964285Y-135116723D01*
X142964285Y-135116723D02*
X143011904Y-134926247D01*
X143011904Y-134926247D02*
X143011904Y-134783390D01*
X143011904Y-134783390D02*
X142964285Y-134592914D01*
X142964285Y-134592914D02*
X142916666Y-134497676D01*
X142916666Y-134497676D02*
X142821428Y-134402438D01*
X142821428Y-134402438D02*
X142678571Y-134354819D01*
X142678571Y-134354819D02*
X142583333Y-134354819D01*
X142583333Y-134354819D02*
X142440476Y-134402438D01*
X142440476Y-134402438D02*
X142392857Y-134450057D01*
X141440476Y-135354819D02*
X142011904Y-135354819D01*
X141726190Y-135354819D02*
X141726190Y-134354819D01*
X141726190Y-134354819D02*
X141821428Y-134497676D01*
X141821428Y-134497676D02*
X141916666Y-134592914D01*
X141916666Y-134592914D02*
X142011904Y-134640533D01*
X140488095Y-135354819D02*
X141059523Y-135354819D01*
X140773809Y-135354819D02*
X140773809Y-134354819D01*
X140773809Y-134354819D02*
X140869047Y-134497676D01*
X140869047Y-134497676D02*
X140964285Y-134592914D01*
X140964285Y-134592914D02*
X141059523Y-134640533D01*
X53916666Y-127459580D02*
X53964285Y-127507200D01*
X53964285Y-127507200D02*
X54107142Y-127554819D01*
X54107142Y-127554819D02*
X54202380Y-127554819D01*
X54202380Y-127554819D02*
X54345237Y-127507200D01*
X54345237Y-127507200D02*
X54440475Y-127411961D01*
X54440475Y-127411961D02*
X54488094Y-127316723D01*
X54488094Y-127316723D02*
X54535713Y-127126247D01*
X54535713Y-127126247D02*
X54535713Y-126983390D01*
X54535713Y-126983390D02*
X54488094Y-126792914D01*
X54488094Y-126792914D02*
X54440475Y-126697676D01*
X54440475Y-126697676D02*
X54345237Y-126602438D01*
X54345237Y-126602438D02*
X54202380Y-126554819D01*
X54202380Y-126554819D02*
X54107142Y-126554819D01*
X54107142Y-126554819D02*
X53964285Y-126602438D01*
X53964285Y-126602438D02*
X53916666Y-126650057D01*
X53440475Y-127554819D02*
X53249999Y-127554819D01*
X53249999Y-127554819D02*
X53154761Y-127507200D01*
X53154761Y-127507200D02*
X53107142Y-127459580D01*
X53107142Y-127459580D02*
X53011904Y-127316723D01*
X53011904Y-127316723D02*
X52964285Y-127126247D01*
X52964285Y-127126247D02*
X52964285Y-126745295D01*
X52964285Y-126745295D02*
X53011904Y-126650057D01*
X53011904Y-126650057D02*
X53059523Y-126602438D01*
X53059523Y-126602438D02*
X53154761Y-126554819D01*
X53154761Y-126554819D02*
X53345237Y-126554819D01*
X53345237Y-126554819D02*
X53440475Y-126602438D01*
X53440475Y-126602438D02*
X53488094Y-126650057D01*
X53488094Y-126650057D02*
X53535713Y-126745295D01*
X53535713Y-126745295D02*
X53535713Y-126983390D01*
X53535713Y-126983390D02*
X53488094Y-127078628D01*
X53488094Y-127078628D02*
X53440475Y-127126247D01*
X53440475Y-127126247D02*
X53345237Y-127173866D01*
X53345237Y-127173866D02*
X53154761Y-127173866D01*
X53154761Y-127173866D02*
X53059523Y-127126247D01*
X53059523Y-127126247D02*
X53011904Y-127078628D01*
X53011904Y-127078628D02*
X52964285Y-126983390D01*
X118016666Y-127709580D02*
X118064285Y-127757200D01*
X118064285Y-127757200D02*
X118207142Y-127804819D01*
X118207142Y-127804819D02*
X118302380Y-127804819D01*
X118302380Y-127804819D02*
X118445237Y-127757200D01*
X118445237Y-127757200D02*
X118540475Y-127661961D01*
X118540475Y-127661961D02*
X118588094Y-127566723D01*
X118588094Y-127566723D02*
X118635713Y-127376247D01*
X118635713Y-127376247D02*
X118635713Y-127233390D01*
X118635713Y-127233390D02*
X118588094Y-127042914D01*
X118588094Y-127042914D02*
X118540475Y-126947676D01*
X118540475Y-126947676D02*
X118445237Y-126852438D01*
X118445237Y-126852438D02*
X118302380Y-126804819D01*
X118302380Y-126804819D02*
X118207142Y-126804819D01*
X118207142Y-126804819D02*
X118064285Y-126852438D01*
X118064285Y-126852438D02*
X118016666Y-126900057D01*
X117445237Y-127233390D02*
X117540475Y-127185771D01*
X117540475Y-127185771D02*
X117588094Y-127138152D01*
X117588094Y-127138152D02*
X117635713Y-127042914D01*
X117635713Y-127042914D02*
X117635713Y-126995295D01*
X117635713Y-126995295D02*
X117588094Y-126900057D01*
X117588094Y-126900057D02*
X117540475Y-126852438D01*
X117540475Y-126852438D02*
X117445237Y-126804819D01*
X117445237Y-126804819D02*
X117254761Y-126804819D01*
X117254761Y-126804819D02*
X117159523Y-126852438D01*
X117159523Y-126852438D02*
X117111904Y-126900057D01*
X117111904Y-126900057D02*
X117064285Y-126995295D01*
X117064285Y-126995295D02*
X117064285Y-127042914D01*
X117064285Y-127042914D02*
X117111904Y-127138152D01*
X117111904Y-127138152D02*
X117159523Y-127185771D01*
X117159523Y-127185771D02*
X117254761Y-127233390D01*
X117254761Y-127233390D02*
X117445237Y-127233390D01*
X117445237Y-127233390D02*
X117540475Y-127281009D01*
X117540475Y-127281009D02*
X117588094Y-127328628D01*
X117588094Y-127328628D02*
X117635713Y-127423866D01*
X117635713Y-127423866D02*
X117635713Y-127614342D01*
X117635713Y-127614342D02*
X117588094Y-127709580D01*
X117588094Y-127709580D02*
X117540475Y-127757200D01*
X117540475Y-127757200D02*
X117445237Y-127804819D01*
X117445237Y-127804819D02*
X117254761Y-127804819D01*
X117254761Y-127804819D02*
X117159523Y-127757200D01*
X117159523Y-127757200D02*
X117111904Y-127709580D01*
X117111904Y-127709580D02*
X117064285Y-127614342D01*
X117064285Y-127614342D02*
X117064285Y-127423866D01*
X117064285Y-127423866D02*
X117111904Y-127328628D01*
X117111904Y-127328628D02*
X117159523Y-127281009D01*
X117159523Y-127281009D02*
X117254761Y-127233390D01*
X90642857Y-124374819D02*
X90976190Y-123898628D01*
X91214285Y-124374819D02*
X91214285Y-123374819D01*
X91214285Y-123374819D02*
X90833333Y-123374819D01*
X90833333Y-123374819D02*
X90738095Y-123422438D01*
X90738095Y-123422438D02*
X90690476Y-123470057D01*
X90690476Y-123470057D02*
X90642857Y-123565295D01*
X90642857Y-123565295D02*
X90642857Y-123708152D01*
X90642857Y-123708152D02*
X90690476Y-123803390D01*
X90690476Y-123803390D02*
X90738095Y-123851009D01*
X90738095Y-123851009D02*
X90833333Y-123898628D01*
X90833333Y-123898628D02*
X91214285Y-123898628D01*
X89690476Y-124374819D02*
X90261904Y-124374819D01*
X89976190Y-124374819D02*
X89976190Y-123374819D01*
X89976190Y-123374819D02*
X90071428Y-123517676D01*
X90071428Y-123517676D02*
X90166666Y-123612914D01*
X90166666Y-123612914D02*
X90261904Y-123660533D01*
X89119047Y-123803390D02*
X89214285Y-123755771D01*
X89214285Y-123755771D02*
X89261904Y-123708152D01*
X89261904Y-123708152D02*
X89309523Y-123612914D01*
X89309523Y-123612914D02*
X89309523Y-123565295D01*
X89309523Y-123565295D02*
X89261904Y-123470057D01*
X89261904Y-123470057D02*
X89214285Y-123422438D01*
X89214285Y-123422438D02*
X89119047Y-123374819D01*
X89119047Y-123374819D02*
X88928571Y-123374819D01*
X88928571Y-123374819D02*
X88833333Y-123422438D01*
X88833333Y-123422438D02*
X88785714Y-123470057D01*
X88785714Y-123470057D02*
X88738095Y-123565295D01*
X88738095Y-123565295D02*
X88738095Y-123612914D01*
X88738095Y-123612914D02*
X88785714Y-123708152D01*
X88785714Y-123708152D02*
X88833333Y-123755771D01*
X88833333Y-123755771D02*
X88928571Y-123803390D01*
X88928571Y-123803390D02*
X89119047Y-123803390D01*
X89119047Y-123803390D02*
X89214285Y-123851009D01*
X89214285Y-123851009D02*
X89261904Y-123898628D01*
X89261904Y-123898628D02*
X89309523Y-123993866D01*
X89309523Y-123993866D02*
X89309523Y-124184342D01*
X89309523Y-124184342D02*
X89261904Y-124279580D01*
X89261904Y-124279580D02*
X89214285Y-124327200D01*
X89214285Y-124327200D02*
X89119047Y-124374819D01*
X89119047Y-124374819D02*
X88928571Y-124374819D01*
X88928571Y-124374819D02*
X88833333Y-124327200D01*
X88833333Y-124327200D02*
X88785714Y-124279580D01*
X88785714Y-124279580D02*
X88738095Y-124184342D01*
X88738095Y-124184342D02*
X88738095Y-123993866D01*
X88738095Y-123993866D02*
X88785714Y-123898628D01*
X88785714Y-123898628D02*
X88833333Y-123851009D01*
X88833333Y-123851009D02*
X88928571Y-123803390D01*
X86784819Y-174433333D02*
X86308628Y-174100000D01*
X86784819Y-173861905D02*
X85784819Y-173861905D01*
X85784819Y-173861905D02*
X85784819Y-174242857D01*
X85784819Y-174242857D02*
X85832438Y-174338095D01*
X85832438Y-174338095D02*
X85880057Y-174385714D01*
X85880057Y-174385714D02*
X85975295Y-174433333D01*
X85975295Y-174433333D02*
X86118152Y-174433333D01*
X86118152Y-174433333D02*
X86213390Y-174385714D01*
X86213390Y-174385714D02*
X86261009Y-174338095D01*
X86261009Y-174338095D02*
X86308628Y-174242857D01*
X86308628Y-174242857D02*
X86308628Y-173861905D01*
X86213390Y-175004762D02*
X86165771Y-174909524D01*
X86165771Y-174909524D02*
X86118152Y-174861905D01*
X86118152Y-174861905D02*
X86022914Y-174814286D01*
X86022914Y-174814286D02*
X85975295Y-174814286D01*
X85975295Y-174814286D02*
X85880057Y-174861905D01*
X85880057Y-174861905D02*
X85832438Y-174909524D01*
X85832438Y-174909524D02*
X85784819Y-175004762D01*
X85784819Y-175004762D02*
X85784819Y-175195238D01*
X85784819Y-175195238D02*
X85832438Y-175290476D01*
X85832438Y-175290476D02*
X85880057Y-175338095D01*
X85880057Y-175338095D02*
X85975295Y-175385714D01*
X85975295Y-175385714D02*
X86022914Y-175385714D01*
X86022914Y-175385714D02*
X86118152Y-175338095D01*
X86118152Y-175338095D02*
X86165771Y-175290476D01*
X86165771Y-175290476D02*
X86213390Y-175195238D01*
X86213390Y-175195238D02*
X86213390Y-175004762D01*
X86213390Y-175004762D02*
X86261009Y-174909524D01*
X86261009Y-174909524D02*
X86308628Y-174861905D01*
X86308628Y-174861905D02*
X86403866Y-174814286D01*
X86403866Y-174814286D02*
X86594342Y-174814286D01*
X86594342Y-174814286D02*
X86689580Y-174861905D01*
X86689580Y-174861905D02*
X86737200Y-174909524D01*
X86737200Y-174909524D02*
X86784819Y-175004762D01*
X86784819Y-175004762D02*
X86784819Y-175195238D01*
X86784819Y-175195238D02*
X86737200Y-175290476D01*
X86737200Y-175290476D02*
X86689580Y-175338095D01*
X86689580Y-175338095D02*
X86594342Y-175385714D01*
X86594342Y-175385714D02*
X86403866Y-175385714D01*
X86403866Y-175385714D02*
X86308628Y-175338095D01*
X86308628Y-175338095D02*
X86261009Y-175290476D01*
X86261009Y-175290476D02*
X86213390Y-175195238D01*
X78416666Y-156909580D02*
X78464285Y-156957200D01*
X78464285Y-156957200D02*
X78607142Y-157004819D01*
X78607142Y-157004819D02*
X78702380Y-157004819D01*
X78702380Y-157004819D02*
X78845237Y-156957200D01*
X78845237Y-156957200D02*
X78940475Y-156861961D01*
X78940475Y-156861961D02*
X78988094Y-156766723D01*
X78988094Y-156766723D02*
X79035713Y-156576247D01*
X79035713Y-156576247D02*
X79035713Y-156433390D01*
X79035713Y-156433390D02*
X78988094Y-156242914D01*
X78988094Y-156242914D02*
X78940475Y-156147676D01*
X78940475Y-156147676D02*
X78845237Y-156052438D01*
X78845237Y-156052438D02*
X78702380Y-156004819D01*
X78702380Y-156004819D02*
X78607142Y-156004819D01*
X78607142Y-156004819D02*
X78464285Y-156052438D01*
X78464285Y-156052438D02*
X78416666Y-156100057D01*
X77511904Y-156004819D02*
X77988094Y-156004819D01*
X77988094Y-156004819D02*
X78035713Y-156481009D01*
X78035713Y-156481009D02*
X77988094Y-156433390D01*
X77988094Y-156433390D02*
X77892856Y-156385771D01*
X77892856Y-156385771D02*
X77654761Y-156385771D01*
X77654761Y-156385771D02*
X77559523Y-156433390D01*
X77559523Y-156433390D02*
X77511904Y-156481009D01*
X77511904Y-156481009D02*
X77464285Y-156576247D01*
X77464285Y-156576247D02*
X77464285Y-156814342D01*
X77464285Y-156814342D02*
X77511904Y-156909580D01*
X77511904Y-156909580D02*
X77559523Y-156957200D01*
X77559523Y-156957200D02*
X77654761Y-157004819D01*
X77654761Y-157004819D02*
X77892856Y-157004819D01*
X77892856Y-157004819D02*
X77988094Y-156957200D01*
X77988094Y-156957200D02*
X78035713Y-156909580D01*
X121042857Y-142359580D02*
X121090476Y-142407200D01*
X121090476Y-142407200D02*
X121233333Y-142454819D01*
X121233333Y-142454819D02*
X121328571Y-142454819D01*
X121328571Y-142454819D02*
X121471428Y-142407200D01*
X121471428Y-142407200D02*
X121566666Y-142311961D01*
X121566666Y-142311961D02*
X121614285Y-142216723D01*
X121614285Y-142216723D02*
X121661904Y-142026247D01*
X121661904Y-142026247D02*
X121661904Y-141883390D01*
X121661904Y-141883390D02*
X121614285Y-141692914D01*
X121614285Y-141692914D02*
X121566666Y-141597676D01*
X121566666Y-141597676D02*
X121471428Y-141502438D01*
X121471428Y-141502438D02*
X121328571Y-141454819D01*
X121328571Y-141454819D02*
X121233333Y-141454819D01*
X121233333Y-141454819D02*
X121090476Y-141502438D01*
X121090476Y-141502438D02*
X121042857Y-141550057D01*
X120090476Y-142454819D02*
X120661904Y-142454819D01*
X120376190Y-142454819D02*
X120376190Y-141454819D01*
X120376190Y-141454819D02*
X120471428Y-141597676D01*
X120471428Y-141597676D02*
X120566666Y-141692914D01*
X120566666Y-141692914D02*
X120661904Y-141740533D01*
X119471428Y-141454819D02*
X119376190Y-141454819D01*
X119376190Y-141454819D02*
X119280952Y-141502438D01*
X119280952Y-141502438D02*
X119233333Y-141550057D01*
X119233333Y-141550057D02*
X119185714Y-141645295D01*
X119185714Y-141645295D02*
X119138095Y-141835771D01*
X119138095Y-141835771D02*
X119138095Y-142073866D01*
X119138095Y-142073866D02*
X119185714Y-142264342D01*
X119185714Y-142264342D02*
X119233333Y-142359580D01*
X119233333Y-142359580D02*
X119280952Y-142407200D01*
X119280952Y-142407200D02*
X119376190Y-142454819D01*
X119376190Y-142454819D02*
X119471428Y-142454819D01*
X119471428Y-142454819D02*
X119566666Y-142407200D01*
X119566666Y-142407200D02*
X119614285Y-142359580D01*
X119614285Y-142359580D02*
X119661904Y-142264342D01*
X119661904Y-142264342D02*
X119709523Y-142073866D01*
X119709523Y-142073866D02*
X119709523Y-141835771D01*
X119709523Y-141835771D02*
X119661904Y-141645295D01*
X119661904Y-141645295D02*
X119614285Y-141550057D01*
X119614285Y-141550057D02*
X119566666Y-141502438D01*
X119566666Y-141502438D02*
X119471428Y-141454819D01*
X76966666Y-179334819D02*
X77299999Y-178858628D01*
X77538094Y-179334819D02*
X77538094Y-178334819D01*
X77538094Y-178334819D02*
X77157142Y-178334819D01*
X77157142Y-178334819D02*
X77061904Y-178382438D01*
X77061904Y-178382438D02*
X77014285Y-178430057D01*
X77014285Y-178430057D02*
X76966666Y-178525295D01*
X76966666Y-178525295D02*
X76966666Y-178668152D01*
X76966666Y-178668152D02*
X77014285Y-178763390D01*
X77014285Y-178763390D02*
X77061904Y-178811009D01*
X77061904Y-178811009D02*
X77157142Y-178858628D01*
X77157142Y-178858628D02*
X77538094Y-178858628D01*
X76061904Y-178334819D02*
X76538094Y-178334819D01*
X76538094Y-178334819D02*
X76585713Y-178811009D01*
X76585713Y-178811009D02*
X76538094Y-178763390D01*
X76538094Y-178763390D02*
X76442856Y-178715771D01*
X76442856Y-178715771D02*
X76204761Y-178715771D01*
X76204761Y-178715771D02*
X76109523Y-178763390D01*
X76109523Y-178763390D02*
X76061904Y-178811009D01*
X76061904Y-178811009D02*
X76014285Y-178906247D01*
X76014285Y-178906247D02*
X76014285Y-179144342D01*
X76014285Y-179144342D02*
X76061904Y-179239580D01*
X76061904Y-179239580D02*
X76109523Y-179287200D01*
X76109523Y-179287200D02*
X76204761Y-179334819D01*
X76204761Y-179334819D02*
X76442856Y-179334819D01*
X76442856Y-179334819D02*
X76538094Y-179287200D01*
X76538094Y-179287200D02*
X76585713Y-179239580D01*
X57059580Y-135833333D02*
X57107200Y-135785714D01*
X57107200Y-135785714D02*
X57154819Y-135642857D01*
X57154819Y-135642857D02*
X57154819Y-135547619D01*
X57154819Y-135547619D02*
X57107200Y-135404762D01*
X57107200Y-135404762D02*
X57011961Y-135309524D01*
X57011961Y-135309524D02*
X56916723Y-135261905D01*
X56916723Y-135261905D02*
X56726247Y-135214286D01*
X56726247Y-135214286D02*
X56583390Y-135214286D01*
X56583390Y-135214286D02*
X56392914Y-135261905D01*
X56392914Y-135261905D02*
X56297676Y-135309524D01*
X56297676Y-135309524D02*
X56202438Y-135404762D01*
X56202438Y-135404762D02*
X56154819Y-135547619D01*
X56154819Y-135547619D02*
X56154819Y-135642857D01*
X56154819Y-135642857D02*
X56202438Y-135785714D01*
X56202438Y-135785714D02*
X56250057Y-135833333D01*
X56154819Y-136166667D02*
X56154819Y-136833333D01*
X56154819Y-136833333D02*
X57154819Y-136404762D01*
X104292857Y-167334819D02*
X104626190Y-166858628D01*
X104864285Y-167334819D02*
X104864285Y-166334819D01*
X104864285Y-166334819D02*
X104483333Y-166334819D01*
X104483333Y-166334819D02*
X104388095Y-166382438D01*
X104388095Y-166382438D02*
X104340476Y-166430057D01*
X104340476Y-166430057D02*
X104292857Y-166525295D01*
X104292857Y-166525295D02*
X104292857Y-166668152D01*
X104292857Y-166668152D02*
X104340476Y-166763390D01*
X104340476Y-166763390D02*
X104388095Y-166811009D01*
X104388095Y-166811009D02*
X104483333Y-166858628D01*
X104483333Y-166858628D02*
X104864285Y-166858628D01*
X103340476Y-167334819D02*
X103911904Y-167334819D01*
X103626190Y-167334819D02*
X103626190Y-166334819D01*
X103626190Y-166334819D02*
X103721428Y-166477676D01*
X103721428Y-166477676D02*
X103816666Y-166572914D01*
X103816666Y-166572914D02*
X103911904Y-166620533D01*
X102388095Y-167334819D02*
X102959523Y-167334819D01*
X102673809Y-167334819D02*
X102673809Y-166334819D01*
X102673809Y-166334819D02*
X102769047Y-166477676D01*
X102769047Y-166477676D02*
X102864285Y-166572914D01*
X102864285Y-166572914D02*
X102959523Y-166620533D01*
X112292857Y-157534819D02*
X112626190Y-157058628D01*
X112864285Y-157534819D02*
X112864285Y-156534819D01*
X112864285Y-156534819D02*
X112483333Y-156534819D01*
X112483333Y-156534819D02*
X112388095Y-156582438D01*
X112388095Y-156582438D02*
X112340476Y-156630057D01*
X112340476Y-156630057D02*
X112292857Y-156725295D01*
X112292857Y-156725295D02*
X112292857Y-156868152D01*
X112292857Y-156868152D02*
X112340476Y-156963390D01*
X112340476Y-156963390D02*
X112388095Y-157011009D01*
X112388095Y-157011009D02*
X112483333Y-157058628D01*
X112483333Y-157058628D02*
X112864285Y-157058628D01*
X111340476Y-157534819D02*
X111911904Y-157534819D01*
X111626190Y-157534819D02*
X111626190Y-156534819D01*
X111626190Y-156534819D02*
X111721428Y-156677676D01*
X111721428Y-156677676D02*
X111816666Y-156772914D01*
X111816666Y-156772914D02*
X111911904Y-156820533D01*
X110721428Y-156534819D02*
X110626190Y-156534819D01*
X110626190Y-156534819D02*
X110530952Y-156582438D01*
X110530952Y-156582438D02*
X110483333Y-156630057D01*
X110483333Y-156630057D02*
X110435714Y-156725295D01*
X110435714Y-156725295D02*
X110388095Y-156915771D01*
X110388095Y-156915771D02*
X110388095Y-157153866D01*
X110388095Y-157153866D02*
X110435714Y-157344342D01*
X110435714Y-157344342D02*
X110483333Y-157439580D01*
X110483333Y-157439580D02*
X110530952Y-157487200D01*
X110530952Y-157487200D02*
X110626190Y-157534819D01*
X110626190Y-157534819D02*
X110721428Y-157534819D01*
X110721428Y-157534819D02*
X110816666Y-157487200D01*
X110816666Y-157487200D02*
X110864285Y-157439580D01*
X110864285Y-157439580D02*
X110911904Y-157344342D01*
X110911904Y-157344342D02*
X110959523Y-157153866D01*
X110959523Y-157153866D02*
X110959523Y-156915771D01*
X110959523Y-156915771D02*
X110911904Y-156725295D01*
X110911904Y-156725295D02*
X110864285Y-156630057D01*
X110864285Y-156630057D02*
X110816666Y-156582438D01*
X110816666Y-156582438D02*
X110721428Y-156534819D01*
X59892857Y-182934819D02*
X60226190Y-182458628D01*
X60464285Y-182934819D02*
X60464285Y-181934819D01*
X60464285Y-181934819D02*
X60083333Y-181934819D01*
X60083333Y-181934819D02*
X59988095Y-181982438D01*
X59988095Y-181982438D02*
X59940476Y-182030057D01*
X59940476Y-182030057D02*
X59892857Y-182125295D01*
X59892857Y-182125295D02*
X59892857Y-182268152D01*
X59892857Y-182268152D02*
X59940476Y-182363390D01*
X59940476Y-182363390D02*
X59988095Y-182411009D01*
X59988095Y-182411009D02*
X60083333Y-182458628D01*
X60083333Y-182458628D02*
X60464285Y-182458628D01*
X59511904Y-182030057D02*
X59464285Y-181982438D01*
X59464285Y-181982438D02*
X59369047Y-181934819D01*
X59369047Y-181934819D02*
X59130952Y-181934819D01*
X59130952Y-181934819D02*
X59035714Y-181982438D01*
X59035714Y-181982438D02*
X58988095Y-182030057D01*
X58988095Y-182030057D02*
X58940476Y-182125295D01*
X58940476Y-182125295D02*
X58940476Y-182220533D01*
X58940476Y-182220533D02*
X58988095Y-182363390D01*
X58988095Y-182363390D02*
X59559523Y-182934819D01*
X59559523Y-182934819D02*
X58940476Y-182934819D01*
X58321428Y-181934819D02*
X58226190Y-181934819D01*
X58226190Y-181934819D02*
X58130952Y-181982438D01*
X58130952Y-181982438D02*
X58083333Y-182030057D01*
X58083333Y-182030057D02*
X58035714Y-182125295D01*
X58035714Y-182125295D02*
X57988095Y-182315771D01*
X57988095Y-182315771D02*
X57988095Y-182553866D01*
X57988095Y-182553866D02*
X58035714Y-182744342D01*
X58035714Y-182744342D02*
X58083333Y-182839580D01*
X58083333Y-182839580D02*
X58130952Y-182887200D01*
X58130952Y-182887200D02*
X58226190Y-182934819D01*
X58226190Y-182934819D02*
X58321428Y-182934819D01*
X58321428Y-182934819D02*
X58416666Y-182887200D01*
X58416666Y-182887200D02*
X58464285Y-182839580D01*
X58464285Y-182839580D02*
X58511904Y-182744342D01*
X58511904Y-182744342D02*
X58559523Y-182553866D01*
X58559523Y-182553866D02*
X58559523Y-182315771D01*
X58559523Y-182315771D02*
X58511904Y-182125295D01*
X58511904Y-182125295D02*
X58464285Y-182030057D01*
X58464285Y-182030057D02*
X58416666Y-181982438D01*
X58416666Y-181982438D02*
X58321428Y-181934819D01*
X91734819Y-158633333D02*
X91258628Y-158300000D01*
X91734819Y-158061905D02*
X90734819Y-158061905D01*
X90734819Y-158061905D02*
X90734819Y-158442857D01*
X90734819Y-158442857D02*
X90782438Y-158538095D01*
X90782438Y-158538095D02*
X90830057Y-158585714D01*
X90830057Y-158585714D02*
X90925295Y-158633333D01*
X90925295Y-158633333D02*
X91068152Y-158633333D01*
X91068152Y-158633333D02*
X91163390Y-158585714D01*
X91163390Y-158585714D02*
X91211009Y-158538095D01*
X91211009Y-158538095D02*
X91258628Y-158442857D01*
X91258628Y-158442857D02*
X91258628Y-158061905D01*
X90830057Y-159014286D02*
X90782438Y-159061905D01*
X90782438Y-159061905D02*
X90734819Y-159157143D01*
X90734819Y-159157143D02*
X90734819Y-159395238D01*
X90734819Y-159395238D02*
X90782438Y-159490476D01*
X90782438Y-159490476D02*
X90830057Y-159538095D01*
X90830057Y-159538095D02*
X90925295Y-159585714D01*
X90925295Y-159585714D02*
X91020533Y-159585714D01*
X91020533Y-159585714D02*
X91163390Y-159538095D01*
X91163390Y-159538095D02*
X91734819Y-158966667D01*
X91734819Y-158966667D02*
X91734819Y-159585714D01*
X109292857Y-118934819D02*
X109626190Y-118458628D01*
X109864285Y-118934819D02*
X109864285Y-117934819D01*
X109864285Y-117934819D02*
X109483333Y-117934819D01*
X109483333Y-117934819D02*
X109388095Y-117982438D01*
X109388095Y-117982438D02*
X109340476Y-118030057D01*
X109340476Y-118030057D02*
X109292857Y-118125295D01*
X109292857Y-118125295D02*
X109292857Y-118268152D01*
X109292857Y-118268152D02*
X109340476Y-118363390D01*
X109340476Y-118363390D02*
X109388095Y-118411009D01*
X109388095Y-118411009D02*
X109483333Y-118458628D01*
X109483333Y-118458628D02*
X109864285Y-118458628D01*
X108911904Y-118030057D02*
X108864285Y-117982438D01*
X108864285Y-117982438D02*
X108769047Y-117934819D01*
X108769047Y-117934819D02*
X108530952Y-117934819D01*
X108530952Y-117934819D02*
X108435714Y-117982438D01*
X108435714Y-117982438D02*
X108388095Y-118030057D01*
X108388095Y-118030057D02*
X108340476Y-118125295D01*
X108340476Y-118125295D02*
X108340476Y-118220533D01*
X108340476Y-118220533D02*
X108388095Y-118363390D01*
X108388095Y-118363390D02*
X108959523Y-118934819D01*
X108959523Y-118934819D02*
X108340476Y-118934819D01*
X107388095Y-118934819D02*
X107959523Y-118934819D01*
X107673809Y-118934819D02*
X107673809Y-117934819D01*
X107673809Y-117934819D02*
X107769047Y-118077676D01*
X107769047Y-118077676D02*
X107864285Y-118172914D01*
X107864285Y-118172914D02*
X107959523Y-118220533D01*
X110916666Y-131259580D02*
X110964285Y-131307200D01*
X110964285Y-131307200D02*
X111107142Y-131354819D01*
X111107142Y-131354819D02*
X111202380Y-131354819D01*
X111202380Y-131354819D02*
X111345237Y-131307200D01*
X111345237Y-131307200D02*
X111440475Y-131211961D01*
X111440475Y-131211961D02*
X111488094Y-131116723D01*
X111488094Y-131116723D02*
X111535713Y-130926247D01*
X111535713Y-130926247D02*
X111535713Y-130783390D01*
X111535713Y-130783390D02*
X111488094Y-130592914D01*
X111488094Y-130592914D02*
X111440475Y-130497676D01*
X111440475Y-130497676D02*
X111345237Y-130402438D01*
X111345237Y-130402438D02*
X111202380Y-130354819D01*
X111202380Y-130354819D02*
X111107142Y-130354819D01*
X111107142Y-130354819D02*
X110964285Y-130402438D01*
X110964285Y-130402438D02*
X110916666Y-130450057D01*
X110583332Y-130354819D02*
X109964285Y-130354819D01*
X109964285Y-130354819D02*
X110297618Y-130735771D01*
X110297618Y-130735771D02*
X110154761Y-130735771D01*
X110154761Y-130735771D02*
X110059523Y-130783390D01*
X110059523Y-130783390D02*
X110011904Y-130831009D01*
X110011904Y-130831009D02*
X109964285Y-130926247D01*
X109964285Y-130926247D02*
X109964285Y-131164342D01*
X109964285Y-131164342D02*
X110011904Y-131259580D01*
X110011904Y-131259580D02*
X110059523Y-131307200D01*
X110059523Y-131307200D02*
X110154761Y-131354819D01*
X110154761Y-131354819D02*
X110440475Y-131354819D01*
X110440475Y-131354819D02*
X110535713Y-131307200D01*
X110535713Y-131307200D02*
X110583332Y-131259580D01*
X136042857Y-154134819D02*
X136376190Y-153658628D01*
X136614285Y-154134819D02*
X136614285Y-153134819D01*
X136614285Y-153134819D02*
X136233333Y-153134819D01*
X136233333Y-153134819D02*
X136138095Y-153182438D01*
X136138095Y-153182438D02*
X136090476Y-153230057D01*
X136090476Y-153230057D02*
X136042857Y-153325295D01*
X136042857Y-153325295D02*
X136042857Y-153468152D01*
X136042857Y-153468152D02*
X136090476Y-153563390D01*
X136090476Y-153563390D02*
X136138095Y-153611009D01*
X136138095Y-153611009D02*
X136233333Y-153658628D01*
X136233333Y-153658628D02*
X136614285Y-153658628D01*
X135661904Y-153230057D02*
X135614285Y-153182438D01*
X135614285Y-153182438D02*
X135519047Y-153134819D01*
X135519047Y-153134819D02*
X135280952Y-153134819D01*
X135280952Y-153134819D02*
X135185714Y-153182438D01*
X135185714Y-153182438D02*
X135138095Y-153230057D01*
X135138095Y-153230057D02*
X135090476Y-153325295D01*
X135090476Y-153325295D02*
X135090476Y-153420533D01*
X135090476Y-153420533D02*
X135138095Y-153563390D01*
X135138095Y-153563390D02*
X135709523Y-154134819D01*
X135709523Y-154134819D02*
X135090476Y-154134819D01*
X134709523Y-153230057D02*
X134661904Y-153182438D01*
X134661904Y-153182438D02*
X134566666Y-153134819D01*
X134566666Y-153134819D02*
X134328571Y-153134819D01*
X134328571Y-153134819D02*
X134233333Y-153182438D01*
X134233333Y-153182438D02*
X134185714Y-153230057D01*
X134185714Y-153230057D02*
X134138095Y-153325295D01*
X134138095Y-153325295D02*
X134138095Y-153420533D01*
X134138095Y-153420533D02*
X134185714Y-153563390D01*
X134185714Y-153563390D02*
X134757142Y-154134819D01*
X134757142Y-154134819D02*
X134138095Y-154134819D01*
X78280057Y-169304761D02*
X78232438Y-169209523D01*
X78232438Y-169209523D02*
X78137200Y-169114285D01*
X78137200Y-169114285D02*
X77994342Y-168971428D01*
X77994342Y-168971428D02*
X77946723Y-168876190D01*
X77946723Y-168876190D02*
X77946723Y-168780952D01*
X78184819Y-168828571D02*
X78137200Y-168733333D01*
X78137200Y-168733333D02*
X78041961Y-168638095D01*
X78041961Y-168638095D02*
X77851485Y-168590476D01*
X77851485Y-168590476D02*
X77518152Y-168590476D01*
X77518152Y-168590476D02*
X77327676Y-168638095D01*
X77327676Y-168638095D02*
X77232438Y-168733333D01*
X77232438Y-168733333D02*
X77184819Y-168828571D01*
X77184819Y-168828571D02*
X77184819Y-169019047D01*
X77184819Y-169019047D02*
X77232438Y-169114285D01*
X77232438Y-169114285D02*
X77327676Y-169209523D01*
X77327676Y-169209523D02*
X77518152Y-169257142D01*
X77518152Y-169257142D02*
X77851485Y-169257142D01*
X77851485Y-169257142D02*
X78041961Y-169209523D01*
X78041961Y-169209523D02*
X78137200Y-169114285D01*
X78137200Y-169114285D02*
X78184819Y-169019047D01*
X78184819Y-169019047D02*
X78184819Y-168828571D01*
X78184819Y-170209523D02*
X78184819Y-169638095D01*
X78184819Y-169923809D02*
X77184819Y-169923809D01*
X77184819Y-169923809D02*
X77327676Y-169828571D01*
X77327676Y-169828571D02*
X77422914Y-169733333D01*
X77422914Y-169733333D02*
X77470533Y-169638095D01*
X60816666Y-164534819D02*
X61149999Y-164058628D01*
X61388094Y-164534819D02*
X61388094Y-163534819D01*
X61388094Y-163534819D02*
X61007142Y-163534819D01*
X61007142Y-163534819D02*
X60911904Y-163582438D01*
X60911904Y-163582438D02*
X60864285Y-163630057D01*
X60864285Y-163630057D02*
X60816666Y-163725295D01*
X60816666Y-163725295D02*
X60816666Y-163868152D01*
X60816666Y-163868152D02*
X60864285Y-163963390D01*
X60864285Y-163963390D02*
X60911904Y-164011009D01*
X60911904Y-164011009D02*
X61007142Y-164058628D01*
X61007142Y-164058628D02*
X61388094Y-164058628D01*
X59959523Y-163868152D02*
X59959523Y-164534819D01*
X60197618Y-163487200D02*
X60435713Y-164201485D01*
X60435713Y-164201485D02*
X59816666Y-164201485D01*
X46734819Y-167307142D02*
X46258628Y-166973809D01*
X46734819Y-166735714D02*
X45734819Y-166735714D01*
X45734819Y-166735714D02*
X45734819Y-167116666D01*
X45734819Y-167116666D02*
X45782438Y-167211904D01*
X45782438Y-167211904D02*
X45830057Y-167259523D01*
X45830057Y-167259523D02*
X45925295Y-167307142D01*
X45925295Y-167307142D02*
X46068152Y-167307142D01*
X46068152Y-167307142D02*
X46163390Y-167259523D01*
X46163390Y-167259523D02*
X46211009Y-167211904D01*
X46211009Y-167211904D02*
X46258628Y-167116666D01*
X46258628Y-167116666D02*
X46258628Y-166735714D01*
X46734819Y-168259523D02*
X46734819Y-167688095D01*
X46734819Y-167973809D02*
X45734819Y-167973809D01*
X45734819Y-167973809D02*
X45877676Y-167878571D01*
X45877676Y-167878571D02*
X45972914Y-167783333D01*
X45972914Y-167783333D02*
X46020533Y-167688095D01*
X46734819Y-168735714D02*
X46734819Y-168926190D01*
X46734819Y-168926190D02*
X46687200Y-169021428D01*
X46687200Y-169021428D02*
X46639580Y-169069047D01*
X46639580Y-169069047D02*
X46496723Y-169164285D01*
X46496723Y-169164285D02*
X46306247Y-169211904D01*
X46306247Y-169211904D02*
X45925295Y-169211904D01*
X45925295Y-169211904D02*
X45830057Y-169164285D01*
X45830057Y-169164285D02*
X45782438Y-169116666D01*
X45782438Y-169116666D02*
X45734819Y-169021428D01*
X45734819Y-169021428D02*
X45734819Y-168830952D01*
X45734819Y-168830952D02*
X45782438Y-168735714D01*
X45782438Y-168735714D02*
X45830057Y-168688095D01*
X45830057Y-168688095D02*
X45925295Y-168640476D01*
X45925295Y-168640476D02*
X46163390Y-168640476D01*
X46163390Y-168640476D02*
X46258628Y-168688095D01*
X46258628Y-168688095D02*
X46306247Y-168735714D01*
X46306247Y-168735714D02*
X46353866Y-168830952D01*
X46353866Y-168830952D02*
X46353866Y-169021428D01*
X46353866Y-169021428D02*
X46306247Y-169116666D01*
X46306247Y-169116666D02*
X46258628Y-169164285D01*
X46258628Y-169164285D02*
X46163390Y-169211904D01*
X130642857Y-129134819D02*
X130976190Y-128658628D01*
X131214285Y-129134819D02*
X131214285Y-128134819D01*
X131214285Y-128134819D02*
X130833333Y-128134819D01*
X130833333Y-128134819D02*
X130738095Y-128182438D01*
X130738095Y-128182438D02*
X130690476Y-128230057D01*
X130690476Y-128230057D02*
X130642857Y-128325295D01*
X130642857Y-128325295D02*
X130642857Y-128468152D01*
X130642857Y-128468152D02*
X130690476Y-128563390D01*
X130690476Y-128563390D02*
X130738095Y-128611009D01*
X130738095Y-128611009D02*
X130833333Y-128658628D01*
X130833333Y-128658628D02*
X131214285Y-128658628D01*
X130261904Y-128230057D02*
X130214285Y-128182438D01*
X130214285Y-128182438D02*
X130119047Y-128134819D01*
X130119047Y-128134819D02*
X129880952Y-128134819D01*
X129880952Y-128134819D02*
X129785714Y-128182438D01*
X129785714Y-128182438D02*
X129738095Y-128230057D01*
X129738095Y-128230057D02*
X129690476Y-128325295D01*
X129690476Y-128325295D02*
X129690476Y-128420533D01*
X129690476Y-128420533D02*
X129738095Y-128563390D01*
X129738095Y-128563390D02*
X130309523Y-129134819D01*
X130309523Y-129134819D02*
X129690476Y-129134819D01*
X128833333Y-128468152D02*
X128833333Y-129134819D01*
X129071428Y-128087200D02*
X129309523Y-128801485D01*
X129309523Y-128801485D02*
X128690476Y-128801485D01*
X85916666Y-162759580D02*
X85964285Y-162807200D01*
X85964285Y-162807200D02*
X86107142Y-162854819D01*
X86107142Y-162854819D02*
X86202380Y-162854819D01*
X86202380Y-162854819D02*
X86345237Y-162807200D01*
X86345237Y-162807200D02*
X86440475Y-162711961D01*
X86440475Y-162711961D02*
X86488094Y-162616723D01*
X86488094Y-162616723D02*
X86535713Y-162426247D01*
X86535713Y-162426247D02*
X86535713Y-162283390D01*
X86535713Y-162283390D02*
X86488094Y-162092914D01*
X86488094Y-162092914D02*
X86440475Y-161997676D01*
X86440475Y-161997676D02*
X86345237Y-161902438D01*
X86345237Y-161902438D02*
X86202380Y-161854819D01*
X86202380Y-161854819D02*
X86107142Y-161854819D01*
X86107142Y-161854819D02*
X85964285Y-161902438D01*
X85964285Y-161902438D02*
X85916666Y-161950057D01*
X85059523Y-162188152D02*
X85059523Y-162854819D01*
X85297618Y-161807200D02*
X85535713Y-162521485D01*
X85535713Y-162521485D02*
X84916666Y-162521485D01*
X99116666Y-134254819D02*
X99449999Y-133778628D01*
X99688094Y-134254819D02*
X99688094Y-133254819D01*
X99688094Y-133254819D02*
X99307142Y-133254819D01*
X99307142Y-133254819D02*
X99211904Y-133302438D01*
X99211904Y-133302438D02*
X99164285Y-133350057D01*
X99164285Y-133350057D02*
X99116666Y-133445295D01*
X99116666Y-133445295D02*
X99116666Y-133588152D01*
X99116666Y-133588152D02*
X99164285Y-133683390D01*
X99164285Y-133683390D02*
X99211904Y-133731009D01*
X99211904Y-133731009D02*
X99307142Y-133778628D01*
X99307142Y-133778628D02*
X99688094Y-133778628D01*
X98164285Y-134254819D02*
X98735713Y-134254819D01*
X98449999Y-134254819D02*
X98449999Y-133254819D01*
X98449999Y-133254819D02*
X98545237Y-133397676D01*
X98545237Y-133397676D02*
X98640475Y-133492914D01*
X98640475Y-133492914D02*
X98735713Y-133540533D01*
X124225238Y-159750057D02*
X124320476Y-159702438D01*
X124320476Y-159702438D02*
X124415714Y-159607200D01*
X124415714Y-159607200D02*
X124558571Y-159464342D01*
X124558571Y-159464342D02*
X124653809Y-159416723D01*
X124653809Y-159416723D02*
X124749047Y-159416723D01*
X124701428Y-159654819D02*
X124796666Y-159607200D01*
X124796666Y-159607200D02*
X124891904Y-159511961D01*
X124891904Y-159511961D02*
X124939523Y-159321485D01*
X124939523Y-159321485D02*
X124939523Y-158988152D01*
X124939523Y-158988152D02*
X124891904Y-158797676D01*
X124891904Y-158797676D02*
X124796666Y-158702438D01*
X124796666Y-158702438D02*
X124701428Y-158654819D01*
X124701428Y-158654819D02*
X124510952Y-158654819D01*
X124510952Y-158654819D02*
X124415714Y-158702438D01*
X124415714Y-158702438D02*
X124320476Y-158797676D01*
X124320476Y-158797676D02*
X124272857Y-158988152D01*
X124272857Y-158988152D02*
X124272857Y-159321485D01*
X124272857Y-159321485D02*
X124320476Y-159511961D01*
X124320476Y-159511961D02*
X124415714Y-159607200D01*
X124415714Y-159607200D02*
X124510952Y-159654819D01*
X124510952Y-159654819D02*
X124701428Y-159654819D01*
X123415714Y-158988152D02*
X123415714Y-159654819D01*
X123653809Y-158607200D02*
X123891904Y-159321485D01*
X123891904Y-159321485D02*
X123272857Y-159321485D01*
X135842857Y-167454819D02*
X136176190Y-166978628D01*
X136414285Y-167454819D02*
X136414285Y-166454819D01*
X136414285Y-166454819D02*
X136033333Y-166454819D01*
X136033333Y-166454819D02*
X135938095Y-166502438D01*
X135938095Y-166502438D02*
X135890476Y-166550057D01*
X135890476Y-166550057D02*
X135842857Y-166645295D01*
X135842857Y-166645295D02*
X135842857Y-166788152D01*
X135842857Y-166788152D02*
X135890476Y-166883390D01*
X135890476Y-166883390D02*
X135938095Y-166931009D01*
X135938095Y-166931009D02*
X136033333Y-166978628D01*
X136033333Y-166978628D02*
X136414285Y-166978628D01*
X135461904Y-166550057D02*
X135414285Y-166502438D01*
X135414285Y-166502438D02*
X135319047Y-166454819D01*
X135319047Y-166454819D02*
X135080952Y-166454819D01*
X135080952Y-166454819D02*
X134985714Y-166502438D01*
X134985714Y-166502438D02*
X134938095Y-166550057D01*
X134938095Y-166550057D02*
X134890476Y-166645295D01*
X134890476Y-166645295D02*
X134890476Y-166740533D01*
X134890476Y-166740533D02*
X134938095Y-166883390D01*
X134938095Y-166883390D02*
X135509523Y-167454819D01*
X135509523Y-167454819D02*
X134890476Y-167454819D01*
X134557142Y-166454819D02*
X133938095Y-166454819D01*
X133938095Y-166454819D02*
X134271428Y-166835771D01*
X134271428Y-166835771D02*
X134128571Y-166835771D01*
X134128571Y-166835771D02*
X134033333Y-166883390D01*
X134033333Y-166883390D02*
X133985714Y-166931009D01*
X133985714Y-166931009D02*
X133938095Y-167026247D01*
X133938095Y-167026247D02*
X133938095Y-167264342D01*
X133938095Y-167264342D02*
X133985714Y-167359580D01*
X133985714Y-167359580D02*
X134033333Y-167407200D01*
X134033333Y-167407200D02*
X134128571Y-167454819D01*
X134128571Y-167454819D02*
X134414285Y-167454819D01*
X134414285Y-167454819D02*
X134509523Y-167407200D01*
X134509523Y-167407200D02*
X134557142Y-167359580D01*
X71334819Y-170833333D02*
X70858628Y-170500000D01*
X71334819Y-170261905D02*
X70334819Y-170261905D01*
X70334819Y-170261905D02*
X70334819Y-170642857D01*
X70334819Y-170642857D02*
X70382438Y-170738095D01*
X70382438Y-170738095D02*
X70430057Y-170785714D01*
X70430057Y-170785714D02*
X70525295Y-170833333D01*
X70525295Y-170833333D02*
X70668152Y-170833333D01*
X70668152Y-170833333D02*
X70763390Y-170785714D01*
X70763390Y-170785714D02*
X70811009Y-170738095D01*
X70811009Y-170738095D02*
X70858628Y-170642857D01*
X70858628Y-170642857D02*
X70858628Y-170261905D01*
X70334819Y-171166667D02*
X70334819Y-171785714D01*
X70334819Y-171785714D02*
X70715771Y-171452381D01*
X70715771Y-171452381D02*
X70715771Y-171595238D01*
X70715771Y-171595238D02*
X70763390Y-171690476D01*
X70763390Y-171690476D02*
X70811009Y-171738095D01*
X70811009Y-171738095D02*
X70906247Y-171785714D01*
X70906247Y-171785714D02*
X71144342Y-171785714D01*
X71144342Y-171785714D02*
X71239580Y-171738095D01*
X71239580Y-171738095D02*
X71287200Y-171690476D01*
X71287200Y-171690476D02*
X71334819Y-171595238D01*
X71334819Y-171595238D02*
X71334819Y-171309524D01*
X71334819Y-171309524D02*
X71287200Y-171214286D01*
X71287200Y-171214286D02*
X71239580Y-171166667D01*
X151174819Y-154357142D02*
X150698628Y-154023809D01*
X151174819Y-153785714D02*
X150174819Y-153785714D01*
X150174819Y-153785714D02*
X150174819Y-154166666D01*
X150174819Y-154166666D02*
X150222438Y-154261904D01*
X150222438Y-154261904D02*
X150270057Y-154309523D01*
X150270057Y-154309523D02*
X150365295Y-154357142D01*
X150365295Y-154357142D02*
X150508152Y-154357142D01*
X150508152Y-154357142D02*
X150603390Y-154309523D01*
X150603390Y-154309523D02*
X150651009Y-154261904D01*
X150651009Y-154261904D02*
X150698628Y-154166666D01*
X150698628Y-154166666D02*
X150698628Y-153785714D01*
X151174819Y-155309523D02*
X151174819Y-154738095D01*
X151174819Y-155023809D02*
X150174819Y-155023809D01*
X150174819Y-155023809D02*
X150317676Y-154928571D01*
X150317676Y-154928571D02*
X150412914Y-154833333D01*
X150412914Y-154833333D02*
X150460533Y-154738095D01*
X150270057Y-155690476D02*
X150222438Y-155738095D01*
X150222438Y-155738095D02*
X150174819Y-155833333D01*
X150174819Y-155833333D02*
X150174819Y-156071428D01*
X150174819Y-156071428D02*
X150222438Y-156166666D01*
X150222438Y-156166666D02*
X150270057Y-156214285D01*
X150270057Y-156214285D02*
X150365295Y-156261904D01*
X150365295Y-156261904D02*
X150460533Y-156261904D01*
X150460533Y-156261904D02*
X150603390Y-156214285D01*
X150603390Y-156214285D02*
X151174819Y-155642857D01*
X151174819Y-155642857D02*
X151174819Y-156261904D01*
X136750057Y-150034761D02*
X136702438Y-149939523D01*
X136702438Y-149939523D02*
X136607200Y-149844285D01*
X136607200Y-149844285D02*
X136464342Y-149701428D01*
X136464342Y-149701428D02*
X136416723Y-149606190D01*
X136416723Y-149606190D02*
X136416723Y-149510952D01*
X136654819Y-149558571D02*
X136607200Y-149463333D01*
X136607200Y-149463333D02*
X136511961Y-149368095D01*
X136511961Y-149368095D02*
X136321485Y-149320476D01*
X136321485Y-149320476D02*
X135988152Y-149320476D01*
X135988152Y-149320476D02*
X135797676Y-149368095D01*
X135797676Y-149368095D02*
X135702438Y-149463333D01*
X135702438Y-149463333D02*
X135654819Y-149558571D01*
X135654819Y-149558571D02*
X135654819Y-149749047D01*
X135654819Y-149749047D02*
X135702438Y-149844285D01*
X135702438Y-149844285D02*
X135797676Y-149939523D01*
X135797676Y-149939523D02*
X135988152Y-149987142D01*
X135988152Y-149987142D02*
X136321485Y-149987142D01*
X136321485Y-149987142D02*
X136511961Y-149939523D01*
X136511961Y-149939523D02*
X136607200Y-149844285D01*
X136607200Y-149844285D02*
X136654819Y-149749047D01*
X136654819Y-149749047D02*
X136654819Y-149558571D01*
X135654819Y-150320476D02*
X135654819Y-150939523D01*
X135654819Y-150939523D02*
X136035771Y-150606190D01*
X136035771Y-150606190D02*
X136035771Y-150749047D01*
X136035771Y-150749047D02*
X136083390Y-150844285D01*
X136083390Y-150844285D02*
X136131009Y-150891904D01*
X136131009Y-150891904D02*
X136226247Y-150939523D01*
X136226247Y-150939523D02*
X136464342Y-150939523D01*
X136464342Y-150939523D02*
X136559580Y-150891904D01*
X136559580Y-150891904D02*
X136607200Y-150844285D01*
X136607200Y-150844285D02*
X136654819Y-150749047D01*
X136654819Y-150749047D02*
X136654819Y-150463333D01*
X136654819Y-150463333D02*
X136607200Y-150368095D01*
X136607200Y-150368095D02*
X136559580Y-150320476D01*
D12*
X80347684Y-123008445D02*
G75*
G02*
X76070000Y-121980000I-1827684J1808445D01*
G01*
X76070000Y-120380000D02*
G75*
G02*
X80362156Y-119388547I2450000J-820000D01*
G01*
X80370000Y-119400000D02*
X80370000Y-123000000D01*
X90890000Y-128400000D02*
X91580000Y-128400000D01*
X101510000Y-128400000D02*
X100820000Y-128400000D01*
X100820000Y-126680000D02*
X91580000Y-126680000D01*
X91580000Y-130120000D01*
X100820000Y-130120000D01*
X100820000Y-126680000D01*
X66600000Y-117890000D02*
X66600000Y-118580000D01*
X66600000Y-128510000D02*
X66600000Y-127820000D01*
X68320000Y-127820000D02*
X64880000Y-127820000D01*
X64880000Y-118580000D01*
X68320000Y-118580000D01*
X68320000Y-127820000D01*
X62200000Y-117890000D02*
X62200000Y-118580000D01*
X62200000Y-128510000D02*
X62200000Y-127820000D01*
X60480000Y-118580000D02*
X63920000Y-118580000D01*
X63920000Y-127820000D01*
X60480000Y-127820000D01*
X60480000Y-118580000D01*
X130890000Y-171800000D02*
X131580000Y-171800000D01*
X141510000Y-171800000D02*
X140820000Y-171800000D01*
X140820000Y-170080000D02*
X131580000Y-170080000D01*
X131580000Y-173520000D01*
X140820000Y-173520000D01*
X140820000Y-170080000D01*
X74090000Y-133200000D02*
X74780000Y-133200000D01*
X84710000Y-133200000D02*
X84020000Y-133200000D01*
X84020000Y-131480000D02*
X74780000Y-131480000D01*
X74780000Y-134920000D01*
X84020000Y-134920000D01*
X84020000Y-131480000D01*
X54940000Y-172800000D02*
X55630000Y-172800000D01*
X65560000Y-172800000D02*
X64870000Y-172800000D01*
X64870000Y-171080000D02*
X55630000Y-171080000D01*
X55630000Y-174520000D01*
X64870000Y-174520000D01*
X64870000Y-171080000D01*
X113940000Y-165400000D02*
X114630000Y-165400000D01*
X124560000Y-165400000D02*
X123870000Y-165400000D01*
X123870000Y-163680000D02*
X114630000Y-163680000D01*
X114630000Y-167120000D01*
X123870000Y-167120000D01*
X123870000Y-163680000D01*
X53030000Y-161220000D02*
X53030000Y-155980000D01*
X55770000Y-155980000D02*
X53030000Y-155980000D01*
X55770000Y-161220000D02*
X53030000Y-161220000D01*
X55770000Y-161220000D02*
X55770000Y-155980000D01*
X54200000Y-112690000D02*
X54200000Y-113380000D01*
X54200000Y-123310000D02*
X54200000Y-122620000D01*
X55920000Y-122620000D02*
X52480000Y-122620000D01*
X52480000Y-113380000D01*
X55920000Y-113380000D01*
X55920000Y-122620000D01*
X55400000Y-141890000D02*
X55400000Y-142580000D01*
X55400000Y-152510000D02*
X55400000Y-151820000D01*
X57120000Y-151820000D02*
X53680000Y-151820000D01*
X53680000Y-142580000D01*
X57120000Y-142580000D01*
X57120000Y-151820000D01*
X139230000Y-146570000D02*
X139230000Y-141330000D01*
X141970000Y-141330000D02*
X139230000Y-141330000D01*
X141970000Y-146570000D02*
X139230000Y-146570000D01*
X141970000Y-146570000D02*
X141970000Y-141330000D01*
X51630000Y-175530000D02*
X51630000Y-180770000D01*
X51630000Y-175530000D02*
X54370000Y-175530000D01*
X51630000Y-180770000D02*
X54370000Y-180770000D01*
X54370000Y-175530000D02*
X54370000Y-180770000D01*
X71000000Y-117890000D02*
X71000000Y-118580000D01*
X71000000Y-128510000D02*
X71000000Y-127820000D01*
X69280000Y-118580000D02*
X72720000Y-118580000D01*
X72720000Y-127820000D01*
X69280000Y-127820000D01*
X69280000Y-118580000D01*
X89630000Y-148620000D02*
X89630000Y-143380000D01*
X92370000Y-143380000D02*
X89630000Y-143380000D01*
X92370000Y-148620000D02*
X89630000Y-148620000D01*
X92370000Y-148620000D02*
X92370000Y-143380000D01*
X124540000Y-137200000D02*
X125230000Y-137200000D01*
X135160000Y-137200000D02*
X134470000Y-137200000D01*
X134470000Y-135480000D02*
X125230000Y-135480000D01*
X125230000Y-138920000D01*
X134470000Y-138920000D01*
X134470000Y-135480000D01*
X77100000Y-126190000D02*
X87410000Y-126190000D01*
X87410000Y-126190000D02*
X87410000Y-129410000D01*
X87410000Y-129410000D02*
X77100000Y-129410000D01*
X139130000Y-136030000D02*
X139130000Y-138770000D01*
X144370000Y-136030000D02*
X139130000Y-136030000D01*
X144370000Y-136030000D02*
X144370000Y-138770000D01*
X144370000Y-138770000D02*
X139130000Y-138770000D01*
X51130000Y-128230000D02*
X51130000Y-130970000D01*
X56370000Y-128230000D02*
X51130000Y-128230000D01*
X56370000Y-128230000D02*
X56370000Y-130970000D01*
X56370000Y-130970000D02*
X51130000Y-130970000D01*
X115770000Y-130230000D02*
X115770000Y-130970000D01*
X115810000Y-130063000D02*
X115810000Y-131137000D01*
X115850000Y-129937000D02*
X115850000Y-131263000D01*
X115890000Y-129832000D02*
X115890000Y-131368000D01*
X115930000Y-129741000D02*
X115930000Y-131459000D01*
X115970000Y-129660000D02*
X115970000Y-131540000D01*
X116010000Y-129587000D02*
X116010000Y-131613000D01*
X116050000Y-129520000D02*
X116050000Y-131680000D01*
X116090000Y-129458000D02*
X116090000Y-131742000D01*
X116130000Y-129401000D02*
X116130000Y-131799000D01*
X116170000Y-129347000D02*
X116170000Y-131853000D01*
X116210000Y-129297000D02*
X116210000Y-131903000D01*
X116250000Y-129249000D02*
X116250000Y-131951000D01*
X116290000Y-129204000D02*
X116290000Y-129760000D01*
X116290000Y-131440000D02*
X116290000Y-131996000D01*
X116330000Y-129162000D02*
X116330000Y-129760000D01*
X116330000Y-131440000D02*
X116330000Y-132038000D01*
X116370000Y-129122000D02*
X116370000Y-129760000D01*
X116370000Y-131440000D02*
X116370000Y-132078000D01*
X116410000Y-129084000D02*
X116410000Y-129760000D01*
X116410000Y-131440000D02*
X116410000Y-132116000D01*
X116450000Y-129048000D02*
X116450000Y-129760000D01*
X116450000Y-131440000D02*
X116450000Y-132152000D01*
X116490000Y-129014000D02*
X116490000Y-129760000D01*
X116490000Y-131440000D02*
X116490000Y-132186000D01*
X116530000Y-128981000D02*
X116530000Y-129760000D01*
X116530000Y-131440000D02*
X116530000Y-132219000D01*
X116570000Y-128950000D02*
X116570000Y-129760000D01*
X116570000Y-131440000D02*
X116570000Y-132250000D01*
X116610000Y-128920000D02*
X116610000Y-129760000D01*
X116610000Y-131440000D02*
X116610000Y-132280000D01*
X116650000Y-128892000D02*
X116650000Y-129760000D01*
X116650000Y-131440000D02*
X116650000Y-132308000D01*
X116690000Y-128866000D02*
X116690000Y-129760000D01*
X116690000Y-131440000D02*
X116690000Y-132334000D01*
X116730000Y-128840000D02*
X116730000Y-129760000D01*
X116730000Y-131440000D02*
X116730000Y-132360000D01*
X116770000Y-128816000D02*
X116770000Y-129760000D01*
X116770000Y-131440000D02*
X116770000Y-132384000D01*
X116810000Y-128793000D02*
X116810000Y-129760000D01*
X116810000Y-131440000D02*
X116810000Y-132407000D01*
X116850000Y-128771000D02*
X116850000Y-129760000D01*
X116850000Y-131440000D02*
X116850000Y-132429000D01*
X116890000Y-128750000D02*
X116890000Y-129760000D01*
X116890000Y-131440000D02*
X116890000Y-132450000D01*
X116930000Y-128730000D02*
X116930000Y-129760000D01*
X116930000Y-131440000D02*
X116930000Y-132470000D01*
X116970000Y-128711000D02*
X116970000Y-129760000D01*
X116970000Y-131440000D02*
X116970000Y-132489000D01*
X117010000Y-128694000D02*
X117010000Y-129760000D01*
X117010000Y-131440000D02*
X117010000Y-132506000D01*
X117050000Y-128677000D02*
X117050000Y-129760000D01*
X117050000Y-131440000D02*
X117050000Y-132523000D01*
X117090000Y-128661000D02*
X117090000Y-129760000D01*
X117090000Y-131440000D02*
X117090000Y-132539000D01*
X117130000Y-128646000D02*
X117130000Y-129760000D01*
X117130000Y-131440000D02*
X117130000Y-132554000D01*
X117170000Y-128632000D02*
X117170000Y-129760000D01*
X117170000Y-131440000D02*
X117170000Y-132568000D01*
X117210000Y-128619000D02*
X117210000Y-129760000D01*
X117210000Y-131440000D02*
X117210000Y-132581000D01*
X117250000Y-128607000D02*
X117250000Y-129760000D01*
X117250000Y-131440000D02*
X117250000Y-132593000D01*
X117290000Y-128595000D02*
X117290000Y-129760000D01*
X117290000Y-131440000D02*
X117290000Y-132605000D01*
X117330000Y-128585000D02*
X117330000Y-129760000D01*
X117330000Y-131440000D02*
X117330000Y-132615000D01*
X117370000Y-128575000D02*
X117370000Y-129760000D01*
X117370000Y-131440000D02*
X117370000Y-132625000D01*
X117410000Y-128566000D02*
X117410000Y-129760000D01*
X117410000Y-131440000D02*
X117410000Y-132634000D01*
X117450000Y-128558000D02*
X117450000Y-129760000D01*
X117450000Y-131440000D02*
X117450000Y-132642000D01*
X117490000Y-128551000D02*
X117490000Y-129760000D01*
X117490000Y-131440000D02*
X117490000Y-132649000D01*
X117530000Y-128544000D02*
X117530000Y-129760000D01*
X117530000Y-131440000D02*
X117530000Y-132656000D01*
X117570000Y-128539000D02*
X117570000Y-129760000D01*
X117570000Y-131440000D02*
X117570000Y-132661000D01*
X117610000Y-128534000D02*
X117610000Y-129760000D01*
X117610000Y-131440000D02*
X117610000Y-132666000D01*
X117650000Y-128529000D02*
X117650000Y-129760000D01*
X117650000Y-131440000D02*
X117650000Y-132671000D01*
X117690000Y-128526000D02*
X117690000Y-129760000D01*
X117690000Y-131440000D02*
X117690000Y-132674000D01*
X117730000Y-128523000D02*
X117730000Y-129760000D01*
X117730000Y-131440000D02*
X117730000Y-132677000D01*
X117770000Y-128522000D02*
X117770000Y-129760000D01*
X117770000Y-131440000D02*
X117770000Y-132678000D01*
X117810000Y-128520000D02*
X117810000Y-129760000D01*
X117810000Y-131440000D02*
X117810000Y-132680000D01*
X117850000Y-128520000D02*
X117850000Y-129760000D01*
X117850000Y-131440000D02*
X117850000Y-132680000D01*
X119919801Y-129205000D02*
X119919801Y-129605000D01*
X120119801Y-129405000D02*
X119719801Y-129405000D01*
X119970000Y-130600000D02*
G75*
G02*
X115730000Y-130600000I-2120000J0D01*
G01*
X115730000Y-130600000D02*
G75*
G02*
X119970000Y-130600000I2120000J0D01*
G01*
D13*
G36*
X133390056Y-119744567D02*
G01*
X133366667Y-119767956D01*
X133343279Y-119744567D01*
X133366667Y-119721178D01*
X133390056Y-119744567D01*
G37*
G36*
X133623942Y-118621915D02*
G01*
X133600553Y-118645304D01*
X133577165Y-118621915D01*
X133600553Y-118598526D01*
X133623942Y-118621915D01*
G37*
G36*
X133811050Y-122270534D02*
G01*
X133787662Y-122293922D01*
X133764273Y-122270534D01*
X133787662Y-122247145D01*
X133811050Y-122270534D01*
G37*
G36*
X133857828Y-122130202D02*
G01*
X133834439Y-122153591D01*
X133811050Y-122130202D01*
X133834439Y-122106814D01*
X133857828Y-122130202D01*
G37*
G36*
X133904605Y-122036648D02*
G01*
X133881216Y-122060037D01*
X133857828Y-122036648D01*
X133881216Y-122013259D01*
X133904605Y-122036648D01*
G37*
G36*
X133951382Y-121943094D02*
G01*
X133927993Y-121966482D01*
X133904605Y-121943094D01*
X133927993Y-121919705D01*
X133951382Y-121943094D01*
G37*
G36*
X134044936Y-121709208D02*
G01*
X134021548Y-121732596D01*
X133998159Y-121709208D01*
X134021548Y-121685819D01*
X134044936Y-121709208D01*
G37*
G36*
X134091713Y-121615654D02*
G01*
X134068325Y-121639042D01*
X134044936Y-121615654D01*
X134068325Y-121592265D01*
X134091713Y-121615654D01*
G37*
G36*
X134138490Y-121522099D02*
G01*
X134115102Y-121545488D01*
X134091713Y-121522099D01*
X134115102Y-121498711D01*
X134138490Y-121522099D01*
G37*
G36*
X134325599Y-121101105D02*
G01*
X134302211Y-121124493D01*
X134278822Y-121101105D01*
X134302211Y-121077716D01*
X134325599Y-121101105D01*
G37*
G36*
X134372376Y-121007550D02*
G01*
X134348988Y-121030939D01*
X134325599Y-121007550D01*
X134348988Y-120984162D01*
X134372376Y-121007550D01*
G37*
G36*
X134512708Y-120773665D02*
G01*
X134489319Y-120797053D01*
X134465931Y-120773665D01*
X134489319Y-120750276D01*
X134512708Y-120773665D01*
G37*
G36*
X134746594Y-120305893D02*
G01*
X134723205Y-120329281D01*
X134699816Y-120305893D01*
X134723205Y-120282504D01*
X134746594Y-120305893D01*
G37*
G36*
X134793371Y-120212339D02*
G01*
X134769982Y-120235727D01*
X134746594Y-120212339D01*
X134769982Y-120188950D01*
X134793371Y-120212339D01*
G37*
G36*
X140453408Y-114505525D02*
G01*
X140430019Y-114528913D01*
X140406630Y-114505525D01*
X140430019Y-114482136D01*
X140453408Y-114505525D01*
G37*
G36*
X140500185Y-114645856D02*
G01*
X140476796Y-114669245D01*
X140453408Y-114645856D01*
X140476796Y-114622467D01*
X140500185Y-114645856D01*
G37*
G36*
X140593739Y-114926519D02*
G01*
X140570351Y-114949908D01*
X140546962Y-114926519D01*
X140570351Y-114903130D01*
X140593739Y-114926519D01*
G37*
G36*
X141576060Y-119604235D02*
G01*
X141552671Y-119627624D01*
X141529282Y-119604235D01*
X141552671Y-119580847D01*
X141576060Y-119604235D01*
G37*
G36*
X141622837Y-119931676D02*
G01*
X141599448Y-119955064D01*
X141576060Y-119931676D01*
X141599448Y-119908287D01*
X141622837Y-119931676D01*
G37*
G36*
X133062616Y-122153591D02*
G01*
X133059240Y-122178355D01*
X133031431Y-122184776D01*
X133025833Y-122177920D01*
X133031431Y-122122406D01*
X133045501Y-122115088D01*
X133062616Y-122153591D01*
G37*
G36*
X133156170Y-121124493D02*
G01*
X133152794Y-121149257D01*
X133124985Y-121155678D01*
X133119387Y-121148822D01*
X133124985Y-121093309D01*
X133139055Y-121085990D01*
X133156170Y-121124493D01*
G37*
G36*
X133479917Y-119272897D02*
G01*
X133476610Y-119320341D01*
X133455349Y-119334292D01*
X133446080Y-119317743D01*
X133451656Y-119244636D01*
X133468493Y-119222984D01*
X133479917Y-119272897D01*
G37*
G36*
X133530387Y-119066298D02*
G01*
X133527012Y-119091062D01*
X133499203Y-119097483D01*
X133493604Y-119090627D01*
X133499203Y-119035113D01*
X133513272Y-119027795D01*
X133530387Y-119066298D01*
G37*
G36*
X133998159Y-121826151D02*
G01*
X133994783Y-121850914D01*
X133966974Y-121857336D01*
X133961376Y-121850480D01*
X133966974Y-121794966D01*
X133981044Y-121787648D01*
X133998159Y-121826151D01*
G37*
G36*
X134559485Y-120656722D02*
G01*
X134556109Y-120681485D01*
X134528300Y-120687906D01*
X134522702Y-120681050D01*
X134528300Y-120625537D01*
X134542370Y-120618219D01*
X134559485Y-120656722D01*
G37*
G36*
X140359853Y-114248250D02*
G01*
X140356477Y-114273014D01*
X140328669Y-114279435D01*
X140323070Y-114272579D01*
X140328669Y-114217065D01*
X140342738Y-114209747D01*
X140359853Y-114248250D01*
G37*
G36*
X140406630Y-114388582D02*
G01*
X140403255Y-114413345D01*
X140375446Y-114419766D01*
X140369847Y-114412910D01*
X140375446Y-114357397D01*
X140389515Y-114350079D01*
X140406630Y-114388582D01*
G37*
G36*
X140867016Y-117709760D02*
G01*
X140860496Y-117774108D01*
X140843422Y-117768232D01*
X140837244Y-117747058D01*
X140843422Y-117651289D01*
X140859665Y-117643354D01*
X140867016Y-117709760D01*
G37*
G36*
X141100902Y-118972744D02*
G01*
X141094382Y-119037091D01*
X141077308Y-119031215D01*
X141071130Y-119010041D01*
X141077308Y-118914272D01*
X141093551Y-118906337D01*
X141100902Y-118972744D01*
G37*
G36*
X141147679Y-119206630D02*
G01*
X141141159Y-119270977D01*
X141124085Y-119265101D01*
X141117907Y-119243927D01*
X141124085Y-119148158D01*
X141140328Y-119140223D01*
X141147679Y-119206630D01*
G37*
G36*
X141198149Y-119460006D02*
G01*
X141194842Y-119507450D01*
X141173581Y-119521401D01*
X141164312Y-119504852D01*
X141169888Y-119431745D01*
X141186725Y-119410093D01*
X141198149Y-119460006D01*
G37*
G36*
X141241234Y-119767956D02*
G01*
X141234713Y-119832303D01*
X141217640Y-119826427D01*
X141211462Y-119805253D01*
X141217640Y-119709484D01*
X141233882Y-119701549D01*
X141241234Y-119767956D01*
G37*
G36*
X141291704Y-120068109D02*
G01*
X141288396Y-120115553D01*
X141267135Y-120129504D01*
X141257866Y-120112955D01*
X141263442Y-120039848D01*
X141280280Y-120018196D01*
X141291704Y-120068109D01*
G37*
G36*
X141338481Y-120348772D02*
G01*
X141335173Y-120396216D01*
X141313913Y-120410167D01*
X141304643Y-120393618D01*
X141310220Y-120320511D01*
X141327057Y-120298859D01*
X141338481Y-120348772D01*
G37*
G36*
X141669614Y-120188950D02*
G01*
X141666238Y-120213714D01*
X141638429Y-120220135D01*
X141632831Y-120213279D01*
X141638429Y-120157765D01*
X141652499Y-120150447D01*
X141669614Y-120188950D01*
G37*
G36*
X141712698Y-120489103D02*
G01*
X141709391Y-120536548D01*
X141688130Y-120550498D01*
X141678860Y-120533949D01*
X141684437Y-120460842D01*
X141701274Y-120439191D01*
X141712698Y-120489103D01*
G37*
G36*
X141755782Y-120797053D02*
G01*
X141749262Y-120861401D01*
X141732189Y-120855525D01*
X141726010Y-120834351D01*
X141732189Y-120738582D01*
X141748431Y-120730647D01*
X141755782Y-120797053D01*
G37*
G36*
X134271735Y-121200490D02*
G01*
X134257357Y-121261713D01*
X134235357Y-121292538D01*
X134203934Y-121305330D01*
X134215903Y-121239419D01*
X134233470Y-121205313D01*
X134265896Y-121189529D01*
X134271735Y-121200490D01*
G37*
G36*
X134447009Y-120883380D02*
G01*
X134440794Y-120892902D01*
X134394576Y-120935983D01*
X134372376Y-120916757D01*
X134376558Y-120906235D01*
X134426381Y-120862752D01*
X134452522Y-120851371D01*
X134447009Y-120883380D01*
G37*
G36*
X134683151Y-120397290D02*
G01*
X134653039Y-120469613D01*
X134617151Y-120527309D01*
X134579582Y-120563167D01*
X134576150Y-120541936D01*
X134606262Y-120469613D01*
X134642151Y-120411916D01*
X134679719Y-120376059D01*
X134683151Y-120397290D01*
G37*
G36*
X140266299Y-114014364D02*
G01*
X140288353Y-114054435D01*
X140311644Y-114131307D01*
X140303364Y-114145360D01*
X140266299Y-114107919D01*
X140244245Y-114067848D01*
X140220954Y-113990976D01*
X140229234Y-113976923D01*
X140266299Y-114014364D01*
G37*
G36*
X140921179Y-117943646D02*
G01*
X140943397Y-118036927D01*
X140957759Y-118177532D01*
X140955591Y-118242496D01*
X140945553Y-118241814D01*
X140921179Y-118154143D01*
X140896804Y-118034477D01*
X140884599Y-117920258D01*
X140885012Y-117890584D01*
X140894669Y-117873508D01*
X140921179Y-117943646D01*
G37*
G36*
X140990449Y-118347515D02*
G01*
X141014734Y-118434806D01*
X141038442Y-118557662D01*
X141050442Y-118692081D01*
X141048804Y-118756206D01*
X141039018Y-118755984D01*
X141014734Y-118668692D01*
X140991025Y-118545836D01*
X140979025Y-118411418D01*
X140980664Y-118347293D01*
X140990449Y-118347515D01*
G37*
G36*
X134961699Y-119862436D02*
G01*
X134952710Y-119908257D01*
X134910314Y-120001841D01*
X134903534Y-120014760D01*
X134849282Y-120105162D01*
X134814357Y-120142173D01*
X134812151Y-120141247D01*
X134821140Y-120095425D01*
X134863537Y-120001841D01*
X134870316Y-119988923D01*
X134924568Y-119898521D01*
X134959493Y-119861510D01*
X134961699Y-119862436D01*
G37*
G36*
X140725656Y-117059767D02*
G01*
X140758526Y-117171823D01*
X140778212Y-117253857D01*
X140806805Y-117400292D01*
X140817578Y-117499263D01*
X140811543Y-117516799D01*
X140789262Y-117470988D01*
X140756393Y-117358932D01*
X140736706Y-117276898D01*
X140708113Y-117130463D01*
X140697341Y-117031491D01*
X140703375Y-117013956D01*
X140725656Y-117059767D01*
G37*
G36*
X137215408Y-114366098D02*
G01*
X137304509Y-114379873D01*
X137342839Y-114425412D01*
X137357716Y-114521672D01*
X137358074Y-114525508D01*
X137360498Y-114654093D01*
X137346450Y-114746574D01*
X137337533Y-114762860D01*
X137265910Y-114798521D01*
X137120963Y-114800592D01*
X136921732Y-114786188D01*
X136921732Y-114575690D01*
X136921732Y-114365193D01*
X137132229Y-114365193D01*
X137215408Y-114366098D01*
G37*
G36*
X137308962Y-113196669D02*
G01*
X137398063Y-113210444D01*
X137436393Y-113255983D01*
X137451271Y-113352243D01*
X137451628Y-113356079D01*
X137454052Y-113484664D01*
X137440004Y-113577145D01*
X137431087Y-113593431D01*
X137359464Y-113629092D01*
X137214517Y-113631163D01*
X137015286Y-113616758D01*
X137015286Y-113406261D01*
X137015286Y-113195764D01*
X137225783Y-113195764D01*
X137308962Y-113196669D01*
G37*
G36*
X138567824Y-112809160D02*
G01*
X138671132Y-112858751D01*
X138782553Y-112967517D01*
X138961235Y-113181591D01*
X139094256Y-113379954D01*
X139167806Y-113553307D01*
X139190424Y-113717352D01*
X139190424Y-113920810D01*
X138962266Y-113920810D01*
X138944130Y-113920678D01*
X138771982Y-113900946D01*
X138675397Y-113850067D01*
X138668501Y-113842170D01*
X138610161Y-113810268D01*
X138542600Y-113842473D01*
X138456977Y-113946237D01*
X138344454Y-114129009D01*
X138311819Y-114186693D01*
X138269203Y-114271830D01*
X138240339Y-114357033D01*
X138222535Y-114460999D01*
X138213097Y-114602425D01*
X138209330Y-114800010D01*
X138208543Y-115072451D01*
X138209062Y-115199333D01*
X138219617Y-115543295D01*
X138246805Y-115823459D01*
X138294627Y-116061858D01*
X138367087Y-116280520D01*
X138468187Y-116501477D01*
X138504539Y-116561618D01*
X138597937Y-116683777D01*
X138714722Y-116814963D01*
X138834767Y-116934396D01*
X138937947Y-117021296D01*
X139004137Y-117054880D01*
X139020690Y-117070662D01*
X139041826Y-117155345D01*
X139050093Y-117288766D01*
X139050093Y-117522652D01*
X138824702Y-117522652D01*
X138814904Y-117522643D01*
X138708623Y-117518445D01*
X138625394Y-117497641D01*
X138543582Y-117447205D01*
X138441551Y-117354111D01*
X138297665Y-117205331D01*
X138162154Y-117058285D01*
X138060837Y-116930002D01*
X137984894Y-116799698D01*
X137917375Y-116638041D01*
X137841328Y-116415697D01*
X137807020Y-116307925D01*
X137744306Y-116081534D01*
X137699436Y-115858785D01*
X137666592Y-115607280D01*
X137639955Y-115294621D01*
X137621273Y-115035955D01*
X137602249Y-114753062D01*
X137592600Y-114535889D01*
X137594470Y-114368482D01*
X137610003Y-114234887D01*
X137641344Y-114119148D01*
X137690638Y-114005312D01*
X137760027Y-113877424D01*
X137851658Y-113719529D01*
X137940720Y-113560502D01*
X138039102Y-113369990D01*
X138111372Y-113212497D01*
X138146192Y-113111426D01*
X138176192Y-112980198D01*
X138229234Y-112866076D01*
X138312662Y-112811890D01*
X138445064Y-112798158D01*
X138567824Y-112809160D01*
G37*
G36*
X137972023Y-110357345D02*
G01*
X138042492Y-110448611D01*
X138143528Y-110602920D01*
X138269021Y-110809692D01*
X138412859Y-111058348D01*
X138568933Y-111338308D01*
X138731131Y-111638993D01*
X138893343Y-111949824D01*
X139049458Y-112260221D01*
X139250496Y-112677779D01*
X139607798Y-113472949D01*
X139918530Y-114239011D01*
X140174374Y-114956032D01*
X140189762Y-115003749D01*
X140245899Y-115187966D01*
X140312384Y-115417335D01*
X140384690Y-115674974D01*
X140458292Y-115944002D01*
X140528662Y-116207534D01*
X140591273Y-116448689D01*
X140641600Y-116650585D01*
X140675116Y-116796337D01*
X140687293Y-116869064D01*
X140686942Y-116887147D01*
X140675778Y-116917213D01*
X140648857Y-116855982D01*
X140606080Y-116703165D01*
X140547349Y-116458471D01*
X140521923Y-116351027D01*
X140421748Y-115966357D01*
X140300188Y-115542792D01*
X140167230Y-115112977D01*
X140032860Y-114709562D01*
X139907065Y-114365193D01*
X139861327Y-114247911D01*
X139786031Y-114058062D01*
X139718136Y-113893788D01*
X139645811Y-113727543D01*
X139557226Y-113531781D01*
X139440550Y-113278955D01*
X139422218Y-113239055D01*
X139351907Y-113078709D01*
X139302583Y-112954398D01*
X139283979Y-112890283D01*
X139280422Y-112872969D01*
X139237737Y-112867993D01*
X139216084Y-112872263D01*
X139219353Y-112823976D01*
X139225808Y-112785470D01*
X139192668Y-112751381D01*
X139173740Y-112748051D01*
X139164705Y-112708375D01*
X139164151Y-112664120D01*
X139114039Y-112588124D01*
X139104566Y-112577885D01*
X139036242Y-112473145D01*
X138976013Y-112338773D01*
X138962625Y-112304037D01*
X138911002Y-112210243D01*
X138865720Y-112178361D01*
X138833170Y-112157728D01*
X138816207Y-112075873D01*
X138805477Y-111997191D01*
X138768667Y-111932309D01*
X138753811Y-111919869D01*
X138745009Y-111864284D01*
X138749297Y-111845028D01*
X138708123Y-111802321D01*
X138689913Y-111789297D01*
X138634832Y-111707298D01*
X138582321Y-111581952D01*
X138563140Y-111529274D01*
X138508311Y-111417526D01*
X138459204Y-111362613D01*
X138435961Y-111346193D01*
X138425171Y-111277646D01*
X138419939Y-111215453D01*
X138363746Y-111128627D01*
X138341942Y-111104017D01*
X138262490Y-110989247D01*
X138185787Y-110849891D01*
X138163268Y-110805435D01*
X138088788Y-110700949D01*
X138022067Y-110682226D01*
X137976960Y-110689666D01*
X138006249Y-110646990D01*
X138014147Y-110637861D01*
X138033974Y-110570816D01*
X137988218Y-110474925D01*
X137944158Y-110390193D01*
X137939332Y-110338262D01*
X137972023Y-110357345D01*
G37*
G36*
X136499710Y-118188975D02*
G01*
X136679910Y-118226175D01*
X136946503Y-118331779D01*
X137247589Y-118503746D01*
X137586482Y-118744481D01*
X137966499Y-119056389D01*
X138390954Y-119441875D01*
X138863162Y-119903342D01*
X139196627Y-120243662D01*
X139607689Y-120678704D01*
X140010048Y-121123990D01*
X140418668Y-121596542D01*
X140848513Y-122113381D01*
X141314550Y-122691528D01*
X141426411Y-122831936D01*
X141606567Y-123056840D01*
X141740955Y-123221595D01*
X141837624Y-123335031D01*
X141904625Y-123405976D01*
X141950010Y-123443260D01*
X141981827Y-123455712D01*
X142008129Y-123452159D01*
X142035624Y-123434587D01*
X142071062Y-123348528D01*
X142077229Y-123190818D01*
X142054081Y-122955739D01*
X142001572Y-122637567D01*
X141997078Y-122613309D01*
X141942499Y-122306018D01*
X141892018Y-122000022D01*
X141847753Y-121710444D01*
X141811818Y-121452409D01*
X141786328Y-121241039D01*
X141773400Y-121091457D01*
X141775147Y-121018786D01*
X141779210Y-121014376D01*
X141796700Y-121058049D01*
X141820022Y-121170785D01*
X141845277Y-121334991D01*
X141857011Y-121419374D01*
X141901064Y-121710720D01*
X141953414Y-122028632D01*
X142009782Y-122349268D01*
X142065887Y-122648790D01*
X142117450Y-122903359D01*
X142160190Y-123089134D01*
X142193303Y-123226212D01*
X142203400Y-123318062D01*
X142183145Y-123375652D01*
X142129925Y-123428269D01*
X142059562Y-123483270D01*
X142012185Y-123510129D01*
X142006177Y-123509892D01*
X141906179Y-123464246D01*
X141776821Y-123347142D01*
X141630430Y-123169578D01*
X141606775Y-123137724D01*
X141409633Y-122880695D01*
X141164882Y-122572892D01*
X140885968Y-122230400D01*
X140586336Y-121869302D01*
X140279432Y-121505683D01*
X139978700Y-121155629D01*
X139697587Y-120835223D01*
X139449536Y-120560551D01*
X139084894Y-120173974D01*
X138630647Y-119719514D01*
X138200242Y-119319702D01*
X137797909Y-118977701D01*
X137427873Y-118696674D01*
X137094365Y-118479785D01*
X136801611Y-118330196D01*
X136553840Y-118251071D01*
X136355279Y-118245573D01*
X136287200Y-118265176D01*
X136103673Y-118373644D01*
X135894419Y-118568864D01*
X135658629Y-118851657D01*
X135395496Y-119222846D01*
X135357382Y-119279992D01*
X135199894Y-119515013D01*
X135088799Y-119678229D01*
X135020119Y-119775048D01*
X134989874Y-119810874D01*
X134994086Y-119791115D01*
X135028776Y-119721178D01*
X135076026Y-119633446D01*
X135234467Y-119367578D01*
X135416252Y-119094764D01*
X135607888Y-118832894D01*
X135795880Y-118599854D01*
X135966736Y-118413533D01*
X136106962Y-118291820D01*
X136222355Y-118221054D01*
X136345916Y-118184186D01*
X136499710Y-118188975D01*
G37*
G36*
X133601830Y-122416945D02*
G01*
X133676768Y-122384485D01*
X133735399Y-122354495D01*
X133761026Y-122351995D01*
X133723463Y-122403207D01*
X133634848Y-122461583D01*
X133492288Y-122477827D01*
X133344576Y-122434948D01*
X133311970Y-122412705D01*
X133310916Y-122410865D01*
X133436833Y-122410865D01*
X133460222Y-122434254D01*
X133483610Y-122410865D01*
X133460222Y-122387477D01*
X133436833Y-122410865D01*
X133310916Y-122410865D01*
X133281190Y-122358969D01*
X133272710Y-122261481D01*
X133282025Y-122095814D01*
X133302939Y-121878645D01*
X133351145Y-121491602D01*
X133418049Y-121036191D01*
X133501353Y-120525763D01*
X133598756Y-119973669D01*
X133707962Y-119393263D01*
X133826670Y-118797896D01*
X133952583Y-118200921D01*
X134073812Y-117671028D01*
X134316446Y-116745648D01*
X134600700Y-115816464D01*
X134930562Y-114872984D01*
X135310021Y-113904716D01*
X135743063Y-112901168D01*
X136233675Y-111851850D01*
X136785847Y-110746269D01*
X136996478Y-110339168D01*
X137177908Y-109995781D01*
X137326923Y-109723595D01*
X137447586Y-109515923D01*
X137543966Y-109366078D01*
X137620127Y-109267374D01*
X137680135Y-109213122D01*
X137728057Y-109196636D01*
X137791966Y-109221627D01*
X137896710Y-109330609D01*
X138020194Y-109521851D01*
X138159088Y-109790761D01*
X138159690Y-109792026D01*
X138224033Y-109919891D01*
X138324532Y-110110783D01*
X138451424Y-110346553D01*
X138594940Y-110609055D01*
X138745317Y-110880140D01*
X138927388Y-111210699D01*
X139123693Y-111576966D01*
X139317186Y-111947186D01*
X139503231Y-112311779D01*
X139677192Y-112661165D01*
X139834432Y-112985762D01*
X139970314Y-113275990D01*
X140080203Y-113522269D01*
X140159462Y-113715018D01*
X140203454Y-113844657D01*
X140207543Y-113901604D01*
X140186004Y-113877984D01*
X140139940Y-113787845D01*
X140081070Y-113651268D01*
X140028777Y-113526326D01*
X139894645Y-113227959D01*
X139727195Y-112876140D01*
X139535626Y-112489019D01*
X139329137Y-112084743D01*
X139116926Y-111681459D01*
X138908191Y-111297316D01*
X138712131Y-110950460D01*
X138682091Y-110898625D01*
X138466107Y-110527170D01*
X138290646Y-110228649D01*
X138150690Y-109995563D01*
X138041218Y-109820414D01*
X137957209Y-109695703D01*
X137893645Y-109613933D01*
X137845504Y-109567605D01*
X137807768Y-109549220D01*
X137775415Y-109551280D01*
X137752259Y-109556926D01*
X137705397Y-109537409D01*
X137691999Y-109445049D01*
X137690442Y-109313259D01*
X137596398Y-109426217D01*
X137595571Y-109427214D01*
X137537093Y-109525570D01*
X137527253Y-109604061D01*
X137533723Y-109633283D01*
X137507903Y-109641600D01*
X137492191Y-109640820D01*
X137439826Y-109685677D01*
X137383618Y-109768317D01*
X137344857Y-109853972D01*
X137344835Y-109907879D01*
X137345576Y-109918989D01*
X137326727Y-109979096D01*
X137279550Y-110094389D01*
X137201863Y-110269650D01*
X137091482Y-110509661D01*
X136946224Y-110819206D01*
X136763907Y-111203068D01*
X136542347Y-111666030D01*
X136508764Y-111736356D01*
X136285837Y-112218242D01*
X136050773Y-112749397D01*
X135812693Y-113307725D01*
X135580720Y-113871134D01*
X135363976Y-114417528D01*
X135171583Y-114924816D01*
X135012664Y-115370902D01*
X134946981Y-115568928D01*
X134800646Y-116045364D01*
X134652244Y-116572588D01*
X134504468Y-117137853D01*
X134360011Y-117728415D01*
X134221565Y-118331531D01*
X134091823Y-118934454D01*
X133973478Y-119524440D01*
X133869224Y-120088746D01*
X133781753Y-120614625D01*
X133713758Y-121089334D01*
X133667932Y-121500128D01*
X133646967Y-121834262D01*
X133641110Y-121994331D01*
X133629435Y-122182479D01*
X133615067Y-122321251D01*
X133599883Y-122388561D01*
X133595906Y-122395389D01*
X133600159Y-122410865D01*
X133601830Y-122416945D01*
G37*
G36*
X141723896Y-121245680D02*
G01*
X141772288Y-121613860D01*
X141814780Y-121945299D01*
X141847697Y-122212062D01*
X141861824Y-122331098D01*
X141887987Y-122556687D01*
X141908167Y-122737790D01*
X141920590Y-122858279D01*
X141923485Y-122902026D01*
X141919373Y-122898058D01*
X141871466Y-122842798D01*
X141778646Y-122732587D01*
X141651785Y-122580390D01*
X141501758Y-122399171D01*
X141102369Y-121923447D01*
X140652957Y-121405869D01*
X140200986Y-120902565D01*
X139754817Y-120422205D01*
X139322811Y-119973461D01*
X138913330Y-119565001D01*
X138534735Y-119205497D01*
X138195386Y-118903618D01*
X137903646Y-118668035D01*
X137813918Y-118601922D01*
X137463259Y-118369985D01*
X137127295Y-118188302D01*
X136820922Y-118064218D01*
X136559038Y-118005077D01*
X136509671Y-118000366D01*
X136354386Y-117997238D01*
X136231479Y-118026237D01*
X136093827Y-118096639D01*
X136007639Y-118151824D01*
X135782666Y-118337701D01*
X135544519Y-118593564D01*
X135290338Y-118923303D01*
X135017261Y-119330804D01*
X134722428Y-119819956D01*
X134402977Y-120394649D01*
X134306915Y-120575786D01*
X134165255Y-120851249D01*
X134035072Y-121113614D01*
X133927662Y-121339971D01*
X133854319Y-121507415D01*
X133825751Y-121576975D01*
X133760182Y-121726182D01*
X133710171Y-121825328D01*
X133684777Y-121855801D01*
X133682090Y-121820686D01*
X133691178Y-121704464D01*
X133712345Y-121521029D01*
X133743588Y-121284352D01*
X133782903Y-121008406D01*
X133828287Y-120707161D01*
X133877737Y-120394588D01*
X133929249Y-120084659D01*
X133980820Y-119791344D01*
X134065061Y-119340953D01*
X134139985Y-118981227D01*
X134569836Y-118981227D01*
X134570961Y-119083899D01*
X134603578Y-119109906D01*
X134668493Y-119062367D01*
X134766508Y-118944402D01*
X134898429Y-118759132D01*
X135006317Y-118610014D01*
X135214815Y-118354592D01*
X135442214Y-118108317D01*
X135671095Y-117888546D01*
X135884040Y-117712639D01*
X136063632Y-117597952D01*
X136109007Y-117576451D01*
X136404044Y-117489333D01*
X136718726Y-117487238D01*
X137063364Y-117569876D01*
X137210249Y-117624609D01*
X137578758Y-117797320D01*
X137966052Y-118028685D01*
X138375985Y-118321981D01*
X138812411Y-118680485D01*
X139279186Y-119107475D01*
X139780164Y-119606229D01*
X140319199Y-120180024D01*
X140900147Y-120832136D01*
X140977187Y-120919554D01*
X141135653Y-121092836D01*
X141270859Y-121232047D01*
X141370439Y-121324718D01*
X141422026Y-121358379D01*
X141429356Y-121358173D01*
X141476133Y-121340083D01*
X141504549Y-121284978D01*
X141514811Y-121181874D01*
X141507127Y-121019787D01*
X141481704Y-120787732D01*
X141438751Y-120474725D01*
X141429736Y-120412691D01*
X141304030Y-119602449D01*
X141164959Y-118797585D01*
X141015256Y-118010670D01*
X140857650Y-117254275D01*
X140694874Y-116540971D01*
X140529657Y-115883331D01*
X140364731Y-115293926D01*
X140202826Y-114785326D01*
X140151333Y-114637579D01*
X139864321Y-113873745D01*
X139539982Y-113096545D01*
X139190367Y-112332550D01*
X138827529Y-111608331D01*
X138463518Y-110950460D01*
X138401981Y-110845677D01*
X138259854Y-110608110D01*
X138152617Y-110438962D01*
X138072619Y-110328371D01*
X138012208Y-110266477D01*
X137963733Y-110243417D01*
X137919544Y-110249331D01*
X137901745Y-110264932D01*
X137840424Y-110355986D01*
X137748482Y-110519210D01*
X137630272Y-110745472D01*
X137490147Y-111025637D01*
X137332459Y-111350574D01*
X137161562Y-111711149D01*
X136981806Y-112098229D01*
X136797545Y-112502681D01*
X136613132Y-112915372D01*
X136432919Y-113327169D01*
X136261259Y-113728939D01*
X136192514Y-113891788D01*
X136084935Y-114145628D01*
X135988027Y-114373133D01*
X135910307Y-114554330D01*
X135860292Y-114669245D01*
X135777426Y-114870934D01*
X135667601Y-115167124D01*
X135543140Y-115526028D01*
X135408678Y-115933022D01*
X135268848Y-116373484D01*
X135128286Y-116832790D01*
X134991624Y-117296315D01*
X134863498Y-117749437D01*
X134748540Y-118177532D01*
X134747375Y-118182012D01*
X134658847Y-118533403D01*
X134599399Y-118798768D01*
X134569836Y-118981227D01*
X134139985Y-118981227D01*
X134299984Y-118213040D01*
X134557390Y-117157375D01*
X134841568Y-116159587D01*
X135156809Y-115205307D01*
X135507400Y-114280166D01*
X135897631Y-113369792D01*
X135945786Y-113261556D01*
X135991798Y-113152625D01*
X136009577Y-113102379D01*
X136019680Y-113066225D01*
X136067083Y-112951924D01*
X136147890Y-112774911D01*
X136256118Y-112547060D01*
X136385783Y-112280248D01*
X136530900Y-111986350D01*
X136685486Y-111677241D01*
X136843556Y-111364795D01*
X136999126Y-111060889D01*
X137146212Y-110777398D01*
X137278830Y-110526196D01*
X137390996Y-110319160D01*
X137476726Y-110168163D01*
X137530035Y-110085083D01*
X137544234Y-110065871D01*
X137611236Y-109965719D01*
X137689653Y-109839508D01*
X137713748Y-109798927D01*
X137759256Y-109713146D01*
X137756943Y-109683905D01*
X137709061Y-109694367D01*
X137700070Y-109697488D01*
X137651457Y-109705668D01*
X137678716Y-109664762D01*
X137714865Y-109638127D01*
X137797347Y-109629180D01*
X137806669Y-109635434D01*
X137865618Y-109703159D01*
X137958874Y-109831169D01*
X138075647Y-110004178D01*
X138205147Y-110206900D01*
X138225408Y-110239507D01*
X138709709Y-111054164D01*
X139167267Y-111890869D01*
X139589799Y-112732394D01*
X139969022Y-113561513D01*
X140296652Y-114361000D01*
X140564408Y-115113628D01*
X140570100Y-115131219D01*
X140647372Y-115382682D01*
X140725688Y-115657912D01*
X140800335Y-115938029D01*
X140866599Y-116204155D01*
X140919766Y-116437414D01*
X140955123Y-116618927D01*
X140967956Y-116729816D01*
X140978129Y-116786507D01*
X141021961Y-116793139D01*
X141047063Y-116781944D01*
X141044271Y-116811045D01*
X141041714Y-116827277D01*
X141048011Y-116923428D01*
X141069092Y-117091222D01*
X141102929Y-117316746D01*
X141147495Y-117586085D01*
X141200763Y-117885324D01*
X141224096Y-118013009D01*
X141276857Y-118308419D01*
X141322295Y-118572118D01*
X141357911Y-118789051D01*
X141381202Y-118944161D01*
X141389667Y-119022392D01*
X141390137Y-119046371D01*
X141401504Y-119099373D01*
X141433236Y-119068729D01*
X141446936Y-119053522D01*
X141460280Y-119087432D01*
X141452182Y-119209061D01*
X141442127Y-119329625D01*
X141451474Y-119372570D01*
X141483192Y-119346961D01*
X141497209Y-119329422D01*
X141523169Y-119308652D01*
X141507850Y-119368883D01*
X141505154Y-119389209D01*
X141508064Y-119496185D01*
X141522636Y-119674640D01*
X141547378Y-119909839D01*
X141580800Y-120187048D01*
X141621413Y-120491535D01*
X141624105Y-120510840D01*
X141673277Y-120868695D01*
X141715329Y-121181874D01*
X141723896Y-121245680D01*
G37*
D12*
X84690000Y-121200000D02*
X85380000Y-121200000D01*
X95310000Y-121200000D02*
X94620000Y-121200000D01*
X85380000Y-122920000D02*
X94620000Y-122920000D01*
X94620000Y-119480000D01*
X85380000Y-119480000D01*
X85380000Y-122920000D01*
X89050000Y-169290000D02*
X89050000Y-169980000D01*
X89050000Y-179910000D02*
X89050000Y-179220000D01*
X87330000Y-169980000D02*
X90770000Y-169980000D01*
X90770000Y-179220000D01*
X87330000Y-179220000D01*
X87330000Y-169980000D01*
X76170000Y-159430000D02*
X76170000Y-160170000D01*
X76210000Y-159263000D02*
X76210000Y-160337000D01*
X76250000Y-159137000D02*
X76250000Y-160463000D01*
X76290000Y-159032000D02*
X76290000Y-160568000D01*
X76330000Y-158941000D02*
X76330000Y-160659000D01*
X76370000Y-158860000D02*
X76370000Y-160740000D01*
X76410000Y-158787000D02*
X76410000Y-160813000D01*
X76450000Y-158720000D02*
X76450000Y-160880000D01*
X76490000Y-158658000D02*
X76490000Y-160942000D01*
X76530000Y-158601000D02*
X76530000Y-160999000D01*
X76570000Y-158547000D02*
X76570000Y-161053000D01*
X76610000Y-158497000D02*
X76610000Y-161103000D01*
X76650000Y-158449000D02*
X76650000Y-161151000D01*
X76690000Y-158404000D02*
X76690000Y-158960000D01*
X76690000Y-160640000D02*
X76690000Y-161196000D01*
X76730000Y-158362000D02*
X76730000Y-158960000D01*
X76730000Y-160640000D02*
X76730000Y-161238000D01*
X76770000Y-158322000D02*
X76770000Y-158960000D01*
X76770000Y-160640000D02*
X76770000Y-161278000D01*
X76810000Y-158284000D02*
X76810000Y-158960000D01*
X76810000Y-160640000D02*
X76810000Y-161316000D01*
X76850000Y-158248000D02*
X76850000Y-158960000D01*
X76850000Y-160640000D02*
X76850000Y-161352000D01*
X76890000Y-158214000D02*
X76890000Y-158960000D01*
X76890000Y-160640000D02*
X76890000Y-161386000D01*
X76930000Y-158181000D02*
X76930000Y-158960000D01*
X76930000Y-160640000D02*
X76930000Y-161419000D01*
X76970000Y-158150000D02*
X76970000Y-158960000D01*
X76970000Y-160640000D02*
X76970000Y-161450000D01*
X77010000Y-158120000D02*
X77010000Y-158960000D01*
X77010000Y-160640000D02*
X77010000Y-161480000D01*
X77050000Y-158092000D02*
X77050000Y-158960000D01*
X77050000Y-160640000D02*
X77050000Y-161508000D01*
X77090000Y-158066000D02*
X77090000Y-158960000D01*
X77090000Y-160640000D02*
X77090000Y-161534000D01*
X77130000Y-158040000D02*
X77130000Y-158960000D01*
X77130000Y-160640000D02*
X77130000Y-161560000D01*
X77170000Y-158016000D02*
X77170000Y-158960000D01*
X77170000Y-160640000D02*
X77170000Y-161584000D01*
X77210000Y-157993000D02*
X77210000Y-158960000D01*
X77210000Y-160640000D02*
X77210000Y-161607000D01*
X77250000Y-157971000D02*
X77250000Y-158960000D01*
X77250000Y-160640000D02*
X77250000Y-161629000D01*
X77290000Y-157950000D02*
X77290000Y-158960000D01*
X77290000Y-160640000D02*
X77290000Y-161650000D01*
X77330000Y-157930000D02*
X77330000Y-158960000D01*
X77330000Y-160640000D02*
X77330000Y-161670000D01*
X77370000Y-157911000D02*
X77370000Y-158960000D01*
X77370000Y-160640000D02*
X77370000Y-161689000D01*
X77410000Y-157894000D02*
X77410000Y-158960000D01*
X77410000Y-160640000D02*
X77410000Y-161706000D01*
X77450000Y-157877000D02*
X77450000Y-158960000D01*
X77450000Y-160640000D02*
X77450000Y-161723000D01*
X77490000Y-157861000D02*
X77490000Y-158960000D01*
X77490000Y-160640000D02*
X77490000Y-161739000D01*
X77530000Y-157846000D02*
X77530000Y-158960000D01*
X77530000Y-160640000D02*
X77530000Y-161754000D01*
X77570000Y-157832000D02*
X77570000Y-158960000D01*
X77570000Y-160640000D02*
X77570000Y-161768000D01*
X77610000Y-157819000D02*
X77610000Y-158960000D01*
X77610000Y-160640000D02*
X77610000Y-161781000D01*
X77650000Y-157807000D02*
X77650000Y-158960000D01*
X77650000Y-160640000D02*
X77650000Y-161793000D01*
X77690000Y-157795000D02*
X77690000Y-158960000D01*
X77690000Y-160640000D02*
X77690000Y-161805000D01*
X77730000Y-157785000D02*
X77730000Y-158960000D01*
X77730000Y-160640000D02*
X77730000Y-161815000D01*
X77770000Y-157775000D02*
X77770000Y-158960000D01*
X77770000Y-160640000D02*
X77770000Y-161825000D01*
X77810000Y-157766000D02*
X77810000Y-158960000D01*
X77810000Y-160640000D02*
X77810000Y-161834000D01*
X77850000Y-157758000D02*
X77850000Y-158960000D01*
X77850000Y-160640000D02*
X77850000Y-161842000D01*
X77890000Y-157751000D02*
X77890000Y-158960000D01*
X77890000Y-160640000D02*
X77890000Y-161849000D01*
X77930000Y-157744000D02*
X77930000Y-158960000D01*
X77930000Y-160640000D02*
X77930000Y-161856000D01*
X77970000Y-157739000D02*
X77970000Y-158960000D01*
X77970000Y-160640000D02*
X77970000Y-161861000D01*
X78010000Y-157734000D02*
X78010000Y-158960000D01*
X78010000Y-160640000D02*
X78010000Y-161866000D01*
X78050000Y-157729000D02*
X78050000Y-158960000D01*
X78050000Y-160640000D02*
X78050000Y-161871000D01*
X78090000Y-157726000D02*
X78090000Y-158960000D01*
X78090000Y-160640000D02*
X78090000Y-161874000D01*
X78130000Y-157723000D02*
X78130000Y-158960000D01*
X78130000Y-160640000D02*
X78130000Y-161877000D01*
X78170000Y-157722000D02*
X78170000Y-158960000D01*
X78170000Y-160640000D02*
X78170000Y-161878000D01*
X78210000Y-157720000D02*
X78210000Y-158960000D01*
X78210000Y-160640000D02*
X78210000Y-161880000D01*
X78250000Y-157720000D02*
X78250000Y-158960000D01*
X78250000Y-160640000D02*
X78250000Y-161880000D01*
X80319801Y-158405000D02*
X80319801Y-158805000D01*
X80519801Y-158605000D02*
X80119801Y-158605000D01*
X80370000Y-159800000D02*
G75*
G02*
X76130000Y-159800000I-2120000J0D01*
G01*
X76130000Y-159800000D02*
G75*
G02*
X80370000Y-159800000I2120000J0D01*
G01*
X119030000Y-148370000D02*
X119030000Y-143130000D01*
X121770000Y-143130000D02*
X119030000Y-143130000D01*
X121770000Y-148370000D02*
X119030000Y-148370000D01*
X121770000Y-148370000D02*
X121770000Y-143130000D01*
X71490000Y-181600000D02*
X72180000Y-181600000D01*
X82110000Y-181600000D02*
X81420000Y-181600000D01*
X81420000Y-179880000D02*
X72180000Y-179880000D01*
X72180000Y-183320000D01*
X81420000Y-183320000D01*
X81420000Y-179880000D01*
X52830000Y-138620000D02*
X52830000Y-133380000D01*
X55570000Y-133380000D02*
X52830000Y-133380000D01*
X55570000Y-138620000D02*
X52830000Y-138620000D01*
X55570000Y-138620000D02*
X55570000Y-133380000D01*
X98340000Y-169600000D02*
X99030000Y-169600000D01*
X108960000Y-169600000D02*
X108270000Y-169600000D01*
X108270000Y-167880000D02*
X99030000Y-167880000D01*
X99030000Y-171320000D01*
X108270000Y-171320000D01*
X108270000Y-167880000D01*
X106340000Y-159800000D02*
X107030000Y-159800000D01*
X116960000Y-159800000D02*
X116270000Y-159800000D01*
X116270000Y-158080000D02*
X107030000Y-158080000D01*
X107030000Y-161520000D01*
X116270000Y-161520000D01*
X116270000Y-158080000D01*
X53940000Y-185200000D02*
X54630000Y-185200000D01*
X64560000Y-185200000D02*
X63870000Y-185200000D01*
X63870000Y-183480000D02*
X54630000Y-183480000D01*
X54630000Y-186920000D01*
X63870000Y-186920000D01*
X63870000Y-183480000D01*
X94000000Y-153490000D02*
X94000000Y-154180000D01*
X94000000Y-164110000D02*
X94000000Y-163420000D01*
X92280000Y-154180000D02*
X95720000Y-154180000D01*
X95720000Y-163420000D01*
X92280000Y-163420000D01*
X92280000Y-154180000D01*
X103340000Y-121200000D02*
X104030000Y-121200000D01*
X113960000Y-121200000D02*
X113270000Y-121200000D01*
X113270000Y-119480000D02*
X104030000Y-119480000D01*
X104030000Y-122920000D01*
X113270000Y-122920000D01*
X113270000Y-119480000D01*
X108130000Y-132030000D02*
X108130000Y-134770000D01*
X113370000Y-132030000D02*
X108130000Y-132030000D01*
X113370000Y-132030000D02*
X113370000Y-134770000D01*
X113370000Y-134770000D02*
X108130000Y-134770000D01*
X130090000Y-156400000D02*
X130780000Y-156400000D01*
X140710000Y-156400000D02*
X140020000Y-156400000D01*
X140020000Y-154680000D02*
X130780000Y-154680000D01*
X130780000Y-158120000D01*
X140020000Y-158120000D01*
X140020000Y-154680000D01*
X83380000Y-167600000D02*
X83380000Y-171200000D01*
X79080000Y-168580000D02*
G75*
G02*
X83372156Y-167588547I2450000J-820000D01*
G01*
X83357684Y-171208445D02*
G75*
G02*
X79080000Y-170180000I-1827684J1808445D01*
G01*
X55340000Y-166800000D02*
X56030000Y-166800000D01*
X65960000Y-166800000D02*
X65270000Y-166800000D01*
X65270000Y-165080000D02*
X56030000Y-165080000D01*
X56030000Y-168520000D01*
X65270000Y-168520000D01*
X65270000Y-165080000D01*
X49000000Y-162640000D02*
X49000000Y-163330000D01*
X49000000Y-173260000D02*
X49000000Y-172570000D01*
X47280000Y-163330000D02*
X50720000Y-163330000D01*
X50720000Y-172570000D01*
X47280000Y-172570000D01*
X47280000Y-163330000D01*
X124690000Y-131400000D02*
X125380000Y-131400000D01*
X135310000Y-131400000D02*
X134620000Y-131400000D01*
X134620000Y-129680000D02*
X125380000Y-129680000D01*
X125380000Y-133120000D01*
X134620000Y-133120000D01*
X134620000Y-129680000D01*
X82930000Y-157030000D02*
X82930000Y-159770000D01*
X88170000Y-157030000D02*
X82930000Y-157030000D01*
X88170000Y-157030000D02*
X88170000Y-159770000D01*
X88170000Y-159770000D02*
X82930000Y-159770000D01*
X91040000Y-133600000D02*
X91730000Y-133600000D01*
X101660000Y-133600000D02*
X100970000Y-133600000D01*
X100970000Y-131880000D02*
X91730000Y-131880000D01*
X91730000Y-135320000D01*
X100970000Y-135320000D01*
X100970000Y-131880000D01*
X122330000Y-153550000D02*
X125930000Y-153550000D01*
X123310000Y-157850000D02*
G75*
G02*
X122318547Y-153557844I820000J2450000D01*
G01*
X125938445Y-153572316D02*
G75*
G02*
X124910000Y-157850000I-1808445J-1827684D01*
G01*
X130090000Y-162800000D02*
X130780000Y-162800000D01*
X140710000Y-162800000D02*
X140020000Y-162800000D01*
X140020000Y-161080000D02*
X130780000Y-161080000D01*
X130780000Y-164520000D01*
X140020000Y-164520000D01*
X140020000Y-161080000D01*
X73600000Y-165690000D02*
X73600000Y-166380000D01*
X73600000Y-176310000D02*
X73600000Y-175620000D01*
X71880000Y-166380000D02*
X75320000Y-166380000D01*
X75320000Y-175620000D01*
X71880000Y-175620000D01*
X71880000Y-166380000D01*
X148000000Y-149690000D02*
X148000000Y-150380000D01*
X148000000Y-160310000D02*
X148000000Y-159620000D01*
X149720000Y-159620000D02*
X146280000Y-159620000D01*
X146280000Y-150380000D01*
X149720000Y-150380000D01*
X149720000Y-159620000D01*
X141850000Y-148330000D02*
X141850000Y-151930000D01*
X137550000Y-149310000D02*
G75*
G02*
X141842156Y-148318547I2450000J-820000D01*
G01*
X141827684Y-151938445D02*
G75*
G02*
X137550000Y-150910000I-1827684J1808445D01*
G01*
M02*
