G04 #@! TF.GenerationSoftware,KiCad,Pcbnew,9.0.2*
G04 #@! TF.CreationDate,2025-12-26T22:20:37-06:00*
G04 #@! TF.ProjectId,DE_circuits,44455f63-6972-4637-9569-74732e6b6963,rev?*
G04 #@! TF.SameCoordinates,Original*
G04 #@! TF.FileFunction,Legend,Top*
G04 #@! TF.FilePolarity,Positive*
%FSLAX46Y46*%
G04 Gerber Fmt 4.6, Leading zero omitted, Abs format (unit mm)*
G04 Created by KiCad (PCBNEW 9.0.2) date 2025-12-26 22:20:37*
%MOMM*%
%LPD*%
G01*
G04 APERTURE LIST*
%ADD10C,0.100000*%
%ADD11C,0.150000*%
%ADD12C,0.203200*%
%ADD13C,0.120000*%
G04 APERTURE END LIST*
D10*
X108666667Y-155609800D02*
X108809524Y-155657419D01*
X108809524Y-155657419D02*
X109047619Y-155657419D01*
X109047619Y-155657419D02*
X109142857Y-155609800D01*
X109142857Y-155609800D02*
X109190476Y-155562180D01*
X109190476Y-155562180D02*
X109238095Y-155466942D01*
X109238095Y-155466942D02*
X109238095Y-155371704D01*
X109238095Y-155371704D02*
X109190476Y-155276466D01*
X109190476Y-155276466D02*
X109142857Y-155228847D01*
X109142857Y-155228847D02*
X109047619Y-155181228D01*
X109047619Y-155181228D02*
X108857143Y-155133609D01*
X108857143Y-155133609D02*
X108761905Y-155085990D01*
X108761905Y-155085990D02*
X108714286Y-155038371D01*
X108714286Y-155038371D02*
X108666667Y-154943133D01*
X108666667Y-154943133D02*
X108666667Y-154847895D01*
X108666667Y-154847895D02*
X108714286Y-154752657D01*
X108714286Y-154752657D02*
X108761905Y-154705038D01*
X108761905Y-154705038D02*
X108857143Y-154657419D01*
X108857143Y-154657419D02*
X109095238Y-154657419D01*
X109095238Y-154657419D02*
X109238095Y-154705038D01*
X109571429Y-154657419D02*
X109809524Y-155657419D01*
X109809524Y-155657419D02*
X110000000Y-154943133D01*
X110000000Y-154943133D02*
X110190476Y-155657419D01*
X110190476Y-155657419D02*
X110428572Y-154657419D01*
X111333333Y-155657419D02*
X110761905Y-155657419D01*
X111047619Y-155657419D02*
X111047619Y-154657419D01*
X111047619Y-154657419D02*
X110952381Y-154800276D01*
X110952381Y-154800276D02*
X110857143Y-154895514D01*
X110857143Y-154895514D02*
X110761905Y-154943133D01*
D11*
X97654819Y-150738094D02*
X96654819Y-150738094D01*
X96654819Y-150738094D02*
X96654819Y-150499999D01*
X96654819Y-150499999D02*
X96702438Y-150357142D01*
X96702438Y-150357142D02*
X96797676Y-150261904D01*
X96797676Y-150261904D02*
X96892914Y-150214285D01*
X96892914Y-150214285D02*
X97083390Y-150166666D01*
X97083390Y-150166666D02*
X97226247Y-150166666D01*
X97226247Y-150166666D02*
X97416723Y-150214285D01*
X97416723Y-150214285D02*
X97511961Y-150261904D01*
X97511961Y-150261904D02*
X97607200Y-150357142D01*
X97607200Y-150357142D02*
X97654819Y-150499999D01*
X97654819Y-150499999D02*
X97654819Y-150738094D01*
X96654819Y-149833332D02*
X96654819Y-149214285D01*
X96654819Y-149214285D02*
X97035771Y-149547618D01*
X97035771Y-149547618D02*
X97035771Y-149404761D01*
X97035771Y-149404761D02*
X97083390Y-149309523D01*
X97083390Y-149309523D02*
X97131009Y-149261904D01*
X97131009Y-149261904D02*
X97226247Y-149214285D01*
X97226247Y-149214285D02*
X97464342Y-149214285D01*
X97464342Y-149214285D02*
X97559580Y-149261904D01*
X97559580Y-149261904D02*
X97607200Y-149309523D01*
X97607200Y-149309523D02*
X97654819Y-149404761D01*
X97654819Y-149404761D02*
X97654819Y-149690475D01*
X97654819Y-149690475D02*
X97607200Y-149785713D01*
X97607200Y-149785713D02*
X97559580Y-149833332D01*
X59094819Y-112345238D02*
X58618628Y-112678571D01*
X59094819Y-112916666D02*
X58094819Y-112916666D01*
X58094819Y-112916666D02*
X58094819Y-112535714D01*
X58094819Y-112535714D02*
X58142438Y-112440476D01*
X58142438Y-112440476D02*
X58190057Y-112392857D01*
X58190057Y-112392857D02*
X58285295Y-112345238D01*
X58285295Y-112345238D02*
X58428152Y-112345238D01*
X58428152Y-112345238D02*
X58523390Y-112392857D01*
X58523390Y-112392857D02*
X58571009Y-112440476D01*
X58571009Y-112440476D02*
X58618628Y-112535714D01*
X58618628Y-112535714D02*
X58618628Y-112916666D01*
X58094819Y-112059523D02*
X59094819Y-111726190D01*
X59094819Y-111726190D02*
X58094819Y-111392857D01*
X58190057Y-111107142D02*
X58142438Y-111059523D01*
X58142438Y-111059523D02*
X58094819Y-110964285D01*
X58094819Y-110964285D02*
X58094819Y-110726190D01*
X58094819Y-110726190D02*
X58142438Y-110630952D01*
X58142438Y-110630952D02*
X58190057Y-110583333D01*
X58190057Y-110583333D02*
X58285295Y-110535714D01*
X58285295Y-110535714D02*
X58380533Y-110535714D01*
X58380533Y-110535714D02*
X58523390Y-110583333D01*
X58523390Y-110583333D02*
X59094819Y-111154761D01*
X59094819Y-111154761D02*
X59094819Y-110535714D01*
X57304819Y-159151904D02*
X58114342Y-159151904D01*
X58114342Y-159151904D02*
X58209580Y-159104285D01*
X58209580Y-159104285D02*
X58257200Y-159056666D01*
X58257200Y-159056666D02*
X58304819Y-158961428D01*
X58304819Y-158961428D02*
X58304819Y-158770952D01*
X58304819Y-158770952D02*
X58257200Y-158675714D01*
X58257200Y-158675714D02*
X58209580Y-158628095D01*
X58209580Y-158628095D02*
X58114342Y-158580476D01*
X58114342Y-158580476D02*
X57304819Y-158580476D01*
X58304819Y-157580476D02*
X58304819Y-158151904D01*
X58304819Y-157866190D02*
X57304819Y-157866190D01*
X57304819Y-157866190D02*
X57447676Y-157961428D01*
X57447676Y-157961428D02*
X57542914Y-158056666D01*
X57542914Y-158056666D02*
X57590533Y-158151904D01*
X60609819Y-147338094D02*
X59609819Y-147338094D01*
X59609819Y-147338094D02*
X59609819Y-147099999D01*
X59609819Y-147099999D02*
X59657438Y-146957142D01*
X59657438Y-146957142D02*
X59752676Y-146861904D01*
X59752676Y-146861904D02*
X59847914Y-146814285D01*
X59847914Y-146814285D02*
X60038390Y-146766666D01*
X60038390Y-146766666D02*
X60181247Y-146766666D01*
X60181247Y-146766666D02*
X60371723Y-146814285D01*
X60371723Y-146814285D02*
X60466961Y-146861904D01*
X60466961Y-146861904D02*
X60562200Y-146957142D01*
X60562200Y-146957142D02*
X60609819Y-147099999D01*
X60609819Y-147099999D02*
X60609819Y-147338094D01*
X59705057Y-146385713D02*
X59657438Y-146338094D01*
X59657438Y-146338094D02*
X59609819Y-146242856D01*
X59609819Y-146242856D02*
X59609819Y-146004761D01*
X59609819Y-146004761D02*
X59657438Y-145909523D01*
X59657438Y-145909523D02*
X59705057Y-145861904D01*
X59705057Y-145861904D02*
X59800295Y-145814285D01*
X59800295Y-145814285D02*
X59895533Y-145814285D01*
X59895533Y-145814285D02*
X60038390Y-145861904D01*
X60038390Y-145861904D02*
X60609819Y-146433332D01*
X60609819Y-146433332D02*
X60609819Y-145814285D01*
X123514819Y-145956904D02*
X124324342Y-145956904D01*
X124324342Y-145956904D02*
X124419580Y-145909285D01*
X124419580Y-145909285D02*
X124467200Y-145861666D01*
X124467200Y-145861666D02*
X124514819Y-145766428D01*
X124514819Y-145766428D02*
X124514819Y-145575952D01*
X124514819Y-145575952D02*
X124467200Y-145480714D01*
X124467200Y-145480714D02*
X124419580Y-145433095D01*
X124419580Y-145433095D02*
X124324342Y-145385476D01*
X124324342Y-145385476D02*
X123514819Y-145385476D01*
X123514819Y-145004523D02*
X123514819Y-144385476D01*
X123514819Y-144385476D02*
X123895771Y-144718809D01*
X123895771Y-144718809D02*
X123895771Y-144575952D01*
X123895771Y-144575952D02*
X123943390Y-144480714D01*
X123943390Y-144480714D02*
X123991009Y-144433095D01*
X123991009Y-144433095D02*
X124086247Y-144385476D01*
X124086247Y-144385476D02*
X124324342Y-144385476D01*
X124324342Y-144385476D02*
X124419580Y-144433095D01*
X124419580Y-144433095D02*
X124467200Y-144480714D01*
X124467200Y-144480714D02*
X124514819Y-144575952D01*
X124514819Y-144575952D02*
X124514819Y-144861666D01*
X124514819Y-144861666D02*
X124467200Y-144956904D01*
X124467200Y-144956904D02*
X124419580Y-145004523D01*
D10*
X78866667Y-155609800D02*
X79009524Y-155657419D01*
X79009524Y-155657419D02*
X79247619Y-155657419D01*
X79247619Y-155657419D02*
X79342857Y-155609800D01*
X79342857Y-155609800D02*
X79390476Y-155562180D01*
X79390476Y-155562180D02*
X79438095Y-155466942D01*
X79438095Y-155466942D02*
X79438095Y-155371704D01*
X79438095Y-155371704D02*
X79390476Y-155276466D01*
X79390476Y-155276466D02*
X79342857Y-155228847D01*
X79342857Y-155228847D02*
X79247619Y-155181228D01*
X79247619Y-155181228D02*
X79057143Y-155133609D01*
X79057143Y-155133609D02*
X78961905Y-155085990D01*
X78961905Y-155085990D02*
X78914286Y-155038371D01*
X78914286Y-155038371D02*
X78866667Y-154943133D01*
X78866667Y-154943133D02*
X78866667Y-154847895D01*
X78866667Y-154847895D02*
X78914286Y-154752657D01*
X78914286Y-154752657D02*
X78961905Y-154705038D01*
X78961905Y-154705038D02*
X79057143Y-154657419D01*
X79057143Y-154657419D02*
X79295238Y-154657419D01*
X79295238Y-154657419D02*
X79438095Y-154705038D01*
X79771429Y-154657419D02*
X80009524Y-155657419D01*
X80009524Y-155657419D02*
X80200000Y-154943133D01*
X80200000Y-154943133D02*
X80390476Y-155657419D01*
X80390476Y-155657419D02*
X80628572Y-154657419D01*
X80961905Y-154752657D02*
X81009524Y-154705038D01*
X81009524Y-154705038D02*
X81104762Y-154657419D01*
X81104762Y-154657419D02*
X81342857Y-154657419D01*
X81342857Y-154657419D02*
X81438095Y-154705038D01*
X81438095Y-154705038D02*
X81485714Y-154752657D01*
X81485714Y-154752657D02*
X81533333Y-154847895D01*
X81533333Y-154847895D02*
X81533333Y-154943133D01*
X81533333Y-154943133D02*
X81485714Y-155085990D01*
X81485714Y-155085990D02*
X80914286Y-155657419D01*
X80914286Y-155657419D02*
X81533333Y-155657419D01*
D11*
X32456666Y-151904819D02*
X32456666Y-152619104D01*
X32456666Y-152619104D02*
X32409047Y-152761961D01*
X32409047Y-152761961D02*
X32313809Y-152857200D01*
X32313809Y-152857200D02*
X32170952Y-152904819D01*
X32170952Y-152904819D02*
X32075714Y-152904819D01*
X33456666Y-152904819D02*
X32885238Y-152904819D01*
X33170952Y-152904819D02*
X33170952Y-151904819D01*
X33170952Y-151904819D02*
X33075714Y-152047676D01*
X33075714Y-152047676D02*
X32980476Y-152142914D01*
X32980476Y-152142914D02*
X32885238Y-152190533D01*
X57714819Y-136556904D02*
X58524342Y-136556904D01*
X58524342Y-136556904D02*
X58619580Y-136509285D01*
X58619580Y-136509285D02*
X58667200Y-136461666D01*
X58667200Y-136461666D02*
X58714819Y-136366428D01*
X58714819Y-136366428D02*
X58714819Y-136175952D01*
X58714819Y-136175952D02*
X58667200Y-136080714D01*
X58667200Y-136080714D02*
X58619580Y-136033095D01*
X58619580Y-136033095D02*
X58524342Y-135985476D01*
X58524342Y-135985476D02*
X57714819Y-135985476D01*
X57810057Y-135556904D02*
X57762438Y-135509285D01*
X57762438Y-135509285D02*
X57714819Y-135414047D01*
X57714819Y-135414047D02*
X57714819Y-135175952D01*
X57714819Y-135175952D02*
X57762438Y-135080714D01*
X57762438Y-135080714D02*
X57810057Y-135033095D01*
X57810057Y-135033095D02*
X57905295Y-134985476D01*
X57905295Y-134985476D02*
X58000533Y-134985476D01*
X58000533Y-134985476D02*
X58143390Y-135033095D01*
X58143390Y-135033095D02*
X58714819Y-135604523D01*
X58714819Y-135604523D02*
X58714819Y-134985476D01*
X67414819Y-178495238D02*
X66938628Y-178828571D01*
X67414819Y-179066666D02*
X66414819Y-179066666D01*
X66414819Y-179066666D02*
X66414819Y-178685714D01*
X66414819Y-178685714D02*
X66462438Y-178590476D01*
X66462438Y-178590476D02*
X66510057Y-178542857D01*
X66510057Y-178542857D02*
X66605295Y-178495238D01*
X66605295Y-178495238D02*
X66748152Y-178495238D01*
X66748152Y-178495238D02*
X66843390Y-178542857D01*
X66843390Y-178542857D02*
X66891009Y-178590476D01*
X66891009Y-178590476D02*
X66938628Y-178685714D01*
X66938628Y-178685714D02*
X66938628Y-179066666D01*
X66414819Y-178209523D02*
X67414819Y-177876190D01*
X67414819Y-177876190D02*
X66414819Y-177542857D01*
X67414819Y-176685714D02*
X67414819Y-177257142D01*
X67414819Y-176971428D02*
X66414819Y-176971428D01*
X66414819Y-176971428D02*
X66557676Y-177066666D01*
X66557676Y-177066666D02*
X66652914Y-177161904D01*
X66652914Y-177161904D02*
X66700533Y-177257142D01*
X32966666Y-117054819D02*
X32966666Y-117769104D01*
X32966666Y-117769104D02*
X32919047Y-117911961D01*
X32919047Y-117911961D02*
X32823809Y-118007200D01*
X32823809Y-118007200D02*
X32680952Y-118054819D01*
X32680952Y-118054819D02*
X32585714Y-118054819D01*
X33395238Y-117150057D02*
X33442857Y-117102438D01*
X33442857Y-117102438D02*
X33538095Y-117054819D01*
X33538095Y-117054819D02*
X33776190Y-117054819D01*
X33776190Y-117054819D02*
X33871428Y-117102438D01*
X33871428Y-117102438D02*
X33919047Y-117150057D01*
X33919047Y-117150057D02*
X33966666Y-117245295D01*
X33966666Y-117245295D02*
X33966666Y-117340533D01*
X33966666Y-117340533D02*
X33919047Y-117483390D01*
X33919047Y-117483390D02*
X33347619Y-118054819D01*
X33347619Y-118054819D02*
X33966666Y-118054819D01*
D12*
X146200000Y-139250000D02*
X152400000Y-139250000D01*
X146200000Y-146250000D02*
X146200000Y-139250000D01*
X152400000Y-139250000D02*
X152400000Y-146250000D01*
X152400000Y-139250000D02*
X153200000Y-139250000D01*
X152400000Y-146250000D02*
X146200000Y-146250000D01*
X153200000Y-139250000D02*
X153200000Y-146250000D01*
X153200000Y-146250000D02*
X152400000Y-146250000D01*
D10*
X101400000Y-136500000D02*
X118400000Y-136500000D01*
X101400000Y-156100000D02*
X101400000Y-136500000D01*
X118400000Y-136500000D02*
X118400000Y-156100000D01*
X118400000Y-156100000D02*
X101400000Y-156100000D01*
X103900000Y-138050000D02*
G75*
G02*
X101900000Y-138050000I-1000000J0D01*
G01*
X101900000Y-138050000D02*
G75*
G02*
X103900000Y-138050000I1000000J0D01*
G01*
D13*
X96995000Y-144730000D02*
X96995000Y-144730000D01*
X96995000Y-144730000D02*
X97125000Y-144730000D01*
X96995000Y-147270000D02*
X96995000Y-147270000D01*
X96995000Y-147270000D02*
X97125000Y-147270000D01*
X97125000Y-144290000D02*
X97125000Y-147710000D01*
X97125000Y-144730000D02*
X96995000Y-144730000D01*
X97125000Y-144730000D02*
X97125000Y-144730000D01*
X97125000Y-147270000D02*
X96995000Y-147270000D01*
X97125000Y-147270000D02*
X97125000Y-147270000D01*
X97125000Y-147470000D02*
X98845000Y-147470000D01*
X97125000Y-147590000D02*
X98845000Y-147590000D01*
X97125000Y-147710000D02*
X98845000Y-147710000D01*
X98845000Y-144290000D02*
X97125000Y-144290000D01*
X98845000Y-145040000D02*
X98845000Y-146960000D01*
X98845000Y-146960000D02*
X100245000Y-146960000D01*
X98845000Y-147710000D02*
X98845000Y-144290000D01*
X100245000Y-145040000D02*
X98845000Y-145040000D01*
X100245000Y-146960000D02*
X100245000Y-145040000D01*
X59940000Y-108140000D02*
X66460000Y-108140000D01*
X59940000Y-111040000D02*
X59940000Y-108140000D01*
X61734000Y-111860000D02*
X64666000Y-111860000D01*
X62090000Y-108140000D02*
X64310000Y-108140000D01*
X62090000Y-111860000D02*
X62090000Y-108140000D01*
X62090000Y-111860000D02*
X64310000Y-111860000D01*
X64310000Y-111860000D02*
X64310000Y-108140000D01*
X66460000Y-111040000D02*
X66460000Y-108140000D01*
X58850000Y-155740000D02*
X58850000Y-157390000D01*
X58850000Y-159390000D02*
X58850000Y-161040000D01*
X58850000Y-161040000D02*
X69130000Y-161040000D01*
X69130000Y-155740000D02*
X58850000Y-155740000D01*
X69130000Y-161040000D02*
X69130000Y-155740000D01*
X58850000Y-157390000D02*
G75*
G02*
X58850000Y-159390000I0J-1000000D01*
G01*
X63195000Y-145330000D02*
X63195000Y-145330000D01*
X63195000Y-145330000D02*
X63325000Y-145330000D01*
X63195000Y-147870000D02*
X63195000Y-147870000D01*
X63195000Y-147870000D02*
X63325000Y-147870000D01*
X63325000Y-144890000D02*
X63325000Y-148310000D01*
X63325000Y-145330000D02*
X63195000Y-145330000D01*
X63325000Y-145330000D02*
X63325000Y-145330000D01*
X63325000Y-147870000D02*
X63195000Y-147870000D01*
X63325000Y-147870000D02*
X63325000Y-147870000D01*
X63325000Y-148070000D02*
X65045000Y-148070000D01*
X63325000Y-148190000D02*
X65045000Y-148190000D01*
X63325000Y-148310000D02*
X65045000Y-148310000D01*
X65045000Y-144890000D02*
X63325000Y-144890000D01*
X65045000Y-145640000D02*
X65045000Y-147560000D01*
X65045000Y-147560000D02*
X66445000Y-147560000D01*
X65045000Y-148310000D02*
X65045000Y-144890000D01*
X66445000Y-145640000D02*
X65045000Y-145640000D01*
X66445000Y-147560000D02*
X66445000Y-145640000D01*
X125060000Y-142545000D02*
X125060000Y-144195000D01*
X125060000Y-146195000D02*
X125060000Y-147845000D01*
X125060000Y-147845000D02*
X135340000Y-147845000D01*
X135340000Y-142545000D02*
X125060000Y-142545000D01*
X135340000Y-147845000D02*
X135340000Y-142545000D01*
X125060000Y-144195000D02*
G75*
G02*
X125060000Y-146195000I0J-1000000D01*
G01*
D10*
X71800000Y-136500000D02*
X88800000Y-136500000D01*
X71800000Y-156100000D02*
X71800000Y-136500000D01*
X88800000Y-136500000D02*
X88800000Y-156100000D01*
X88800000Y-156100000D02*
X71800000Y-156100000D01*
X74300000Y-138050000D02*
G75*
G02*
X72300000Y-138050000I-1000000J0D01*
G01*
X72300000Y-138050000D02*
G75*
G02*
X74300000Y-138050000I1000000J0D01*
G01*
D13*
X21890000Y-165950000D02*
X21890000Y-160710000D01*
X21890000Y-171210000D02*
X22160000Y-171060000D01*
X21890000Y-172070000D02*
X21890000Y-171210000D01*
X22280000Y-172710000D02*
X21890000Y-172070000D01*
X22890000Y-172370000D02*
X22280000Y-172710000D01*
X28230000Y-175980000D02*
X28230000Y-180750000D01*
X29730000Y-180750000D02*
X28230000Y-180750000D01*
X29730000Y-180750000D02*
X29730000Y-176680000D01*
X31850000Y-176990000D02*
X31850000Y-178250000D01*
X32530000Y-178450000D02*
X32050000Y-178450000D01*
X32730000Y-176850000D02*
X32730000Y-178250000D01*
X35850000Y-176680000D02*
X35850000Y-176680000D01*
X35850000Y-180750000D02*
X35850000Y-176680000D01*
X37350000Y-178450000D02*
X42690000Y-178450000D01*
X37350000Y-180750000D02*
X35850000Y-180750000D01*
X37350000Y-180750000D02*
X37350000Y-178450000D01*
X43690000Y-171190000D02*
X43690000Y-159830000D01*
X20833311Y-157632431D02*
G75*
G02*
X21890000Y-160710000I-3953304J-3077567D01*
G01*
X20838021Y-157640968D02*
G75*
G02*
X24220000Y-153820000I2051979J1590968D01*
G01*
X22630786Y-169901372D02*
G75*
G02*
X22160000Y-171060000I-950786J-288628D01*
G01*
X22890000Y-172370000D02*
G75*
G02*
X24187798Y-172643832I490000J-890001D01*
G01*
X28163636Y-175820864D02*
G75*
G02*
X28230000Y-175980000I-133632J-149134D01*
G01*
X28470950Y-154219262D02*
G75*
G02*
X43690001Y-159830000I4319051J-11730736D01*
G01*
X28481919Y-154216159D02*
G75*
G02*
X24220000Y-153820000I-1711919J4706162D01*
G01*
X29730000Y-176680000D02*
G75*
G02*
X29921697Y-176470798I210001J0D01*
G01*
X31691582Y-176794370D02*
G75*
G02*
X31850000Y-176990000I-41584J-195631D01*
G01*
X32050000Y-178450000D02*
G75*
G02*
X31850000Y-178250000I1J200001D01*
G01*
X32730000Y-178250000D02*
G75*
G02*
X32530000Y-178450000I-200001J1D01*
G01*
X35650991Y-176470288D02*
G75*
G02*
X35850000Y-176680000I-10991J-209712D01*
G01*
X44741619Y-174252858D02*
G75*
G02*
X42690000Y-178450001I-2051619J-1597142D01*
G01*
X44742470Y-174255283D02*
G75*
G02*
X43690000Y-171190000I3937530J3065283D01*
G01*
X24090000Y-156050000D02*
G75*
G02*
X21690000Y-156050000I-1200000J0D01*
G01*
X21690000Y-156050000D02*
G75*
G02*
X24090000Y-156050000I1200000J0D01*
G01*
X40690000Y-165950000D02*
G75*
G02*
X24890000Y-165950000I-7900000J0D01*
G01*
X24890000Y-165950000D02*
G75*
G02*
X40690000Y-165950000I7900000J0D01*
G01*
X42390000Y-165950000D02*
G75*
G02*
X23190000Y-165950000I-9600000J0D01*
G01*
X23190000Y-165950000D02*
G75*
G02*
X42390000Y-165950000I9600000J0D01*
G01*
X43690000Y-165950000D02*
G75*
G02*
X21890000Y-165950000I-10900000J0D01*
G01*
X21890000Y-165950000D02*
G75*
G02*
X43690000Y-165950000I10900000J0D01*
G01*
X43890000Y-175850000D02*
G75*
G02*
X41490000Y-175850000I-1200000J0D01*
G01*
X41490000Y-175850000D02*
G75*
G02*
X43890000Y-175850000I1200000J0D01*
G01*
X59260000Y-133145000D02*
X59260000Y-134795000D01*
X59260000Y-136795000D02*
X59260000Y-138445000D01*
X59260000Y-138445000D02*
X69540000Y-138445000D01*
X69540000Y-133145000D02*
X59260000Y-133145000D01*
X69540000Y-138445000D02*
X69540000Y-133145000D01*
X59260000Y-134795000D02*
G75*
G02*
X59260000Y-136795000I0J-1000000D01*
G01*
X59140000Y-178610000D02*
X59140000Y-181510000D01*
X61290000Y-177790000D02*
X61290000Y-181510000D01*
X63510000Y-177790000D02*
X61290000Y-177790000D01*
X63510000Y-177790000D02*
X63510000Y-181510000D01*
X63510000Y-181510000D02*
X61290000Y-181510000D01*
X63866000Y-177790000D02*
X60934000Y-177790000D01*
X65660000Y-178610000D02*
X65660000Y-181510000D01*
X65660000Y-181510000D02*
X59140000Y-181510000D01*
X20180000Y-146320000D02*
X20180000Y-122080000D01*
X23680000Y-118580000D02*
X42920000Y-118580000D01*
X23680000Y-149820000D02*
X42920000Y-149820000D01*
X46420000Y-146320000D02*
X46420000Y-122080000D01*
X20180000Y-122080000D02*
G75*
G02*
X23920000Y-118580000I3620000J-120000D01*
G01*
X23680000Y-149820000D02*
G75*
G02*
X20180000Y-146080000I120000J3620000D01*
G01*
X42920000Y-118580000D02*
G75*
G02*
X46420000Y-122320000I-120000J-3620000D01*
G01*
X46420000Y-146320000D02*
G75*
G02*
X42680000Y-149820000I-3620000J120000D01*
G01*
X25550000Y-122200000D02*
G75*
G02*
X22050000Y-122200000I-1750000J0D01*
G01*
X22050000Y-122200000D02*
G75*
G02*
X25550000Y-122200000I1750000J0D01*
G01*
X45100000Y-134200000D02*
G75*
G02*
X21500000Y-134200000I-11800000J0D01*
G01*
X21500000Y-134200000D02*
G75*
G02*
X45100000Y-134200000I11800000J0D01*
G01*
X44550000Y-146200000D02*
G75*
G02*
X41050000Y-146200000I-1750000J0D01*
G01*
X41050000Y-146200000D02*
G75*
G02*
X44550000Y-146200000I1750000J0D01*
G01*
M02*
