%TF.GenerationSoftware,KiCad,Pcbnew,9.0.2*%
%TF.CreationDate,2025-12-26T22:19:25-06:00*%
%TF.ProjectId,DE_circuits,44455f63-6972-4637-9569-74732e6b6963,rev?*%
%TF.SameCoordinates,Original*%
%TF.FileFunction,Drillmap*%
%TF.FilePolarity,Positive*%
%FSLAX45Y45*%
G04 Gerber Fmt 4.5, Leading zero omitted, Abs format (unit mm)*
G04 Created by KiCad (PCBNEW 9.0.2) date 2025-12-26 22:19:25*
%MOMM*%
%LPD*%
G01*
G04 APERTURE LIST*
%ADD10C,0.200000*%
G04 APERTURE END LIST*
D10*
X1820000Y-10700000D02*
X15560000Y-10700000D01*
X15560000Y-19020000D01*
X1820000Y-19020000D01*
X1820000Y-10700000D01*
X2640000Y-11193136D02*
G75*
G02*
X1960000Y-11193136I-340000J0D01*
G01*
X1960000Y-11193136D02*
G75*
G02*
X2640000Y-11193136I340000J0D01*
G01*
X15420000Y-11200000D02*
G75*
G02*
X14740000Y-11200000I-340000J0D01*
G01*
X14740000Y-11200000D02*
G75*
G02*
X15420000Y-11200000I340000J0D01*
G01*
X15420000Y-18540000D02*
G75*
G02*
X14740000Y-18540000I-340000J0D01*
G01*
X14740000Y-18540000D02*
G75*
G02*
X15420000Y-18540000I340000J0D01*
G01*
X2640000Y-18540000D02*
G75*
G02*
X1960000Y-18540000I-340000J0D01*
G01*
X1960000Y-18540000D02*
G75*
G02*
X2640000Y-18540000I340000J0D01*
G01*
X2070777Y-19341484D02*
X2070777Y-19141484D01*
X2070777Y-19141484D02*
X2118396Y-19141484D01*
X2118396Y-19141484D02*
X2146967Y-19151008D01*
X2146967Y-19151008D02*
X2166015Y-19170055D01*
X2166015Y-19170055D02*
X2175539Y-19189103D01*
X2175539Y-19189103D02*
X2185063Y-19227198D01*
X2185063Y-19227198D02*
X2185063Y-19255770D01*
X2185063Y-19255770D02*
X2175539Y-19293865D01*
X2175539Y-19293865D02*
X2166015Y-19312912D01*
X2166015Y-19312912D02*
X2146967Y-19331960D01*
X2146967Y-19331960D02*
X2118396Y-19341484D01*
X2118396Y-19341484D02*
X2070777Y-19341484D01*
X2270777Y-19341484D02*
X2270777Y-19208150D01*
X2270777Y-19246246D02*
X2280301Y-19227198D01*
X2280301Y-19227198D02*
X2289824Y-19217674D01*
X2289824Y-19217674D02*
X2308872Y-19208150D01*
X2308872Y-19208150D02*
X2327920Y-19208150D01*
X2394586Y-19341484D02*
X2394586Y-19208150D01*
X2394586Y-19141484D02*
X2385063Y-19151008D01*
X2385063Y-19151008D02*
X2394586Y-19160531D01*
X2394586Y-19160531D02*
X2404110Y-19151008D01*
X2404110Y-19151008D02*
X2394586Y-19141484D01*
X2394586Y-19141484D02*
X2394586Y-19160531D01*
X2518396Y-19341484D02*
X2499348Y-19331960D01*
X2499348Y-19331960D02*
X2489824Y-19312912D01*
X2489824Y-19312912D02*
X2489824Y-19141484D01*
X2623158Y-19341484D02*
X2604110Y-19331960D01*
X2604110Y-19331960D02*
X2594586Y-19312912D01*
X2594586Y-19312912D02*
X2594586Y-19141484D01*
X2851729Y-19341484D02*
X2851729Y-19141484D01*
X2851729Y-19141484D02*
X2918396Y-19284341D01*
X2918396Y-19284341D02*
X2985062Y-19141484D01*
X2985062Y-19141484D02*
X2985062Y-19341484D01*
X3166015Y-19341484D02*
X3166015Y-19236722D01*
X3166015Y-19236722D02*
X3156491Y-19217674D01*
X3156491Y-19217674D02*
X3137443Y-19208150D01*
X3137443Y-19208150D02*
X3099348Y-19208150D01*
X3099348Y-19208150D02*
X3080301Y-19217674D01*
X3166015Y-19331960D02*
X3146967Y-19341484D01*
X3146967Y-19341484D02*
X3099348Y-19341484D01*
X3099348Y-19341484D02*
X3080301Y-19331960D01*
X3080301Y-19331960D02*
X3070777Y-19312912D01*
X3070777Y-19312912D02*
X3070777Y-19293865D01*
X3070777Y-19293865D02*
X3080301Y-19274817D01*
X3080301Y-19274817D02*
X3099348Y-19265293D01*
X3099348Y-19265293D02*
X3146967Y-19265293D01*
X3146967Y-19265293D02*
X3166015Y-19255770D01*
X3261253Y-19208150D02*
X3261253Y-19408150D01*
X3261253Y-19217674D02*
X3280301Y-19208150D01*
X3280301Y-19208150D02*
X3318396Y-19208150D01*
X3318396Y-19208150D02*
X3337443Y-19217674D01*
X3337443Y-19217674D02*
X3346967Y-19227198D01*
X3346967Y-19227198D02*
X3356491Y-19246246D01*
X3356491Y-19246246D02*
X3356491Y-19303389D01*
X3356491Y-19303389D02*
X3346967Y-19322436D01*
X3346967Y-19322436D02*
X3337443Y-19331960D01*
X3337443Y-19331960D02*
X3318396Y-19341484D01*
X3318396Y-19341484D02*
X3280301Y-19341484D01*
X3280301Y-19341484D02*
X3261253Y-19331960D01*
X3442205Y-19322436D02*
X3451729Y-19331960D01*
X3451729Y-19331960D02*
X3442205Y-19341484D01*
X3442205Y-19341484D02*
X3432682Y-19331960D01*
X3432682Y-19331960D02*
X3442205Y-19322436D01*
X3442205Y-19322436D02*
X3442205Y-19341484D01*
X3442205Y-19217674D02*
X3451729Y-19227198D01*
X3451729Y-19227198D02*
X3442205Y-19236722D01*
X3442205Y-19236722D02*
X3432682Y-19227198D01*
X3432682Y-19227198D02*
X3442205Y-19217674D01*
X3442205Y-19217674D02*
X3442205Y-19236722D01*
M02*
